<?xml version="1.0" encoding="UTF-8"?>
<!-- Created with Grafika (https://www.grafika.cc/) -->
<svg xmlns="http://www.w3.org/2000/svg" xmlns:svg="http://www.w3.org/2000/svg" xmlns:xlink="http://www.w3.org/1999/xlink" width="5329.13" height="3855.12" viewBox="0 0 1776.38 1285.04" preserveAspectRatio="xMidYMid meet">
	<rect x="0" y="0" width="1776.38" height="1285.04" fill="#FFFFFF" />
	<g id="グループ 12" transform="matrix(0.9391663074493408, 0, 0, 0.9586331844329834, 171.1683349609375, 296.79974365234375)">
		<path d="M-123.41,-233.41 L324.14,-233.41 L324.14,179.07 L-123.41,179.07 L-123.41,-233.41 Z" style="fill:#3A86FF;" />
		<g id="グループ2" transform="matrix(1, 0, 0, 1.0256980657577515, 164.27957153320312, 79.8531494140625)">
			<path transform="matrix(3.233937978744507, 0, 0, 3.233937978744507, 15.004813194274902, 10.778138160705566)" d="M32.06,-2.81 Q27.96,-3.63 24.29,-4.64 Q20.62,-5.65 17.27,-6.96 Q13.8,-5.53 9.78,-4.42 Q5.78,-3.3 1.32,-2.49 L-1.17,-5.61 Q2.74,-6.06 6.34,-6.86 Q9.95,-7.66 13.12,-8.81 Q9.08,-10.74 5.72,-13.21 Q4.55,-12.34 3.4,-11.56 Q2.24,-10.78 1,-10.08 L-2.35,-12.75 Q1.12,-14.48 4.14,-16.86 Q7.16,-19.24 9.01,-21.95 L14.04,-21.25 Q12.92,-19.77 11.43,-18.17 L33.06,-18.17 L33.06,-15.13 L29.01,-15.13 Q26.16,-11.56 21.18,-8.85 Q27.34,-6.8 34.29,-5.85 L32.06,-2.81 ZM31.75,13.37 Q28.21,11.64 24.98,9.49 Q21.75,7.32 19.38,4.91 L19.38,15.25 L14.42,15.25 L14.42,4.99 Q11.61,7.69 8.2,9.77 Q4.79,11.84 1.12,13.37 L-1.99,10.53 Q2.49,9.14 6.12,7.19 Q9.76,5.24 12.37,2.89 L0.13,2.89 L0.13,-0.27 L14.42,-0.27 L14.42,-4.22 L19.38,-4.22 L19.38,-0.27 L33.06,-0.27 L33.06,2.89 L21.06,2.89 Q22.37,4 24,5.08 Q25.66,6.14 27.46,7.12 Q29.27,8.1 31.19,8.99 Q33.12,9.87 34.85,10.57 L31.75,13.37 ZM8.89,-15.13 Q10.69,-13.82 12.77,-12.63 Q14.84,-11.43 17.21,-10.45 Q19.38,-11.52 21.06,-12.69 Q22.75,-13.86 23.79,-15.13 L8.89,-15.13 Z" style="fill:#FFFFFF;" />
			<path transform="matrix(1.012826919555664, 0, 0, 1.012826919555664, -64.66592407226562, -224.54640197753906)" d="M-184.37,39.6 Q-186.42,39.6 -188.19,38.85 Q-189.93,38.07 -189.93,36.09 Q-189.93,34.22 -188.34,33.16 Q-186.73,32.08 -184.43,31.39 Q-181.41,30.46 -178.96,28.66 Q-176.47,26.85 -174.64,22.63 Q-171.06,14.45 -168.11,7.37 Q-165.13,0.28 -162.46,-6.59 Q-159.78,-13.49 -156.92,-20.91 Q-154.03,-28.34 -150.86,-37.08 Q-150.24,-38.82 -149.78,-40.46 Q-149.31,-42.14 -149.09,-45.22 Q-146.79,-46 -145.77,-46.34 Q-144.71,-46.68 -143.78,-47.3 Q-143.19,-47.71 -142.81,-49.04 Q-142.41,-50.41 -141.76,-51.31 Q-140.98,-52.09 -139.83,-52.09 Q-138.68,-52.09 -138.03,-50.78 Q-137.69,-50.1 -137.47,-49.26 Q-137.25,-48.45 -137.03,-47.74 Q-133.99,-38.04 -130.69,-28 Q-127.37,-17.96 -124.26,-8.61 Q-121.12,0.75 -118.51,8.21 Q-115.9,15.64 -114.38,20.23 Q-112.73,25.02 -110.93,27.26 Q-109.12,29.47 -107.2,30.37 Q-105.24,31.24 -102.94,31.7 Q-100.33,32.2 -98.77,33.44 Q-97.22,34.69 -97.22,36.49 Q-97.22,38.7 -99.08,39.13 Q-100.92,39.6 -102.78,39.6 Q-104.62,39.6 -107.69,39.41 Q-110.77,39.22 -114.19,39.04 Q-117.61,38.85 -120.47,38.85 Q-122.89,38.85 -125.44,38.85 Q-127.96,38.85 -130.13,38.91 Q-132.28,38.98 -133.83,38.98 Q-135.85,38.98 -137.62,38.29 Q-139.39,37.61 -139.39,35.59 Q-139.39,33.54 -137.47,32.57 Q-135.54,31.61 -133.61,31.33 Q-129.95,30.77 -128.7,29.68 Q-127.43,28.6 -127.43,27.45 Q-127.43,25.74 -128.24,22.26 Q-129.01,18.74 -130.16,14.64 Q-131.28,10.54 -132.34,7.31 Q-132.28,7.24 -132.37,7.27 Q-132.43,7.27 -133.96,7.27 L-158.04,7.27 Q-158.04,6.84 -158.07,7.15 Q-158.1,7.43 -158.42,8.27 Q-158.79,9.54 -159.69,12.28 Q-160.59,15.01 -161.46,18.06 Q-162.33,21.07 -162.95,23.37 Q-163.54,25.64 -163.54,26.05 Q-163.54,27.97 -161.9,29.4 Q-160.22,30.83 -157.58,31.49 Q-151.95,33.01 -151.95,35.84 Q-151.95,38.01 -153.78,38.57 Q-155.59,39.1 -157.51,39.1 Q-159.19,39.1 -162.39,38.98 Q-165.56,38.85 -169.11,38.85 Q-173.21,38.85 -177.16,39.22 Q-181.1,39.6 -184.37,39.6 ZM-154.59,-0.65 L-134.86,-0.65 Q-133.74,0.56 -134.95,0.56 Q-134.95,0.5 -134.98,0.34 Q-135.01,0.16 -135.11,-0.15 L-145.02,-31.17 Q-144.4,-33.53 -144.4,-32.2 Q-144.4,-33.72 -143.68,-31.23 L-155.25,-0.09 Q-155.68,0.31 -155.4,0.31 Q-156.49,0.31 -156.12,-0.15 Q-155.71,-0.65 -154.59,-0.65 ZM-85.84,39.35 Q-87.55,39.35 -88.92,38.7 Q-90.25,38.01 -90.25,36.09 Q-90.25,33.82 -88.85,33.26 Q-87.46,32.67 -85.96,32.26 Q-84.01,31.73 -83.26,30.99 Q-82.48,30.21 -82.48,29.22 L-82.48,1.84 Q-82.48,-1.21 -83.26,-3.14 Q-84.04,-5.06 -86.24,-5.5 Q-87.46,-5.81 -88.23,-6.8 Q-88.98,-7.83 -88.98,-8.98 Q-88.98,-11.75 -86.43,-12.31 Q-83.38,-13.27 -79.87,-15.16 Q-76.33,-17.09 -74.37,-18.33 Q-73.47,-18.89 -72.79,-19.17 Q-72.1,-19.48 -71.45,-19.48 Q-68.96,-19.48 -68.96,-16.75 Q-68.96,-16.31 -69.03,-14.76 Q-69.09,-13.24 -69.15,-11.19 Q-69.21,-9.14 -69.34,-7.12 Q-70.95,-7.18 -71.2,-7.46 Q-70.24,-10.81 -67.6,-12.86 Q-64.92,-14.92 -62.03,-16.19 Q-59.14,-17.46 -56.31,-17.46 Q-53.08,-17.46 -50.72,-15.88 Q-48.33,-14.29 -48.33,-11.53 Q-48.33,-9.85 -49.2,-7.95 Q-50.04,-6.09 -51.59,-4.57 Q-53.11,-3.04 -55.16,-3.04 Q-56.25,-3.04 -57.37,-3.42 Q-58.46,-3.82 -59.48,-4.35 Q-60.42,-4.69 -61.29,-5 Q-62.13,-5.31 -62.81,-5.31 Q-65.23,-5.31 -67.5,-3.6 Q-69.74,-1.92 -69.74,3.51 L-69.74,29.22 Q-69.74,29.81 -68.5,30.58 Q-67.25,31.33 -64.3,32.26 Q-62.75,32.7 -61.41,33.38 Q-60.04,34.07 -60.04,36.09 Q-60.04,39.35 -64.46,39.35 Q-68.43,39.35 -70.42,39.04 Q-72.38,38.73 -75.55,38.73 Q-77.6,38.73 -78.88,38.85 Q-80.15,38.98 -81.67,39.16 Q-83.17,39.35 -85.84,39.35 ZM-17.87,40.75 Q-24.93,40.75 -28.97,36.37 Q-32.98,31.98 -32.98,23.75 L-32.98,-5.78 Q-32.92,-5.78 -33.04,-5.81 Q-33.13,-5.84 -35.19,-5.84 L-35.93,-5.84 Q-37.7,-5.84 -38.54,-7.36 Q-39.35,-8.89 -39.35,-10.25 Q-39.35,-11.12 -38.73,-11.93 Q-38.11,-12.77 -37.8,-13.08 Q-35.19,-14.92 -33.17,-16.63 Q-31.11,-18.37 -29.44,-20.01 Q-27.76,-21.66 -26.64,-23.06 Q-25.95,-23.77 -25.24,-24.49 Q-24.49,-25.23 -23.1,-25.23 Q-22.04,-25.23 -20.64,-24.58 Q-19.21,-23.93 -19.61,-21.69 L-20.21,-16.03 Q-20.24,-15.76 -20.17,-15.69 Q-20.11,-15.66 -19.02,-15.66 L-4.51,-15.66 Q-2.77,-15.66 -2.09,-14.11 Q-1.37,-12.55 -1.37,-11 Q-1.37,-9.54 -2.02,-7.67 Q-2.65,-5.84 -4.51,-5.84 L-17.1,-5.84 Q-19.83,-5.84 -20.08,-5.69 Q-20.33,-5.56 -20.33,-4.13 L-20.33,20.95 Q-20.33,25.43 -18.65,27.72 Q-16.94,30.02 -13.8,30.02 Q-10.35,30.02 -8.61,29.53 Q-6.84,29.03 -5.54,28.13 Q-4.82,27.48 -3.86,27.48 Q-1.99,27.48 -1.56,28.84 Q-1.12,30.21 -1.12,31.11 Q-1.12,32.6 -3.64,34.87 Q-6.13,37.14 -9.82,38.94 Q-13.49,40.75 -17.87,40.75 ZM11.27,39.35 Q9.72,39.35 8.29,38.73 Q6.86,38.07 6.86,36.09 Q6.86,33.79 8.48,33.16 Q10.09,32.54 11.24,32.26 Q13.57,31.67 14.41,31.11 Q15.28,30.52 15.28,29.22 L15.28,1.59 Q15.28,-1.43 14.35,-3.45 Q13.45,-5.5 11.06,-5.87 Q9.78,-6.12 9.01,-6.99 Q8.26,-7.86 8.26,-9.35 Q8.26,-12.43 10.96,-12.71 Q15.66,-13.77 18.8,-15.63 Q21.94,-17.53 23.49,-18.71 Q25.14,-20.01 26.44,-20.01 Q29.05,-20.01 29.05,-17.5 Q29.05,-16.38 28.74,-13.36 Q28.43,-10.35 28.15,-6.74 Q27.9,-3.17 27.9,-0.31 L27.9,29.22 Q27.9,30.4 28.83,31.05 Q29.77,31.7 31.97,32.26 Q33.09,32.54 34.71,33.16 Q36.33,33.79 36.33,36.09 Q36.33,39.35 31.91,39.35 Q29.36,39.35 27.84,39.16 Q26.35,38.98 25.07,38.85 Q23.8,38.73 21.59,38.73 Q19.51,38.73 18.17,38.85 Q16.84,38.98 15.38,39.16 Q13.95,39.35 11.27,39.35 ZM21.47,-26.73 Q18.02,-26.73 15.63,-29.09 Q13.23,-31.48 13.23,-34.93 Q13.23,-38.51 15.63,-40.9 Q18.02,-43.29 21.47,-43.29 Q25.04,-43.29 27.44,-40.9 Q29.83,-38.51 29.83,-34.93 Q29.83,-31.48 27.44,-29.09 Q25.04,-26.73 21.47,-26.73 ZM71.61,40.87 Q64.74,40.87 59.11,37.36 Q53.52,33.85 50.29,27.76 Q47.09,21.66 47.09,14.21 Q47.09,5.44 50.94,-1.71 Q54.79,-8.89 61.32,-13.18 Q67.88,-17.46 75.84,-17.46 Q84.69,-17.46 91.44,-12.65 Q93.74,-10.94 93.74,-8.73 Q93.74,-7.12 92.56,-5.44 Q91.38,-3.79 89.73,-2.7 Q88.08,-1.65 86.4,-1.65 Q85.16,-1.65 84.29,-2.24 Q83.42,-2.86 82.64,-3.42 Q79.88,-5.5 76.71,-7.24 Q73.54,-9.01 71.76,-9.01 Q66.51,-9.01 63.06,-3.85 Q59.61,1.28 59.61,10.13 Q59.61,15.64 61.97,20.05 Q64.37,24.46 68.35,27.01 Q72.32,29.53 77.11,29.53 Q80.37,29.53 82.7,28.47 Q85.03,27.41 87.83,24.65 Q88.3,24.15 89.01,23.78 Q89.76,23.4 90.47,23.4 Q93.74,23.4 93.74,27.04 Q93.74,28.25 93.15,29.5 Q92.56,30.71 91.41,32.14 Q89.2,34.94 86.15,36.96 Q83.11,38.98 79.44,39.91 Q75.8,40.87 71.61,40.87 ZM108.93,39.35 Q108.09,39.35 106.29,38.98 Q104.52,38.63 104.52,36.33 Q104.52,34.16 106.04,33.44 Q107.56,32.73 108.68,32.29 Q110.51,31.67 111.7,31.14 Q112.91,30.58 112.91,29.22 L112.91,-34.93 Q112.91,-38.16 111.88,-40.06 Q110.89,-41.96 108.49,-42.42 Q106.04,-43.07 106.04,-45.9 Q106.04,-48.61 108.34,-49.23 Q111.6,-49.97 113.93,-50.78 Q116.26,-51.59 118.35,-52.46 Q120.46,-53.36 122.42,-54.08 Q123.19,-54.51 123.94,-54.51 Q125.21,-54.51 125.84,-53.52 Q126.46,-52.52 126.46,-51.75 Q126.46,-50.47 125.99,-46.71 Q125.56,-42.95 125.56,-34.43 L125.56,29.22 Q125.56,30.58 126.74,31.14 Q127.95,31.67 129.78,32.29 Q130.9,32.73 132.43,33.44 Q133.95,34.16 133.95,36.33 Q133.95,38.63 132.15,38.98 Q130.37,39.35 129.54,39.35 Q126.99,39.35 125.46,39.16 Q123.97,38.98 122.7,38.85 Q121.42,38.73 119.25,38.73 Q117.17,38.73 115.83,38.85 Q114.49,38.98 113.03,39.16 Q111.6,39.35 108.93,39.35 ZM169.25,40.87 Q161.7,40.87 156.01,37.14 Q150.35,33.41 147.21,26.7 Q144.1,19.96 144.1,11.28 Q144.1,3.39 147.71,-3.04 Q151.32,-9.51 157.31,-13.49 Q163.34,-17.46 170.52,-17.46 Q176.09,-17.46 180.44,-15.2 Q184.82,-12.96 187.34,-8.86 Q189.85,-4.78 189.85,0.44 Q189.85,6.25 184.17,6.25 L157.28,6.25 Q156.47,6.25 156.23,6.59 Q155.98,6.9 155.98,9.11 Q155.98,14.73 158.43,19.36 Q160.89,24 164.9,26.7 Q168.94,29.4 173.72,29.4 Q177.11,29.4 179.85,28.1 Q182.61,26.79 184.76,24.31 Q185.41,23.56 185.97,23.09 Q186.56,22.63 187.58,22.63 Q190.48,22.63 190.48,25.77 Q190.48,28.84 187.77,32.26 Q185.69,34.94 182.77,36.89 Q179.88,38.82 176.43,39.85 Q172.98,40.87 169.25,40.87 ZM157.56,-1.43 L169.12,-1.43 Q172.14,-1.43 174.22,-1.55 Q176.3,-1.68 178.2,-2.02 Q178.35,-1.21 178.01,-1.58 Q177.7,-1.96 177.7,-2.98 Q177.7,-5.78 175.06,-7.89 Q172.42,-10.04 168.63,-10.04 Q166.2,-10.04 163.65,-8.51 Q161.11,-7.02 159.49,-4.88 Q157.87,-2.76 157.87,-0.84 Q157.28,-0.84 157.56,-1.43 Z" style="fill:#FFFFFF;" />
		</g>
	</g>
	<g transform="matrix(1.9753413200378418, 0, 0, 1.9753413200378418, 787.1399536132812, 205.73056030273438)">
		<path d="M-53.19,-44.28 L-41.21,-44.28 L-47.45,-46.65 L-53.19,-44.28 ZM-34.47,-0.96 L-34.47,2.04 L-32.22,2.04 L-32.22,-0.96 L-34.47,-0.96 ZM-56.57,-0.96 L-58.94,-0.96 L-58.94,2.04 L-56.57,2.04 L-56.57,-0.96 ZM-29.85,-21.68 L-7.75,-21.68 L-7.75,22.14 L-32.72,22.14 L-3.51,26.88 L-15.37,55.84 L-46.2,42.98 L-82.03,55.84 L-90.89,27.5 L-62.56,22.14 L-83.16,22.26 L-83.16,11.4 L-88.27,15.52 L-91.39,6.53 L-91.02,55.59 L-121.48,55.59 L-120.86,20.14 L-124.6,31.5 L-130.34,-4.95 L-123.23,-27.92 L-130.09,-27.42 L-130.09,-53.64 L-120.86,-53.14 L-121.35,-70.74 L-90.89,-70.74 L-91.39,-53.14 L-87.27,-53.64 L-87.9,-62.88 L-47.08,-70.87 L-3.01,-63.5 L-5.51,-24.43 L-10.63,-27.8 L-10.63,-23.05 L-29.85,-23.55 L-29.85,-21.68 ZM-61.93,-21.68 L-61.93,-23.55 L-80.16,-23.05 L-80.03,-27.8 L-84.9,-23.93 L-85.15,-27.92 L-88.9,-27.92 L-83.16,-9.07 L-82.91,-21.68 L-61.93,-21.68 ZM31.44,-14.82 L31.44,38.99 L39.18,26.26 L32.81,26.26 L32.81,-8.45 L38.8,-8.45 L36.56,-13.69 L53.16,-14.82 L31.44,-14.82 ZM31.44,-35.16 L31.44,-33.04 L37.81,-33.04 L37.81,-35.16 L31.44,-35.16 ZM31.44,-48.77 L37.81,-48.77 L37.81,-50.64 L31.44,-50.64 L31.44,-48.77 ZM100.6,-14.82 L79,-14.82 L95.48,-13.82 L93.36,-8.45 L99.22,-8.45 L99.22,26.26 L88.61,26.26 L88.61,32.37 L89.49,32.37 L89.74,27.13 L100.22,27.63 L99.72,30.75 L100.6,30.75 L100.6,-14.82 ZM100.6,-35.16 L94.23,-35.16 L94.23,-33.04 L100.6,-33.04 L100.6,-35.16 ZM100.6,-48.77 L100.6,-50.64 L94.23,-50.64 L94.23,-48.77 L100.6,-48.77 ZM72.88,9.65 L72.88,8.15 L59.15,8.15 L59.15,9.65 L72.88,9.65 ZM31.44,56.09 L3.23,56.09 L3.23,-68.99 L65.14,-68.99 L65.14,-14.82 L62.65,-14.82 L63.65,-8.45 L68.39,-8.45 L69.51,-14.82 L66.89,-14.82 L66.89,-68.99 L128.81,-68.99 L128.81,55.59 L88.86,55.47 L88.99,52.72 L64.77,52.72 L64.77,26.26 L62.65,26.26 L59.4,53.72 L31.44,48.6 L31.44,56.09 Z" fill="#8338EC" />
	</g>
	<g id="グループ 32" transform="matrix(1.0471129417419434, 0, 0, 1.0471129417419434, 1010.4908447265625, 552.0696411132812)">
		<g transform="matrix(3.511836290359497, 0, 0, 3.511836290359497, -665.754150390625, 185.3748321533203)">
			<path d="M-29.18,-3.06 L-30.59,-3.06 L-30.59,-1.99 L-29.18,-1.99 L-29.18,-3.06 ZM-17.99,-2.93 L-17.99,-1.86 L-16.51,-1.86 L-16.51,-2.93 L-17.99,-2.93 ZM-29.18,-10.64 L-29.18,-11.71 L-30.59,-11.71 L-30.59,-10.64 L-29.18,-10.64 ZM-17.99,-10.51 L-16.51,-10.51 L-16.51,-11.71 L-17.92,-11.71 L-17.99,-10.51 ZM-24.29,-21.77 L-21.47,-24.52 L-27.04,-24.52 L-24.29,-21.77 ZM-45.82,-22.18 L-55.81,-13.93 L-68.75,-25.86 L-56.28,-37.6 L-45.82,-22.18 ZM-46.42,-24.52 L-46.42,-37.33 L-1.62,-37.33 L-1.69,-26.13 L-6.65,-20.23 L-1.69,-20.23 L-1.76,15.85 L-17.25,15.04 L-17.45,6.59 L-16.51,6.66 L-16.51,5.59 L-17.99,5.59 L-17.78,15.18 L-29.45,15.18 L-29.18,5.59 L-30.59,5.59 L-30.59,15.11 L-43.33,15.18 L-0.42,16.12 L-0.68,30.13 L-59.16,28.39 L-66.27,30.06 L-68.62,12.7 L-63.12,11.96 L-63.12,1.9 L-68.48,2.1 L-68.48,-13.86 L-46.75,-13.59 L-46.75,14.84 L-45.35,14.98 L-45.35,-20.3 L-40.79,-20.23 L-43.4,-22.98 L-40.38,-24.52 L-46.42,-24.52 ZM21.71,-16.74 L21.91,29.93 L5.08,29.93 L5.42,11.56 L3.81,20.54 L2.6,-7.36 L8.43,-37.87 L26.81,-36.06 L24.26,-26.74 L70.73,-26.67 L70.73,-15.2 L22.45,-15.2 L22.45,-21.17 L21.71,-16.74 ZM24.86,29.93 L24.86,4.51 L67.71,4.51 L67.71,29.93 L24.86,29.93 ZM28.15,-27.34 L28.15,-37.2 L66.91,-37.2 L66.91,-27.34 L28.15,-27.34 ZM26.4,-5.61 L26.4,-14.66 L66.31,-14.66 L66.31,-5.61 L26.4,-5.61 ZM26.4,4.05 L26.4,-5.08 L66.31,-5.08 L66.31,4.05 L26.4,4.05 ZM50.95,18.13 L50.95,16.25 L41.76,16.25 L41.76,18.13 L50.95,18.13 Z" fill="#8338EC" />
		</g>
		<g transform="matrix(3.511836290359497, 0, 0, 3.511836290359497, -7.363149642944336, 288.4729919433594)">
			<path d="M-44.65,-3.13 L-44.39,-4.74 L-46.73,-5.01 L-44.65,-3.13 ZM-44.05,14.04 L-47.27,10.75 L-47,17.32 L-44.05,14.04 ZM-35.73,5.52 L-35.73,1.97 L-37.68,8.34 L-35.73,5.52 ZM-14.75,-0.85 L-20.78,9.21 L-20.78,16.18 L-17.56,16.18 L-17.36,7.13 L-14.01,7.4 L-14.75,-0.85 ZM-39.49,-26.2 L-35,-37.87 L-15.75,-32.84 L-18.63,-23.25 L-14.07,-33.91 L-0.26,-23.58 L-6.16,-14.53 L-0.86,-14.73 L-0.33,18.6 L-3.88,19 L-4.48,29.93 L-35.4,29.93 L-35.27,25.97 L-38.42,29.93 L-47,22.42 L-46.73,29.93 L-63.9,29.93 L-63.63,16.79 L-67.59,25.57 L-68.79,4.58 L-63.7,-5.01 L-68.12,-4.74 L-68.12,-19.63 L-63.63,-19.36 L-63.63,-21.64 L-67.59,-21.3 L-68.33,-36.32 L-42.84,-37.93 L-41.37,-23.38 L-47,-22.85 L-47,-19.36 L-41.43,-19.63 L-41.43,-13.86 L-35.73,-12.79 L-36,-21.3 L-27.89,-21.3 L-39.49,-26.2 ZM-21.05,-19.22 L-21.32,-17.08 L-20.51,-18.96 L-21.05,-19.22 ZM18.92,-3.47 L18.92,-6.62 L17.98,-3.2 L18.92,-3.47 ZM23.68,-19.43 L24.88,-21.5 L20.39,-21.5 L20.39,-19.43 L23.68,-19.43 ZM52.04,-4.81 L50.37,-7.02 L53.38,-10.24 L47.15,-5.08 L52.04,-4.81 ZM34.88,-10.78 L33.47,-11.58 L33.47,-9.23 L34.88,-10.78 ZM38.1,-13.66 L44.87,-21.5 L38.3,-21.5 L41.85,-19.29 L38.1,-13.66 ZM52.24,11.29 L69.75,11.29 L69.48,29.8 L4.57,29.8 L4.3,11.96 L7.78,11.96 L2.96,0.36 L9.39,-1.19 L2.96,-3.87 L7.85,-12.52 L3.22,-12.52 L3.22,-34.51 L27.3,-34.51 L27.03,-38 L47.01,-38 L46.75,-34.51 L70.82,-34.51 L70.82,-12.52 L66.26,-12.52 L71.09,1.09 L61.43,9.95 L59.55,7 L59.29,10.08 L19.12,9.95 L19.12,8.4 L12.28,11.96 L21.8,11.96 L21.53,16.85 L28.37,16.85 L28.1,10.55 L45.94,10.55 L45.67,16.85 L52.51,16.85 L52.24,11.29 ZM53.65,-21.5 L48.29,-21.5 L53.59,-17.21 L53.65,-21.5 ZM43.46,-1.59 L45.94,-1.59 L46.14,-4.14 L43.46,-1.59 Z" fill="#8338EC" />
		</g>
		<g transform="matrix(1.9149365425109863, 0, 0, 1.9149365425109863, -338.7872619628906, 227.80401611328125)">
			<path d="M8.27,-17.95 L3.18,27.38 L-16.13,27.92 L-34.64,17.73 L-30.89,-31.09 L-3.26,-36.46 L26.25,-31.9 L33.49,-5.88 L28.66,22.82 L9.35,28.45 L5.32,9.68 L13.1,8.34 L16.32,-5.08 L12.83,-16.88 L8.27,-17.95 ZM-12.11,11.56 L-8.89,-18.22 L-14.53,-16.88 L-16.67,8.87 L-12.11,11.56 Z" fill="#8338EC" />
		</g>
	</g>
	<g id="グループ 22">
		<g transform="matrix(4.490446090698242, 0, 0, 4.490446090698242, 222.434814453125, 1068.009521484375)">
			<path d="M-5.66,2.84 L15.4,2.84 L15.4,1.9 L-5.66,1.9 L-5.66,2.84 ZM6.15,14.98 L8.76,13.23 L3.93,13.23 L6.15,14.98 ZM-12.56,17.39 L-15.85,15.85 L-9.81,13.23 L-16.99,13.23 L-16.99,8.27 L-18.67,8.27 L-18.4,17.86 L-12.56,17.39 ZM29.35,-8.43 L-14.31,-8.43 L-14.31,-17.82 L12.18,-17.82 L12.18,-18.55 L-13.1,-18.29 L-13.1,-27.14 L12.18,-26.87 L12.18,-27.47 L-13.77,-27.47 L-13.77,-37.13 L29.35,-37.13 L29.35,-8.43 ZM31.36,17.93 L27.87,29.93 L6.21,26.24 L-15.71,29.93 L-18.4,21.82 L-18.13,29.93 L-35.23,29.93 L-34.96,12.43 L-36.3,16.92 L-37.17,-9.37 L-33.42,-38.07 L-14.31,-35.79 L-18.93,-17.55 L-18.67,-7.96 L31.29,-7.96 L31.29,8.27 L28.81,8.27 L28.81,13.23 L23.11,16.99 L31.36,17.93 Z" fill="#991717" />
		</g>
		<g transform="matrix(2.667858123779297, 0, 0, 2.667858123779297, 1065.109130859375, 1114.7796630859375)">
			<path d="M-254.24,-35.79 L-233.78,-36.66 L-234.05,6.39 L-228.55,11.02 L-214.87,10.89 L-209.51,-4.61 L-190.6,2.1 L-200.92,27.72 L-239.01,29.33 L-252.09,18.26 L-254.24,-35.79 ZM-188.12,-16.21 L-189.19,-34.18 L-126.69,-35.79 L-126.35,-20.23 L-158.54,1.09 L-158.07,4.92 L-128.1,12.43 L-133.93,30.06 L-174.91,18.6 L-178.06,-5.88 L-158.54,-18.55 L-188.12,-16.21 ZM-104.63,-13.06 L-104.63,-29.75 L-84.38,-29.02 L-84.78,-37.33 L-66.54,-37.4 L-66.94,-28.48 L-57.55,-28.88 L-57.62,-12.45 L-67.54,-13.12 L-67.48,-4 L-56.81,0.62 L-61.44,19.33 L-68.55,13.5 L-70.83,30 L-90.41,29.8 L-105.23,22.69 L-104.49,29.39 L-122.73,29.73 L-124.68,-5.14 L-122.87,-37.26 L-104.63,-36.66 L-107.24,-5.14 L-105.7,18.13 L-102.01,-7.56 L-84.24,-7.02 L-84.24,-13.46 L-104.63,-13.06 ZM-88.87,8.4 L-89.34,13.84 L-85.25,14.84 L-84.58,8.67 L-88.87,8.4 ZM4.28,-11.11 L-20.53,-25.39 L-12.89,-37.93 L12.06,-27.94 L4.28,-11.11 ZM-0.08,-1.25 L11.92,8.61 L1.86,23.02 L-2.29,17.12 L-4.31,28.92 L-32.54,28.72 L-39.51,12.43 L-33.61,-6.89 L-16.98,-8.36 L-17.32,-13.86 L0.99,-12.59 L-0.08,-1.25 ZM-55.34,-13.59 L-55.81,-29.42 L-46.15,-29.22 L-45.82,-37.6 L-28.18,-37.06 L-29.45,-30.29 L-20.94,-31.16 L-20.47,-15.6 L-31.73,-14.93 L-41.79,15.91 L-56.28,4.65 L-47.9,-14.4 L-55.34,-13.59 ZM-16.51,6.53 L-22.41,6.93 L-23.42,11.29 L-22.35,14.44 L-16.91,14.57 L-16.51,6.53 ZM20.71,-36.66 L17.55,-23.11 L59.13,-17.48 L61.08,-34.72 L20.71,-36.66 ZM31.7,-18.62 L13.93,-20.03 L13.2,7.67 L52.69,0.22 L56.05,4.72 L56.18,9.54 L43.98,12.56 L24.73,10.68 L19.57,27.31 L44.98,30 L75.49,21.55 L74.09,-0.92 L62.69,-16.54 L31.44,-11.92 L31.7,-18.62 ZM137.32,-11.11 L112.51,-25.39 L120.16,-37.93 L145.1,-27.94 L137.32,-11.11 ZM132.96,-1.25 L144.97,8.61 L134.91,23.02 L130.75,17.12 L128.74,28.92 L100.51,28.72 L93.53,12.43 L99.43,-6.89 L116.06,-8.36 L115.73,-13.86 L134.04,-12.59 L132.96,-1.25 ZM77.71,-13.59 L77.24,-29.42 L86.89,-29.22 L87.23,-37.6 L104.87,-37.06 L103.59,-30.29 L112.11,-31.16 L112.58,-15.6 L101.31,-14.93 L91.25,15.91 L76.77,4.65 L85.15,-14.4 L77.71,-13.59 ZM116.53,6.53 L110.63,6.93 L109.63,11.29 L110.7,14.44 L116.13,14.57 L116.53,6.53 ZM146.24,-34.31 L145.71,-7.22 L151.07,26.04 L185.4,20.14 L180.04,1.9 L165.82,7.53 L163.68,-8.83 L166.9,-32.7 L146.24,-34.31 ZM182.19,-25.19 L193.45,-9.1 L194.26,17.73 L213.57,13.97 L211.15,-14.2 L199.89,-35.12 L182.19,-25.19 ZM228.12,31.2 Q223.43,30.33 219.74,26.71 Q215.04,21.48 215.92,13.9 Q216.65,8.94 220.34,5.25 Q225.57,0.56 232.82,1.43 Q238.31,2.17 242.2,6.59 Q246.43,11.56 245.69,18.6 Q244.82,24.03 240.12,27.99 Q235.16,31.94 228.12,31.2 ZM226.71,16.32 Q226.71,17.99 227.85,19.17 Q228.99,20.34 230.74,20.34 Q232.41,20.34 233.55,19.17 Q234.69,17.99 234.69,16.32 Q234.69,14.71 233.55,13.5 Q232.41,12.29 230.74,12.29 Q228.99,12.29 227.85,13.5 Q226.71,14.71 226.71,16.32 Z" fill="#991717" />
		</g>
	</g>
	<g transform="matrix(2.0942797660827637, 0, 0, 2.0942797660827637, 1491.8409423828125, 925.335205078125)">
		<path d="M-98.65,-17.68 L-99.25,-34.78 L-41.32,-35.39 L-42.93,-11.45 L-62.77,-10.84 L-61.17,-18.29 L-98.65,-17.68 ZM-99.46,-0.52 L-101.94,18.06 L-90.94,28.12 L-41.05,27.18 L-43.06,7.6 L-79.2,11.82 L-82.29,10.55 L-80.14,1.3 L-99.46,-0.52 ZM-12.15,8.2 L-11.88,29.93 L-30.18,29.86 L-29.11,15.51 L-31.32,19.54 L-39.71,4.11 L-28.11,-11.92 L-39.1,-11.38 L-38.97,-28.01 L-29.04,-27.41 L-29.65,-37.33 L-10.6,-37.33 L-11.41,-23.72 L6.83,-35.05 L18.97,-28.68 L25.27,-18.42 L17.96,14.17 L26.68,12.16 L28.29,29.06 L5.02,29.73 L-0.48,12.96 L6.09,-10.17 L4.82,-12.59 L-12.01,-0.92 L-12.15,8.2 ZM60.48,-17.82 L79.52,-18.15 L80.46,-10.71 L92.8,-13.86 L95.02,2.1 L82.14,3.31 L83.35,9.14 L66.45,10.42 L66.72,7.47 L62.02,9.28 L61.75,13.7 L73.42,15.65 L92.8,11.02 L95.42,27.85 L73.62,29.46 L44.92,27.31 L44.45,14.37 L45.53,6.19 L42.58,14.17 L28.76,-0.65 L43.45,-19.09 L31.24,-17.62 L31.04,-33.24 L47.6,-32.64 L49.01,-37.67 L69.06,-35.25 L67.59,-32.77 L93.74,-33.64 L93.94,-18.82 L61.22,-19.29 L60.48,-17.82 ZM63.03,-5.34 L52.84,-4.67 L50.35,-2.33 L63.03,-5.34 Z" fill="#3E3B39" />
	</g>
	<g transform="matrix(1.3560160398483276, 0, 0, 1.3560160398483276, 1349.982177734375, 782.8268432617188)">
		<path d="M-33.89,-13.06 L-33.89,-29.76 L-13.63,-29.02 L-14.04,-37.34 L4.21,-37.4 L3.8,-28.48 L13.19,-28.88 L13.13,-12.45 L3.2,-13.12 L3.27,-4 L13.93,0.63 L9.3,19.34 L2.19,13.5 L-0.09,30 L-19.67,29.8 L-34.49,22.69 L-33.75,29.4 L-52,29.73 L-53.94,-5.14 L-52.13,-37.27 L-33.89,-36.66 L-36.5,-5.14 L-34.96,18.13 L-31.27,-7.56 L-13.5,-7.02 L-13.5,-13.46 L-33.89,-13.06 ZM-18.13,8.4 L-18.6,13.84 L-14.51,14.84 L-13.84,8.67 L-18.13,8.4 ZM33.45,34.9 L15.61,15.45 L29.83,6.19 L47.6,22.29 L33.45,34.9 Z" fill="#6D6A6A" />
	</g>
	<g transform="matrix(1.9753413200378418, 0, 0, 1.9753413200378418, 1471.4400634765625, 253.23239135742188)">
		<path d="M-113.6,-18.75 L-114.24,-36.88 L-52.81,-37.52 L-54.52,-12.13 L-75.56,-11.49 L-73.86,-19.39 L-113.6,-18.75 ZM-114.45,-0.55 L-117.08,19.15 L-105.42,29.81 L-52.53,28.82 L-54.66,8.06 L-92.98,12.54 L-96.25,11.18 L-93.98,1.37 L-114.45,-0.55 ZM-21.88,8.7 L-21.6,31.73 L-41.01,31.66 L-39.87,16.45 L-42.22,20.71 L-51.11,4.36 L-38.81,-12.63 L-50.47,-12.06 L-50.32,-29.7 L-39.8,-29.06 L-40.44,-39.58 L-20.25,-39.58 L-21.1,-25.15 L-1.76,-37.16 L11.1,-30.41 L17.79,-19.53 L10.04,15.02 L19.28,12.89 L20.99,30.81 L-3.68,31.52 L-9.51,13.74 L-2.55,-10.78 L-3.9,-13.34 L-21.74,-0.97 L-21.88,8.7 ZM55.11,-18.89 L75.3,-19.24 L76.3,-11.35 L89.38,-14.69 L91.73,2.23 L78.08,3.51 L79.36,9.69 L61.44,11.04 L61.72,7.91 L56.75,9.83 L56.46,14.53 L68.83,16.59 L89.38,11.68 L92.15,29.53 L69.05,31.23 L38.62,28.96 L38.12,15.24 L39.26,6.56 L36.13,15.02 L21.48,-0.69 L37.05,-20.24 L24.11,-18.68 L23.9,-35.24 L41.46,-34.6 L42.96,-39.93 L64.21,-37.37 L62.65,-34.74 L90.38,-35.67 L90.59,-19.96 L55.89,-20.45 L55.11,-18.89 ZM57.81,-5.66 L47.01,-4.95 L44.38,-2.47 L57.81,-5.66 Z" fill="#3E3B39" />
	</g>
	<g transform="matrix(2.402592420578003, 0, 0, 2.402592420578003, 1155.8271484375, 493.32708740234375)">
		<path d="M-262.06,-35.79 L-241.6,-36.66 L-241.87,6.39 L-236.37,11.02 L-222.69,10.89 L-217.33,-4.61 L-198.42,2.1 L-208.75,27.72 L-246.84,29.33 L-259.91,18.26 L-262.06,-35.79 ZM-195.94,-16.21 L-197.01,-34.18 L-134.51,-35.79 L-134.18,-20.23 L-166.36,1.09 L-165.89,4.92 L-135.92,12.43 L-141.75,30.06 L-182.73,18.6 L-185.88,-5.88 L-166.36,-18.55 L-195.94,-16.21 ZM-112.45,-13.06 L-112.45,-29.75 L-92.2,-29.02 L-92.6,-37.33 L-74.36,-37.4 L-74.76,-28.48 L-65.37,-28.88 L-65.44,-12.45 L-75.36,-13.12 L-75.3,-4 L-64.64,0.62 L-69.26,19.33 L-76.37,13.5 L-78.65,30 L-98.23,29.8 L-113.05,22.69 L-112.31,29.39 L-130.55,29.73 L-132.5,-5.14 L-130.69,-37.26 L-112.45,-36.66 L-115.06,-5.14 L-113.52,18.13 L-109.83,-7.56 L-92.06,-7.02 L-92.06,-13.46 L-112.45,-13.06 ZM-96.69,8.4 L-97.16,13.84 L-93.07,14.84 L-92.4,8.67 L-96.69,8.4 ZM-3.54,-11.11 L-28.36,-25.39 L-20.71,-37.93 L4.23,-27.94 L-3.54,-11.11 ZM-7.9,-1.25 L4.1,8.61 L-5.96,23.02 L-10.12,17.12 L-12.13,28.92 L-40.36,28.72 L-47.33,12.43 L-41.43,-6.89 L-24.8,-8.36 L-25.14,-13.86 L-6.83,-12.59 L-7.9,-1.25 ZM-63.16,-13.59 L-63.63,-29.42 L-53.97,-29.22 L-53.64,-37.6 L-36,-37.06 L-37.27,-30.29 L-28.76,-31.16 L-28.29,-15.6 L-39.55,-14.93 L-49.61,15.91 L-64.1,4.65 L-55.72,-14.4 L-63.16,-13.59 ZM-24.33,6.53 L-30.23,6.93 L-31.24,11.29 L-30.17,14.44 L-24.73,14.57 L-24.33,6.53 ZM12.89,-36.66 L9.73,-23.11 L51.31,-17.48 L53.26,-34.72 L12.89,-36.66 ZM23.88,-18.62 L6.11,-20.03 L5.37,7.67 L44.87,0.22 L48.23,4.72 L48.36,9.54 L36.15,12.56 L16.91,10.68 L11.75,27.31 L37.16,30 L67.67,21.55 L66.26,-0.92 L54.86,-16.54 L23.61,-11.92 L23.88,-18.62 ZM129.5,-11.11 L104.69,-25.39 L112.33,-37.93 L137.28,-27.94 L129.5,-11.11 ZM125.14,-1.25 L137.15,8.61 L127.09,23.02 L122.93,17.12 L120.92,28.92 L92.69,28.72 L85.71,12.43 L91.61,-6.89 L108.24,-8.36 L107.91,-13.86 L126.22,-12.59 L125.14,-1.25 ZM69.89,-13.59 L69.42,-29.42 L79.07,-29.22 L79.41,-37.6 L97.04,-37.06 L95.77,-30.29 L104.29,-31.16 L104.76,-15.6 L93.49,-14.93 L83.43,15.91 L68.95,4.65 L77.33,-14.4 L69.89,-13.59 ZM108.71,6.53 L102.81,6.93 L101.81,11.29 L102.88,14.44 L108.31,14.57 L108.71,6.53 ZM138.42,-34.31 L137.88,-7.22 L143.25,26.04 L177.58,20.14 L172.22,1.9 L158,7.53 L155.86,-8.83 L159.07,-32.7 L138.42,-34.31 ZM174.36,-25.19 L185.63,-9.1 L186.43,17.73 L205.75,13.97 L203.33,-14.2 L192.07,-35.12 L174.36,-25.19 ZM220.3,31.2 Q215.61,30.33 211.92,26.71 Q207.22,21.48 208.09,13.9 Q208.83,8.94 212.52,5.25 Q217.75,0.56 224.99,1.43 Q230.49,2.17 234.38,6.59 Q238.61,11.56 237.87,18.6 Q237,24.03 232.3,27.99 Q227.34,31.94 220.3,31.2 ZM218.89,16.32 Q218.89,17.99 220.03,19.17 Q221.17,20.34 222.92,20.34 Q224.59,20.34 225.73,19.17 Q226.87,17.99 226.87,16.32 Q226.87,14.71 225.73,13.5 Q224.59,12.29 222.92,12.29 Q221.17,12.29 220.03,13.5 Q218.89,14.71 218.89,16.32 Z" fill="#991717" />
	</g>
	<g transform="matrix(1.9753413200378418, 0, 0, 1.9753413200378418, 1162.47802734375, 271.0517883300781)">
		<path d="M-37.52,-8.96 L-37.52,-20.43 L-23.62,-19.92 L-23.89,-25.63 L-11.37,-25.68 L-11.65,-19.55 L-5.2,-19.83 L-5.25,-8.55 L-12.06,-9.01 L-12.02,-2.75 L-4.7,0.43 L-7.87,13.27 L-12.75,9.27 L-14.32,20.59 L-27.76,20.46 L-37.94,15.58 L-37.43,20.18 L-49.95,20.41 L-51.29,-3.53 L-50.04,-25.58 L-37.52,-25.17 L-39.32,-3.53 L-38.26,12.45 L-35.73,-5.19 L-23.53,-4.82 L-23.53,-9.24 L-37.52,-8.96 ZM-26.7,5.77 L-27.02,9.5 L-24.22,10.19 L-23.76,5.95 L-26.7,5.77 ZM8.7,23.96 L-3.54,10.6 L6.22,4.25 L18.42,15.3 L8.7,23.96 Z" fill="#6D6A6A" />
	</g>
	<g transform="matrix(1.0676336288452148, 0, 0, 1.0676336288452148, 216.77166748046875, 353.3492431640625)">
		<path d="M-84.67,-97.7 Q-95.76,-96.96 -102.91,-90.3 Q-109.94,-83.77 -109.94,-75.63 Q-107.85,-73.78 -105.07,-72.18 Q-102.3,-70.57 -99.83,-68.72 Q-93.79,-64.16 -93.79,-57.87 Q-93.79,-47.64 -102.67,-44.8 Q-105.26,-44.07 -108.09,-44.07 Q-116.6,-44.07 -121.16,-49.74 Q-125.72,-55.41 -125.72,-64.47 Q-125.72,-73.53 -122.95,-80.38 Q-120.18,-87.22 -114.87,-92.77 Q-103.41,-104.97 -84.67,-107.07 L-84.67,-97.7 ZM-97.12,50.63 L-76.04,50.63 Q-51.87,50.63 -43.73,40.52 Q-39.66,35.46 -37.01,28.68 Q-34.36,21.9 -32.14,17.58 L-26.22,17.58 L-26.22,71.59 L-112.04,71.59 L-97.12,50.63 ZM-123.26,71.59 L-129.92,71.59 L-127.45,48.28 Q-100.82,16.47 -86.27,0.75 Q-71.72,-14.97 -66.05,-23.1 Q-53.72,-40.74 -53.72,-58.24 Q-53.72,-91.29 -74.43,-96.84 L-74.43,-107.44 Q-50.14,-106.7 -35.96,-92.4 Q-23.02,-79.08 -23.02,-59.72 Q-23.02,-26.19 -74.43,19.31 Q-81.83,25.72 -88.24,31.39 Q-103.65,44.83 -107.72,50.38 L-123.26,71.59 ZM38.82,-98.81 Q47.33,-102.63 54.23,-107.44 L66.56,-107.44 L66.56,38.3 Q66.56,46.68 67.3,51 Q68.04,55.31 70.82,57.1 Q73.59,58.89 77.35,59.87 Q81.11,60.86 85.3,61.6 Q89.5,62.34 92.95,64.07 L92.95,71.59 L11.94,71.59 L11.94,64.07 Q15.52,62.34 19.77,61.6 Q24.03,60.86 27.85,59.87 Q36.85,57.53 37.84,51.61 Q38.82,45.94 38.82,38.3 L38.82,-98.81 ZM28.59,-80.31 Q24.03,-82.41 10.96,-82.66 L10.96,-90.18 Q21.07,-92.27 28.59,-95.36 L28.59,-80.31 Z" fill="#FFFFFF" />
	</g>
</svg>