<?xml version="1.0" encoding="UTF-8"?>
<!-- Created with Grafika (https://www.grafika.cc/) -->
<svg xmlns="http://www.w3.org/2000/svg" xmlns:svg="http://www.w3.org/2000/svg" xmlns:xlink="http://www.w3.org/1999/xlink" width="6144" height="6144" viewBox="0 0 2048 2048" preserveAspectRatio="xMidYMid meet">
	<defs>
		<clipPath id="mask_1">
			<rect x="-181.5" y="-275" width="363" height="550" />
		</clipPath>
	</defs>
	<rect x="0" y="0" width="2048" height="2048" fill="#FFFFFF" />
	<g id="rr.svg2" transform="matrix(3.7236366271972656, 0, 0, 3.7236366271972656, 675.8400268554688, 1024)" clip-path="url(#mask_1)">
		<path d="M-151.2,-244.7 L-35.6,-244.7 L-151.2,-57.6 L-151.2,-244.7 Z" style="fill:#36C8B5;" />
		<path d="M35.4,-244.7 L151,-244.7 L151,-57.6 L35.4,-244.7 Z" style="fill:#0073BD;" />
		<path d="M-151.2,57.6 L-35.6,244.7 L-151.2,244.7 L-151.2,57.6 Z" style="fill:#0073BD;" />
		<path d="M151.2,57.6 L151.2,244.7 L35.6,244.7 L151.2,57.6 Z" style="fill:#36C8B5;" />
		<path d="M0,-244.7 L151.2,0 L0,244.7 L-151.2,0 L0,-244.7 Z" style="fill:#050402;" />
	</g>
	<path transform="matrix(6.963198184967041, 0, 0, 20.48000144958496, 1699.840087890625, 1024.0001220703125)" d="M-50,-50 L50,-50 L50,50 L-50,50 L-50,-50 Z" style="fill:#FDEDE4;" />
	<path transform="matrix(0.1709420084953308, 0, 0, 20.480012893676758, 1360.227294921875, 1023.9996337890625)" d="M-50,-50 L50,-50 L50,50 L-50,50 L-50,-50 Z" style="fill:#9B0055;" />
	<path transform="matrix(0.1709420084953308, 0, 0, 20.480012893676758, 2039.452880859375, 1024)" d="M-50,-50 L50,-50 L50,50 L-50,50 L-50,-50 Z" style="fill:#9B0055;" />
	<g id="グループ2" transform="matrix(0.9099738597869873, 0, 0, 0.9099738597869873, 1029.9342041015625, 1019.8124389648438)">
		<path transform="matrix(0, 5.893316268920898, -5.893316268920898, 0, 810.9237060546875, 0.803955078125)" d="M-148.82,-5.94 Q-149.11,-5.68 -149.56,-5.68 Q-150.22,-5.68 -150.62,-6.27 Q-150.85,-6.61 -150.85,-7.01 Q-150.85,-7.68 -150.25,-8.16 Q-148.45,-9.52 -146.8,-11.47 Q-145.15,-13.41 -144,-15.67 Q-143.63,-16.37 -142.85,-16.37 Q-142.52,-16.37 -142.27,-16.23 Q-141.53,-15.82 -141.53,-15.01 Q-141.53,-14.64 -141.67,-14.38 Q-142.97,-11.97 -144.82,-9.77 Q-146.67,-7.56 -148.82,-5.94 ZM-122.36,-11.78 L-137.12,-11.78 Q-137.68,-11.78 -138.07,-12.17 Q-138.46,-12.56 -138.46,-13.12 Q-138.46,-13.67 -138.07,-14.06 Q-137.68,-14.45 -137.12,-14.45 L-122.36,-14.45 Q-121.84,-14.45 -121.44,-14.06 Q-121.03,-13.67 -121.03,-13.12 Q-121.03,-12.56 -121.44,-12.17 Q-121.84,-11.78 -122.36,-11.78 ZM-140.68,-8.31 Q-139.97,-7.83 -139.97,-7.05 Q-139.97,-6.75 -140.15,-6.38 Q-141.49,-4.09 -143.38,-1.91 Q-143.49,-1.79 -143.49,-1.65 L-143.49,14.12 Q-143.49,14.67 -143.88,15.05 Q-144.26,15.44 -144.85,15.44 Q-145.41,15.44 -145.82,15.05 Q-146.22,14.67 -146.22,14.12 L-146.22,1.39 Q-146.22,1.02 -146.49,1.28 Q-147.18,1.9 -147.9,2.44 Q-148.63,2.98 -149.37,3.42 Q-149.67,3.61 -149.93,3.61 Q-150.7,3.61 -150.99,2.87 Q-151.11,2.57 -151.11,2.27 Q-151.11,1.42 -150.37,0.94 Q-148.22,-0.5 -146.1,-2.78 Q-143.97,-5.05 -142.45,-7.83 Q-142.04,-8.49 -141.34,-8.49 Q-141.05,-8.49 -140.68,-8.31 ZM-138.49,-4.98 L-120.77,-4.98 Q-120.22,-4.98 -119.83,-4.59 Q-119.43,-4.2 -119.43,-3.64 Q-119.43,-3.09 -119.83,-2.7 Q-120.22,-2.32 -120.77,-2.32 L-125.94,-2.32 Q-126.17,-2.32 -126.17,-2.09 L-126.17,9.79 Q-126.17,12.93 -127.74,14.19 Q-129.31,15.44 -132.42,15.44 Q-132.79,15.44 -133.2,15.43 Q-133.6,15.41 -134.01,15.37 Q-134.54,15.3 -134.89,14.91 Q-135.23,14.52 -135.23,14.04 Q-135.23,13.41 -134.79,13 Q-134.35,12.6 -133.76,12.63 Q-133.31,12.67 -132.9,12.69 Q-132.49,12.71 -132.17,12.71 Q-130.09,12.71 -129.5,12.06 Q-128.91,11.41 -128.91,9.79 L-128.91,-2.09 Q-128.91,-2.32 -129.13,-2.32 L-138.49,-2.32 Q-139.04,-2.32 -139.43,-2.7 Q-139.82,-3.09 -139.82,-3.64 Q-139.82,-4.2 -139.43,-4.59 Q-139.04,-4.98 -138.49,-4.98 ZM-87.09,-8.97 Q-87.09,-8.75 -86.88,-8.75 L-83.36,-8.75 Q-82.43,-8.75 -81.79,-8.12 Q-81.14,-7.49 -81.14,-6.53 Q-81.14,-4.16 -81.18,-1.79 Q-81.21,0.57 -81.27,2.65 Q-81.32,4.72 -81.39,6.26 Q-81.44,7.79 -81.51,8.53 Q-81.66,10.86 -82.25,12.34 Q-82.84,13.82 -84.1,14.52 Q-85.36,15.23 -87.58,15.26 Q-88.17,15.26 -88.58,14.84 Q-88.98,14.41 -89.02,13.82 Q-89.02,13.27 -88.61,12.86 Q-88.21,12.45 -87.65,12.45 Q-86.21,12.45 -85.55,12.1 Q-84.88,11.75 -84.66,10.85 Q-84.43,9.93 -84.29,8.27 Q-84.21,7.46 -84.14,5.35 Q-84.07,3.24 -84.01,0.32 Q-83.95,-2.61 -83.91,-5.79 Q-83.91,-6.01 -84.14,-6.01 L-86.91,-6.01 Q-87.13,-6.01 -87.13,-5.79 Q-87.36,-0.24 -88.52,3.91 Q-89.69,8.05 -91.36,10.83 Q-93.02,13.6 -94.72,15.08 Q-95.02,15.33 -95.5,15.33 Q-96.2,15.33 -96.61,14.75 Q-96.87,14.38 -96.87,13.89 Q-96.87,13.16 -96.31,12.71 Q-94.54,11.08 -93.34,8.9 Q-92.13,6.72 -91.41,4.24 Q-90.69,1.76 -90.34,-0.81 Q-89.99,-3.38 -89.88,-5.79 Q-89.88,-6.01 -90.09,-6.01 L-93.09,-6.01 Q-93.64,-6.01 -94.05,-6.42 Q-94.46,-6.82 -94.46,-7.38 Q-94.46,-7.97 -94.05,-8.36 Q-93.64,-8.75 -93.09,-8.75 L-90.06,-8.75 Q-89.83,-8.75 -89.83,-8.97 L-89.83,-15.3 Q-89.83,-15.86 -89.44,-16.26 Q-89.05,-16.67 -88.47,-16.67 Q-87.92,-16.67 -87.51,-16.26 Q-87.09,-15.86 -87.09,-15.3 L-87.09,-8.97 ZM-95.65,10.78 Q-95.65,11.23 -95.91,11.6 Q-96.16,11.97 -96.61,12.08 Q-98.49,12.6 -100.86,13.04 Q-103.23,13.48 -105.75,13.82 Q-108.26,14.15 -110.59,14.38 Q-111.11,14.41 -111.5,14.04 Q-111.89,13.67 -111.89,13.16 Q-111.89,12.63 -111.54,12.28 Q-111.19,11.93 -110.71,11.89 Q-109.41,11.82 -107.82,11.64 Q-106.23,11.45 -104.53,11.19 Q-104.3,11.12 -104.3,10.94 L-104.3,8.61 Q-104.3,8.38 -104.53,8.38 L-109.26,8.38 Q-109.78,8.38 -110.15,8.01 Q-110.52,7.64 -110.52,7.16 Q-110.52,6.64 -110.15,6.29 Q-109.78,5.94 -109.26,5.94 L-104.53,5.94 Q-104.3,5.94 -104.3,5.71 L-104.3,4.46 Q-104.3,4.23 -104.53,4.23 L-108.15,4.23 Q-109.07,4.23 -109.72,3.59 Q-110.37,2.94 -110.37,2.02 L-110.37,-4.28 Q-110.37,-5.2 -109.72,-5.84 Q-109.07,-6.49 -108.15,-6.49 L-104.53,-6.49 Q-104.3,-6.49 -104.3,-6.72 L-104.3,-7.72 Q-104.3,-7.93 -104.53,-7.93 L-110.59,-7.93 Q-111.11,-7.93 -111.48,-8.31 Q-111.85,-8.68 -111.85,-9.19 Q-111.85,-9.71 -111.48,-10.08 Q-111.11,-10.45 -110.59,-10.45 L-104.53,-10.45 Q-104.3,-10.45 -104.3,-10.67 L-104.3,-11.6 Q-104.3,-11.86 -104.53,-11.78 Q-105.59,-11.64 -106.67,-11.52 Q-107.74,-11.41 -108.78,-11.34 Q-109.37,-11.3 -109.8,-11.71 Q-110.22,-12.12 -110.22,-12.71 Q-110.22,-13.19 -109.89,-13.54 Q-109.56,-13.9 -109.04,-13.93 Q-106.26,-14.11 -103.4,-14.61 Q-100.53,-15.12 -97.75,-15.82 Q-97.2,-15.97 -96.69,-15.59 Q-96.16,-15.22 -96.16,-14.59 Q-96.16,-14.15 -96.44,-13.76 Q-96.72,-13.37 -97.16,-13.26 Q-98.23,-12.97 -99.34,-12.72 Q-100.45,-12.49 -101.6,-12.26 Q-101.78,-12.19 -101.78,-12.04 L-101.78,-10.67 Q-101.78,-10.45 -101.57,-10.45 L-95.72,-10.45 Q-95.2,-10.45 -94.83,-10.08 Q-94.46,-9.71 -94.46,-9.19 Q-94.46,-8.68 -94.83,-8.31 Q-95.2,-7.93 -95.72,-7.93 L-101.57,-7.93 Q-101.78,-7.93 -101.78,-7.72 L-101.78,-6.72 Q-101.78,-6.49 -101.57,-6.49 L-97.68,-6.49 Q-96.75,-6.49 -96.11,-5.84 Q-95.46,-5.2 -95.46,-4.28 L-95.46,2.02 Q-95.46,2.94 -96.11,3.59 Q-96.75,4.23 -97.68,4.23 L-101.57,4.23 Q-101.78,4.23 -101.78,4.46 L-101.78,5.71 Q-101.78,5.94 -101.57,5.94 L-97.05,5.94 Q-96.53,5.94 -96.18,6.29 Q-95.83,6.64 -95.83,7.16 Q-95.83,7.64 -96.18,8.01 Q-96.53,8.38 -97.05,8.38 L-101.57,8.38 Q-101.78,8.38 -101.78,8.61 L-101.78,10.46 Q-101.78,10.71 -101.53,10.67 Q-99.16,10.16 -97.24,9.6 Q-97.12,9.56 -97.03,9.54 Q-96.94,9.53 -96.83,9.53 Q-96.34,9.53 -96,9.86 Q-95.65,10.19 -95.65,10.78 ZM-104.53,-2.39 Q-104.3,-2.39 -104.3,-2.61 L-104.3,-3.83 Q-104.3,-4.05 -104.53,-4.05 L-107.55,-4.05 Q-107.78,-4.05 -107.78,-3.83 L-107.78,-2.61 Q-107.78,-2.39 -107.55,-2.39 L-104.53,-2.39 ZM-98.3,-2.39 Q-98.09,-2.39 -98.09,-2.61 L-98.09,-3.83 Q-98.09,-4.05 -98.3,-4.05 L-101.57,-4.05 Q-101.78,-4.05 -101.78,-3.83 L-101.78,-2.61 Q-101.78,-2.39 -101.57,-2.39 L-98.3,-2.39 ZM-107.55,0.1 Q-107.78,0.1 -107.78,0.31 L-107.78,1.53 Q-107.78,1.76 -107.55,1.76 L-104.53,1.76 Q-104.3,1.76 -104.3,1.53 L-104.3,0.31 Q-104.3,0.1 -104.53,0.1 L-107.55,0.1 ZM-101.57,0.1 Q-101.78,0.1 -101.78,0.31 L-101.78,1.53 Q-101.78,1.76 -101.57,1.76 L-98.3,1.76 Q-98.09,1.76 -98.09,1.53 L-98.09,0.31 Q-98.09,0.1 -98.3,0.1 L-101.57,0.1 ZM-44.85,-10.42 Q-44.32,-10.3 -43.99,-9.91 Q-43.66,-9.52 -43.66,-9.01 Q-43.66,-8.38 -44.11,-7.99 Q-44.55,-7.6 -45.14,-7.68 Q-46.07,-7.83 -47.09,-7.88 Q-48.1,-7.93 -49.18,-7.93 Q-50.25,-7.93 -51.34,-7.9 Q-52.43,-7.86 -53.57,-7.79 Q-53.91,-7.75 -53.91,-7.42 L-53.91,-1.61 Q-53.91,-1.49 -53.89,-1.4 Q-53.87,-1.31 -53.84,-1.2 Q-52.91,0.91 -52.91,3.35 Q-52.91,5.27 -53.57,7.14 Q-54.24,9.01 -55.58,10.51 Q-56.91,12.01 -58.94,12.95 Q-60.97,13.89 -63.72,14.01 Q-64.27,14.04 -64.69,13.64 Q-65.12,13.23 -65.12,12.63 Q-65.12,12.01 -64.68,11.59 Q-64.23,11.15 -63.64,11.15 Q-61.5,11.12 -59.73,10.27 Q-57.95,9.42 -56.84,7.9 Q-55.72,6.38 -55.57,4.42 Q-55.57,4.09 -55.87,4.09 Q-56.02,4.09 -56.13,4.23 Q-56.84,5.05 -57.68,5.42 Q-58.53,5.79 -59.38,5.79 Q-60.49,5.79 -61.51,5.25 Q-62.53,4.72 -63.23,3.8 Q-63.94,2.87 -64.08,1.65 Q-64.13,1.46 -64.13,1.28 Q-64.13,1.09 -64.13,0.91 Q-64.13,-0.57 -63.49,-1.76 Q-62.86,-2.94 -61.79,-3.64 Q-60.72,-4.35 -59.42,-4.35 Q-58.83,-4.35 -58.21,-4.19 Q-57.58,-4.05 -56.94,-3.68 Q-56.87,-3.64 -56.75,-3.64 Q-56.54,-3.64 -56.54,-3.94 L-56.57,-7.23 Q-56.57,-7.6 -56.91,-7.53 Q-59.17,-7.38 -61.35,-7.21 Q-63.53,-7.05 -65.53,-7.05 Q-66.67,-7.05 -67.77,-7.12 Q-68.86,-7.19 -69.82,-7.35 Q-70.38,-7.42 -70.71,-7.86 Q-71.04,-8.31 -71.04,-8.82 Q-71.04,-9.45 -70.58,-9.82 Q-70.11,-10.19 -69.56,-10.12 Q-68.49,-9.97 -67.34,-9.89 Q-66.19,-9.82 -65.01,-9.82 Q-63.05,-9.82 -61,-9.97 Q-58.94,-10.12 -56.91,-10.3 Q-56.57,-10.38 -56.57,-10.67 L-56.61,-13.97 Q-56.65,-14.52 -56.24,-14.93 Q-55.83,-15.33 -55.28,-15.33 Q-54.69,-15.33 -54.3,-14.93 Q-53.91,-14.52 -53.91,-13.97 L-53.91,-10.86 Q-53.91,-10.49 -53.5,-10.56 Q-52.43,-10.64 -51.38,-10.69 Q-50.32,-10.74 -49.28,-10.74 Q-46.95,-10.74 -44.85,-10.42 ZM-61.31,1.72 Q-61.09,2.31 -60.48,2.72 Q-59.87,3.13 -59.17,3.13 Q-58.27,3.13 -57.49,2.32 Q-56.72,1.5 -56.68,-0.46 Q-56.68,-0.64 -56.8,-0.87 Q-57.24,-1.49 -57.82,-1.76 Q-58.39,-2.02 -58.98,-2.02 Q-59.98,-2.02 -60.74,-1.33 Q-61.5,-0.64 -61.5,0.54 Q-61.5,0.79 -61.46,1.11 Q-61.42,1.42 -61.31,1.72 ZM-19.02,14.08 Q-21.38,14.08 -22.77,13.41 Q-24.16,12.74 -24.76,11.71 Q-25.35,10.67 -25.35,9.63 Q-25.35,8.49 -24.82,7.57 Q-24.27,6.56 -23.57,6.12 Q-22.86,5.68 -22.09,5.68 Q-21.06,5.68 -19.91,6.36 Q-18.76,7.05 -17.56,8.18 Q-16.35,9.31 -15.25,10.67 Q-15.09,10.9 -14.8,10.82 Q-13.43,10.3 -12.25,9.49 Q-11.07,8.68 -10.25,7.53 Q-9.36,6.19 -9.36,4.64 Q-9.36,2.87 -10.61,1.39 Q-11.84,-0.09 -14.39,-0.39 Q-14.76,-0.46 -15.11,-0.46 Q-15.47,-0.46 -15.84,-0.46 Q-18.98,-0.46 -21.82,1.02 Q-24.64,2.5 -27.45,5.01 Q-27.86,5.38 -28.49,5.38 Q-28.93,5.38 -29.27,5.16 Q-29.78,4.83 -29.78,4.2 Q-29.78,3.86 -29.6,3.57 Q-27.15,-0.06 -24.52,-3.54 Q-21.87,-7.01 -19.17,-9.82 Q-19.05,-9.93 -19.05,-10.05 Q-19.05,-10.19 -19.35,-10.16 Q-20.39,-10.01 -21.78,-9.89 Q-23.16,-9.79 -24.61,-9.79 Q-25.09,-9.79 -25.53,-9.79 Q-25.97,-9.79 -26.42,-9.82 Q-26.97,-9.86 -27.34,-10.28 Q-27.71,-10.71 -27.71,-11.27 Q-27.71,-11.86 -27.25,-12.26 Q-26.79,-12.67 -26.2,-12.63 Q-24.68,-12.52 -23.27,-12.52 Q-21.38,-12.52 -19.67,-12.74 Q-17.95,-12.97 -16.28,-13.53 Q-16.13,-13.6 -16.01,-13.6 Q-15.87,-13.6 -15.73,-13.6 Q-15.32,-13.6 -14.93,-13.37 Q-14.54,-13.16 -14.39,-12.75 Q-14.21,-12.31 -14.21,-11.94 Q-14.21,-11.08 -14.88,-10.49 Q-17.43,-8.23 -19.43,-5.96 Q-21.43,-3.68 -23.27,-1.02 Q-23.35,-0.87 -23.35,-0.83 Q-23.35,-0.54 -22.94,-0.72 Q-20.69,-1.91 -18.64,-2.42 Q-16.58,-2.94 -14.8,-2.94 Q-11.73,-2.94 -9.66,-1.57 Q-7.59,-0.2 -6.88,2.09 Q-6.51,3.24 -6.51,4.53 Q-6.51,7.09 -8.09,9.27 Q-9.66,11.45 -12.48,12.77 Q-15.28,14.08 -19.02,14.08 ZM-18.13,11.49 Q-17.87,11.49 -17.87,11.31 Q-17.87,11.15 -17.99,11.01 Q-19.31,9.45 -20.26,8.87 Q-21.2,8.27 -21.8,8.27 Q-22.31,8.27 -22.57,8.61 Q-22.83,8.94 -22.83,9.35 Q-22.83,9.45 -22.81,9.56 Q-22.79,9.67 -22.76,9.79 Q-22.38,10.71 -21.09,11.13 Q-19.79,11.56 -18.13,11.49 ZM35.48,10.94 Q35.92,11.38 35.92,11.97 Q35.92,12.49 35.52,12.9 Q34.37,13.93 33.31,14.4 Q32.26,14.86 31.3,14.86 Q29.9,14.86 28.79,14.08 Q27.78,13.41 26.73,12.08 Q25.68,10.75 24.78,9.26 Q23.9,7.76 23.31,6.64 Q22.24,4.57 21.35,2.16 Q21.27,1.98 21.09,1.98 L11.8,2.31 Q11.58,2.31 11.58,2.53 L11.58,11.27 Q11.58,11.49 11.8,11.45 Q14.06,11.15 16.22,10.66 Q18.39,10.16 20.28,9.53 Q20.42,9.45 20.53,9.45 Q20.65,9.45 20.79,9.45 Q21.31,9.45 21.79,9.81 Q22.27,10.16 22.27,10.86 Q22.27,11.23 22.05,11.59 Q21.83,11.93 21.42,12.08 Q19.13,12.9 16.45,13.46 Q13.76,14.04 11.03,14.34 Q10.14,14.41 9.47,13.8 Q8.8,13.19 8.8,12.3 L8.8,-13.12 Q8.8,-14.04 9.45,-14.68 Q10.1,-15.33 11.03,-15.33 L30.45,-15.33 Q31.38,-15.33 32.02,-14.68 Q32.67,-14.04 32.67,-13.12 L32.67,-7.75 Q32.67,-6.82 32.02,-6.17 Q31.38,-5.53 30.45,-5.53 L21.9,-5.53 Q21.64,-5.53 21.72,-5.27 Q22.01,-4.16 22.35,-3.07 Q22.68,-1.98 23.05,-0.94 Q23.12,-0.76 23.31,-0.76 L33.11,-1.05 Q33.67,-1.09 34.08,-0.7 Q34.49,-0.31 34.52,0.24 Q34.52,0.79 34.15,1.18 Q33.78,1.57 33.22,1.61 L24.38,1.9 Q24.13,1.9 24.23,2.16 Q24.57,2.98 24.94,3.77 Q25.31,4.57 25.72,5.38 Q27.64,9.08 28.91,10.62 Q30.2,12.16 31.3,12.16 Q31.86,12.16 32.39,11.84 Q32.93,11.52 33.52,10.97 Q34,10.57 34.56,10.57 Q35.11,10.57 35.48,10.94 ZM29.9,-12.45 Q29.9,-12.67 29.67,-12.67 L11.8,-12.67 Q11.58,-12.67 11.58,-12.45 L11.58,-8.41 Q11.58,-8.2 11.8,-8.2 L29.67,-8.2 Q29.9,-8.2 29.9,-8.41 L29.9,-12.45 ZM11.8,-5.53 Q11.58,-5.53 11.58,-5.31 L11.58,-0.61 Q11.58,-0.39 11.8,-0.39 L20.05,-0.68 Q20.31,-0.68 20.24,-0.94 Q19.91,-2.02 19.54,-3.13 Q19.17,-4.24 18.87,-5.34 Q18.8,-5.53 18.65,-5.53 L11.8,-5.53 ZM54.75,-13.6 Q54.28,-13.74 53.98,-14.11 Q53.69,-14.48 53.69,-14.96 Q53.69,-15.59 54.1,-15.98 Q54.5,-16.37 55.09,-16.37 Q55.31,-16.37 55.42,-16.34 Q57.24,-15.86 59.06,-15.12 Q60.9,-14.38 62.38,-13.53 Q63.12,-13.12 63.12,-12.23 Q63.12,-11.57 62.73,-11.2 Q62.34,-10.83 61.83,-10.83 Q61.67,-10.83 61.48,-10.86 Q61.3,-10.9 61.12,-11.01 Q59.83,-11.75 58.2,-12.43 Q56.57,-13.12 54.75,-13.6 ZM60.57,11.49 Q60.57,11.71 60.79,11.71 L73.3,11.71 Q73.85,11.71 74.26,12.1 Q74.66,12.49 74.66,13.08 Q74.66,13.64 74.26,14.04 Q73.85,14.45 73.3,14.45 L45.1,14.45 Q44.55,14.45 44.16,14.04 Q43.77,13.64 43.77,13.08 Q43.77,12.49 44.16,12.1 Q44.55,11.71 45.1,11.71 L57.57,11.71 Q57.79,11.71 57.79,11.49 L57.79,3.17 Q57.79,2.94 57.57,2.94 L49.17,2.94 Q48.58,2.94 48.19,2.53 Q47.8,2.13 47.8,1.57 Q47.8,1.02 48.19,0.61 Q48.58,0.2 49.17,0.2 L57.57,0.2 Q57.79,0.2 57.79,-0.02 L57.79,-6.86 Q57.79,-7.09 57.57,-7.09 L46.84,-7.09 Q46.28,-7.09 45.88,-7.47 Q45.47,-7.86 45.47,-8.46 Q45.47,-9.01 45.88,-9.42 Q46.28,-9.82 46.84,-9.82 L71.56,-9.82 Q72.11,-9.82 72.51,-9.42 Q72.93,-9.01 72.93,-8.46 Q72.93,-7.86 72.51,-7.47 Q72.11,-7.09 71.56,-7.09 L60.79,-7.09 Q60.57,-7.09 60.57,-6.86 L60.57,-0.02 Q60.57,0.2 60.79,0.2 L69.23,0.2 Q69.82,0.2 70.21,0.61 Q70.6,1.02 70.6,1.57 Q70.6,2.13 70.21,2.53 Q69.82,2.94 69.23,2.94 L60.79,2.94 Q60.57,2.94 60.57,3.17 L60.57,11.49 ZM93.6,-13.6 Q93.13,-13.74 92.83,-14.11 Q92.54,-14.48 92.54,-14.96 Q92.54,-15.59 92.95,-15.98 Q93.35,-16.37 93.94,-16.37 Q94.16,-16.37 94.27,-16.34 Q96.09,-15.86 97.91,-15.12 Q99.75,-14.38 101.23,-13.53 Q101.97,-13.12 101.97,-12.23 Q101.97,-11.57 101.58,-11.2 Q101.19,-10.83 100.68,-10.83 Q100.52,-10.83 100.33,-10.86 Q100.15,-10.9 99.97,-11.01 Q98.68,-11.75 97.05,-12.43 Q95.42,-13.12 93.6,-13.6 ZM99.42,11.49 Q99.42,11.71 99.64,11.71 L112.15,11.71 Q112.7,11.71 113.11,12.1 Q113.51,12.49 113.51,13.08 Q113.51,13.64 113.11,14.04 Q112.7,14.45 112.15,14.45 L83.95,14.45 Q83.4,14.45 83.01,14.04 Q82.62,13.64 82.62,13.08 Q82.62,12.49 83.01,12.1 Q83.4,11.71 83.95,11.71 L96.42,11.71 Q96.64,11.71 96.64,11.49 L96.64,3.17 Q96.64,2.94 96.42,2.94 L88.02,2.94 Q87.43,2.94 87.04,2.53 Q86.65,2.13 86.65,1.57 Q86.65,1.02 87.04,0.61 Q87.43,0.2 88.02,0.2 L96.42,0.2 Q96.64,0.2 96.64,-0.02 L96.64,-6.86 Q96.64,-7.09 96.42,-7.09 L85.69,-7.09 Q85.13,-7.09 84.73,-7.47 Q84.32,-7.86 84.32,-8.46 Q84.32,-9.01 84.73,-9.42 Q85.13,-9.82 85.69,-9.82 L110.41,-9.82 Q110.96,-9.82 111.36,-9.42 Q111.78,-9.01 111.78,-8.46 Q111.78,-7.86 111.36,-7.47 Q110.96,-7.09 110.41,-7.09 L99.64,-7.09 Q99.42,-7.09 99.42,-6.86 L99.42,-0.02 Q99.42,0.2 99.64,0.2 L108.08,0.2 Q108.67,0.2 109.06,0.61 Q109.45,1.02 109.45,1.57 Q109.45,2.13 109.06,2.53 Q108.67,2.94 108.08,2.94 L99.64,2.94 Q99.42,2.94 99.42,3.17 L99.42,11.49 ZM151.04,-2.69 L122.76,-2.69 Q122.25,-2.69 121.88,-3.05 Q121.51,-3.42 121.51,-3.94 Q121.51,-4.46 121.88,-4.83 Q122.25,-5.2 122.76,-5.2 L135.2,-5.2 Q135.42,-5.2 135.42,-5.42 L135.42,-6.72 Q135.42,-6.94 135.2,-6.94 L126.02,-6.94 Q125.5,-6.94 125.13,-7.33 Q124.77,-7.72 124.77,-8.2 Q124.77,-8.71 125.13,-9.08 Q125.5,-9.45 126.02,-9.45 L135.2,-9.45 Q135.42,-9.45 135.42,-9.68 L135.42,-11.01 Q135.42,-11.23 135.2,-11.23 L124.17,-11.23 Q123.66,-11.23 123.29,-11.6 Q122.92,-11.97 122.92,-12.49 Q122.92,-13 123.29,-13.37 Q123.66,-13.74 124.17,-13.74 L131.24,-13.74 Q131.57,-13.74 131.42,-14.01 Q131.27,-14.19 131.14,-14.38 Q131.02,-14.59 130.83,-14.82 Q130.53,-15.19 130.53,-15.59 Q130.53,-16.26 131.13,-16.52 Q131.46,-16.67 131.87,-16.67 Q132.35,-16.67 132.77,-16.44 Q133.2,-16.23 133.46,-15.82 Q133.72,-15.33 133.99,-14.87 Q134.27,-14.41 134.53,-13.9 Q134.57,-13.74 134.79,-13.74 L139.09,-13.74 Q139.23,-13.74 139.34,-13.86 Q139.74,-14.38 140.13,-14.89 Q140.52,-15.41 140.82,-15.93 Q141.3,-16.74 142.23,-16.74 Q142.82,-16.74 143.19,-16.35 Q143.56,-15.97 143.56,-15.49 Q143.56,-15.33 143.52,-15.21 Q143.48,-15.08 143.41,-14.93 L142.85,-14.01 Q142.74,-13.74 143.01,-13.74 L149.63,-13.74 Q150.14,-13.74 150.51,-13.37 Q150.88,-13 150.88,-12.49 Q150.88,-11.97 150.51,-11.6 Q150.14,-11.23 149.63,-11.23 L138.45,-11.23 Q138.23,-11.23 138.23,-11.01 L138.23,-9.68 Q138.23,-9.45 138.45,-9.45 L147.77,-9.45 Q148.3,-9.45 148.69,-9.08 Q149.08,-8.71 149.08,-8.2 Q149.08,-7.72 148.69,-7.33 Q148.3,-6.94 147.77,-6.94 L138.45,-6.94 Q138.23,-6.94 138.23,-6.72 L138.23,-5.42 Q138.23,-5.2 138.45,-5.2 L151.04,-5.2 Q151.55,-5.2 151.92,-4.83 Q152.29,-4.46 152.29,-3.94 Q152.29,-3.42 151.92,-3.05 Q151.55,-2.69 151.04,-2.69 ZM152.15,11.93 Q152.4,12.3 152.4,12.82 Q152.4,13.52 151.85,13.93 Q149.74,15.37 147.67,15.37 Q146.22,15.37 144.95,14.61 Q143.67,13.85 142.56,12.53 Q142.45,12.38 142.26,12.45 Q140.78,13.08 139.21,13.59 Q137.64,14.12 136.09,14.45 Q135.49,14.56 134.99,14.15 Q134.5,13.74 134.5,13.08 Q134.5,12.6 134.8,12.23 Q135.12,11.86 135.61,11.75 Q137.01,11.45 138.28,11.03 Q139.56,10.6 140.71,10.12 Q140.93,10.04 140.82,9.82 Q140.34,8.89 139.92,7.88 Q139.49,6.86 139.16,5.79 Q139.09,5.61 138.9,5.61 L131.83,5.61 Q131.61,5.61 131.61,5.83 L131.61,7.05 Q131.61,7.3 131.87,7.23 Q132.5,7.09 133.12,6.91 Q133.76,6.72 134.34,6.56 Q134.57,6.49 134.71,6.49 Q135.24,6.49 135.61,6.84 Q135.98,7.2 135.98,7.79 Q135.98,8.23 135.72,8.61 Q135.45,8.98 135.01,9.12 Q134.31,9.35 133.49,9.55 Q132.68,9.75 131.8,9.93 Q131.61,10.01 131.61,10.16 L131.61,12.12 Q131.61,13.97 130.35,14.77 Q129.09,15.56 126.02,15.41 Q125.46,15.37 125.07,14.96 Q124.69,14.56 124.69,14.01 Q124.69,13.37 125.09,12.99 Q125.5,12.6 126.1,12.63 Q127.31,12.74 127.91,12.74 Q128.53,12.74 128.73,12.62 Q128.94,12.49 128.94,12.12 L128.94,10.75 Q128.94,10.46 128.72,10.53 Q127.35,10.75 125.98,10.92 Q124.61,11.08 123.32,11.19 Q122.73,11.23 122.3,10.86 Q121.88,10.49 121.88,9.9 Q121.88,9.38 122.23,9.01 Q122.58,8.64 123.1,8.61 Q125.72,8.38 128.76,7.86 Q128.94,7.79 128.94,7.64 L128.94,5.83 Q128.94,5.61 128.72,5.61 L122.76,5.61 Q122.21,5.61 121.82,5.22 Q121.43,4.83 121.43,4.31 Q121.43,3.75 121.82,3.37 Q122.21,2.98 122.76,2.98 L128.72,2.98 Q128.94,2.98 128.94,2.76 L128.94,1.72 Q128.94,1.46 128.72,1.53 Q127.21,1.76 125.65,1.87 Q125.06,1.9 124.63,1.5 Q124.21,1.09 124.21,0.5 Q124.21,0.01 124.54,-0.33 Q124.88,-0.68 125.35,-0.72 Q127.76,-0.91 129.83,-1.26 Q131.9,-1.61 133.42,-1.98 Q133.53,-2.02 133.76,-2.02 Q134.23,-2.02 134.62,-1.68 Q135.01,-1.35 135.01,-0.76 Q135.01,-0.31 134.73,0.08 Q134.46,0.47 134.02,0.57 Q133.53,0.72 132.97,0.84 Q132.42,0.94 131.8,1.05 Q131.61,1.13 131.61,1.32 L131.61,2.76 Q131.61,2.98 131.83,2.98 L138.12,2.98 Q138.34,2.98 138.34,2.72 Q138.15,1.87 138,1.04 Q137.86,0.2 137.75,-0.64 Q137.68,-1.24 138.08,-1.68 Q138.49,-2.13 139.09,-2.13 Q139.56,-2.13 139.95,-1.79 Q140.34,-1.46 140.38,-0.94 Q140.6,0.84 141.12,2.8 Q141.19,2.98 141.34,2.98 L150.77,2.98 Q151.29,2.98 151.68,3.37 Q152.07,3.75 152.07,4.31 Q152.07,4.83 151.68,5.22 Q151.29,5.61 150.77,5.61 L142.23,5.61 Q141.97,5.61 142.07,5.87 Q142.37,6.61 142.67,7.33 Q142.97,8.05 143.34,8.71 Q143.45,8.89 143.63,8.79 Q145.63,7.71 147.19,6.56 Q147.59,6.31 147.93,6.31 Q148.59,6.31 148.92,6.86 Q149.18,7.23 149.18,7.71 Q149.18,8.42 148.62,8.86 Q147.93,9.38 147.07,9.94 Q146.22,10.49 145.18,11.04 Q144.97,11.15 145.15,11.34 Q145.74,11.93 146.37,12.3 Q147,12.67 147.67,12.67 Q148.81,12.67 150.26,11.68 Q150.63,11.41 151.11,11.41 Q151.81,11.41 152.15,11.93 ZM143.08,-1.95 Q144.63,-1.46 146.15,-0.84 Q147.67,-0.24 148.92,0.38 Q149.48,0.65 149.48,1.35 Q149.48,1.69 149.33,1.94 Q149.03,2.53 148.34,2.53 Q148,2.53 147.74,2.39 Q146.63,1.83 145.25,1.28 Q143.89,0.72 142.48,0.31 Q142.12,0.2 141.88,-0.15 Q141.63,-0.5 141.63,-0.87 Q141.63,-1.39 141.98,-1.68 Q142.34,-1.98 142.74,-1.98 Q142.97,-1.98 143.08,-1.95 Z" style="fill:#9B0055;" />
		<path transform="matrix(0, 3.843447685241699, -3.843447685241699, 0, 617.0119018554688, 22.600318908691406)" d="M-208.54,-12.35 Q-211.51,-14.17 -215.64,-14.17 L-226,-14.17 L-226,-13.45 L-222.67,-13.45 L-222.67,12.86 L-226,12.86 L-226,13.58 L-215.64,13.58 Q-212.68,13.58 -210.24,12.54 Q-207.8,11.49 -206.03,9.6 Q-204.25,7.72 -203.29,5.2 Q-202.32,2.67 -202.32,-0.3 Q-202.32,-4.23 -203.94,-7.38 Q-205.56,-10.53 -208.54,-12.35 ZM-215.64,12.86 L-219.13,12.86 L-219.13,-13.45 L-215.64,-13.45 Q-213.22,-13.45 -211.5,-12.36 Q-209.78,-11.26 -208.69,-9.39 Q-207.61,-7.53 -207.09,-5.17 Q-206.58,-2.82 -206.58,-0.3 Q-206.58,2.22 -207.04,4.58 Q-207.5,6.94 -208.56,8.81 Q-209.6,10.67 -211.35,11.76 Q-213.09,12.86 -215.64,12.86 ZM-182.75,7.1 L-183.46,7.1 Q-183.46,9.45 -184.16,10.71 Q-184.86,11.95 -186.07,12.4 Q-187.29,12.86 -188.91,12.86 L-193.15,12.86 L-193.15,3.85 L-191.87,3.85 Q-191.09,3.85 -190.33,4.14 Q-189.57,4.42 -189.06,5.03 Q-188.56,5.64 -188.56,6.61 L-187.82,6.61 L-187.82,0.52 L-188.56,0.52 Q-188.56,1.48 -189.06,2.06 Q-189.57,2.63 -190.33,2.88 Q-191.09,3.13 -191.87,3.13 L-193.15,3.13 L-193.15,-4.57 L-188.33,-4.57 Q-187.1,-4.57 -186.03,-4.14 Q-184.96,-3.72 -184.31,-2.63 Q-183.65,-1.53 -183.65,0.44 L-182.91,0.44 L-182.91,-5.29 L-199.08,-5.29 L-199.08,-4.57 L-196.66,-4.57 L-196.66,12.86 L-199.08,12.86 L-199.08,13.58 L-182.75,13.58 L-182.75,7.1 ZM-177.66,13.58 L-179.32,13.58 L-179.32,12.86 L-177.66,12.86 L-177.66,-4.57 L-179.51,-4.57 L-179.51,-5.29 L-173.72,-5.29 L-166.75,10.28 L-160.51,-5.29 L-154.76,-5.29 L-154.76,-4.57 L-156.42,-4.57 L-156.42,12.86 L-154.76,12.86 L-154.76,13.58 L-161.97,13.58 L-161.97,12.86 L-159.93,12.86 L-159.93,-4.79 L-167.41,13.95 L-168.83,13.95 L-176.9,-4.41 L-176.9,12.86 L-175.24,12.86 L-175.24,13.58 L-177.66,13.58 ZM-147.19,12.76 Q-144.94,13.95 -142.1,13.95 Q-139.27,13.95 -137,12.76 Q-134.74,11.56 -133.43,9.36 Q-132.11,7.16 -132.11,4.15 Q-132.11,1.13 -133.5,-1.07 Q-134.89,-3.28 -137.17,-4.47 Q-139.43,-5.66 -142.1,-5.66 Q-144.75,-5.66 -147.02,-4.47 Q-149.3,-3.28 -150.69,-1.07 Q-152.07,1.13 -152.07,4.15 Q-152.07,7.16 -150.76,9.36 Q-149.44,11.56 -147.19,12.76 ZM-139.5,12.6 Q-140.58,13.28 -142.1,13.28 Q-143.62,13.28 -144.7,12.6 Q-145.78,11.92 -146.48,10.68 Q-147.17,9.43 -147.5,7.77 Q-147.84,6.11 -147.84,4.15 Q-147.84,2.18 -147.46,0.52 Q-147.08,-1.15 -146.34,-2.38 Q-145.61,-3.63 -144.55,-4.31 Q-143.47,-4.99 -142.1,-4.99 Q-140.74,-4.99 -139.66,-4.31 Q-138.59,-3.63 -137.84,-2.38 Q-137.1,-1.15 -136.72,0.52 Q-136.35,2.18 -136.35,4.15 Q-136.35,6.11 -136.68,7.77 Q-137.01,9.43 -137.71,10.68 Q-138.4,11.92 -139.5,12.6 ZM-122.87,13.44 Q-121.18,13.95 -119.55,13.95 Q-118.13,13.95 -116.72,13.24 Q-115.31,12.54 -114.26,11.45 L-112.91,13.58 L-112.26,13.58 L-112.26,7.47 L-112.98,7.47 Q-113.13,8.48 -113.69,9.46 Q-114.25,10.44 -115.09,11.25 Q-115.93,12.06 -116.94,12.55 Q-117.94,13.03 -119,13.03 Q-120.73,13.03 -122.07,12.01 Q-123.4,10.99 -124.15,9.01 Q-124.91,7.03 -124.91,4.15 Q-124.91,1.24 -124.21,-0.75 Q-123.5,-2.73 -122.21,-3.76 Q-120.92,-4.79 -119.18,-4.79 Q-118.08,-4.79 -117.07,-4.3 Q-116.05,-3.81 -115.23,-3 Q-114.41,-2.18 -113.87,-1.18 Q-113.31,-0.19 -113.19,0.82 L-112.45,0.82 L-112.45,-5.29 L-113.1,-5.29 L-114.57,-3.35 Q-115.54,-4.32 -116.87,-4.99 Q-118.2,-5.66 -119.74,-5.66 Q-121.24,-5.66 -122.87,-5.15 Q-124.51,-4.64 -125.94,-3.49 Q-127.38,-2.35 -128.26,-0.47 Q-129.15,1.4 -129.15,4.15 Q-129.15,6.89 -128.28,8.76 Q-127.42,10.63 -125.99,11.78 Q-124.56,12.93 -122.87,13.44 ZM-108.75,-5.29 L-108.75,-4.57 L-105.59,-4.57 L-105.59,12.86 L-108.75,12.86 L-108.75,13.58 L-98.58,13.58 L-98.58,12.86 L-102.09,12.86 L-102.09,-4.57 L-98.58,-4.57 L-98.58,-5.29 L-108.75,-5.29 ZM-90.02,13.48 Q-88.67,14.11 -86.95,14.11 Q-85.08,14.11 -83.63,13.45 Q-82.17,12.78 -81.34,11.47 Q-80.49,10.16 -80.49,8.21 Q-80.49,6.5 -81.27,5.37 Q-82.05,4.24 -83.29,3.48 Q-84.51,2.72 -85.91,2.16 Q-87.29,1.59 -88.52,1.06 Q-89.74,0.52 -90.52,-0.2 Q-91.3,-0.91 -91.3,-1.96 Q-91.3,-3.05 -90.47,-3.93 Q-89.64,-4.81 -87.82,-4.81 Q-86.4,-4.81 -85.25,-4.14 Q-84.09,-3.46 -83.28,-2.35 Q-82.46,-1.24 -82.08,0.09 L-81.36,0.09 L-81.36,-5.66 L-81.99,-5.66 L-83.53,-3.73 Q-84.2,-4.39 -85.05,-4.87 Q-86.46,-5.66 -88.17,-5.66 Q-89.9,-5.66 -91.21,-5.07 Q-92.52,-4.48 -93.26,-3.37 Q-94,-2.26 -94,-0.67 Q-94,0.8 -93.42,1.81 Q-92.83,2.81 -91.87,3.51 Q-90.89,4.2 -89.74,4.71 Q-88.58,5.21 -87.42,5.67 Q-86.27,6.13 -85.3,6.65 Q-84.33,7.17 -83.75,7.9 Q-83.16,8.62 -83.16,9.69 Q-83.16,10.7 -83.63,11.52 Q-84.09,12.34 -85.06,12.82 Q-86.01,13.3 -87.5,13.3 Q-88.88,13.3 -90,12.74 Q-91.12,12.17 -91.96,11.29 Q-92.8,10.42 -93.38,9.45 Q-93.95,8.48 -94.24,7.64 L-94.97,7.64 L-94.97,13.95 L-94.33,13.95 L-92.61,11.58 Q-92.48,11.72 -92.35,11.85 Q-91.35,12.84 -90.02,13.48 ZM-77.73,-5.29 L-77.73,1.74 L-76.98,1.74 Q-76.98,-0.33 -76.57,-1.73 Q-76.15,-3.14 -75.16,-3.86 Q-74.17,-4.57 -72.47,-4.57 L-69.71,-4.57 L-69.71,12.86 L-72.86,12.86 L-72.86,13.58 L-63.06,13.58 L-63.06,12.86 L-66.18,12.86 L-66.18,-4.57 L-63.4,-4.57 Q-61.7,-4.57 -60.72,-3.86 Q-59.72,-3.14 -59.31,-1.73 Q-58.89,-0.33 -58.89,1.74 L-58.17,1.74 L-58.17,-5.29 L-77.73,-5.29 ZM-50.88,12.76 Q-48.62,13.95 -45.79,13.95 Q-42.96,13.95 -40.69,12.76 Q-38.43,11.56 -37.12,9.36 Q-35.8,7.16 -35.8,4.15 Q-35.8,1.13 -37.19,-1.07 Q-38.58,-3.28 -40.86,-4.47 Q-43.12,-5.66 -45.79,-5.66 Q-48.44,-5.66 -50.71,-4.47 Q-52.99,-3.28 -54.38,-1.07 Q-55.76,1.13 -55.76,4.15 Q-55.76,7.16 -54.45,9.36 Q-53.13,11.56 -50.88,12.76 ZM-43.19,12.6 Q-44.27,13.28 -45.79,13.28 Q-47.31,13.28 -48.39,12.6 Q-49.47,11.92 -50.17,10.68 Q-50.86,9.43 -51.19,7.77 Q-51.52,6.11 -51.52,4.15 Q-51.52,2.18 -51.15,0.52 Q-50.77,-1.15 -50.03,-2.38 Q-49.3,-3.63 -48.24,-4.31 Q-47.16,-4.99 -45.79,-4.99 Q-44.42,-4.99 -43.35,-4.31 Q-42.27,-3.63 -41.53,-2.38 Q-40.79,-1.15 -40.41,0.52 Q-40.03,2.18 -40.03,4.15 Q-40.03,6.11 -40.37,7.77 Q-40.7,9.43 -41.4,10.68 Q-42.09,11.92 -43.19,12.6 ZM-25.81,-5.29 L-25.81,-4.57 L-23.16,-4.57 L-16.45,13.95 L-15.66,13.95 L-11.01,0.13 L-5.92,13.95 L-5.12,13.95 L1.06,-4.57 L3.07,-4.57 L3.07,-5.29 L-1.89,-5.29 L-1.89,-4.57 L0.27,-4.57 L-4.03,8.29 L-9.01,-4.57 L-4.85,-4.57 L-4.85,-5.29 L-25.81,-5.29 ZM-19.47,-4.57 L-12.74,-4.57 L-11.43,-1.01 L-14.56,8.29 L-19.47,-4.57 ZM4.27,-5.29 L4.27,-4.57 L7.43,-4.57 L7.43,12.86 L4.27,12.86 L4.27,13.58 L14.44,13.58 L14.44,12.86 L10.93,12.86 L10.93,-4.57 L14.44,-4.57 L14.44,-5.29 L4.27,-5.29 ZM16.94,-5.29 L16.94,1.74 L17.68,1.74 Q17.68,-0.33 18.1,-1.73 Q18.51,-3.14 19.5,-3.86 Q20.5,-4.57 22.2,-4.57 L24.95,-4.57 L24.95,12.86 L21.81,12.86 L21.81,13.58 L31.61,13.58 L31.61,12.86 L28.48,12.86 L28.48,-4.57 L31.27,-4.57 Q32.96,-4.57 33.95,-3.86 Q34.94,-3.14 35.36,-1.73 Q35.77,-0.33 35.77,1.74 L36.5,1.74 L36.5,-5.29 L16.94,-5.29 ZM38.99,-5.29 L38.99,-4.57 L41.41,-4.57 L41.41,12.86 L38.99,12.86 L38.99,13.58 L47.69,13.58 L47.69,12.86 L44.93,12.86 L44.93,4.15 L54.53,4.15 L54.53,12.86 L51.76,12.86 L51.76,13.58 L60.46,13.58 L60.46,12.86 L58.07,12.86 L58.07,-4.57 L60.46,-4.57 L60.46,-5.29 L51.76,-5.29 L51.76,-4.57 L54.53,-4.57 L54.53,3.41 L44.93,3.41 L44.93,-4.57 L47.69,-4.57 L47.69,-5.29 L38.99,-5.29 ZM95.07,12.86 L85.52,-14.7 L84.76,-14.7 L75.07,12.86 L71.68,12.86 L71.68,13.58 L79.82,13.58 L79.82,12.86 L75.9,12.86 L78.67,4.9 L88.44,4.9 L91.02,12.86 L87.22,12.86 L87.22,13.58 L97.95,13.58 L97.95,12.86 L95.07,12.86 ZM88.21,4.18 L78.92,4.18 L83.74,-9.65 L88.21,4.18 ZM106.86,13.44 Q108.55,13.95 110.19,13.95 Q111.6,13.95 113.01,13.24 Q114.42,12.54 115.47,11.45 L116.82,13.58 L117.47,13.58 L117.47,7.47 L116.75,7.47 Q116.6,8.48 116.04,9.46 Q115.49,10.44 114.65,11.25 Q113.81,12.06 112.8,12.55 Q111.79,13.03 110.74,13.03 Q109,13.03 107.66,12.01 Q106.34,10.99 105.58,9.01 Q104.82,7.03 104.82,4.15 Q104.82,1.24 105.52,-0.75 Q106.24,-2.73 107.52,-3.76 Q108.81,-4.79 110.56,-4.79 Q111.65,-4.79 112.66,-4.3 Q113.68,-3.81 114.5,-3 Q115.33,-2.18 115.87,-1.18 Q116.42,-0.19 116.54,0.82 L117.29,0.82 L117.29,-5.29 L116.63,-5.29 L115.16,-3.35 Q114.2,-4.32 112.86,-4.99 Q111.53,-5.66 110,-5.66 Q108.5,-5.66 106.86,-5.15 Q105.23,-4.64 103.79,-3.49 Q102.35,-2.35 101.47,-0.47 Q100.58,1.4 100.58,4.15 Q100.58,6.89 101.45,8.76 Q102.32,10.63 103.74,11.78 Q105.17,12.93 106.86,13.44 ZM120.71,-5.29 L120.71,1.74 L121.45,1.74 Q121.45,-0.33 121.86,-1.73 Q122.28,-3.14 123.27,-3.86 Q124.26,-4.57 125.96,-4.57 L128.72,-4.57 L128.72,12.86 L125.57,12.86 L125.57,13.58 L135.38,13.58 L135.38,12.86 L132.25,12.86 L132.25,-4.57 L135.03,-4.57 Q136.73,-4.57 137.72,-3.86 Q138.71,-3.14 139.12,-1.73 Q139.54,-0.33 139.54,1.74 L140.26,1.74 L140.26,-5.29 L120.71,-5.29 ZM142.76,-5.29 L142.76,-4.57 L145.92,-4.57 L145.92,12.86 L142.76,12.86 L142.76,13.58 L152.93,13.58 L152.93,12.86 L149.42,12.86 L149.42,-4.57 L152.93,-4.57 L152.93,-5.29 L142.76,-5.29 ZM160.5,12.76 Q162.76,13.95 165.59,13.95 Q168.42,13.95 170.69,12.76 Q172.95,11.56 174.26,9.36 Q175.58,7.16 175.58,4.15 Q175.58,1.13 174.19,-1.07 Q172.8,-3.28 170.52,-4.47 Q168.26,-5.66 165.59,-5.66 Q162.95,-5.66 160.67,-4.47 Q158.39,-3.28 157,-1.07 Q155.62,1.13 155.62,4.15 Q155.62,7.16 156.93,9.36 Q158.25,11.56 160.5,12.76 ZM168.19,12.6 Q167.11,13.28 165.59,13.28 Q164.08,13.28 162.99,12.6 Q161.91,11.92 161.21,10.68 Q160.52,9.43 160.19,7.77 Q159.86,6.11 159.86,4.15 Q159.86,2.18 160.24,0.52 Q160.62,-1.15 161.35,-2.38 Q162.08,-3.63 163.14,-4.31 Q164.22,-4.99 165.59,-4.99 Q166.96,-4.99 168.03,-4.31 Q169.11,-3.63 169.85,-2.38 Q170.59,-1.15 170.97,0.52 Q171.35,2.18 171.35,4.15 Q171.35,6.11 171.01,7.77 Q170.68,9.43 169.98,10.68 Q169.29,11.92 168.19,12.6 ZM181.24,13.58 L178.26,13.58 L178.26,12.86 L181.24,12.86 L181.24,-4.57 L178.26,-4.57 L178.26,-5.29 L185.71,-5.29 L195.08,7.77 L195.08,-4.57 L191.92,-4.57 L191.92,-5.29 L198.83,-5.29 L198.83,-4.57 L195.84,-4.57 L195.84,13.95 L194.58,13.95 L182,-4.5 L182,12.86 L185.07,12.86 L185.07,13.58 L181.24,13.58 ZM207.11,13.48 Q208.46,14.11 210.17,14.11 Q212.04,14.11 213.5,13.45 Q214.96,12.78 215.79,11.47 Q216.63,10.16 216.63,8.21 Q216.63,6.5 215.86,5.37 Q215.08,4.24 213.84,3.48 Q212.61,2.72 211.22,2.16 Q209.84,1.59 208.61,1.06 Q207.38,0.52 206.61,-0.2 Q205.83,-0.91 205.83,-1.96 Q205.83,-3.05 206.66,-3.93 Q207.49,-4.81 209.31,-4.81 Q210.73,-4.81 211.88,-4.14 Q213.04,-3.46 213.85,-2.35 Q214.67,-1.24 215.04,0.09 L215.77,0.09 L215.77,-5.66 L215.13,-5.66 L213.6,-3.73 Q212.92,-4.39 212.08,-4.87 Q210.67,-5.66 208.96,-5.66 Q207.23,-5.66 205.92,-5.07 Q204.61,-4.48 203.87,-3.37 Q203.13,-2.26 203.13,-0.67 Q203.13,0.8 203.71,1.81 Q204.29,2.81 205.26,3.51 Q206.24,4.2 207.39,4.71 Q208.55,5.21 209.71,5.67 Q210.86,6.13 211.83,6.65 Q212.8,7.17 213.38,7.9 Q213.97,8.62 213.97,9.69 Q213.97,10.7 213.5,11.52 Q213.04,12.34 212.07,12.82 Q211.11,13.3 209.62,13.3 Q208.25,13.3 207.13,12.74 Q206.01,12.17 205.17,11.29 Q204.33,10.42 203.75,9.45 Q203.18,8.48 202.88,7.64 L202.16,7.64 L202.16,13.95 L202.79,13.95 L204.52,11.58 Q204.65,11.72 204.78,11.85 Q205.78,12.84 207.11,13.48 Z" style="fill:#9B0055;" />
	</g>
</svg>