<?xml version="1.0" encoding="UTF-8"?>
<!-- Created with Grafika (https://www.grafika.cc/) -->
<svg xmlns="http://www.w3.org/2000/svg" xmlns:svg="http://www.w3.org/2000/svg" xmlns:xlink="http://www.w3.org/1999/xlink" width="2381.1" height="3367.56" viewBox="0 0 793.7 1122.52" preserveAspectRatio="xMidYMid meet">
	<rect x="0" y="0" width="793.7" height="1122.52" fill="#FFFFFF" />
	<rect transform="matrix(3.9580423831939697, 0, 0, 3.9580423831939697, 396.85040283203125, 561.2598266601562)" x="-100.26" y="-141.8" width="200.53" height="283.6" style="fill:#001D3D;" />
	<g id="グループ2" transform="matrix(1.2334953546524048, 0, 0, 1.2334954738616943, 398.84295654296875, 738.0042724609375)">
		<g transform="matrix(0.2412073165178299, 0, 0, 0.2412073165178299, -7.652552604675293, -510.32794189453125)">
			<path d="M-471.31,-15.52 L-471.31,-13.07 L-435.4,-13.07 L-435.4,-15.52 L-471.31,-15.52 ZM-471.31,-33.89 L-471.31,-31.59 L-435.4,-31.59 L-435.4,-33.89 L-471.31,-33.89 ZM-471.31,-50.12 L-435.4,-50.12 L-435.4,-52.42 L-471.31,-52.42 L-471.31,-50.12 ZM-425.39,17.93 L-431.13,13.5 L-431.79,18.75 L-425.39,17.93 ZM-431.95,42.52 L-431.79,44.65 L-371.61,44.65 L-371.61,73.51 L-534.43,73.18 L-534.43,44.65 L-474.58,44.65 L-474.58,42.03 L-505.25,42.69 L-505.08,37.11 L-513.28,44 L-536.57,18.09 L-520.83,11.04 L-534.27,11.69 L-534.11,-20.77 L-512.95,-20.12 L-512.79,-49.14 L-532.3,-48.48 L-532.3,-81.93 L-512.79,-81.28 L-513.45,-92.43 L-470.65,-91.61 L-471.31,-81.11 L-435.4,-81.11 L-436.05,-91.61 L-392.6,-92.1 L-393.25,-81.11 L-373.74,-81.61 L-373.74,-48.16 L-393.25,-48.98 L-393.42,-19.95 L-372.27,-20.44 L-372.43,12.19 L-388.5,11.37 L-369.81,18.42 L-393.09,44.16 L-401.45,37.44 L-401.45,43.18 L-431.95,42.52 ZM-434.25,11.2 L-471.8,11.2 L-474.91,13.5 L-431.3,13.5 L-434.25,11.2 ZM-481.14,17.93 L-474.58,18.42 L-475.24,13.66 L-481.14,17.93 ZM-315.71,-34.71 L-352.77,-34.05 L-352.77,-74.55 L-294.56,-73.9 L-295.38,-92.76 L-248.64,-92.76 L-249.3,-73.9 L-191.09,-74.55 L-191.09,-34.05 L-225.52,-34.87 L-188.63,-0.6 L-212.24,51.21 L-227.49,30.72 L-227.49,48.75 L-249.96,48.1 L-249.14,73.68 L-294.56,73.68 L-293.9,48.1 L-316.36,48.75 L-316.36,29.73 L-332.27,51.21 L-355.23,0.05 L-315.71,-34.71 ZM-249.79,0.05 L-249.96,13.83 L-240.28,13.17 L-249.79,0.05 ZM-293.9,13.83 L-293.9,0.05 L-303.57,13.17 L-293.9,13.83 ZM-137.81,18.42 L-137.81,30.72 L-134.2,30.72 L-134.2,18.42 L-137.81,18.42 ZM-137.65,-17.82 L-134.04,-17.82 L-134.04,-30.12 L-137.65,-30.12 L-137.65,-17.82 ZM-9.91,73.02 L-75.17,71.05 L-74.19,31.54 L-47.3,32.19 L-46.32,-39.3 L-64.84,-39.3 L-69.6,-31.92 L-54.35,-34.71 L-47.79,21.7 L-75.01,26.78 L-85.18,-7.82 L-88.62,-1.92 L-98.62,-12.08 L-98.62,66.95 L-173.56,66.79 L-173.39,-67.34 L-156.34,-67.18 L-154.7,-92.43 L-111.08,-89.15 L-115.51,-67.18 L-98.46,-67.18 L-98.46,-61.44 L-88.29,-92.43 L-39.43,-86.52 L-45.5,-76.85 L-6.96,-76.85 L-9.91,73.02 ZM7.45,43.67 L66.65,-21.43 L65.99,-92.43 L114.2,-92.43 L113.54,-21.43 L174.05,43.67 L137.32,73.51 L90.75,12.84 L44.18,73.51 L7.45,43.67 ZM261.27,-53.07 L246.84,-55.86 L246.84,-53.73 L261.27,-53.07 ZM276.03,-53.07 L278.82,-56.52 L274.55,-56.52 L272.26,-53.07 L276.03,-53.07 ZM258.32,-25.53 L245.2,-24.87 L245.2,-31.43 L239.79,-32.09 L249.3,-16.84 L258.32,-25.53 ZM298.49,27.11 L290.95,27.11 L290.95,29.73 L298.49,29.73 L298.49,27.11 ZM290.95,6.45 L290.95,8.58 L298.49,8.58 L298.49,6.45 L290.95,6.45 ZM298.82,-16.51 L301.44,-25.53 L298.33,-25.53 L292.1,-16.51 L298.82,-16.51 ZM335.22,8.58 L348.18,7.92 L348.18,27.76 L335.22,27.11 L335.22,29.73 L348.18,29.08 L348.18,49.08 L335.22,48.42 L335.22,50.39 L353.09,49.74 L353.09,73.35 L251.92,73.35 L251.92,17.6 L249.14,12.68 L241.92,31.7 L237.99,20.39 L238.64,73.35 L197.32,73.35 L197.98,21.7 L190.6,50.23 L188.3,-1.92 L196.5,-32.09 L188.63,-31.43 L188.63,-70.29 L197.98,-69.64 L197.32,-93.08 L238.64,-93.08 L237.99,-69.64 L244.71,-70.29 L249.96,-92.76 L291.93,-91.44 L289.15,-86.85 L352.11,-88.16 L352.11,-55.86 L318.33,-56.52 L316.2,-53.07 L355.39,-53.73 L355.39,-24.87 L329.97,-25.69 L343.75,-22.41 L338.83,-16.51 L349.82,-17.16 L349.82,7.1 L335.22,6.45 L335.22,8.58 ZM290.95,50.39 L298.49,50.39 L298.49,48.42 L290.95,48.42 L290.95,50.39 ZM419.82,-31.92 L419.82,-72.75 L469.34,-70.95 L468.35,-91.28 L512.95,-91.44 L511.97,-69.64 L534.93,-70.62 L534.76,-30.45 L510.5,-32.09 L510.66,-9.79 L536.73,1.53 L525.42,47.28 L508.04,33.01 L502.46,73.35 L454.58,72.86 L418.34,55.48 L420.15,71.87 L375.55,72.69 L370.79,-12.57 L375.22,-91.12 L419.82,-89.64 L413.42,-12.57 L417.19,44.32 L426.21,-18.48 L469.67,-17.16 L469.67,-32.91 L419.82,-31.92 ZM458.35,20.55 L457.2,33.83 L467.21,36.29 L468.85,21.2 L458.35,20.55 Z" fill="#FFFFFF" />
		</g>
		<g transform="matrix(0.21745942533016205, 0, 0, 0.21745947003364563, -6.990932941436768, -416.0885925292969)">
			<path d="M-883.76,51.92 L-813.38,-25.48 L-814.16,-109.9 L-756.84,-109.9 L-757.62,-25.48 L-685.68,51.92 L-729.35,87.41 L-784.72,15.27 L-840.09,87.41 L-883.76,51.92 ZM-560.71,-67.2 L-558.95,-70.12 L-585.47,-70.12 L-585.47,-86.7 L-593.85,-68.17 L-587.42,-68.95 L-587.42,-32.3 L-596.97,-33.08 L-583.52,-27.62 L-583.52,-67.2 L-560.71,-67.2 ZM-540.82,11.37 L-540.82,14.49 L-532.44,14.49 L-532.44,11.37 L-540.82,11.37 ZM-540.82,-12.61 L-540.82,-9.49 L-532.44,-9.49 L-532.44,-12.61 L-540.82,-12.61 ZM-540.82,-34.25 L-532.44,-34.25 L-532.44,-37.37 L-540.82,-37.37 L-540.82,-34.25 ZM-539.65,46.46 L-543.36,87.41 L-591.32,79.61 L-575.72,43.34 L-583.52,43.34 L-583.32,-17.09 L-593.07,-1.3 L-585.86,-2.08 L-585.86,36.33 L-599.51,35.55 L-581.96,55.43 L-615.88,87.41 L-630.7,55.43 L-650.2,87.41 L-684.7,55.24 L-664.23,35.55 L-682.76,36.33 L-682.76,-2.08 L-672.62,-1.3 L-684.7,-24.11 L-667.94,-33.08 L-682.76,-32.3 L-682.76,-68.95 L-675.15,-68.17 L-684.7,-98.39 L-658.19,-109.7 L-653.9,-93.52 L-654.68,-109.9 L-610.42,-109.9 L-611.2,-94.1 L-607.5,-109.12 L-585.47,-101.71 L-585.47,-108.34 L-485.45,-108.34 L-485.45,-70.12 L-511.97,-70.12 L-514.11,-67.2 L-489.35,-67.2 L-489.35,43.15 L-497.74,43.34 L-486.04,79.8 L-532.44,87.41 L-534.97,46.46 L-500.66,43.34 L-566.36,43.34 L-539.65,46.46 ZM-611.2,-71.49 L-611.2,-68.17 L-598.53,-68.17 L-611.2,-71.49 ZM-653.9,-68.17 L-653.9,-71.68 L-667.35,-68.37 L-653.9,-68.17 ZM-611.2,-1.3 L-606.53,-1.3 L-611.98,-7.15 L-611.2,-1.3 ZM-653.9,-5.98 L-659.36,-1.3 L-654.68,-1.3 L-653.9,-5.98 ZM-359.7,-52.19 L-374.52,79.61 L-430.67,81.17 L-484.48,51.53 L-473.56,-90.4 L-393.24,-106 L-307.45,-92.74 L-286.4,-17.09 L-300.44,66.35 L-356.58,82.73 L-368.28,28.14 L-345.67,24.24 L-336.31,-14.75 L-346.45,-49.07 L-359.7,-52.19 ZM-418.97,33.6 L-409.61,-52.97 L-425.99,-49.07 L-432.23,25.8 L-418.97,33.6 ZM-154.21,16.44 L-135.3,10.01 L-135.5,5.33 L-153.63,5.33 L-160.26,9.23 L-154.21,16.44 ZM-193.21,-57.84 L-169.03,-67 L-190.28,-68.37 L-198.86,-64.08 L-193.21,-57.84 ZM-284.25,-74.41 L-212.51,-110.29 L-110.15,-106.78 L-111.91,-46.34 L-135.89,-37.57 L-86.76,-36.98 L-86.56,42.76 L-237.27,91.11 L-251.5,47.63 L-228.3,41.2 L-251.7,10.98 L-211.14,-9.49 L-270.02,17.02 L-285.23,-25.87 L-236.1,-39.32 L-239.02,-44.58 L-267.49,-31.72 L-284.25,-74.41 ZM-194.57,30.87 L-197.5,26.77 L-216.8,38.08 L-194.57,30.87 ZM-64.92,-15.34 L-84.42,-22.75 L-59.85,-109.9 L3.12,-106 L-1.75,-95.66 L107.81,-96.83 L107.62,-51.99 L54.39,-52.97 L54.39,-42.24 L101.77,-42.83 L101.77,-1.3 L54.39,-2.86 L54.39,14.29 L112.3,13.12 L112.49,56.6 L54.39,54.65 L55.56,86.24 L1.95,86.24 L3.9,54.65 L-84.42,55.04 L-84.61,13.9 L-65.12,14.1 L-64.92,-15.34 ZM-22.42,-42.24 L3.9,-42.24 L3.9,-52.97 L-17.55,-52.97 L-22.42,-42.24 ZM-15.01,13.9 L3.9,14.29 L3.9,-2.86 L-14.82,-2.86 L-15.01,13.9 ZM118.93,-103.27 L116.2,0.84 L121.85,82.14 L175.47,81.95 L166.3,1.43 L170.59,-103.85 L118.93,-103.27 ZM180.92,-54.72 L179.17,-103.85 L304.14,-102.88 L299.46,-37.96 L247.21,-37.76 L250.33,-58.43 L180.92,-54.72 ZM179.56,-2.28 L174.1,48.61 L206.07,79.02 L302.39,78.83 L301.41,29.7 L235.9,33.6 L225.96,26.19 L231.42,0.45 L179.56,-2.28 ZM391.87,24.82 L395.19,87.21 L343.52,87.21 L344.69,40.61 L329.29,61.28 L308.04,8.64 L342.94,-27.23 L309.79,-24.11 L308.82,-76.75 L341.57,-75.58 L339.43,-107.36 L392.46,-107.75 L390.7,-72.66 L437.49,-99.17 L480.39,-82.6 L504.37,-21.77 L495.2,77.07 L415.66,85.46 L407.66,32.82 L449.19,30.87 L453.68,-11.25 L439.25,-41.66 L391.48,-13.58 L391.87,24.82 ZM577.67,16.83 L625.83,24.63 L620.37,42.17 L625.44,46.46 L693.28,41.78 L696.4,86.43 L583.52,86.24 L571.43,62.84 L577.67,16.83 ZM509.43,-40.29 L509.82,-89.42 L538.68,-88.06 L541.02,-110.09 L596.58,-107.75 L592.68,-90.59 L674.18,-98.59 L678.08,-49.46 L582.16,-45.36 L563.05,88.77 L506.71,79.8 L533.41,-42.24 L509.43,-40.29 ZM590.54,-42.83 L695.43,-45.17 L693.28,0.65 L590.93,-0.91 L590.54,-42.83 ZM708.49,-61.94 L705.57,-105.8 L870.31,-105.61 L869.33,-60.38 L819.03,-39.9 L866.6,-37.37 L883.57,32.23 L841.06,84.48 L725.45,87.6 L700.11,47.05 L722.33,-2.67 L801.49,1.62 L820.01,26.97 L828.39,20.34 L822.74,0.45 L702.25,-7.74 L701.67,-36.98 L779.65,-64.27 L708.49,-61.94 ZM766.2,38.08 L757.62,37.49 L752.36,46.85 L772.63,45.88 L766.2,38.08 Z" fill="#FFFFFF" />
		</g>
		<g id="グループ 22">
			<g transform="matrix(0.244836688041687, 0, 0, 0.2448367476463318, 232.44590759277344, -332.03997802734375)">
				<path d="M-161.76,-49.27 L-112.84,-49.27 L-114.56,-56.57 L-161.33,-56.57 L-161.76,-49.27 ZM-164.33,17.02 L-156.18,17.66 L-155.32,2 L-163.47,2 L-164.33,17.02 ZM-119.92,-120.28 L-62,-120.28 L-62,-103.98 L-57.28,-104.19 L-60.28,-115.99 L-9.65,-120.5 L-10.08,-104.19 L-1.72,-105.05 L-1.5,-55.71 L-61.36,-56.57 L-59.21,-31.9 L-42.05,-54.85 L-0.86,-19.88 L-34.33,15.52 L0,19.59 L-5.15,95.97 L-91.61,75.37 L-118.42,98.75 L-139.23,68.93 L-163.05,70.22 L-164.98,46.84 L-166.69,96.61 L-219.68,93.61 L-209.6,-103.12 L-118.85,-103.12 L-119.92,-120.28 ZM-110.91,20.66 L-105.55,14.44 L-110.27,-22.89 L-110.91,20.66 ZM-47.2,30.75 L-41.19,31.82 L-40.33,22.38 L-47.2,30.75 ZM82.38,-83.17 L63.5,-83.17 L63.5,-79.52 L82.38,-79.52 L82.38,-83.17 ZM137.73,-83.17 L137.73,-79.31 L156.61,-79.52 L156.61,-83.17 L137.73,-83.17 ZM63.72,-48.63 L82.6,-48.63 L82.6,-52.49 L63.72,-52.49 L63.72,-48.63 ZM10.08,-16.45 L10.08,-118.78 L210.03,-118.78 L210.03,-16.45 L137.73,-16.45 L137.73,-11.95 L215.82,-12.8 L215.82,30.96 L177.42,30.1 L219.25,43.19 L199.73,92.1 L137.73,57.78 L138.59,95.75 L81.31,95.75 L82.38,57.78 L20.38,91.89 L0.64,41.9 L41.19,29.89 L4.29,30.96 L4.51,-12.8 L82.38,-12.16 L82.38,-16.66 L10.08,-16.45 ZM156.61,-48.63 L156.61,-52.49 L137.73,-52.49 L137.73,-48.63 L156.61,-48.63 Z" fill="#CCB05E" />
				<path d="M-226.02,93.28 C-226.2,96.77 -223.53,99.74 -220.04,99.94 L-167.05,102.94 C-167,102.95 -166.96,102.95 -166.91,102.95 C-163.41,103.07 -160.47,100.33 -160.35,96.83 L-159.65,76.39 L-142.42,75.46 L-123.63,102.39 C-123.5,102.57 -123.35,102.75 -123.2,102.92 C-120.9,105.57 -116.89,105.84 -114.25,103.54 L-89.9,82.3 L-6.62,102.14 C-6.28,102.22 -5.93,102.27 -5.58,102.3 C-2.08,102.53 0.95,99.89 1.18,96.39 L3.25,65.77 L14.48,94.22 C14.58,94.47 14.69,94.71 14.82,94.95 C16.51,98.02 20.37,99.14 23.44,97.45 L75.73,68.68 L74.97,95.57 C74.96,95.63 74.96,95.69 74.96,95.75 C74.96,99.25 77.8,102.1 81.31,102.1 L138.59,102.1 C138.64,102.1 138.68,102.1 138.73,102.09 C142.24,102.01 145.01,99.11 144.93,95.61 L144.32,68.68 L196.66,97.65 C196.89,97.78 197.13,97.9 197.38,98 C200.63,99.3 204.32,97.71 205.62,94.46 L225.15,45.54 C225.21,45.39 225.26,45.24 225.31,45.08 C226.36,41.74 224.49,38.18 221.15,37.13 L218.99,36.46 C220.89,35.36 222.17,33.31 222.17,30.96 L222.17,-12.8 C222.17,-12.83 222.17,-12.85 222.17,-12.87 C222.13,-16.17 219.59,-18.85 216.37,-19.12 L216.37,-118.78 C216.37,-122.29 213.53,-125.13 210.03,-125.13 L10.08,-125.13 C6.58,-125.13 3.74,-122.29 3.74,-118.78 L3.74,-108.3 C2.51,-110.35 0.17,-111.62 -2.36,-111.36 L-3.55,-111.24 L-3.31,-120.33 C-3.3,-120.58 -3.31,-120.82 -3.33,-121.06 C-3.64,-124.55 -6.73,-127.13 -10.22,-126.82 L-56.14,-122.73 C-57.1,-125.02 -59.36,-126.63 -62,-126.63 L-119.92,-126.63 C-120.06,-126.63 -120.19,-126.63 -120.32,-126.62 C-123.82,-126.4 -126.48,-123.39 -126.26,-119.89 L-125.61,-109.47 L-209.6,-109.47 C-212.98,-109.47 -215.76,-106.82 -215.94,-103.45 L-226.02,93.28 ZM-213.02,87.63 L-203.57,-96.78 L-118.85,-96.78 C-115.35,-96.78 -112.51,-99.62 -112.51,-103.12 C-112.51,-103.25 -112.51,-103.39 -112.52,-103.52 L-113.17,-113.94 L-68.35,-113.94 L-68.35,-103.98 C-68.35,-100.48 -65.5,-97.64 -62,-97.64 C-61.9,-97.64 -61.81,-97.64 -61.71,-97.64 L-56.99,-97.86 C-53.49,-98.02 -50.78,-100.98 -50.94,-104.48 C-50.96,-104.91 -51.03,-105.34 -51.13,-105.76 L-52.3,-110.33 L-16.18,-113.55 L-16.43,-104.36 C-16.52,-100.86 -13.75,-97.94 -10.25,-97.85 C-9.98,-97.84 -9.71,-97.86 -9.44,-97.88 L-8.03,-98.03 L-7.87,-62.15 L-61.27,-62.91 C-64.77,-62.96 -67.65,-60.16 -67.7,-56.66 C-67.7,-56.45 -67.7,-56.23 -67.68,-56.02 L-65.53,-31.35 C-65.23,-27.86 -62.15,-25.27 -58.66,-25.58 C-56.86,-25.73 -55.21,-26.65 -54.13,-28.1 L-41.01,-45.65 L-10.07,-19.38 L-38.94,11.16 C-40.23,12.52 -40.79,14.31 -40.65,16.04 C-42.42,16.13 -44.09,16.96 -45.24,18.36 L-52.1,26.72 C-54.33,29.43 -53.93,33.43 -51.22,35.65 C-50.38,36.34 -49.38,36.8 -48.31,36.99 L-42.31,38.07 C-38.86,38.68 -35.56,36.38 -34.94,32.94 C-34.91,32.76 -34.89,32.58 -34.87,32.39 L-34.01,22.95 C-33.98,22.61 -33.98,22.27 -34,21.94 L-6.74,25.18 L-10.97,88.05 L-90.14,69.2 C-92.13,68.72 -94.23,69.24 -95.78,70.59 L-117.26,89.33 L-134.03,65.3 C-135.29,63.5 -137.38,62.48 -139.57,62.6 L-157.23,63.55 L-158.65,46.31 C-158.94,42.82 -162.01,40.23 -165.5,40.51 C-168.71,40.78 -171.21,43.4 -171.32,46.62 L-172.81,89.91 L-213.02,87.63 ZM-168.09,-49.65 C-168.3,-46.15 -165.63,-43.15 -162.13,-42.94 C-162.01,-42.93 -161.88,-42.93 -161.76,-42.93 L-112.84,-42.93 C-109.34,-42.93 -106.5,-45.77 -106.5,-49.27 C-106.5,-49.76 -106.56,-50.25 -106.67,-50.73 L-108.38,-58.02 C-109.06,-60.89 -111.62,-62.91 -114.56,-62.91 L-161.33,-62.91 C-164.69,-62.91 -167.47,-60.29 -167.66,-56.94 L-168.09,-49.65 ZM-117.26,20.57 C-117.31,24.07 -114.51,26.96 -111.01,27.01 C-109.13,27.04 -107.33,26.23 -106.11,24.81 L-100.74,18.59 C-99.57,17.22 -99.03,15.43 -99.26,13.65 L-103.98,-23.68 C-104.41,-27.16 -107.59,-29.62 -111.07,-29.18 C-114.2,-28.78 -116.57,-26.14 -116.61,-22.98 L-117.26,20.57 ZM-54.43,-50.12 L-53.52,-50.11 L-54.33,-49.02 L-54.43,-50.12 ZM-26.2,-49.72 L-1.59,-49.37 C-1.55,-49.37 -1.51,-49.36 -1.47,-49.37 C0.69,-49.37 2.6,-50.47 3.74,-52.13 L3.74,-24.26 C3.58,-24.42 3.42,-24.57 3.25,-24.72 L-26.2,-49.72 ZM-21.04,10.7 L-1.86,-9.59 L-1.97,12.97 L-21.04,10.7 ZM9.09,46.02 L42.99,35.97 C46.35,34.98 48.27,31.45 47.27,28.09 C46.46,25.33 43.88,23.46 41.01,23.55 L10.67,24.43 L10.82,-6.41 L82.33,-5.81 C85.83,-5.79 88.7,-8.6 88.73,-12.11 C88.73,-12.12 88.73,-12.14 88.73,-12.16 L88.73,-16.66 C88.73,-20.17 85.89,-23.01 82.38,-23.01 C82.37,-23.01 82.37,-23.01 82.36,-23.01 L16.43,-22.81 L16.43,-112.44 L203.68,-112.44 L203.68,-22.8 L137.73,-22.8 C134.23,-22.8 131.39,-19.95 131.39,-16.45 L131.39,-11.95 C131.39,-8.44 134.23,-5.6 137.73,-5.6 C137.75,-5.6 137.78,-5.6 137.8,-5.6 L209.48,-6.39 L209.48,24.47 L177.56,23.76 C174.06,23.68 171.15,26.46 171.08,29.96 C171.01,32.79 172.83,35.31 175.52,36.16 L210.82,47.2 L196.51,83.07 L140.8,52.23 C137.74,50.53 133.88,51.64 132.18,54.7 C131.64,55.69 131.36,56.8 131.39,57.92 L132.1,89.41 L87.84,89.41 L88.72,57.96 C88.82,54.45 86.06,51.53 82.56,51.44 C81.43,51.4 80.31,51.67 79.32,52.22 L23.64,82.86 L9.09,46.02 ZM57.16,-83.17 L57.16,-79.52 C57.16,-76.02 60,-73.18 63.5,-73.18 L82.38,-73.18 C85.89,-73.18 88.73,-76.02 88.73,-79.52 L88.73,-83.17 C88.73,-86.67 85.89,-89.52 82.38,-89.52 L63.5,-89.52 C60,-89.52 57.16,-86.67 57.16,-83.17 ZM57.37,-52.49 L57.37,-48.63 C57.37,-45.13 60.21,-42.29 63.72,-42.29 L82.6,-42.29 C86.1,-42.29 88.94,-45.13 88.94,-48.63 L88.94,-52.49 C88.94,-56 86.1,-58.84 82.6,-58.84 L63.72,-58.84 C60.21,-58.84 57.37,-56 57.37,-52.49 ZM131.39,-83.17 L131.39,-79.31 C131.39,-75.8 134.23,-72.96 137.73,-72.96 C137.75,-72.96 137.78,-72.96 137.8,-72.96 L156.68,-73.18 C160.16,-73.22 162.95,-76.05 162.95,-79.52 L162.95,-83.17 C162.95,-86.67 160.11,-89.52 156.61,-89.52 L137.73,-89.52 C134.23,-89.52 131.39,-86.67 131.39,-83.17 ZM131.39,-52.49 L131.39,-48.63 C131.39,-45.13 134.23,-42.29 137.73,-42.29 L156.61,-42.29 C160.11,-42.29 162.95,-45.13 162.95,-48.63 L162.95,-52.49 C162.95,-56 160.11,-58.84 156.61,-58.84 L137.73,-58.84 C134.23,-58.84 131.39,-56 131.39,-52.49 Z" fill="#FFFFFF" fill-rule="evenodd" />
			</g>
			<g transform="matrix(0.244836688041687, 0, 0, 0.2448367476463318, -30.573440551757812, -323.6336669921875)">
				<path d="M21.62,-43.8 L9.17,66.94 L-38,68.25 L-83.21,43.35 L-74.04,-75.9 L-6.55,-89.01 L65.52,-77.87 L83.21,-14.31 L71.42,55.8 L24.24,69.56 L14.42,23.69 L33.42,20.42 L41.28,-12.35 L32.76,-41.18 L21.62,-43.8 ZM-28.18,28.28 L-20.31,-44.45 L-34.07,-41.18 L-39.31,21.73 L-28.18,28.28 Z" fill="#FFFFFF" />
			</g>
			<g transform="matrix(0.244836688041687, 0, 0, 0.2448367476463318, 55.30952072143555, -332.03997802734375)">
				<path d="M-152.75,-9.37 L-166.05,-2.08 L-144.38,-2.08 L-144.6,-4.01 L-152.75,-9.37 ZM-157.9,-64.51 L-154.89,-70.08 L-161.33,-70.08 L-162.4,-67.51 L-157.9,-64.51 ZM-62.21,-14.09 L-85.6,-1.65 L-40.76,-1.43 L-62.21,-14.09 ZM-100.4,-51.42 L-108.55,-62.58 L-92.46,-75.45 L-104.91,-75.45 L-115.63,-48.85 L-109.41,-45.41 L-100.4,-51.42 ZM-58.57,-68.37 L-54.06,-75.23 L-61.57,-75.23 L-58.57,-68.37 ZM-194.15,-121.36 L-137.3,-119.21 L-140.95,-111.92 L-110.48,-111.92 L-110.48,-119.43 L-3.22,-119 L-3.43,-68.8 L-19.52,-46.7 L-0.21,-41.12 L-9.87,15.94 L-15.45,12.51 L-17.59,96.18 L-103.83,92.96 L-96.11,49.2 L-69.51,51.34 L-69.29,42.76 L-97.61,42.55 L-157.68,96.39 L-216.25,67.86 L-169.7,42.55 L-212.6,42.33 L-212.39,7.58 L-219.25,-22.89 L-191.36,-30.4 L-219.25,-61.29 L-212.6,-70.3 L-218.82,-69.44 L-218.61,-113.21 L-198.01,-112.35 L-194.15,-121.36 ZM-122.28,-11.09 L-101.05,-11.09 L-110.06,-32.54 L-122.28,-11.09 ZM-184.5,-32.75 L-187.72,-35.33 L-190.51,-30.61 L-184.5,-32.75 ZM59.43,-40.05 L5.15,-39.19 L5.15,-91.54 L62,-90.68 L60.93,-120.28 L121.43,-120.28 L120.78,-90.68 L217.11,-91.54 L213.89,95.97 L111.13,92.75 L116.92,38.26 L161.11,39.76 L162.4,-39.19 L113.27,-40.05 L68.65,98.75 L1.07,70.22 L59.43,-40.05 Z" fill="#CCB05E" />
				<path d="M-225.44,-21.49 L-218.74,8.26 L-218.95,42.29 Q-218.95,42.3 -218.95,42.3 C-218.97,45.8 -216.14,48.66 -212.63,48.68 L-194.42,48.77 L-219.28,62.29 C-220.44,62.92 -221.38,63.9 -221.95,65.08 C-223.49,68.23 -222.18,72.03 -219.03,73.57 L-160.46,102.1 C-158.14,103.23 -155.37,102.84 -153.45,101.12 L-103.87,56.68 L-110.08,91.86 C-110.13,92.15 -110.16,92.43 -110.17,92.73 C-110.31,96.23 -107.57,99.17 -104.07,99.3 L-17.83,102.52 C-17.8,102.52 -17.78,102.52 -17.75,102.52 C-14.25,102.61 -11.34,99.85 -11.25,96.34 L-9.35,22.27 C-6.53,22.04 -4.11,19.92 -3.61,17 L4.82,-32.85 C4.96,-32.85 5.11,-32.84 5.25,-32.85 L48.8,-33.54 L-4.54,67.25 C-4.62,67.42 -4.7,67.58 -4.77,67.75 C-6.14,70.98 -4.62,74.7 -1.4,76.07 L66.18,104.6 C66.36,104.67 66.53,104.74 66.71,104.79 C70.04,105.87 73.62,104.03 74.69,100.7 L117.87,-33.62 L155.95,-32.96 L154.88,33.2 L117.14,31.91 C113.81,31.8 110.96,34.28 110.61,37.58 L104.82,92.08 C104.8,92.23 104.79,92.39 104.79,92.55 C104.68,96.05 107.43,98.98 110.93,99.09 L213.69,102.31 C213.72,102.31 213.75,102.31 213.78,102.31 C217.28,102.37 220.17,99.58 220.23,96.07 L223.45,-91.43 C223.45,-91.48 223.45,-91.54 223.45,-91.59 C223.42,-95.1 220.56,-97.91 217.05,-97.88 L127.27,-97.08 L127.77,-120.15 C127.77,-120.19 127.77,-120.24 127.77,-120.28 C127.77,-123.79 124.93,-126.63 121.43,-126.63 L60.93,-126.63 C60.85,-126.63 60.77,-126.63 60.7,-126.63 C57.2,-126.5 54.46,-123.56 54.59,-120.05 L55.42,-97.12 L5.24,-97.88 C5.21,-97.88 5.18,-97.88 5.15,-97.88 C4.41,-97.88 3.7,-97.76 3.04,-97.52 L3.13,-118.97 C3.14,-122.48 0.31,-125.33 -3.19,-125.34 L-110.46,-125.77 C-110.47,-125.77 -110.48,-125.77 -110.48,-125.77 C-113.99,-125.77 -116.83,-122.93 -116.83,-119.43 L-116.83,-118.26 L-131.03,-118.26 C-130.99,-118.5 -130.97,-118.73 -130.96,-118.97 C-130.83,-122.47 -133.56,-125.42 -137.06,-125.55 L-193.91,-127.7 C-196.54,-127.8 -198.95,-126.27 -199.98,-123.86 L-202.12,-118.87 L-218.35,-119.54 C-218.42,-119.55 -218.5,-119.55 -218.58,-119.55 C-222.08,-119.57 -224.94,-116.74 -224.95,-113.24 L-225.17,-69.47 C-225.17,-69.17 -225.15,-68.87 -225.11,-68.57 C-224.96,-67.48 -224.54,-66.48 -223.92,-65.65 L-224.36,-65.06 C-226.15,-62.63 -225.98,-59.28 -223.96,-57.04 L-203.01,-33.83 L-220.9,-29.01 C-224.19,-28.13 -226.19,-24.81 -225.44,-21.49 ZM-212.44,-76.64 L-212.3,-106.59 L-198.28,-106.01 C-195.65,-105.9 -193.22,-107.43 -192.18,-109.85 L-190.04,-114.85 L-147.16,-113.23 C-147.74,-110.48 -146.43,-107.56 -143.79,-106.24 C-142.91,-105.8 -141.93,-105.57 -140.95,-105.57 L-110.48,-105.57 C-106.98,-105.57 -104.14,-108.41 -104.14,-111.92 L-104.14,-113.06 L-9.59,-112.68 L-9.77,-70.87 L-24.65,-50.43 C-26.71,-47.6 -26.09,-43.63 -23.26,-41.57 C-22.66,-41.14 -21.99,-40.81 -21.28,-40.6 L-7.42,-36.6 L-14.66,6.21 C-17.05,5.92 -19.51,7 -20.85,9.19 C-21.44,10.14 -21.76,11.23 -21.79,12.35 L-23.77,89.6 L-96.32,86.89 L-90.87,55.99 L-70.02,57.67 C-66.53,57.95 -63.47,55.35 -63.18,51.85 C-63.17,51.74 -63.17,51.62 -63.17,51.5 L-62.95,42.92 C-62.86,39.42 -65.63,36.51 -69.14,36.42 C-69.17,36.42 -69.21,36.42 -69.25,36.42 L-97.56,36.2 C-99.14,36.19 -100.67,36.77 -101.85,37.82 L-158.74,88.82 L-202.4,67.55 L-166.66,48.12 C-163.59,46.45 -162.45,42.59 -164.12,39.52 C-165.23,37.48 -167.35,36.21 -169.66,36.2 L-206.22,36.02 L-206.04,7.62 C-206.04,7.13 -206.09,6.65 -206.2,6.18 L-211.73,-18.34 L-189.71,-24.27 C-189.61,-24.3 -189.5,-24.33 -189.4,-24.36 C-189.05,-24.42 -188.71,-24.51 -188.37,-24.63 L-182.36,-26.78 C-179.06,-27.96 -177.34,-31.59 -178.52,-34.89 C-178.92,-36 -179.62,-36.97 -180.54,-37.71 L-183.75,-40.28 C-186.13,-42.18 -189.45,-42.1 -191.72,-40.26 L-211.07,-61.69 L-207.5,-66.53 C-205.42,-69.35 -206.02,-73.32 -208.83,-75.4 C-209.89,-76.18 -211.15,-76.61 -212.44,-76.64 ZM-171.61,0.97 C-170.5,3.01 -168.37,4.27 -166.05,4.27 L-144.38,4.27 C-140.88,4.27 -138.04,1.43 -138.04,-2.08 C-138.04,-2.31 -138.05,-2.54 -138.07,-2.78 L-138.29,-4.71 C-138.5,-6.58 -139.53,-8.27 -141.11,-9.31 L-149.26,-14.67 C-151.22,-15.96 -153.74,-16.06 -155.8,-14.93 L-169.1,-7.64 C-172.17,-5.96 -173.3,-2.1 -171.61,0.97 ZM-127.8,-14.23 C-129.53,-11.18 -128.47,-7.31 -125.43,-5.57 C-124.47,-5.03 -123.39,-4.74 -122.28,-4.74 L-101.05,-4.74 C-97.54,-4.74 -94.7,-7.58 -94.7,-11.09 C-94.7,-11.93 -94.87,-12.77 -95.2,-13.54 L-104.21,-35 C-105.56,-38.23 -109.28,-39.75 -112.51,-38.39 C-113.8,-37.85 -114.88,-36.9 -115.57,-35.68 L-127.8,-14.23 ZM-121.52,-51.22 C-122.72,-48.24 -121.51,-44.84 -118.7,-43.29 L-112.48,-39.86 C-110.4,-38.71 -107.86,-38.82 -105.89,-40.13 L-96.88,-46.14 C-93.97,-48.08 -93.18,-52.02 -95.12,-54.94 C-95.17,-55.01 -95.23,-55.09 -95.28,-55.16 L-99.85,-61.41 L-88.5,-70.49 C-85.76,-72.68 -85.32,-76.67 -87.51,-79.41 C-88.71,-80.92 -90.54,-81.79 -92.46,-81.79 L-104.91,-81.79 C-107.5,-81.79 -109.82,-80.22 -110.79,-77.82 L-121.52,-51.22 ZM-111.36,-17.43 L-110.92,-18.21 L-110.59,-17.43 L-111.36,-17.43 ZM-91.2,1.33 C-90.1,3.39 -87.96,4.69 -85.63,4.7 L-40.79,4.91 C-37.29,4.93 -34.43,2.1 -34.42,-1.4 C-34.41,-3.66 -35.59,-5.75 -37.54,-6.9 L-58.99,-19.56 C-60.89,-20.68 -63.24,-20.73 -65.2,-19.69 L-88.58,-7.25 C-91.67,-5.6 -92.85,-1.76 -91.2,1.33 ZM-67.92,-75.23 C-67.92,-74.36 -67.74,-73.49 -67.38,-72.69 L-64.38,-65.82 C-62.98,-62.61 -59.23,-61.15 -56.02,-62.55 C-54.9,-63.05 -53.94,-63.86 -53.26,-64.89 L-48.76,-71.75 C-46.84,-74.68 -47.65,-78.61 -50.58,-80.54 C-51.62,-81.22 -52.83,-81.58 -54.06,-81.58 L-61.57,-81.58 C-65.08,-81.58 -67.92,-78.74 -67.92,-75.23 ZM-9.06,-50.28 L-1.2,-61.09 L-1.2,-48.01 L-9.06,-50.28 ZM9.92,67.07 L65.03,-37.08 C66.67,-40.18 65.49,-44.02 62.39,-45.66 C61.45,-46.16 60.39,-46.41 59.33,-46.39 L11.49,-45.64 L11.49,-85.1 L61.9,-84.33 C65.41,-84.28 68.29,-87.08 68.34,-90.58 C68.35,-90.69 68.34,-90.8 68.34,-90.91 L67.51,-113.94 L114.94,-113.94 L114.44,-90.82 C114.36,-87.31 117.14,-84.41 120.64,-84.34 C120.71,-84.33 120.77,-84.33 120.84,-84.33 L210.65,-85.13 L207.66,89.42 L118.16,86.62 L122.61,44.8 L160.9,46.1 C164.4,46.22 167.34,43.48 167.46,39.97 C167.46,39.94 167.46,39.9 167.46,39.86 L168.75,-39.09 C168.8,-42.59 166.01,-45.47 162.51,-45.54 L113.38,-46.39 C110.59,-46.44 108.09,-44.65 107.23,-41.99 L64.73,90.21 L9.92,67.07 Z" fill="#FFFFFF" fill-rule="evenodd" />
			</g>
			<g transform="matrix(0.244836688041687, 0, 0, 0.2448367476463318, 144.1881103515625, -323.6336669921875)">
				<path d="M21.62,-43.8 L9.17,66.94 L-38,68.25 L-83.21,43.35 L-74.04,-75.9 L-6.55,-89.01 L65.52,-77.87 L83.21,-14.31 L71.42,55.8 L24.24,69.56 L14.42,23.69 L33.42,20.42 L41.28,-12.35 L32.76,-41.18 L21.62,-43.8 ZM-28.18,28.28 L-20.31,-44.45 L-34.07,-41.18 L-39.31,21.73 L-28.18,28.28 Z" fill="#FFFFFF" />
			</g>
			<g transform="matrix(0.244836688041687, 0, 0, 0.2448367476463318, -184.09642028808594, -332.03997802734375)">
				<path d="M-281.9,-42.84 L-281.9,-50.78 L-375.43,-50.78 L-375.43,-42.84 L-281.9,-42.84 ZM-375.43,-3.15 L-375.43,5.65 L-281.9,5.65 L-281.9,-3.15 L-375.43,-3.15 ZM-375.43,45.34 L-375.43,53.27 L-281.9,53.27 L-281.9,45.34 L-375.43,45.34 ZM-429.93,96.18 L-429.93,-94.54 L-365.35,-94.54 L-359.77,-120.5 L-299.92,-115.35 L-307.21,-94.54 L-227.41,-94.54 L-227.41,96.18 L-429.93,96.18 ZM-83.24,-34.04 L-83.24,-13.02 L-64.15,-13.02 L-64.15,-34.04 L-83.24,-34.04 ZM-136.44,-34.04 L-155.54,-34.04 L-155.54,-13.02 L-136.44,-13.02 L-136.44,-34.04 ZM-155.54,29.89 L-155.54,50.7 L-136.44,50.7 L-136.44,29.89 L-155.54,29.89 ZM-83.24,50.7 L-64.15,50.7 L-64.15,29.89 L-83.24,29.89 L-83.24,50.7 ZM-210.03,95.32 L-210.03,-79.09 L-136.44,-79.09 L-137.3,-119.86 L-82.38,-119.86 L-83.24,-79.09 L-9.65,-79.09 L-9.65,95.32 L-210.03,95.32 ZM90.96,-76.73 L90.96,-80.17 L78.73,-79.31 L80.66,-73.73 L84.1,-78.02 L90.96,-76.73 ZM149.1,-70.08 L150.82,-77.16 L154.04,-76.52 L154.04,-80.38 L143.52,-80.38 L144.38,-74.59 L133.01,-74.59 L128.72,-70.08 L149.1,-70.08 ZM140.52,-45.63 L140.52,-48.42 L132.8,-48.42 L132.8,-45.63 L140.52,-45.63 ZM140.52,-26.75 L140.31,-29.75 L132.8,-29.75 L132.8,-26.75 L140.52,-26.75 ZM140.31,-11.09 L132.58,-11.09 L132.8,-8.08 L140.31,-8.08 L140.31,-11.09 ZM145.24,49.41 L153.82,44.26 L140.31,44.26 L145.24,49.41 ZM76.59,44.26 L76.59,15.94 L214.75,15.73 L214.75,45.98 L201.66,56.06 L219.04,58.21 L214.53,96.61 L144.17,85.45 L76.37,96.61 L68.01,77.52 L65.86,96.18 L1.72,92.96 L7.08,39.97 L19.31,41.9 L20.6,29.89 L9.22,36.11 L0.86,-16.66 L17.38,-25.46 L15.66,-36.19 L5.79,-28.68 L0.64,-85.53 L8.15,-88.1 L0.43,-106.34 L51.27,-122 L53.85,-111.06 L69.08,-120.93 L70.8,-114.49 L90.96,-113.85 L90.1,-121.57 L144.38,-120.71 L143.52,-113.85 L154.04,-113.85 L153.18,-120.71 L207.45,-121.36 L206.6,-113.85 L217.32,-114.71 L217.32,-79.52 L206.38,-80.38 L207.45,-74.59 L198.01,-74.59 L196.08,-69.87 L216.46,-70.94 L216.46,-47.56 L192.44,-48.2 L192.44,-45.41 L213.03,-46.49 L213.03,-28.89 L192.44,-29.75 L192.44,-26.75 L213.03,-27.61 L213.03,-10.23 L192.44,-11.09 L192.44,-8.08 L216.46,-8.73 L216.46,13.16 L80.02,13.16 L80.02,-17.09 L70.58,-21.17 L72.3,17.87 L69.29,57.99 L88.17,55.63 L79.81,47.91 L94.18,44.26 L76.59,44.26 ZM67.58,-65.15 L68.87,-59.57 L76.8,-69.01 L67.58,-65.15 ZM350.55,-62.36 L350.55,-58.07 L378.01,-58.07 L378.01,-62.36 L350.55,-62.36 ZM350.55,-83.81 L378.01,-83.81 L378.01,-88.1 L350.55,-88.1 L350.55,-83.81 ZM352.05,48.34 L354.41,52.41 L367.71,53.92 L367.71,48.77 L352.05,48.34 ZM367.71,8.65 L291.77,9.51 L291.77,-8.51 L285.12,5 L286.19,95.75 L231.48,95.75 L232.34,63.36 L224.83,76.23 L220.11,4.36 L269.24,-62.58 L294.77,-48.85 L294.77,-99.26 L243.92,-33.83 L220.11,-65.36 L243.92,-120.93 L294.77,-101.83 L294.77,-118.35 L434,-118.35 L434,-29.11 L305.5,-29.11 L303.35,-26.1 L436.15,-26.1 L436.15,9.29 L421.99,8.65 L421.99,12.51 L437.43,11.65 L437.22,48.77 L421.99,47.91 L421.99,95.75 L348.83,94.68 L347.54,73.87 L332.53,88.46 L299.49,56.28 L310.86,47.91 L291.77,48.77 L291.77,11.65 L367.71,12.51 L367.71,8.65 Z" fill="#CCB05E" />
				<path d="M-436.27,-94.54 L-436.27,96.18 C-436.27,99.68 -433.43,102.52 -429.93,102.52 L-227.41,102.52 C-223.9,102.52 -221.06,99.68 -221.06,96.18 L-221.06,-94.54 C-221.06,-98.04 -223.9,-100.89 -227.41,-100.89 L-298.26,-100.89 L-293.93,-113.25 C-293.75,-113.75 -293.64,-114.28 -293.6,-114.81 C-293.3,-118.3 -295.88,-121.37 -299.37,-121.67 L-359.23,-126.82 C-362.41,-127.09 -365.3,-124.96 -365.98,-121.83 L-370.48,-100.89 L-429.93,-100.89 C-433.43,-100.89 -436.27,-98.04 -436.27,-94.54 ZM-423.58,-88.2 L-365.35,-88.2 C-362.36,-88.2 -359.78,-90.28 -359.15,-93.21 L-354.74,-113.7 L-308.61,-109.73 L-313.2,-96.64 C-314.36,-93.33 -312.62,-89.71 -309.31,-88.55 C-308.64,-88.32 -307.93,-88.2 -307.21,-88.2 L-233.75,-88.2 L-233.75,89.83 L-423.58,89.83 L-423.58,-88.2 ZM-381.78,-50.78 L-381.78,-42.84 C-381.78,-39.33 -378.94,-36.49 -375.43,-36.49 L-281.9,-36.49 C-278.39,-36.49 -275.55,-39.33 -275.55,-42.84 L-275.55,-50.78 C-275.55,-54.28 -278.39,-57.12 -281.9,-57.12 L-375.43,-57.12 C-378.94,-57.12 -381.78,-54.28 -381.78,-50.78 ZM-381.78,-3.15 L-381.78,5.65 C-381.78,9.15 -378.94,11.99 -375.43,11.99 L-281.9,11.99 C-278.39,11.99 -275.55,9.15 -275.55,5.65 L-275.55,-3.15 C-275.55,-6.65 -278.39,-9.49 -281.9,-9.49 L-375.43,-9.49 C-378.94,-9.49 -381.78,-6.65 -381.78,-3.15 ZM-381.78,45.34 L-381.78,53.27 C-381.78,56.78 -378.94,59.62 -375.43,59.62 L-281.9,59.62 C-278.39,59.62 -275.55,56.78 -275.55,53.27 L-275.55,45.34 C-275.55,41.83 -278.39,38.99 -281.9,38.99 L-375.43,38.99 C-378.94,38.99 -381.78,41.83 -381.78,45.34 ZM-216.37,-79.09 L-216.37,95.32 C-216.37,98.83 -213.53,101.67 -210.03,101.67 L-9.65,101.67 C-6.6,101.67 -4.06,99.52 -3.45,96.65 C-2.36,98.17 -0.61,99.2 1.4,99.3 L65.54,102.52 C67.74,102.63 69.75,101.6 70.97,99.94 C72.31,102.11 74.84,103.29 77.4,102.87 L144.19,91.88 L213.54,102.88 C213.62,102.89 213.71,102.9 213.79,102.91 C217.27,103.32 220.43,100.83 220.84,97.35 L222.62,82.17 C223.55,82.52 224.53,82.64 225.48,82.54 L225.14,95.58 C225.14,95.64 225.14,95.69 225.14,95.75 C225.14,99.25 227.98,102.1 231.48,102.1 L286.19,102.1 C286.21,102.1 286.24,102.1 286.26,102.1 C289.77,102.05 292.57,99.18 292.53,95.68 L292.05,55.11 L293.26,55.05 C292.86,57.08 293.47,59.27 295.06,60.82 L328.1,93 C330.56,95.4 334.48,95.4 336.95,93.01 L342.06,88.04 L342.5,95.07 C342.7,98.38 345.42,100.97 348.74,101.02 L421.89,102.09 C421.93,102.1 421.96,102.1 421.99,102.1 C425.49,102.1 428.33,99.25 428.33,95.75 L428.33,54.62 L436.86,55.1 C436.97,55.11 437.08,55.11 437.18,55.11 C440.69,55.13 443.54,52.31 443.56,48.8 L443.78,11.69 C443.78,11.56 443.78,11.43 443.77,11.3 C443.7,9.99 443.23,8.79 442.49,7.82 L442.49,-26.1 C442.49,-28 441.66,-29.7 440.35,-30.86 L440.35,-118.35 C440.35,-121.86 437.51,-124.7 434,-124.7 L294.77,-124.7 C291.26,-124.7 288.42,-121.86 288.42,-118.35 L288.42,-111 L246.16,-126.87 C242.98,-128.06 239.43,-126.55 238.09,-123.43 L223.67,-89.77 L223.67,-114.71 C223.67,-114.88 223.66,-115.04 223.65,-115.21 C223.37,-118.71 220.31,-121.31 216.82,-121.03 L213.77,-120.79 C213.79,-121 213.8,-121.22 213.8,-121.43 C213.76,-124.94 210.88,-127.74 207.38,-127.7 L153.1,-127.06 C152.86,-127.06 152.63,-127.04 152.39,-127.01 C150.98,-126.83 149.73,-126.2 148.78,-125.29 C147.66,-126.36 146.15,-127.03 144.48,-127.06 L90.2,-127.92 C89.94,-127.92 89.67,-127.91 89.4,-127.88 C85.92,-127.49 83.41,-124.35 83.8,-120.87 L83.85,-120.42 L75.71,-120.68 L75.21,-122.56 C75.04,-123.21 74.77,-123.82 74.4,-124.38 C72.5,-127.32 68.57,-128.16 65.63,-126.25 L57.96,-121.28 L57.45,-123.45 C57.42,-123.59 57.38,-123.73 57.34,-123.87 C56.31,-127.22 52.75,-129.1 49.41,-128.06 L-1.44,-112.4 C-1.64,-112.34 -1.85,-112.27 -2.05,-112.18 C-5.27,-110.82 -6.78,-107.09 -5.41,-103.87 L-0.35,-91.9 L-1.41,-91.53 C-4.18,-90.58 -5.94,-87.87 -5.68,-84.96 L-5.59,-83.96 C-6.69,-84.88 -8.11,-85.44 -9.65,-85.44 L-76.76,-85.44 L-76.04,-119.72 C-76.04,-119.77 -76.04,-119.81 -76.04,-119.86 C-76.04,-123.36 -78.88,-126.2 -82.38,-126.2 L-137.3,-126.2 C-137.35,-126.2 -137.39,-126.2 -137.44,-126.2 C-140.94,-126.13 -143.72,-123.23 -143.65,-119.72 L-142.92,-85.44 L-210.03,-85.44 C-213.53,-85.44 -216.37,-82.6 -216.37,-79.09 ZM-203.68,-72.75 L-136.44,-72.75 C-132.94,-72.75 -130.1,-75.59 -130.1,-79.09 C-130.1,-79.14 -130.1,-79.18 -130.1,-79.23 L-130.82,-113.51 L-88.86,-113.51 L-89.58,-79.23 C-89.66,-75.72 -86.88,-72.82 -83.37,-72.75 C-83.33,-72.75 -83.28,-72.75 -83.24,-72.75 L-16,-72.75 L-16,88.98 L-203.68,88.98 L-203.68,-72.75 ZM-161.88,-34.04 L-161.88,-13.02 C-161.88,-9.51 -159.04,-6.67 -155.54,-6.67 L-136.44,-6.67 C-132.94,-6.67 -130.1,-9.51 -130.1,-13.02 L-130.1,-34.04 C-130.1,-37.55 -132.94,-40.39 -136.44,-40.39 L-155.54,-40.39 C-159.04,-40.39 -161.88,-37.55 -161.88,-34.04 ZM-161.88,29.89 L-161.88,50.7 C-161.88,54.2 -159.04,57.04 -155.54,57.04 L-136.44,57.04 C-132.94,57.04 -130.1,54.2 -130.1,50.7 L-130.1,29.89 C-130.1,26.38 -132.94,23.54 -136.44,23.54 L-155.54,23.54 C-159.04,23.54 -161.88,26.38 -161.88,29.89 ZM-149.19,-27.7 L-142.79,-27.7 L-142.79,-19.36 L-149.19,-19.36 L-149.19,-27.7 ZM-149.19,36.23 L-142.79,36.23 L-142.79,44.35 L-149.19,44.35 L-149.19,36.23 ZM-89.58,-34.04 L-89.58,-13.02 C-89.58,-9.51 -86.74,-6.67 -83.24,-6.67 L-64.15,-6.67 C-60.64,-6.67 -57.8,-9.51 -57.8,-13.02 L-57.8,-34.04 C-57.8,-37.55 -60.64,-40.39 -64.15,-40.39 L-83.24,-40.39 C-86.74,-40.39 -89.58,-37.55 -89.58,-34.04 ZM-89.58,29.89 L-89.58,50.7 C-89.58,54.2 -86.74,57.04 -83.24,57.04 L-64.15,57.04 C-60.64,57.04 -57.8,54.2 -57.8,50.7 L-57.8,29.89 C-57.8,26.38 -60.64,23.54 -64.15,23.54 L-83.24,23.54 C-86.74,23.54 -89.58,26.38 -89.58,29.89 ZM-76.89,-27.7 L-70.49,-27.7 L-70.49,-19.36 L-76.89,-19.36 L-76.89,-27.7 ZM-76.89,36.23 L-70.49,36.23 L-70.49,44.35 L-76.89,44.35 L-76.89,36.23 ZM-3.31,-58.83 L-0.53,-28.11 C-0.42,-26.92 0.02,-25.79 0.74,-24.84 C0.94,-24.58 1.15,-24.34 1.37,-24.13 L-2.12,-22.27 C-2.56,-22.04 -2.95,-21.76 -3.31,-21.45 L-3.31,-58.83 ZM-3.31,-2.43 L2.69,35.39 C1.64,36.4 0.92,37.77 0.77,39.33 L-3.31,79.6 L-3.31,-2.43 ZM7.41,-81.14 L10.21,-82.1 C13.52,-83.24 15.29,-86.85 14.15,-90.16 C14.11,-90.3 14.05,-90.44 13.99,-90.58 L9.01,-102.34 L46.65,-113.94 L47.67,-109.61 C48.47,-106.2 51.89,-104.08 55.3,-104.88 C56.01,-105.05 56.69,-105.34 57.3,-105.73 L65.48,-111.03 C66.59,-109.33 68.48,-108.22 70.59,-108.15 L90.76,-107.51 C94.26,-107.4 97.19,-110.14 97.3,-113.65 C97.31,-113.95 97.3,-114.25 97.27,-114.55 L97.21,-115.11 L137.21,-114.48 C136.87,-111.07 139.31,-107.98 142.74,-107.55 C143,-107.52 143.26,-107.5 143.52,-107.5 L154.04,-107.5 C157.54,-107.5 160.38,-110.34 160.38,-113.85 C160.38,-114.05 160.37,-114.25 160.35,-114.45 L200.33,-114.93 L200.29,-114.57 C199.89,-111.09 202.39,-107.94 205.88,-107.54 C206.28,-107.5 206.69,-107.49 207.1,-107.52 L210.98,-107.83 L210.98,-86.39 L206.88,-86.71 C203.4,-86.98 200.36,-84.4 200.06,-80.93 L198.01,-80.93 C195.44,-80.93 193.12,-79.38 192.14,-76.99 L190.21,-72.27 C188.88,-69.03 190.44,-65.32 193.68,-64 C194.55,-63.64 195.48,-63.48 196.42,-63.53 L210.12,-64.25 L210.12,-54.08 L192.61,-54.54 C189.1,-54.64 186.19,-51.87 186.09,-48.37 C186.09,-48.31 186.09,-48.26 186.09,-48.2 L186.09,-45.41 C186.09,-41.91 188.93,-39.07 192.44,-39.07 C192.55,-39.07 192.66,-39.07 192.77,-39.08 L206.69,-39.8 L206.69,-35.51 L192.7,-36.09 C189.2,-36.24 186.24,-33.52 186.1,-30.02 C186.09,-29.93 186.09,-29.84 186.09,-29.75 L186.09,-26.75 C186.09,-23.24 188.93,-20.4 192.44,-20.4 C192.52,-20.4 192.61,-20.4 192.7,-20.41 L206.69,-20.99 L206.69,-16.84 L192.7,-17.43 C189.2,-17.57 186.24,-14.85 186.1,-11.35 C186.09,-11.26 186.09,-11.18 186.09,-11.09 L186.09,-8.08 C186.09,-4.58 188.93,-1.74 192.44,-1.74 C192.49,-1.74 192.55,-1.74 192.61,-1.74 L210.12,-2.21 L210.12,6.81 L86.37,6.81 L86.37,-17.09 C86.37,-19.63 84.86,-21.92 82.54,-22.92 L73.1,-27 C69.88,-28.38 66.15,-26.9 64.76,-23.69 C64.38,-22.81 64.2,-21.85 64.24,-20.89 L65.94,17.78 L62.97,57.52 C62.71,61.01 65.33,64.06 68.82,64.32 C69.24,64.35 69.66,64.34 70.08,64.29 L88.96,61.93 C92.44,61.49 94.9,58.32 94.47,54.85 C94.3,53.46 93.67,52.18 92.7,51.18 L95.74,50.41 C99.14,49.55 101.19,46.1 100.33,42.7 C99.62,39.89 97.08,37.92 94.18,37.92 L82.93,37.92 L82.93,22.28 L208.4,22.08 L208.4,42.86 L197.79,51.04 C195.01,53.17 194.5,57.16 196.64,59.93 C197.67,61.28 199.2,62.15 200.88,62.36 L212,63.73 L209,89.31 L145.16,79.19 C144.49,79.08 143.81,79.08 143.14,79.19 L80.21,89.55 L73.82,74.97 C72.41,71.76 68.67,70.3 65.46,71.7 C63.39,72.61 61.96,74.55 61.7,76.79 L60.24,89.54 L8.7,86.96 L12.72,47.29 L18.32,48.17 C21.78,48.72 25.03,46.35 25.58,42.89 C25.59,42.79 25.61,42.68 25.62,42.58 L26.9,30.56 C27.28,27.08 24.76,23.95 21.27,23.58 C19.98,23.44 18.69,23.7 17.55,24.32 L14.08,26.22 L7.83,-13.19 L20.36,-19.86 C22.75,-21.13 24.07,-23.79 23.64,-26.46 L21.93,-37.19 C21.37,-40.65 18.12,-43.01 14.66,-42.45 C13.63,-42.29 12.65,-41.87 11.82,-41.24 L11.08,-40.67 L7.41,-81.14 ZM124.13,-74.46 C121.71,-71.92 121.81,-67.91 124.34,-65.49 C125.52,-64.37 127.09,-63.74 128.72,-63.74 L149.1,-63.74 C152.03,-63.74 154.58,-65.74 155.27,-68.59 L155.71,-70.4 C157.95,-71.01 159.77,-72.84 160.26,-75.28 C160.34,-75.69 160.38,-76.1 160.38,-76.52 L160.38,-80.38 C160.38,-83.89 157.54,-86.73 154.04,-86.73 L143.52,-86.73 C140.2,-86.73 137.48,-84.18 137.2,-80.93 L133.01,-80.93 C131.27,-80.93 129.61,-80.22 128.42,-78.96 L124.13,-74.46 ZM126.24,-11.09 C126.24,-10.94 126.24,-10.79 126.25,-10.64 L126.47,-7.63 C126.7,-4.31 129.47,-1.74 132.8,-1.74 L140.31,-1.74 C143.81,-1.74 146.65,-4.58 146.65,-8.08 L146.65,-11.09 C146.65,-14.59 143.81,-17.43 140.31,-17.43 L132.58,-17.43 C129.08,-17.43 126.24,-14.59 126.24,-11.09 ZM126.45,-48.42 L126.45,-45.63 C126.45,-42.12 129.29,-39.28 132.8,-39.28 L140.52,-39.28 C144.02,-39.28 146.86,-42.12 146.86,-45.63 L146.86,-48.42 C146.86,-51.92 144.02,-54.76 140.52,-54.76 L132.8,-54.76 C129.29,-54.76 126.45,-51.92 126.45,-48.42 ZM126.45,-29.75 L126.45,-26.75 C126.45,-23.24 129.29,-20.4 132.8,-20.4 L140.52,-20.4 C144.02,-20.4 146.86,-23.24 146.86,-26.75 C146.86,-26.9 146.86,-27.05 146.85,-27.2 L146.63,-30.2 C146.4,-33.52 143.63,-36.1 140.31,-36.1 L132.8,-36.1 C129.29,-36.1 126.45,-33.26 126.45,-29.75 ZM133.96,44.26 C133.96,45.9 134.59,47.47 135.72,48.65 L140.66,53.8 C142.71,55.94 145.96,56.38 148.5,54.85 L157.09,49.7 C160.09,47.9 161.06,44 159.26,41 C158.11,39.09 156.05,37.92 153.82,37.92 L140.31,37.92 C136.8,37.92 133.96,40.76 133.96,44.26 ZM219.34,-28.25 C219.37,-28.46 219.38,-28.68 219.38,-28.89 L219.38,-41.92 C221.42,-42.97 222.81,-45.1 222.81,-47.56 L222.81,-51.26 L238.15,-30.94 L222.7,-9.89 C222.34,-11.85 221.08,-13.48 219.38,-14.37 L219.38,-27.61 C219.38,-27.69 219.38,-27.78 219.37,-27.87 C219.37,-28 219.36,-28.12 219.34,-28.25 ZM226.59,6.25 L271.09,-54.37 L291.76,-43.26 C294.85,-41.6 298.7,-42.75 300.36,-45.84 C300.85,-46.76 301.11,-47.8 301.11,-48.85 L301.11,-99.26 C301.11,-99.7 301.07,-100.13 300.98,-100.55 C301.07,-100.97 301.11,-101.4 301.11,-101.83 L301.11,-112.01 L427.66,-112.01 L427.66,-35.45 L305.5,-35.45 C303.45,-35.45 301.52,-34.46 300.33,-32.8 L298.19,-29.79 C296.15,-26.94 296.81,-22.98 299.66,-20.94 C300.74,-20.17 302.03,-19.76 303.35,-19.76 L429.8,-19.76 L429.8,2.65 L422.28,2.31 C418.78,2.15 415.81,4.86 415.65,8.36 C415.64,8.46 415.64,8.55 415.64,8.65 L415.64,12.51 C415.64,16.02 418.48,18.86 421.99,18.86 C422.11,18.86 422.22,18.85 422.34,18.85 L431.05,18.36 L430.91,42.06 L422.34,41.57 C418.85,41.38 415.85,44.05 415.65,47.55 C415.65,47.67 415.64,47.79 415.64,47.91 L415.64,89.31 L354.8,88.42 L353.88,73.48 C353.66,69.98 350.65,67.32 347.15,67.54 C345.64,67.63 344.21,68.26 343.12,69.32 L332.53,79.6 L309.28,56.95 L314.62,53.02 C317.44,50.94 318.05,46.97 315.97,44.15 C314.71,42.44 312.69,41.48 310.57,41.57 L298.11,42.13 L298.11,18.07 L367.64,18.86 C371.14,18.9 374.02,16.09 374.06,12.58 C374.06,12.56 374.06,12.54 374.06,12.51 L374.06,8.65 C374.06,5.15 371.21,2.3 367.71,2.3 C367.69,2.3 367.66,2.31 367.64,2.31 L298.11,3.09 L298.11,-8.51 C298.11,-12.02 295.27,-14.86 291.77,-14.86 C289.35,-14.86 287.14,-13.48 286.07,-11.31 L279.42,2.2 C278.98,3.1 278.76,4.08 278.77,5.08 L279.77,89.41 L238,89.41 L238.68,63.52 C238.78,60.02 236.01,57.11 232.51,57.01 C231.62,56.99 230.75,57.15 229.96,57.47 L226.59,6.25 ZM227.39,-66.25 L247.37,-112.86 L286.02,-98.34 L244,-44.26 L227.39,-66.25 ZM276.76,-65.74 L288.42,-80.75 L288.42,-59.46 L276.76,-65.74 ZM344.2,-88.1 L344.2,-83.81 C344.2,-80.31 347.04,-77.47 350.55,-77.47 L378.01,-77.47 C381.51,-77.47 384.35,-80.31 384.35,-83.81 L384.35,-88.1 C384.35,-91.61 381.51,-94.45 378.01,-94.45 L350.55,-94.45 C347.04,-94.45 344.2,-91.61 344.2,-88.1 ZM344.2,-62.36 L344.2,-58.07 C344.2,-54.57 347.04,-51.72 350.55,-51.72 L378.01,-51.72 C381.51,-51.72 384.35,-54.57 384.35,-58.07 L384.35,-62.36 C384.35,-65.86 381.51,-68.71 378.01,-68.71 L350.55,-68.71 C347.04,-68.71 344.2,-65.86 344.2,-62.36 ZM345.71,48.16 C345.67,49.34 345.97,50.5 346.56,51.52 L348.92,55.59 C349.93,57.33 351.7,58.49 353.7,58.72 L367,60.22 C370.48,60.61 373.62,58.11 374.02,54.63 C374.04,54.39 374.06,54.15 374.06,53.92 L374.06,48.77 C374.06,45.33 371.32,42.52 367.88,42.43 L352.22,42 C348.72,41.9 345.8,44.66 345.71,48.16 Z" fill="#FFFFFF" fill-rule="evenodd" />
			</g>
		</g>
		<g transform="matrix(0.28302139043807983, 0, 0, 0.2830214500427246, -6.990935802459717, -250.48394775390625)">
			<path d="M-190.84,-12.29 Q-195.01,-13.37 -198.4,-17.23 Q-201.64,-22.17 -200.41,-28.95 Q-199.48,-33.27 -195.47,-36.05 Q-190.38,-40.06 -182.51,-36.51 Q-186.21,-26.33 -177.42,-17.85 Q-183.59,-10.6 -190.84,-12.29 ZM-170.32,-19.08 Q-174.18,-20.01 -176.96,-24.02 Q-183.28,-33.27 -174.95,-41.76 Q-166.16,-47.78 -157.21,-39.75 Q-153.97,-35.43 -154.74,-29.11 Q-155.82,-24.33 -159.83,-21.09 Q-164.31,-17.85 -170.32,-19.08 ZM-297.45,-37.29 L-299.91,-78.63 L-156.13,-82.33 L-155.36,-45.31 L-158.13,-43.92 Q-164,-48.86 -170.63,-47.47 Q-177.88,-45.62 -180.5,-39.45 Q-193,-44.23 -200.87,-36.36 Q-207.66,-27.26 -202.26,-15.53 L-229.41,2.52 L-228.33,11.31 L-159.37,28.59 L-172.79,69.17 L-267.05,42.78 L-274.3,-13.53 L-229.41,-42.69 L-297.45,-37.29 ZM-6.63,-78.17 L-6.63,-41.45 L-72.82,-42.69 L-72.82,-39.29 L-41.04,-39.45 L-11.42,-27.72 L-2.16,17.95 L-9.57,68.55 L-54.61,58.67 L-38.57,16.71 L-39.19,14.24 L-71.28,59.29 L-139.47,61.76 L-152.12,-22.17 L-111.54,-35.59 L-111.54,-42.69 L-150.11,-41.45 L-150.11,-78.17 L-111.54,-76.93 L-112.16,-86.5 L-72.2,-86.5 L-72.82,-76.93 L-6.63,-78.17 ZM-68.19,-4.89 L-72.82,-5.04 L-72.82,9.92 L-68.19,-4.89 ZM-109.69,0.36 L-114.47,2.52 L-109.54,30.29 L-109.69,0.36 ZM-0.77,-64.28 L124.96,-74 L152.12,-31.73 L141.47,45.72 L52.15,60.68 L45.51,17.95 L102.44,11.77 L108.46,-16.46 L99.05,-32.81 L3.55,-19.7 L-0.77,-64.28 ZM156.13,-37.29 L153.66,-78.63 L297.45,-82.33 L298.22,-46.54 L224.16,2.52 L225.24,11.31 L294.21,28.59 L280.78,69.17 L186.52,42.78 L179.27,-13.53 L224.16,-42.69 L156.13,-37.29 Z" fill="#FFFFFF" />
		</g>
		<g id="グループ 32">
			<g transform="matrix(0.244836688041687, 0, 0, 0.244836688041687, -243.2154998779297, -123.0125503540039)">
				<path d="M-72.96,-40.28 L-72.96,-62.75 L-43.12,-62.75 L-43.12,-64.88 L-75.59,-64.88 L-75.59,-40.28 L-72.96,-40.28 ZM-46.57,-40.28 L-43.12,-40.28 L-43.12,-42.74 L-46.57,-42.74 L-46.57,-40.28 ZM-60.67,12.84 L-57.06,12.84 L-57.06,9.23 L-60.67,9.23 L-60.67,12.84 ZM-112.48,-52.91 L-135.76,-34.22 L-167.74,-65.7 L-132.98,-92.59 L-112.48,-52.91 ZM-166.42,-34.54 L-120.19,-33.23 L-120.35,35.47 L-117.4,36.12 L-117.4,-40.45 L-111.66,-40.28 L-111.66,-90.95 L-6.07,-90.95 L-6.23,-40.28 L-1.48,-40.28 L-1.31,37.44 L-46.07,36.62 L-46.4,35.14 L-82.31,34.98 L-82.31,-12.24 L-37.22,-12.24 L-37.22,5.96 L-34.92,5.96 L-34.92,-14.38 L-84.61,-14.38 L-84.61,37.11 L-0.33,38.26 L-1.31,73.51 L-150.03,69.57 L-162.98,74.33 L-167.41,31.53 L-159.05,29.89 L-159.05,5.79 L-166.42,6.45 L-166.42,-34.54 ZM143.31,2.68 L162,61.87 L119.37,71.71 L117.56,63.67 L11.48,71.38 L9.84,31.7 L28.2,31.37 L42.79,1.36 L2.46,2.02 L2.46,-35.69 L61.16,-35.04 L61.16,-44.22 L14.26,-43.56 L14.26,-80.62 L60.5,-79.96 L59.85,-91.77 L107.4,-91.77 L106.74,-79.96 L152.98,-80.62 L152.98,-43.56 L106.09,-44.22 L106.09,-35.04 L165.44,-35.69 L165.44,2.02 L88.05,1.53 L75.1,30.06 L110.18,27.76 L106.41,12.68 L143.31,2.68 Z" fill="#FFFFFF" />
			</g>
			<g transform="matrix(0.244836688041687, 0, 0, 0.244836688041687, 253.98887634277344, -123.0125503540039)">
				<path d="M-83.29,3.33 L-33.45,-81.27 L7.21,-76.03 L83.29,20.38 L51.16,55.14 L-12.46,-31.43 L-45.25,28.25 L-83.29,3.33 Z" fill="#CCB05E" />
				<path d="M-88.76,0.11 C-90.48,3.03 -89.6,6.78 -86.77,8.64 L-48.73,33.56 C-48.59,33.65 -48.45,33.74 -48.31,33.82 C-45.24,35.5 -41.38,34.38 -39.69,31.31 L-11.69,-19.66 L46.04,58.9 C46.28,59.23 46.55,59.53 46.85,59.8 C49.42,62.18 53.44,62.03 55.82,59.45 L87.95,24.69 C90.07,22.4 90.21,18.9 88.28,16.45 L12.2,-79.96 C11.17,-81.26 9.67,-82.11 8.03,-82.32 L-32.64,-87.57 C-35.16,-87.89 -37.63,-86.68 -38.92,-84.5 L-88.76,0.11 ZM-74.76,1.34 L-30.11,-74.45 L3.84,-70.07 L74.95,20.06 L51.72,45.19 L-7.35,-35.19 C-9.42,-38.01 -13.39,-38.62 -16.22,-36.54 C-16.96,-36 -17.58,-35.29 -18.02,-34.48 L-47.51,19.19 L-74.76,1.34 Z" fill="#FFFFFF" fill-rule="evenodd" />
			</g>
			<g transform="matrix(0.244836688041687, 0, 0, 0.244836688041687, 200.1392822265625, -131.3982696533203)">
				<path d="M-36.04,57.35 L-107.05,74.51 L-109.84,21.31 L-99.75,18.95 L-99.75,-28.68 L-109.62,-27.82 L-109.62,-75.87 L-99.75,-75.02 L-100.61,-114.7 L-46.55,-114.7 L-47.41,-75.02 L-36.9,-75.87 L-36.9,-27.82 L-47.41,-28.68 L-47.41,7.36 L-38.61,5 L-36.04,57.35 ZM106.83,-69.01 L96.97,-69.87 L96.97,-25.89 L108.98,-26.75 L108.98,16.8 L87.96,16.16 L87.96,22.59 L90.32,22.59 L91.17,17.66 L107.05,20.02 L101.9,52.2 L53.85,52.2 L53.85,16.16 L51.49,16.16 L49.56,54.77 L102.76,54.77 L102.76,96.18 L-30.46,96.18 L-30.46,16.16 L-37.76,17.02 L-37.76,-26.75 L-25.53,-25.89 L-25.53,-69.87 L-35.4,-69.01 L-35.4,-112.13 L-25.53,-111.27 L-26.39,-121.14 L28.53,-120.28 L27.67,-111.27 L43.76,-111.27 L42.91,-120.28 L97.82,-121.14 L96.97,-111.27 L106.83,-112.13 L106.83,-69.01 ZM15.66,35.04 L19.09,16.16 L15.66,16.16 L15.66,35.04 ZM34.32,54.77 L15.66,50.7 L15.66,54.77 L34.32,54.77 ZM27.67,-28.46 L27.67,-25.03 L43.76,-25.03 L43.76,-28.46 L27.67,-28.46 ZM27.67,-51.2 L27.67,-47.13 L43.76,-47.13 L43.76,-51.2 L27.67,-51.2 ZM27.67,-69.65 L43.76,-69.65 L43.76,-73.3 L27.67,-73.3 L27.67,-69.65 Z" fill="#CCB05E" />
				<path d="M-116.17,21.64 L-113.39,74.84 C-113.36,75.23 -113.31,75.62 -113.22,76 C-112.39,79.41 -108.96,81.5 -105.56,80.68 L-36.81,64.06 L-36.81,96.18 C-36.81,99.68 -33.97,102.52 -30.46,102.52 L102.76,102.52 C106.26,102.52 109.1,99.68 109.1,96.18 L109.1,54.77 C109.1,53.71 108.84,52.71 108.38,51.84 L113.24,21.51 C114.52,20.35 115.32,18.67 115.32,16.8 L115.32,-26.75 C115.32,-26.9 115.32,-27.05 115.31,-27.2 C115.06,-30.69 112.02,-33.33 108.53,-33.08 L103.31,-32.7 L103.31,-62.95 L106.28,-62.69 C106.47,-62.67 106.65,-62.66 106.83,-62.66 C110.34,-62.66 113.18,-65.5 113.18,-69.01 L113.18,-112.13 C113.18,-112.31 113.17,-112.5 113.16,-112.68 C112.85,-116.17 109.78,-118.75 106.28,-118.45 L103.94,-118.25 L104.15,-120.59 C104.16,-120.8 104.17,-121.02 104.17,-121.24 C104.11,-124.74 101.23,-127.54 97.73,-127.48 L42.81,-126.63 C42.64,-126.62 42.47,-126.61 42.3,-126.6 C38.82,-126.27 36.26,-123.17 36.59,-119.68 L36.79,-117.62 L34.65,-117.62 L34.85,-119.68 C34.86,-119.85 34.87,-120.01 34.88,-120.18 C34.93,-123.69 32.13,-126.57 28.63,-126.63 L-26.29,-127.48 C-26.5,-127.49 -26.72,-127.48 -26.94,-127.46 C-30.43,-127.16 -33.01,-124.08 -32.71,-120.59 L-32.5,-118.25 L-34.85,-118.45 C-35.03,-118.47 -35.21,-118.47 -35.4,-118.47 C-37.41,-118.47 -39.2,-117.54 -40.36,-116.08 C-40.99,-118.92 -43.52,-121.05 -46.55,-121.05 L-100.61,-121.05 C-100.66,-121.05 -100.7,-121.05 -100.75,-121.05 C-104.25,-120.97 -107.03,-118.07 -106.96,-114.57 L-106.25,-81.95 L-109.07,-82.19 C-109.26,-82.21 -109.44,-82.22 -109.62,-82.22 C-113.13,-82.22 -115.97,-79.38 -115.97,-75.87 L-115.97,-27.82 C-115.97,-27.64 -115.96,-27.45 -115.94,-27.27 C-115.64,-23.78 -112.56,-21.2 -109.07,-21.5 L-106.1,-21.76 L-106.1,13.92 L-111.28,15.13 C-114.27,15.83 -116.33,18.57 -116.17,21.64 ZM-103.28,-68.95 L-100.3,-68.69 C-96.81,-68.39 -93.74,-70.97 -93.43,-74.47 C-93.41,-74.69 -93.41,-74.92 -93.41,-75.15 L-94.13,-108.36 L-53.04,-108.36 L-53.75,-75.15 C-53.83,-71.65 -51.05,-68.75 -47.55,-68.67 C-47.33,-68.67 -47.11,-68.67 -46.89,-68.69 L-43.24,-68.99 L-43.24,-34.7 L-46.89,-35 C-50.39,-35.29 -53.45,-32.69 -53.73,-29.19 C-53.75,-29.02 -53.76,-28.85 -53.76,-28.68 L-53.76,7.36 C-53.76,10.87 -50.91,13.71 -47.41,13.71 C-46.86,13.71 -46.3,13.63 -45.77,13.49 L-44.57,13.17 L-42.64,52.41 L-101.11,66.55 L-103.22,26.28 L-98.31,25.13 C-95.44,24.45 -93.41,21.89 -93.41,18.95 L-93.41,-28.68 C-93.41,-32.18 -96.25,-35.02 -99.75,-35.02 C-99.94,-35.02 -100.12,-35.01 -100.3,-35 L-103.28,-34.74 L-103.28,-68.95 ZM-31.41,-19.94 L-25.97,-19.56 C-22.48,-19.31 -19.44,-21.95 -19.2,-25.44 C-19.19,-25.59 -19.18,-25.74 -19.18,-25.89 L-19.18,-69.87 C-19.18,-73.37 -22.02,-76.21 -25.53,-76.21 C-25.71,-76.21 -25.9,-76.2 -26.08,-76.19 L-29.05,-75.93 L-29.05,-105.21 L-26.08,-104.95 C-22.59,-104.65 -19.51,-107.23 -19.21,-110.72 C-19.18,-111.09 -19.18,-111.45 -19.21,-111.82 L-19.46,-114.68 L21.56,-114.04 L21.36,-111.87 C21.03,-108.38 23.58,-105.29 27.07,-104.95 C27.27,-104.94 27.47,-104.93 27.67,-104.93 L43.76,-104.93 C47.27,-104.93 50.11,-107.77 50.11,-111.27 C50.11,-111.47 50.1,-111.67 50.08,-111.87 L49.87,-114.04 L90.89,-114.68 L90.64,-111.82 C90.34,-108.33 92.93,-105.25 96.42,-104.95 C96.78,-104.92 97.15,-104.92 97.52,-104.95 L100.49,-105.21 L100.49,-75.93 L97.52,-76.19 C94.02,-76.49 90.95,-73.91 90.64,-70.42 C90.63,-70.23 90.62,-70.05 90.62,-69.87 L90.62,-25.89 C90.62,-22.38 93.46,-19.54 96.97,-19.54 C97.12,-19.54 97.27,-19.55 97.42,-19.56 L102.63,-19.93 L102.63,10.26 L88.15,9.82 C84.65,9.71 81.72,12.46 81.61,15.96 C81.61,16.03 81.61,16.09 81.61,16.16 L81.61,22.59 C81.61,26.1 84.45,28.94 87.96,28.94 L90.32,28.94 C93,28.94 95.34,27.26 96.25,24.83 L99.77,25.35 L96.49,45.85 L60.19,45.85 L60.19,16.16 C60.19,12.65 57.35,9.81 53.85,9.81 L51.49,9.81 C48.11,9.81 45.32,12.46 45.15,15.84 L43.22,54.46 C43.04,57.96 45.74,60.94 49.24,61.11 C49.34,61.12 49.45,61.12 49.56,61.12 L96.41,61.12 L96.41,89.83 L-24.12,89.83 L-24.12,16.16 C-24.12,12.65 -26.96,9.81 -30.46,9.81 C-30.71,9.81 -30.96,9.83 -31.2,9.86 L-31.41,9.88 L-31.41,-19.94 ZM9.32,16.16 L9.32,35.04 C9.32,38.54 12.16,41.38 15.66,41.38 C18.73,41.38 21.35,39.19 21.9,36.17 L25.34,17.29 C25.96,13.85 23.68,10.54 20.23,9.92 C19.85,9.85 19.47,9.81 19.09,9.81 L15.66,9.81 C12.16,9.81 9.32,12.65 9.32,16.16 ZM9.32,50.7 L9.32,54.77 C9.32,58.28 12.16,61.12 15.66,61.12 L34.32,61.12 C37.83,61.12 40.67,58.28 40.67,54.77 C40.67,51.79 38.59,49.21 35.68,48.57 L17.01,44.5 C13.59,43.75 10.21,45.92 9.46,49.34 C9.36,49.79 9.32,50.24 9.32,50.7 ZM21.33,-73.3 L21.33,-69.65 C21.33,-66.15 24.17,-63.31 27.67,-63.31 L43.76,-63.31 C47.27,-63.31 50.11,-66.15 50.11,-69.65 L50.11,-73.3 C50.11,-76.8 47.27,-79.64 43.76,-79.64 L27.67,-79.64 C24.17,-79.64 21.33,-76.8 21.33,-73.3 ZM21.33,-51.2 L21.33,-47.13 C21.33,-43.62 24.17,-40.78 27.67,-40.78 L43.76,-40.78 C47.27,-40.78 50.11,-43.62 50.11,-47.13 L50.11,-51.2 C50.11,-54.71 47.27,-57.55 43.76,-57.55 L27.67,-57.55 C24.17,-57.55 21.33,-54.71 21.33,-51.2 ZM21.33,-28.46 L21.33,-25.03 C21.33,-21.53 24.17,-18.69 27.67,-18.69 L43.76,-18.69 C47.27,-18.69 50.11,-21.53 50.11,-25.03 L50.11,-28.46 C50.11,-31.97 47.27,-34.81 43.76,-34.81 L27.67,-34.81 C24.17,-34.81 21.33,-31.97 21.33,-28.46 Z" fill="#FFFFFF" fill-rule="evenodd" />
			</g>
			<g transform="matrix(0.244836688041687, 0, 0, 0.244836688041687, 144.11744689941406, -123.83037567138672)">
				<path d="M-76.74,-86.85 L-79.03,0.71 L-74.28,69.08 L-29.19,68.92 L-36.89,1.2 L-33.28,-87.34 L-76.74,-86.85 ZM-24.59,-46.02 L-26.07,-87.34 L79.03,-86.52 L75.1,-31.92 L31.15,-31.76 L33.78,-49.14 L-24.59,-46.02 ZM-25.74,-1.92 L-30.33,40.88 L-3.44,66.46 L77.56,66.29 L76.74,24.98 L21.64,28.25 L13.28,22.02 L17.87,0.38 L-25.74,-1.92 Z" fill="#FFFFFF" />
			</g>
			<g transform="matrix(0.244836688041687, 0, 0, 0.244836688041687, 52.78070068359375, -131.3982696533203)">
				<path d="M-75.94,39.54 L-81.52,-4.22 L-86.88,-4.22 L-86.88,41.9 L-75.94,39.54 ZM-215.6,96.39 L-215.6,19.81 L-142.66,19.81 L-142.66,96.39 L-215.6,96.39 ZM-180.63,61.85 L-176.77,61.85 L-176.77,52.84 L-180.63,52.84 L-180.63,61.85 ZM-32.39,29.24 L-30.46,4.14 L-0.43,21.31 L-12.87,96.18 L-67.79,96.18 L-71.44,82.66 L-136.22,96.82 L-139.44,50.27 L-129.36,48.55 L-129.36,-4.22 L-138.37,-4.22 L-138.37,-44.55 L-86.67,-44.55 L-87.31,-51.63 L-138.37,-50.77 L-138.37,-96.47 L-89.89,-95.61 L-92.46,-121.14 L-39.9,-121.35 L-39.69,-95.82 L-36.68,-95.61 L-37.76,-119.85 L-2.36,-118.56 L-5.36,-95.61 L-2.15,-96.47 L-2.15,-50.77 L-39.26,-51.85 L-32.39,29.24 ZM-215.6,-87.24 L-215.6,-118.78 L-144.16,-118.78 L-144.16,-87.24 L-215.6,-87.24 ZM-218.82,-46.91 L-218.82,-84.45 L-140.09,-84.45 L-140.09,-46.91 L-218.82,-46.91 ZM-213.45,-14.52 L-213.45,-44.12 L-143.73,-44.34 L-143.73,-14.52 L-213.45,-14.52 ZM-213.45,17.87 L-213.45,-12.37 L-143.73,-12.37 L-143.73,17.87 L-213.45,17.87 ZM44.84,-73.73 L54.7,-73.73 L49.98,-77.59 L44.84,-73.73 ZM89.03,-66.43 L123.78,-66.43 L123.78,-72.01 L93.1,-71.15 L89.03,-66.43 ZM127.86,-29.54 L131.5,-29.54 L131.5,-32.97 L127.86,-32.97 L127.86,-29.54 ZM127.86,-3.79 L131.5,-3.79 L131.5,-7.23 L127.86,-7.23 L127.86,-3.79 ZM173.55,-7.23 L170.12,-7.23 L170.12,-3.79 L173.55,-3.79 L173.55,-7.23 ZM173.55,-29.54 L173.55,-32.97 L170.12,-32.97 L170.12,-29.54 L173.55,-29.54 ZM123.78,71.29 L88.81,91.67 L87.74,86.95 L3.22,95.53 L0.43,47.48 L19.74,45.98 L19.74,11.01 L3.65,11.87 L3.65,-29.54 L19.74,-28.68 L19.74,-32.54 L9.01,-32.54 L9.01,-48.41 L1.93,-41.98 L0.21,-103.76 L49.98,-121.78 L83.24,-111.49 L83.24,-115.78 L123.78,-114.92 L122.92,-121.78 L178.7,-121.78 L177.84,-114.92 L219.25,-115.78 L219.25,-71.15 L177.84,-72.01 L177.84,-66.43 L216.03,-66.43 L216.03,27.31 L179.77,27.31 L219.46,38.04 L207.88,91.67 L177.84,70.43 L178.7,96.18 L122.92,96.18 L123.78,71.29 ZM122.71,27.31 L87.96,27.31 L87.96,-64.5 L83.88,-54.85 L83.88,-32.54 L72.08,-32.54 L72.08,-28.68 L84.95,-29.54 L84.95,11.87 L72.08,11.01 L72.08,43.19 L80.88,42.33 L80.45,41.04 L74.23,41.04 L74.23,13.37 L85.6,13.8 L83.67,34.82 L122.71,27.31 ZM1.5,15.73 L17.16,13.8 L17.38,43.62 L5.15,45.12 L1.5,15.73 Z" fill="#CCB05E" />
				<path d="M-225.16,-84.45 L-225.16,-46.91 C-225.16,-43.74 -222.84,-41.12 -219.8,-40.64 L-219.8,-14.52 C-219.8,-14.15 -219.77,-13.8 -219.71,-13.45 C-219.77,-13.1 -219.8,-12.74 -219.8,-12.37 L-219.8,15.05 C-221.11,16.21 -221.94,17.91 -221.94,19.81 L-221.94,96.39 C-221.94,99.9 -219.1,102.74 -215.6,102.74 L-142.66,102.74 C-141.63,102.74 -140.66,102.49 -139.8,102.06 C-138.41,103.01 -136.65,103.41 -134.87,103.02 L-75.99,90.15 L-73.92,97.83 C-73.17,100.6 -70.66,102.52 -67.79,102.52 L-12.87,102.52 C-9.77,102.52 -7.12,100.28 -6.61,97.22 L-3.96,81.28 L-3.12,95.9 C-3.11,95.99 -3.1,96.08 -3.09,96.17 C-2.74,99.66 0.37,102.2 3.86,101.85 L82.85,93.83 C82.98,94.19 83.14,94.53 83.33,94.87 C85.1,97.89 88.98,98.92 92.01,97.15 L117.04,82.56 L116.58,95.96 C116.58,96.03 116.58,96.1 116.58,96.18 C116.58,99.68 119.42,102.52 122.92,102.52 L178.7,102.52 C178.77,102.52 178.84,102.52 178.91,102.52 C182.41,102.4 185.16,99.47 185.04,95.97 L184.61,82.99 L204.21,96.85 C204.91,97.35 205.7,97.69 206.54,97.87 C209.96,98.61 213.34,96.44 214.08,93.01 L225.66,39.38 C226.38,36.08 224.38,32.8 221.12,31.91 L220.55,31.76 C221.68,30.62 222.37,29.05 222.37,27.31 L222.37,-65.63 C224.29,-66.72 225.59,-68.79 225.59,-71.15 L225.59,-115.78 C225.59,-115.82 225.59,-115.86 225.59,-115.91 C225.52,-119.41 222.62,-122.19 219.11,-122.12 L185.03,-121.41 C185.04,-121.54 185.05,-121.66 185.05,-121.78 C185.05,-125.29 182.2,-128.13 178.7,-128.13 L122.92,-128.13 C122.66,-128.13 122.4,-128.11 122.14,-128.08 C118.8,-127.66 116.39,-124.73 116.59,-121.42 L83.37,-122.12 C83.33,-122.12 83.28,-122.12 83.24,-122.12 C81.2,-122.12 79.39,-121.16 78.23,-119.68 L51.86,-127.84 C50.54,-128.25 49.12,-128.22 47.82,-127.75 L3.12,-111.56 L3.93,-117.74 C3.96,-117.94 3.97,-118.14 3.98,-118.33 C4.11,-121.84 1.37,-124.78 -2.13,-124.91 L-35.72,-126.13 C-36.84,-127.11 -38.32,-127.7 -39.93,-127.7 L-92.49,-127.48 C-92.69,-127.48 -92.89,-127.47 -93.1,-127.45 C-96.58,-127.1 -99.13,-123.99 -98.77,-120.5 L-96.92,-102.08 L-137.82,-102.8 L-137.82,-118.78 C-137.82,-122.28 -140.66,-125.12 -144.16,-125.12 L-215.6,-125.12 C-219.1,-125.12 -221.94,-122.28 -221.94,-118.78 L-221.94,-89.98 C-223.87,-88.89 -225.16,-86.82 -225.16,-84.45 ZM-212.47,-78.11 L-146.43,-78.11 L-146.43,-53.26 L-212.47,-53.26 L-212.47,-78.11 ZM-209.25,-112.43 L-150.51,-112.43 L-150.51,-93.59 L-209.25,-93.59 L-209.25,-112.43 ZM-209.25,26.15 L-149.01,26.15 L-149.01,90.05 L-209.25,90.05 L-209.25,26.15 ZM-207.11,-37.8 L-150.08,-37.97 L-150.08,-20.86 L-207.11,-20.86 L-207.11,-37.8 ZM-207.11,-6.03 L-150.08,-6.03 L-150.08,11.53 L-207.11,11.53 L-207.11,-6.03 ZM-186.98,52.84 L-186.98,61.85 C-186.98,65.36 -184.14,68.2 -180.63,68.2 L-176.77,68.2 C-173.27,68.2 -170.42,65.36 -170.42,61.85 L-170.42,52.84 C-170.42,49.34 -173.27,46.5 -176.77,46.5 L-180.63,46.5 C-184.14,46.5 -186.98,49.34 -186.98,52.84 ZM-137.39,2.12 L-135.7,2.12 L-135.7,43.2 L-136.32,43.3 L-136.32,19.81 C-136.32,18.5 -136.71,17.28 -137.39,16.27 L-137.39,2.12 ZM-132.72,55.56 L-128.29,54.81 C-125.25,54.29 -123.01,51.65 -123.01,48.55 L-123.01,-4.22 C-123.01,-7.73 -125.86,-10.57 -129.36,-10.57 L-132.02,-10.57 L-132.02,-38.21 L-86.67,-38.21 C-83.16,-38.21 -80.32,-41.05 -80.32,-44.55 C-80.32,-44.74 -80.33,-44.94 -80.35,-45.13 L-80.99,-52.21 C-81.29,-55.52 -84.1,-58.03 -87.42,-57.98 L-132.02,-57.23 L-132.02,-90.01 L-90,-89.27 C-86.5,-89.2 -83.6,-91.99 -83.54,-95.5 C-83.54,-95.75 -83.55,-96 -83.57,-96.25 L-85.45,-114.82 L-46.19,-114.98 L-46.03,-95.77 C-46,-92.46 -43.44,-89.73 -40.14,-89.5 L-37.14,-89.28 C-33.64,-89.03 -30.6,-91.66 -30.36,-95.16 C-30.34,-95.4 -30.33,-95.65 -30.35,-95.89 L-31.11,-113.26 L-9.56,-112.48 L-11.65,-96.43 C-12,-93.79 -10.67,-91.32 -8.49,-90.09 L-8.49,-57.31 L-39.08,-58.19 C-42.58,-58.29 -45.5,-55.53 -45.6,-52.03 C-45.61,-51.79 -45.6,-51.55 -45.58,-51.31 L-38.72,29.78 C-38.42,33.27 -35.35,35.86 -31.86,35.57 C-28.76,35.3 -26.31,32.83 -26.07,29.73 L-24.91,14.63 L-7.41,24.62 L-18.25,89.83 L-62.93,89.83 L-65.31,81.01 C-66.19,77.74 -69.49,75.74 -72.79,76.46 L-130.4,89.05 L-132.72,55.56 ZM-93.23,-4.22 L-93.23,41.9 C-93.23,45.41 -90.39,48.25 -86.88,48.25 C-86.43,48.25 -85.99,48.2 -85.55,48.1 L-74.6,45.74 C-71.38,45.05 -69.23,42.01 -69.65,38.74 L-75.23,-5.02 C-75.63,-8.19 -78.33,-10.57 -81.52,-10.57 L-86.88,-10.57 C-90.39,-10.57 -93.23,-7.73 -93.23,-4.22 ZM-32.34,-45.3 L-4.49,-44.49 L-4.41,-41.8 C-4.37,-40.29 -3.79,-38.83 -2.76,-37.71 C-1.52,-36.35 0.18,-35.65 1.89,-35.63 C-0.76,-34.87 -2.7,-32.43 -2.7,-29.54 L-2.7,10.97 C-3.08,11.31 -3.43,11.7 -3.72,12.12 L-27.31,-1.36 C-27.74,-1.61 -28.2,-1.8 -28.67,-1.94 L-32.34,-45.3 ZM6.68,-99.36 L50.14,-115.09 L81.36,-105.42 C84.6,-104.42 88.04,-106.15 89.19,-109.3 L123.65,-108.57 C127.15,-108.5 130.05,-111.28 130.13,-114.78 C130.13,-115 130.12,-115.22 130.11,-115.44 L171.52,-115.44 C171.24,-112.07 173.67,-109.05 177.06,-108.62 C177.36,-108.58 177.67,-108.57 177.97,-108.57 L212.9,-109.3 L212.9,-77.63 L177.97,-78.36 C174.47,-78.43 171.57,-75.65 171.5,-72.14 C171.5,-72.1 171.5,-72.06 171.5,-72.01 L171.5,-66.43 C171.5,-62.93 174.34,-60.09 177.84,-60.09 L209.68,-60.09 L209.68,20.97 L179.77,20.97 C176.27,20.97 173.43,23.81 173.43,27.31 C173.43,30.18 175.35,32.69 178.12,33.44 L211.99,42.59 L203.7,80.95 L181.51,65.25 C178.64,63.23 174.69,63.91 172.66,66.77 C171.86,67.9 171.46,69.26 171.5,70.64 L172.14,89.83 L129.49,89.83 L130.12,71.51 C130.24,68.01 127.5,65.07 124,64.95 C122.8,64.91 121.62,65.21 120.59,65.81 L92.15,82.39 C90.84,81.13 89.02,80.44 87.1,80.64 L9.17,88.55 L7.12,53.32 L20.23,52.3 C23.53,52.05 26.08,49.29 26.08,45.98 L26.08,11.01 C26.08,7.51 23.24,4.66 19.74,4.66 C19.62,4.66 19.51,4.67 19.4,4.67 L9.99,5.18 L9.99,-22.84 L19.4,-22.34 C22.9,-22.16 25.89,-24.84 26.07,-28.34 C26.08,-28.45 26.08,-28.57 26.08,-28.68 L26.08,-32.54 C26.08,-36.04 23.24,-38.88 19.74,-38.88 L15.36,-38.88 L15.36,-48.41 C15.36,-51.92 12.51,-54.76 9.01,-54.76 C8.64,-54.76 8.28,-54.73 7.93,-54.67 L6.68,-99.36 ZM8.58,21.25 L10.87,20.97 L10.99,38.01 L10.66,38.05 L8.58,21.25 ZM39.76,-69.92 C40.96,-68.32 42.84,-67.38 44.84,-67.38 L54.7,-67.38 C58.21,-67.38 61.05,-70.22 61.05,-73.73 C61.05,-75.63 60.2,-77.43 58.72,-78.64 L54,-82.5 C51.74,-84.35 48.51,-84.42 46.18,-82.67 L41.03,-78.8 C38.23,-76.7 37.66,-72.72 39.76,-69.92 ZM121.51,-32.97 L121.51,-29.54 C121.51,-26.03 124.35,-23.19 127.86,-23.19 L131.5,-23.19 C135.01,-23.19 137.85,-26.03 137.85,-29.54 L137.85,-32.97 C137.85,-36.47 135.01,-39.31 131.5,-39.31 L127.86,-39.31 C124.35,-39.31 121.51,-36.47 121.51,-32.97 ZM121.51,-7.23 L121.51,-3.79 C121.51,-0.29 124.35,2.55 127.86,2.55 L131.5,2.55 C135.01,2.55 137.85,-0.29 137.85,-3.79 L137.85,-7.23 C137.85,-10.73 135.01,-13.57 131.5,-13.57 L127.86,-13.57 C124.35,-13.57 121.51,-10.73 121.51,-7.23 ZM163.77,-32.97 L163.77,-29.54 C163.77,-26.03 166.62,-23.19 170.12,-23.19 L173.55,-23.19 C177.06,-23.19 179.9,-26.03 179.9,-29.54 L179.9,-32.97 C179.9,-36.47 177.06,-39.31 173.55,-39.31 L170.12,-39.31 C166.62,-39.31 163.77,-36.47 163.77,-32.97 ZM163.77,-7.23 L163.77,-3.79 C163.77,-0.29 166.62,2.55 170.12,2.55 L173.55,2.55 C177.06,2.55 179.9,-0.29 179.9,-3.79 L179.9,-7.23 C179.9,-10.73 177.06,-13.57 173.55,-13.57 L170.12,-13.57 C166.62,-13.57 163.77,-10.73 163.77,-7.23 Z" fill="#FFFFFF" fill-rule="evenodd" />
			</g>
			<g transform="matrix(0.244836688041687, 0, 0, 0.244836688041687, -38.16301345825195, -123.0125503540039)">
				<path d="M21.64,-43.89 L9.18,66.95 L-38.04,68.26 L-83.29,43.34 L-74.11,-76.03 L-6.56,-89.14 L65.59,-78 L83.29,-14.38 L71.49,55.8 L24.27,69.57 L14.43,23.66 L33.45,20.38 L41.32,-12.41 L32.79,-41.27 L21.64,-43.89 ZM-28.2,28.25 L-20.33,-44.55 L-34.1,-41.27 L-39.35,21.7 L-28.2,28.25 Z" fill="#FFFFFF" />
			</g>
			<g transform="matrix(0.244836688041687, 0, 0, 0.244836688041687, -131.18617248535156, -131.3982696533203)">
				<path d="M-156.6,-49.49 L-157.68,-52.92 L-160.9,-49.06 L-156.6,-49.49 ZM-78.09,-52.06 L-74.87,-56.57 L-79.59,-60 L-78.09,-52.06 ZM-27.03,-52.28 L-27.89,-55.92 L-30.25,-51.85 L-27.03,-52.28 ZM-72.08,-9.59 L-66.93,-9.8 L-68.86,-14.73 L-73.8,-14.09 L-72.08,-9.59 ZM-121.64,45.33 L-113.48,38.9 L-117.13,28.6 L-144.16,28.6 L-145.66,33.53 L-119.71,36.11 L-121.64,45.33 ZM-32.18,48.12 L-32.39,33.53 L-0.21,36.11 L-5.58,97.68 L-87.96,79.44 L-108.98,98.54 L-129.15,81.16 L-155.1,70.43 L-163.47,97.89 L-218.39,73.44 L-192,29.03 L-218.17,29.89 L-218.17,-10.23 L-126.36,-9.59 L-130.43,-42.62 L-128.72,-14.52 L-155.96,-10.66 L-156.39,-15.59 L-215.6,-11.09 L-217.96,-46.48 L-209.59,-47.13 L-207.23,-53.13 L-218.6,-62.14 L-210.45,-118.56 L-205.95,-112.99 L-204.23,-121.35 L-160.68,-114.06 L-178.7,-82.74 L-177.63,-81.02 L-163.25,-106.98 L-136.44,-95.82 L-139.44,-119.64 L-82.38,-120.5 L-81.73,-105.91 L-77.87,-116.85 L-73.8,-112.34 L-71.01,-121.78 L-35.61,-113.63 L-48.48,-90.03 L-46.34,-87.67 L-36.68,-109.55 L-0.43,-91.96 L-21.88,-62.57 L-2.15,-66.43 L-1.29,-14.95 L-24.46,-11.73 L-25.96,-17.95 L-29.82,-17.31 L-27.03,-9.59 L-1.5,-10.66 L-1.29,29.67 L-46.98,28.6 L-33.47,39.11 L-42.91,46.19 L-32.18,48.12 ZM-134.29,-75.44 L-147.17,-61.93 L-132.79,-62.79 L-134.29,-75.44 ZM144.59,18.09 L165.4,11.01 L165.19,5.86 L145.23,5.86 L137.94,10.15 L144.59,18.09 ZM101.69,-63.65 L128.29,-73.73 L104.9,-75.23 L95.46,-70.51 L101.69,-63.65 ZM1.5,-81.88 L80.45,-121.35 L193.07,-117.49 L191.14,-50.99 L164.76,-41.34 L218.82,-40.69 L219.03,47.05 L53.2,100.25 L37.54,52.41 L63.07,45.33 L37.33,12.08 L81.95,-10.44 L17.16,18.73 L0.43,-28.46 L54.49,-43.27 L51.27,-49.06 L19.95,-34.9 L1.5,-81.88 ZM100.18,33.96 L96.97,29.46 L75.73,41.9 L100.18,33.96 Z" fill="#CCB05E" />
				<path d="M-224.88,-63.05 C-225.21,-60.81 -224.31,-58.57 -222.54,-57.17 L-217.16,-52.91 L-218.45,-52.81 C-221.91,-52.54 -224.52,-49.53 -224.29,-46.06 L-222.23,-15.11 C-223.63,-13.95 -224.52,-12.19 -224.52,-10.23 L-224.52,29.89 C-224.52,29.96 -224.52,30.03 -224.52,30.1 C-224.4,33.6 -221.47,36.34 -217.97,36.23 L-203.38,35.75 L-223.84,70.2 C-223.97,70.41 -224.08,70.63 -224.18,70.86 C-225.61,74.06 -224.17,77.81 -220.97,79.23 L-166.05,103.69 C-165.81,103.8 -165.57,103.89 -165.32,103.96 C-161.97,104.98 -158.42,103.09 -157.4,99.74 L-151.07,78.97 L-132.51,86.63 L-113.12,103.34 C-110.69,105.44 -107.09,105.39 -104.71,103.23 L-86.12,86.35 L-6.95,103.87 C-6.68,103.93 -6.4,103.98 -6.13,104 C-2.64,104.3 0.44,101.72 0.74,98.23 L6.11,36.66 C6.11,36.64 6.11,36.63 6.11,36.62 C6.25,34.87 5.67,33.23 4.62,32 C4.91,31.27 5.06,30.47 5.06,29.64 L4.92,3.18 L11.18,20.85 C11.24,21.02 11.31,21.18 11.38,21.34 C12.82,24.53 16.57,25.96 19.77,24.52 L33.98,18.12 L52.27,41.75 L35.85,46.3 C35.75,46.32 35.66,46.35 35.57,46.38 C32.24,47.47 30.42,51.06 31.51,54.39 L47.17,102.23 C48.26,105.54 51.82,107.36 55.14,106.29 L220.97,53.09 C223.6,52.25 225.38,49.8 225.38,47.03 L225.16,-40.71 C225.15,-44.18 222.36,-46.99 218.89,-47.04 L196.31,-47.3 C197.02,-48.31 197.45,-49.52 197.49,-50.8 L199.42,-117.31 C199.52,-120.8 196.78,-123.71 193.29,-123.83 L80.66,-127.69 C79.61,-127.73 78.56,-127.5 77.61,-127.03 L5.87,-91.16 C6.2,-93.79 4.86,-96.45 2.34,-97.67 L-29.29,-113.02 C-28.99,-116.15 -31.04,-119.09 -34.19,-119.81 L-69.58,-127.97 C-72.75,-128.7 -75.95,-126.91 -77,-123.87 C-78.14,-125.68 -80.18,-126.87 -82.47,-126.84 L-139.54,-125.98 C-139.77,-125.98 -140,-125.96 -140.24,-125.93 C-143.71,-125.49 -146.18,-122.32 -145.74,-118.84 L-144.1,-105.89 L-155.37,-110.57 L-155.18,-110.9 C-154.8,-111.55 -154.55,-112.27 -154.42,-113.01 C-153.84,-116.47 -156.18,-119.74 -159.63,-120.32 L-203.18,-127.61 C-205.73,-128.04 -208.19,-126.88 -209.53,-124.84 C-209.53,-124.84 -209.54,-124.84 -209.54,-124.84 C-213.01,-125.35 -216.23,-122.94 -216.73,-119.47 L-224.88,-63.05 ZM-211.83,-3.84 L-126.4,-3.24 C-122.9,-3.22 -120.04,-6.04 -120.01,-9.54 C-120.01,-9.82 -120.03,-10.09 -120.06,-10.36 L-124.13,-43.4 C-124.56,-46.88 -127.73,-49.35 -131.21,-48.92 C-134.54,-48.51 -136.97,-45.58 -136.77,-42.24 L-135.41,-19.98 L-150.46,-17.85 C-151.43,-20.41 -154,-22.14 -156.87,-21.92 L-209.69,-17.9 L-211.21,-40.64 L-209.11,-40.8 C-206.68,-40.99 -204.58,-42.54 -203.69,-44.81 L-201.33,-50.81 C-200.31,-53.41 -201.1,-56.37 -203.29,-58.11 L-211.8,-64.85 L-205.76,-106.64 C-204.42,-106.68 -203.08,-107.14 -201.96,-108.05 C-200.81,-108.98 -200.03,-110.27 -199.73,-111.71 L-199.24,-114.08 L-170.73,-109.31 L-184.2,-85.9 C-185.37,-83.87 -185.32,-81.36 -184.08,-79.38 L-183.01,-77.66 C-181.15,-74.69 -177.24,-73.78 -174.27,-75.64 C-173.35,-76.21 -172.6,-77.01 -172.08,-77.95 L-160.45,-98.94 L-138.88,-89.97 C-135.64,-88.62 -131.93,-90.15 -130.58,-93.39 C-130.16,-94.41 -130.01,-95.52 -130.14,-96.62 L-132.26,-113.4 L-88.45,-114.06 L-88.07,-105.63 C-87.92,-102.13 -84.96,-99.41 -81.46,-99.57 C-78.87,-99.68 -76.61,-101.36 -75.75,-103.8 L-74.94,-106.1 C-73.07,-105.76 -71.06,-106.26 -69.54,-107.64 C-68.68,-108.42 -68.04,-109.43 -67.71,-110.55 L-66.61,-114.26 L-45.19,-109.32 L-54.05,-93.07 C-55.35,-90.7 -55,-87.76 -53.18,-85.76 L-51.03,-83.4 C-48.68,-80.81 -44.66,-80.62 -42.07,-82.98 C-41.41,-83.57 -40.89,-84.3 -40.53,-85.11 L-33.53,-100.97 L-10.03,-89.57 L-27.01,-66.31 C-27.9,-65.09 -28.29,-63.66 -28.22,-62.26 C-28.59,-62.24 -28.97,-62.19 -29.34,-62.1 C-31.04,-61.7 -32.5,-60.61 -33.38,-59.1 L-35.74,-55.03 C-37.5,-51.99 -36.46,-48.11 -33.43,-46.36 C-32.21,-45.65 -30.8,-45.37 -29.41,-45.56 L-26.19,-45.99 C-22.72,-46.45 -20.28,-49.64 -20.74,-53.11 C-20.77,-53.32 -20.81,-53.53 -20.85,-53.73 L-21.45,-56.24 C-21.18,-56.26 -20.92,-56.3 -20.66,-56.35 L-8.36,-58.75 L-7.72,-20.46 L-19.64,-18.81 L-19.79,-19.44 C-20.57,-22.68 -23.72,-24.76 -27,-24.21 L-30.86,-23.57 C-34.32,-22.99 -36.65,-19.72 -36.08,-16.26 C-36.01,-15.89 -35.92,-15.51 -35.79,-15.15 L-33,-7.43 C-32.06,-4.82 -29.53,-3.13 -26.76,-3.25 L-7.81,-4.04 L-7.67,23.18 L-46.83,22.26 C-50.34,22.18 -53.24,24.95 -53.32,28.45 C-53.37,30.46 -52.46,32.37 -50.88,33.61 L-43.92,39.02 L-46.71,41.12 C-49.52,43.22 -50.08,47.2 -47.98,50 C-47.02,51.28 -45.61,52.15 -44.03,52.44 L-33.3,54.37 C-29.85,54.99 -26.56,52.7 -25.93,49.25 C-25.86,48.85 -25.83,48.44 -25.83,48.03 L-25.95,40.42 L-7.09,41.92 L-11.27,89.92 L-86.58,73.25 C-88.6,72.8 -90.7,73.36 -92.22,74.75 L-109.09,90.07 L-125,76.35 C-125.52,75.91 -126.1,75.55 -126.72,75.3 L-152.68,64.57 C-155.92,63.23 -159.63,64.77 -160.97,68.01 C-161.04,68.2 -161.11,68.39 -161.17,68.58 L-167.45,89.18 L-209.29,70.54 L-186.55,32.27 C-184.76,29.26 -185.75,25.37 -188.76,23.58 C-189.8,22.96 -191,22.65 -192.21,22.69 L-211.83,23.33 L-211.83,-3.84 ZM-165.77,-53.12 C-168.01,-50.43 -167.65,-46.43 -164.96,-44.18 C-163.65,-43.09 -161.96,-42.58 -160.26,-42.74 L-155.97,-43.17 C-152.49,-43.52 -149.94,-46.63 -150.29,-50.12 C-150.33,-50.55 -150.42,-50.97 -150.55,-51.38 L-151.62,-54.81 C-152.67,-58.16 -156.22,-60.02 -159.57,-58.98 C-160.73,-58.61 -161.77,-57.92 -162.55,-56.98 L-165.77,-53.12 ZM-151.76,-66.31 C-154.18,-63.77 -154.08,-59.75 -151.54,-57.33 C-150.27,-56.12 -148.54,-55.49 -146.79,-55.6 L-132.41,-56.45 C-128.92,-56.66 -126.25,-59.67 -126.46,-63.17 C-126.47,-63.29 -126.48,-63.41 -126.49,-63.54 L-127.99,-76.19 C-128.41,-79.67 -131.56,-82.16 -135.04,-81.75 C-136.51,-81.57 -137.87,-80.89 -138.89,-79.82 L-151.76,-66.31 ZM-151.73,31.69 C-152.75,35.04 -150.86,38.58 -147.51,39.6 C-147.11,39.73 -146.7,39.81 -146.29,39.85 L-127.36,41.73 L-127.85,44.03 C-128.56,47.46 -126.37,50.83 -122.94,51.54 C-121.1,51.93 -119.18,51.48 -117.7,50.31 L-109.55,43.88 C-107.42,42.19 -106.6,39.34 -107.5,36.78 L-111.15,26.48 C-112.05,23.95 -114.44,22.26 -117.13,22.26 L-144.16,22.26 C-146.95,22.26 -149.42,24.08 -150.23,26.75 L-151.73,31.69 ZM-85.82,-58.82 L-84.32,-50.88 C-83.67,-47.44 -80.35,-45.18 -76.91,-45.83 C-75.3,-46.13 -73.87,-47.04 -72.92,-48.37 L-69.71,-52.88 C-67.68,-55.71 -68.32,-59.65 -71.14,-61.7 L-75.86,-65.13 C-78.69,-67.19 -82.66,-66.56 -84.72,-63.73 C-85.75,-62.32 -86.15,-60.54 -85.82,-58.82 ZM-80.09,-13.27 C-80.02,-12.78 -79.9,-12.29 -79.73,-11.83 L-78.01,-7.33 C-77.04,-4.78 -74.54,-3.13 -71.82,-3.25 L-66.67,-3.46 C-63.17,-3.61 -60.45,-6.56 -60.59,-10.06 C-60.62,-10.77 -60.77,-11.46 -61.02,-12.11 L-62.95,-17.05 C-64.02,-19.76 -66.79,-21.4 -69.68,-21.03 L-74.62,-20.38 C-78.09,-19.93 -80.54,-16.74 -80.09,-13.27 ZM-7.21,-71.91 L-3.43,-77.09 L-1.74,-72.77 C-2.27,-72.8 -2.82,-72.77 -3.36,-72.66 L-7.21,-71.91 ZM4.35,-57.26 L11.85,-38.17 L4.7,-36.21 L4.35,-57.26 ZM8.69,-24.15 L56.17,-37.15 C59.55,-38.07 61.53,-41.56 60.61,-44.94 C60.48,-45.43 60.28,-45.9 60.04,-46.35 L56.82,-52.14 C55.22,-55.03 51.67,-56.2 48.66,-54.84 L23.42,-43.43 L9.53,-78.8 L81.84,-114.96 L186.55,-111.37 L184.93,-55.47 L162.58,-47.29 C159.29,-46.09 157.59,-42.45 158.8,-39.15 C159.7,-36.68 162.05,-35.02 164.68,-34.99 L212.49,-34.42 L212.68,42.43 L57.27,92.28 L45.64,56.75 L64.77,51.45 C68.14,50.51 70.12,47.02 69.19,43.64 C68.96,42.84 68.59,42.1 68.09,41.45 L47.05,14.28 L84.81,-4.78 C87.94,-6.36 89.19,-10.17 87.61,-13.3 C86.08,-16.33 82.44,-17.62 79.34,-16.23 L20.84,10.12 L8.69,-24.15 ZM70.25,45.11 C71.76,47.68 74.85,48.86 77.69,47.94 L102.14,40 C105.48,38.92 107.3,35.34 106.22,32.01 C106.02,31.39 105.72,30.8 105.35,30.28 L102.13,25.77 C100.22,23.1 96.59,22.32 93.76,23.98 L72.52,36.43 C69.5,38.2 68.48,42.09 70.25,45.11 ZM89.79,-67.67 C90.05,-67.16 90.38,-66.68 90.76,-66.25 L96.98,-59.38 C98.74,-57.45 101.49,-56.79 103.93,-57.71 L130.54,-67.8 C133.81,-69.04 135.46,-72.7 134.22,-75.98 C133.34,-78.3 131.18,-79.9 128.69,-80.06 L105.31,-81.56 C104.19,-81.63 103.07,-81.41 102.07,-80.91 L92.63,-76.19 C89.49,-74.62 88.22,-70.81 89.79,-67.67 Z" fill="#FFFFFF" fill-rule="evenodd" />
			</g>
		</g>
		<g transform="matrix(0.27224570512771606, 0, 0, 0.27224570512771606, -6.990997314453125, -45.72395706176758)">
			<path d="M-781.8,8.25 L-720.58,8.25 L-720.58,5.52 L-781.8,5.52 L-781.8,8.25 ZM-747.48,43.54 L-739.88,38.47 L-753.92,38.47 L-747.48,43.54 ZM-801.88,50.56 L-811.43,46.07 L-793.88,38.47 L-814.74,38.47 L-814.74,24.04 L-819.62,24.04 L-818.84,51.92 L-801.88,50.56 ZM-680.03,-24.5 L-806.95,-24.5 L-806.95,-51.8 L-729.94,-51.8 L-729.94,-53.94 L-803.44,-53.16 L-803.44,-78.9 L-729.94,-78.12 L-729.94,-79.87 L-805.39,-79.87 L-805.39,-107.95 L-680.03,-107.95 L-680.03,-24.5 ZM-674.18,52.12 L-684.31,87.02 L-747.29,76.29 L-811.04,87.02 L-818.84,63.42 L-818.06,87.02 L-867.77,87.02 L-866.99,36.13 L-870.89,49.19 L-873.43,-27.23 L-862.51,-110.68 L-806.95,-104.05 L-820.4,-51.02 L-819.62,-23.14 L-674.37,-23.14 L-674.37,24.04 L-681.59,24.04 L-681.59,38.47 L-698.16,49.39 L-674.18,52.12 ZM-572.02,38.27 L-636.74,39.44 L-646.69,-4.81 L-630.31,-50.63 L-575.53,-49.07 L-575.92,-53.94 L-669.3,-51.6 L-669.89,-97.22 L-576.5,-96.64 L-578.45,-108.34 L-519.18,-109.12 L-519.77,-97.42 L-478.63,-98.98 L-477.85,-54.14 L-520.55,-54.72 L-523.86,-39.12 L-512.36,12.73 L-529.13,75.9 L-621.93,88.18 L-628.56,42.95 L-573.38,41.59 L-572.02,38.27 ZM-592.1,1.23 L-571.82,1.82 L-573.58,-7.54 L-591.51,-8.13 L-593.85,-3.45 L-592.1,1.23 ZM-461.47,-51.41 L-463.23,-101.12 L-294.78,-102.88 L-299.46,-33.28 L-357.17,-31.52 L-352.49,-53.16 L-461.47,-51.41 ZM-463.81,-1.5 L-471.03,52.51 L-439.05,81.75 L-294,79.02 L-299.85,22.09 L-404.94,34.38 L-413.9,30.67 L-407.66,3.77 L-463.81,-1.5 ZM-143.1,-109.51 L-106.06,-64.47 L-226.55,14.68 L-224.6,35.94 L-106.25,27.36 L-104.89,82.14 L-273.34,81.36 L-280.74,-7.93 L-250.14,-29.96 L-290.49,-82.02 L-240,-110.68 L-209.39,-56.28 L-143.1,-109.51 ZM21.84,-52.19 L7.02,79.61 L-49.13,81.17 L-102.94,51.53 L-92.02,-90.4 L-11.7,-106 L74.09,-92.74 L95.14,-17.09 L81.1,66.35 L24.96,82.73 L13.26,28.14 L35.87,24.24 L45.23,-14.75 L35.09,-49.07 L21.84,-52.19 ZM-37.43,33.6 L-28.07,-52.97 L-44.45,-49.07 L-50.69,25.8 L-37.43,33.6 ZM234.93,-15.53 Q229.66,-16.9 225.38,-21.77 Q221.28,-28.01 222.84,-36.59 Q224.01,-42.05 229.08,-45.56 Q235.51,-50.63 245.46,-46.14 Q240.78,-33.28 251.89,-22.55 Q244.09,-13.39 234.93,-15.53 ZM260.86,-24.11 Q255.98,-25.28 252.48,-30.35 Q244.48,-42.05 255.01,-52.77 Q266.12,-60.38 277.43,-50.24 Q281.52,-44.78 280.55,-36.79 Q279.18,-30.74 274.12,-26.65 Q268.46,-22.55 260.86,-24.11 ZM100.21,-47.12 L97.09,-99.37 L278.8,-104.05 L279.77,-57.26 L276.26,-55.5 Q268.85,-61.74 260.47,-59.99 Q251.31,-57.65 247.99,-49.85 Q232.2,-55.89 222.26,-45.95 Q213.68,-34.45 220.5,-19.63 L186.19,3.18 L187.55,14.29 L274.7,36.13 L257.74,87.41 L138.62,54.07 L129.45,-17.09 L186.19,-53.94 L100.21,-47.12 ZM288.74,4.16 L288.15,-41.85 L361.85,-40.88 L361.26,-50.24 L290.88,-47.51 L290.3,-94.1 L356.97,-92.74 L354.64,-106 L410.78,-108.34 L410.78,-94.69 L463.03,-98.59 L463.81,-53.36 L412.54,-52.38 L414.49,-42.83 L469.08,-46.34 L470.83,-1.11 L421.9,-1.5 L432.23,21.12 L372.96,32.62 L367.7,0.45 L288.74,4.16 ZM350.15,16.05 L343.13,37.88 L351.32,43.15 L466.35,32.43 L470.44,83.31 L321.49,87.02 L287.37,60.11 L295.56,6.5 L350.15,16.05 ZM650.98,-32.3 L578.84,-73.83 L601.07,-110.29 L673.59,-81.24 L650.98,-32.3 ZM638.3,-3.64 L673.2,25.02 L643.96,66.93 L631.87,49.78 L626.02,84.09 L543.94,83.51 L523.67,36.13 L540.82,-20.02 L589.17,-24.31 L588.2,-40.29 L641.42,-36.59 L638.3,-3.64 ZM477.66,-39.51 L476.29,-85.53 L504.37,-84.94 L505.34,-109.31 L556.62,-107.75 L552.91,-88.06 L577.67,-90.59 L579.04,-45.36 L546.28,-43.41 L517.04,46.27 L474.93,13.51 L499.3,-41.85 L477.66,-39.51 ZM590.54,18.97 L573.38,20.14 L570.46,32.82 L573.58,41.98 L589.37,42.37 L590.54,18.97 ZM676.91,-99.76 L675.35,-20.99 L690.94,75.71 L790.76,58.55 L775.17,5.52 L733.84,21.9 L727.6,-25.67 L736.95,-95.08 L676.91,-99.76 ZM781.41,-73.24 L814.16,-26.45 L816.5,51.53 L872.65,40.61 L865.63,-41.27 L832.88,-102.1 L781.41,-73.24 Z" fill="#FFFFFF" />
		</g>
		<g transform="matrix(0.26150405406951904, 0, 0, 0.26150405406951904, -6.983551025390625, 165.50486755371094)">
			<path d="M-929.68,-92.1 L-898.53,-54.22 L-999.86,12.35 L-998.22,30.22 L-898.69,23.01 L-897.55,69.08 L-1039.21,68.43 L-1045.44,-6.67 L-1019.7,-25.2 L-1053.64,-68.98 L-1011.17,-93.08 L-985.43,-47.33 L-929.68,-92.1 ZM-893.94,-87.51 L-843.93,-89.64 L-844.59,15.63 L-831.14,26.94 L-797.69,26.61 L-784.57,-11.26 L-738.34,5.14 L-763.59,67.77 L-856.72,71.71 L-888.69,44.65 L-893.94,-87.51 ZM-732.27,-39.63 L-734.89,-83.57 L-582.08,-87.51 L-581.26,-49.47 L-659.96,2.68 L-658.81,12.02 L-585.52,30.39 L-599.79,73.51 L-699.97,45.47 L-707.67,-14.38 L-659.96,-45.37 L-732.27,-39.63 ZM-531.74,-40.94 L-531.25,73.18 L-572.4,73.18 L-571.58,28.25 L-575.52,50.23 L-578.47,-17.98 L-564.2,-92.59 L-519.28,-88.16 L-525.51,-65.37 L-411.88,-65.21 L-411.88,-37.17 L-529.94,-37.17 L-529.94,-51.76 L-531.74,-40.94 ZM-524.03,73.18 L-524.03,11.04 L-419.26,11.04 L-419.26,73.18 L-524.03,73.18 ZM-516,-66.85 L-516,-90.95 L-421.23,-90.95 L-421.23,-66.85 L-516,-66.85 ZM-520.26,-13.72 L-520.26,-35.86 L-422.7,-35.86 L-422.7,-13.72 L-520.26,-13.72 ZM-520.26,9.89 L-520.26,-12.41 L-422.7,-12.41 L-422.7,9.89 L-520.26,9.89 ZM-460.25,44.32 L-460.25,39.73 L-482.71,39.73 L-482.71,44.32 L-460.25,44.32 ZM-407.13,73.51 L-407.13,12.84 L-342.52,12.84 L-342.52,73.51 L-407.13,73.51 ZM-377.61,45.47 L-371.22,45.47 L-371.22,40.55 L-377.61,40.55 L-377.61,45.47 ZM-407.13,-68.16 L-407.13,-90.95 L-343.34,-90.95 L-343.34,-68.16 L-407.13,-68.16 ZM-410.08,-36.68 L-410.08,-66.35 L-340.72,-66.35 L-340.72,-36.68 L-410.08,-36.68 ZM-405.16,-12.9 L-405.16,-35.04 L-343.34,-35.04 L-343.34,-12.9 L-405.16,-12.9 ZM-405.16,10.87 L-405.16,-11.1 L-343.34,-11.1 L-343.34,10.87 L-405.16,10.87 ZM-278.41,22.02 L-242.67,24.48 L-245.95,73.51 L-325.8,73.51 L-325.8,10.71 L-339.08,12.84 L-339.9,-26.02 L-325.8,-26.67 L-325.8,-49.79 L-337.6,-48.65 L-339.41,-85.21 L-249.56,-93.08 L-245.13,-54.71 L-283.82,-52.25 L-283.82,-29.46 L-243.82,-34.22 L-243,6.12 L-283.82,7.59 L-283.82,37.44 L-278.74,37.44 L-278.41,22.02 ZM-136.75,-65.7 L-85.43,-70.12 L-83.29,-28.81 L-128.55,-28.64 L-116.09,5.46 L-166.59,16.29 L-175.93,-26.18 L-239.23,-22.9 L-241.19,-64.39 L-188.07,-64.06 L-195.45,-84.72 L-141.5,-92.26 L-136.75,-65.7 ZM-186.76,0.54 L-195.61,26.94 L-189.38,33.83 L-90.34,21.37 L-85.1,65.64 L-216.6,72.03 L-240.54,32.85 L-229.06,-9.29 L-186.76,0.54 ZM-13.94,20.06 L-13.28,73.18 L-58.04,73.02 L-55.42,37.93 L-60.83,47.77 L-81.33,10.05 L-52.96,-29.13 L-79.85,-27.82 L-79.52,-68.49 L-55.26,-67.01 L-56.73,-91.28 L-10.17,-91.28 L-12.13,-57.99 L32.47,-85.7 L62.14,-70.12 L77.56,-45.04 L59.68,34.65 L81,29.73 L84.93,71.05 L28.04,72.69 L14.59,31.7 L30.66,-24.87 L27.55,-30.77 L-13.61,-2.24 L-13.94,20.06 ZM145.93,14.15 L186.43,20.71 L181.84,35.47 L186.1,39.08 L243.16,35.14 L245.78,72.69 L150.85,72.53 L140.68,52.85 L145.93,14.15 ZM88.54,-33.89 L88.87,-75.21 L113.14,-74.06 L115.1,-92.59 L161.83,-90.62 L158.55,-76.19 L227.09,-82.91 L230.37,-41.59 L149.7,-38.15 L133.63,74.66 L86.25,67.11 L108.71,-35.53 L88.54,-33.89 ZM156.75,-36.02 L244.96,-37.99 L243.16,0.54 L157.08,-0.77 L156.75,-36.02 ZM273.82,-91.93 L321.7,-91.77 L320.22,-76.52 L381.88,-78.32 L382.04,-38.32 L318.26,-38.97 L317.93,-28.48 L377.45,-30.28 L377.94,-6.34 L398.6,-12.41 L409.42,46.78 L393.84,69.9 L289.23,74 L269.72,49.24 L271.2,7.92 L248.24,9.07 L249.56,-29.63 L273.17,-28.97 L273.66,-40.12 L247.26,-39.46 L248.74,-77.5 L274.31,-76.19 L273.82,-91.93 ZM315.8,6.28 L314.65,29.57 L318.09,34.49 L359.25,32.19 L363.68,23.34 L359.58,6.78 L315.8,6.28 ZM516.16,-43.89 L503.7,66.95 L456.48,68.26 L411.23,43.34 L420.41,-76.03 L487.96,-89.14 L560.11,-78 L577.81,-14.38 L566.01,55.8 L518.79,69.57 L508.95,23.66 L527.97,20.38 L535.84,-12.41 L527.31,-41.27 L516.16,-43.89 ZM466.32,28.25 L474.19,-44.55 L460.41,-41.27 L455.17,21.7 L466.32,28.25 ZM695.38,-13.06 Q690.95,-14.21 687.34,-18.31 Q683.9,-23.56 685.21,-30.77 Q686.2,-35.36 690.46,-38.32 Q695.87,-42.58 704.23,-38.81 Q700.3,-27.99 709.64,-18.97 Q703.08,-11.26 695.38,-13.06 ZM717.18,-20.28 Q713.09,-21.26 710.13,-25.53 Q703.41,-35.36 712.27,-44.38 Q721.61,-50.78 731.12,-42.25 Q734.56,-37.66 733.75,-30.94 Q732.6,-25.85 728.33,-22.41 Q723.58,-18.97 717.18,-20.28 ZM582.08,-39.63 L579.45,-83.57 L732.27,-87.51 L733.09,-48.15 L730.14,-46.68 Q723.91,-51.92 716.86,-50.45 Q709.15,-48.48 706.36,-41.92 Q693.08,-47.01 684.72,-38.64 Q677.51,-28.97 683.24,-16.51 L654.39,2.68 L655.53,12.02 L728.83,30.39 L714.56,73.51 L614.38,45.47 L606.67,-14.38 L654.39,-45.37 L582.08,-39.63 ZM891.15,-83.08 L891.15,-44.05 L820.81,-45.37 L820.81,-41.76 L854.59,-41.92 L886.07,-29.46 L895.91,19.07 L888.04,72.85 L840.16,62.36 L857.21,17.76 L856.56,15.14 L822.45,63.02 L749.98,65.64 L736.53,-23.56 L779.66,-37.82 L779.66,-45.37 L738.66,-44.05 L738.66,-83.08 L779.66,-81.77 L779,-91.93 L821.47,-91.93 L820.81,-81.77 L891.15,-83.08 ZM825.73,-5.19 L820.81,-5.36 L820.81,10.55 L825.73,-5.19 ZM781.62,0.38 L776.54,2.68 L781.79,32.19 L781.62,0.38 ZM905.91,-52.09 L903.45,-88.98 L1042,-88.82 L1041.18,-50.78 L998.88,-33.56 L1038.88,-31.43 L1053.15,27.11 L1017.41,71.05 L920.17,73.67 L898.86,39.57 L917.55,-2.24 L984.12,1.36 L999.7,22.68 L1006.75,17.1 L1001.99,0.38 L900.66,-6.51 L900.17,-31.1 L965.76,-54.06 L905.91,-52.09 ZM954.44,32.03 L947.23,31.53 L942.8,39.4 L959.85,38.58 L954.44,32.03 Z" fill="#FFFFFF" />
		</g>
		<g id="グループ 42">
			<g transform="matrix(0.27201759815216064, 0, 0, 0.27201759815216064, -7.652549743652344, 90.51847839355469)">
				<path d="M21.64,-43.89 L9.18,66.95 L-38.04,68.26 L-83.29,43.34 L-74.11,-76.03 L-6.56,-89.14 L65.59,-78 L83.29,-14.38 L71.49,55.8 L24.27,69.57 L14.43,23.66 L33.45,20.38 L41.32,-12.41 L32.79,-41.27 L21.64,-43.89 ZM-28.2,28.25 L-20.33,-44.55 L-34.1,-41.27 L-39.35,21.7 L-28.2,28.25 Z" fill="#FFFFFF" />
			</g>
			<g transform="matrix(0.27201759815216064, 0, 0, 0.27201759815216064, -103.05113220214844, 80.08210754394531)">
				<path d="M-185.78,-80.38 L-173.34,-121.78 L-48.91,-113.2 L-60.93,-61.93 L-72.51,-64.29 L-72.51,-47.13 L-33.47,-84.03 L-0.86,-33.61 L-55.99,-1.43 L-0.43,28.17 L-28.32,81.37 L-72.51,46.41 L-72.51,96.61 L-160.47,94.67 L-155.96,45.55 L-126.36,46.41 L-126.36,-32.97 L-192,-32.11 L-192,-76.95 L-152.96,-76.09 L-185.78,-80.38 ZM-216.24,17.23 L-216.46,-30.18 L-129.15,-30.18 L-129.15,3.5 L-180.85,83.3 L-219.03,44.48 L-188.57,15.51 L-216.24,17.23 ZM162.83,2.43 L218.6,61.85 L161.75,95.1 L123.14,35.04 L57.71,95.75 L3,52.84 L142.02,-48.41 L74.44,-51.2 L52.56,2.21 L1.07,-19.02 L32.39,-120.92 L100.83,-116.42 L94.39,-102.26 L213.24,-97.97 L211.31,-39.62 L162.83,2.43 Z" fill="#CCB05E" />
				<path d="M-223.56,48.92 L-185.37,87.75 C-185.04,88.08 -184.68,88.38 -184.3,88.63 C-181.35,90.54 -177.43,89.7 -175.52,86.75 L-164.56,69.84 L-166.78,94.1 C-166.8,94.24 -166.81,94.39 -166.81,94.54 C-166.89,98.04 -164.11,100.94 -160.61,101.02 L-72.65,102.95 C-72.6,102.95 -72.56,102.95 -72.51,102.95 C-69.01,102.95 -66.17,100.11 -66.17,96.61 L-66.17,59.52 L-32.25,86.35 C-31.94,86.6 -31.61,86.81 -31.26,86.99 C-28.16,88.62 -24.32,87.42 -22.7,84.32 L5.19,31.12 C6.81,28.03 5.63,24.21 2.55,22.57 L-42.97,-1.69 L-3.88,-24.5 L-4.99,-20.89 C-5.95,-17.76 -4.38,-14.41 -1.35,-13.16 L50.14,8.08 Q50.15,8.08 50.15,8.09 C51.1,8.47 52.09,8.62 53.05,8.54 L-0.73,47.71 C-1.21,48.06 -1.63,48.47 -1.99,48.93 C-4.15,51.68 -3.67,55.67 -0.91,57.83 L53.79,100.74 C56.25,102.67 59.74,102.52 62.02,100.4 L121.9,44.84 L156.42,98.54 C158.25,101.4 162.02,102.3 164.96,100.58 L221.81,67.33 C222.22,67.09 222.6,66.8 222.95,66.48 C225.5,64.08 225.63,60.06 223.23,57.51 L171.97,2.9 L215.47,-34.83 C216.8,-35.98 217.59,-37.64 217.65,-39.41 L219.58,-97.76 C219.7,-101.26 216.96,-104.18 213.47,-104.31 L104.09,-108.26 L106.6,-113.79 C106.92,-114.49 107.11,-115.24 107.16,-116 C107.39,-119.5 104.74,-122.52 101.24,-122.75 L32.81,-127.26 C29.88,-127.45 27.19,-125.6 26.33,-122.79 L1.42,-41.77 L-28.14,-87.47 C-28.35,-87.8 -28.59,-88.1 -28.85,-88.38 C-31.26,-90.93 -35.28,-91.04 -37.82,-88.64 L-51.09,-76.1 L-42.73,-111.75 C-42.66,-112.09 -42.61,-112.42 -42.58,-112.76 C-42.34,-116.26 -44.98,-119.29 -48.48,-119.53 L-172.9,-128.11 C-175.86,-128.32 -178.56,-126.45 -179.41,-123.61 L-191.53,-83.28 L-191.86,-83.29 C-191.91,-83.29 -191.95,-83.29 -192,-83.29 C-195.51,-83.29 -198.35,-80.45 -198.35,-76.95 L-198.35,-36.52 L-216.46,-36.52 C-216.47,-36.52 -216.48,-36.52 -216.49,-36.52 C-219.99,-36.51 -222.82,-33.66 -222.8,-30.15 L-222.59,17.26 C-222.59,17.38 -222.58,17.5 -222.58,17.62 C-222.36,21.12 -219.35,23.78 -215.85,23.56 L-205.57,22.93 L-223.4,39.88 C-223.43,39.9 -223.46,39.93 -223.48,39.95 C-225.98,42.41 -226.01,46.43 -223.56,48.92 ZM-210.08,-23.83 L-135.49,-23.83 L-135.49,1.63 L-181.87,73.22 L-209.98,44.63 L-184.2,20.11 C-181.66,17.7 -181.56,13.68 -183.97,11.14 C-185.26,9.78 -187.09,9.07 -188.96,9.18 L-209.93,10.48 L-210.08,-23.83 ZM-185.66,-70.46 L-153.1,-69.74 C-149.59,-69.67 -146.69,-72.45 -146.61,-75.95 C-146.54,-79.19 -148.92,-81.96 -152.14,-82.38 L-177.55,-85.7 L-168.72,-115.1 L-56.79,-107.38 L-65.7,-69.38 L-71.24,-70.51 C-74.68,-71.21 -78.03,-68.99 -78.73,-65.56 C-78.81,-65.14 -78.86,-64.71 -78.86,-64.29 L-78.86,-47.13 C-78.86,-43.62 -76.01,-40.78 -72.51,-40.78 C-70.89,-40.78 -69.33,-41.4 -68.15,-42.52 L-34.65,-74.18 L-9.79,-35.74 L-59.19,-6.91 C-62.22,-5.15 -63.24,-1.26 -61.47,1.77 C-60.88,2.78 -60.01,3.61 -58.98,4.17 L-8.97,30.81 L-30.38,71.65 L-68.57,41.43 C-71.32,39.26 -75.31,39.72 -77.49,42.47 C-78.37,43.59 -78.86,44.98 -78.86,46.41 L-78.86,90.12 L-153.53,88.48 L-150.19,52.06 L-126.54,52.75 C-123.04,52.85 -120.12,50.09 -120.01,46.59 C-120.01,46.53 -120.01,46.47 -120.01,46.41 L-120.01,-32.97 C-120.01,-36.47 -122.85,-39.31 -126.36,-39.31 C-126.38,-39.31 -126.41,-39.31 -126.44,-39.31 L-185.66,-38.54 L-185.66,-70.46 ZM-144.92,39.52 L-132.7,20.66 L-132.7,39.87 L-144.92,39.52 ZM8.84,-22.69 L36.98,-114.26 L91.25,-110.69 L88.62,-104.89 C87.17,-101.7 88.58,-97.93 91.77,-96.48 C92.52,-96.14 93.33,-95.95 94.16,-95.92 L206.69,-91.86 L205.06,-42.6 L158.67,-2.37 C156.02,-0.07 155.74,3.94 158.03,6.59 C158.09,6.65 158.14,6.71 158.2,6.77 L208.53,60.39 L163.8,86.56 L128.48,31.61 C126.58,28.66 122.65,27.8 119.71,29.7 C119.39,29.9 119.1,30.13 118.82,30.39 L57.36,87.41 L13.52,53.03 L145.75,-43.29 C148.58,-45.35 149.21,-49.32 147.15,-52.15 C146.01,-53.72 144.21,-54.67 142.28,-54.75 L74.7,-57.54 C72.03,-57.65 69.58,-56.08 68.57,-53.61 L49.1,-6.08 L8.84,-22.69 ZM58.43,4.62 C58.43,4.62 58.43,4.62 58.43,4.62 L78.63,-44.68 L123.57,-42.83 L58.43,4.62 Z" fill="#FFFFFF" fill-rule="evenodd" />
			</g>
			<g transform="matrix(0.27201759815216064, 0, 0, 0.27201759815216064, 89.24382019042969, 80.08210754394531)">
				<path d="M-124,-69.44 L-142.87,-73.08 L-142.87,-70.3 L-124,-69.44 ZM-104.69,-69.44 L-101.04,-73.94 L-106.62,-73.94 L-109.62,-69.44 L-104.69,-69.44 ZM-127.86,-33.4 L-145.02,-32.54 L-145.02,-41.12 L-152.1,-41.98 L-139.66,-22.03 L-127.86,-33.4 ZM-75.3,35.47 L-85.17,35.47 L-85.17,38.9 L-75.3,38.9 L-75.3,35.47 ZM-85.17,8.44 L-85.17,11.22 L-75.3,11.22 L-75.3,8.44 L-85.17,8.44 ZM-74.87,-21.6 L-71.44,-33.4 L-75.51,-33.4 L-83.67,-21.6 L-74.87,-21.6 ZM-27.24,11.22 L-10.3,10.37 L-10.3,36.32 L-27.24,35.47 L-27.24,38.9 L-10.3,38.04 L-10.3,64.21 L-27.24,63.35 L-27.24,65.93 L-3.86,65.07 L-3.86,95.96 L-136.22,95.96 L-136.22,23.02 L-139.87,16.59 L-149.31,41.47 L-154.46,26.67 L-153.6,95.96 L-207.66,95.96 L-206.8,28.39 L-216.46,65.71 L-219.46,-2.51 L-208.73,-41.98 L-219.03,-41.12 L-219.03,-91.96 L-206.8,-91.11 L-207.66,-121.78 L-153.6,-121.78 L-154.46,-91.11 L-145.66,-91.96 L-138.8,-121.35 L-83.88,-119.64 L-87.53,-113.63 L-5.15,-115.35 L-5.15,-73.08 L-49.34,-73.94 L-52.13,-69.44 L-0.86,-70.3 L-0.86,-32.54 L-34.11,-33.61 L-16.09,-29.32 L-22.53,-21.6 L-8.15,-22.46 L-8.15,9.29 L-27.24,8.44 L-27.24,11.22 ZM-85.17,65.93 L-75.3,65.93 L-75.3,63.35 L-85.17,63.35 L-85.17,65.93 ZM121.21,-56.78 L120.99,-8.3 L90.53,-9.37 L125.93,5.65 L106.41,54.34 L89.46,39.76 L90.1,95.75 L35.61,95.53 L36.47,43.83 L6.65,71.94 L0.43,6.93 L34.32,-9.59 L1.93,-8.73 L2.15,-57 L36.9,-56.14 L36.9,-67.08 L6.44,-64.93 L3.22,-109.55 L117.35,-121.14 L121.21,-71.8 L89.46,-69.65 L89.46,-56.14 L121.21,-56.78 ZM127,38.68 L127,-108.7 L166.04,-108.48 L166.04,38.68 L127,38.68 ZM218.39,95.32 L143.73,94.03 L144.16,44.05 L168.19,44.9 L168.19,-117.28 L218.39,-117.28 L218.39,95.32 Z" fill="#CCB05E" />
				<path d="M-225.8,-2.23 L-222.8,65.99 C-222.67,68.78 -220.75,71.16 -218.05,71.86 C-216.53,72.25 -215,72.06 -213.7,71.43 L-214.01,95.88 C-214.01,95.91 -214.01,95.94 -214.01,95.96 C-214.01,99.47 -211.17,102.31 -207.66,102.31 L-153.6,102.31 C-153.57,102.31 -153.55,102.31 -153.52,102.31 C-150.02,102.26 -147.21,99.39 -147.26,95.88 L-147.85,47.65 C-145.87,47.18 -144.15,45.77 -143.38,43.72 L-142.57,41.59 L-142.57,95.96 C-142.57,99.47 -139.73,102.31 -136.22,102.31 L-3.86,102.31 C-0.36,102.31 2.48,99.47 2.48,95.96 L2.48,76.72 C4.91,78.84 8.61,78.81 11,76.55 L29.88,58.77 L29.27,95.43 C29.27,95.45 29.27,95.48 29.27,95.51 C29.25,99.01 32.08,101.86 35.59,101.88 L90.08,102.09 C90.11,102.09 90.14,102.09 90.17,102.09 C93.68,102.05 96.49,99.18 96.45,95.67 L95.96,53.73 L102.27,59.15 C102.8,59.61 103.4,59.97 104.04,60.23 C107.3,61.54 110.99,59.96 112.29,56.7 L120.65,35.85 L120.65,38.68 C120.65,42.19 123.5,45.03 127,45.03 L137.81,45.03 L137.39,93.98 C137.36,97.46 140.14,100.32 143.62,100.38 L218.28,101.66 C218.32,101.66 218.35,101.66 218.39,101.66 C221.89,101.66 224.73,98.82 224.73,95.32 L224.73,-117.28 C224.73,-120.78 221.89,-123.62 218.39,-123.62 L168.19,-123.62 C164.68,-123.62 161.84,-120.78 161.84,-117.28 L161.84,-114.85 L127.03,-115.04 C127.02,-115.04 127.01,-115.04 127,-115.04 C126.01,-115.04 125.07,-114.81 124.24,-114.41 L123.67,-121.63 C123.67,-121.68 123.66,-121.73 123.66,-121.78 C123.3,-125.27 120.19,-127.81 116.71,-127.45 L2.58,-115.87 C2.1,-115.82 1.63,-115.72 1.19,-115.57 C1.07,-119.03 -1.81,-121.76 -5.28,-121.69 L-77.56,-120.18 C-77.83,-123.35 -80.43,-125.88 -83.68,-125.98 L-138.6,-127.7 C-141.62,-127.79 -144.29,-125.74 -144.98,-122.8 L-147.53,-111.86 L-147.26,-121.61 C-147.26,-121.66 -147.26,-121.72 -147.26,-121.78 C-147.26,-125.29 -150.1,-128.13 -153.6,-128.13 L-207.66,-128.13 C-207.72,-128.13 -207.78,-128.13 -207.84,-128.13 C-211.34,-128.03 -214.1,-125.11 -214,-121.61 L-213.34,-97.92 L-218.59,-98.29 C-218.74,-98.3 -218.88,-98.31 -219.03,-98.31 C-222.54,-98.31 -225.38,-95.47 -225.38,-91.96 L-225.38,-41.12 C-225.38,-40.94 -225.37,-40.77 -225.35,-40.59 C-225.06,-37.1 -222,-34.51 -218.5,-34.8 L-217.23,-34.9 L-225.58,-4.17 C-225.76,-3.54 -225.83,-2.88 -225.8,-2.23 ZM-213.08,-1.8 L-202.61,-40.31 C-201.69,-43.7 -203.69,-47.18 -207.07,-48.1 C-207.78,-48.3 -208.53,-48.36 -209.26,-48.3 L-212.69,-48.02 L-212.69,-85.16 L-207.25,-84.78 C-203.75,-84.53 -200.72,-87.17 -200.47,-90.66 C-200.46,-90.87 -200.46,-91.08 -200.46,-91.28 L-201.14,-115.44 L-160.13,-115.44 L-160.8,-91.28 C-160.9,-87.78 -158.14,-84.86 -154.64,-84.76 C-154.37,-84.76 -154.11,-84.76 -153.84,-84.79 L-145.05,-85.65 C-142.34,-85.91 -140.1,-87.87 -139.48,-90.52 L-133.8,-114.85 L-93.87,-113.6 C-93.86,-111.47 -92.78,-109.39 -90.82,-108.21 C-89.79,-107.58 -88.6,-107.26 -87.39,-107.29 L-11.49,-108.87 L-11.49,-79.55 L-49.22,-80.29 C-51.46,-80.33 -53.56,-79.19 -54.74,-77.28 L-57.52,-72.78 C-59.37,-69.8 -58.45,-65.89 -55.47,-64.04 C-54.44,-63.4 -53.24,-63.07 -52.02,-63.09 L-7.2,-63.84 L-7.2,-39.09 L-33.91,-39.95 C-37.41,-40.07 -40.34,-37.32 -40.45,-33.82 C-40.55,-30.8 -38.51,-28.14 -35.58,-27.44 L-27.51,-25.52 C-29.63,-22.83 -29.23,-18.93 -26.59,-16.72 C-25.35,-15.69 -23.76,-15.17 -22.15,-15.26 L-14.5,-15.72 L-14.5,2.66 L-26.96,2.1 C-30.46,1.94 -33.43,4.65 -33.58,8.15 C-33.59,8.25 -33.59,8.34 -33.59,8.44 L-33.59,11.22 C-33.59,14.73 -30.75,17.57 -27.24,17.57 C-27.14,17.57 -27.03,17.57 -26.92,17.56 L-16.64,17.04 L-16.64,29.65 L-26.92,29.13 C-30.42,28.95 -33.4,31.64 -33.58,35.14 C-33.59,35.25 -33.59,35.36 -33.59,35.47 L-33.59,38.9 C-33.59,42.4 -30.75,45.24 -27.24,45.24 C-27.14,45.24 -27.03,45.24 -26.92,45.23 L-16.64,44.71 L-16.64,57.54 L-26.92,57.02 C-30.42,56.84 -33.4,59.53 -33.58,63.03 C-33.59,63.14 -33.59,63.25 -33.59,63.35 L-33.59,65.93 C-33.59,69.43 -30.75,72.27 -27.24,72.27 C-27.17,72.27 -27.09,72.27 -27.01,72.27 L-10.21,71.65 L-10.21,89.62 L-129.88,89.62 L-129.88,23.02 C-129.88,21.93 -130.16,20.85 -130.7,19.89 L-134.35,13.46 C-136.08,10.41 -139.95,9.34 -143,11.07 C-144.29,11.8 -145.28,12.95 -145.8,14.34 L-149.16,23.18 C-150.72,20.81 -153.74,19.7 -156.54,20.68 C-159.12,21.57 -160.84,24.02 -160.8,26.75 L-160.03,89.62 L-201.24,89.62 L-200.46,28.47 C-200.41,24.96 -203.22,22.09 -206.72,22.04 C-208.82,22.02 -210.73,23.02 -211.92,24.63 L-213.08,-1.8 ZM-158.4,-42.74 C-158.57,-41.3 -158.25,-39.85 -157.48,-38.62 L-145.04,-18.67 C-143.19,-15.7 -139.27,-14.79 -136.3,-16.64 C-135.92,-16.88 -135.57,-17.15 -135.25,-17.46 L-123.46,-28.83 C-120.93,-31.26 -120.86,-35.28 -123.29,-37.8 C-124.56,-39.12 -126.34,-39.83 -128.17,-39.73 L-138.68,-39.21 L-138.68,-41.12 C-138.68,-44.33 -141.07,-47.03 -144.26,-47.42 L-151.34,-48.28 C-154.81,-48.7 -157.98,-46.22 -158.4,-42.74 ZM-149.22,-73.08 L-149.22,-70.3 C-149.22,-66.9 -146.55,-64.11 -143.16,-63.96 L-124.28,-63.1 C-120.78,-62.94 -117.82,-65.65 -117.66,-69.15 C-117.51,-72.3 -119.7,-75.07 -122.79,-75.67 L-141.67,-79.31 C-145.11,-79.98 -148.44,-77.73 -149.1,-74.29 C-149.18,-73.89 -149.22,-73.49 -149.22,-73.08 ZM-114.9,-72.96 C-116.85,-70.04 -116.06,-66.1 -113.14,-64.16 C-112.1,-63.46 -110.88,-63.09 -109.62,-63.09 L-104.69,-63.09 C-102.77,-63.09 -100.96,-63.96 -99.76,-65.45 L-96.11,-69.95 C-93.91,-72.67 -94.33,-76.67 -97.05,-78.87 C-98.18,-79.79 -99.59,-80.29 -101.04,-80.29 L-106.62,-80.29 C-108.74,-80.29 -110.72,-79.23 -111.9,-77.46 L-114.9,-72.96 ZM-91.51,8.44 L-91.51,11.22 C-91.51,14.73 -88.67,17.57 -85.17,17.57 L-75.3,17.57 C-71.79,17.57 -68.95,14.73 -68.95,11.22 L-68.95,8.44 C-68.95,4.93 -71.79,2.09 -75.3,2.09 L-85.17,2.09 C-88.67,2.09 -91.51,4.93 -91.51,8.44 ZM-91.51,35.47 L-91.51,38.9 C-91.51,42.4 -88.67,45.24 -85.17,45.24 L-75.3,45.24 C-71.79,45.24 -68.95,42.4 -68.95,38.9 L-68.95,35.47 C-68.95,31.96 -71.79,29.12 -75.3,29.12 L-85.17,29.12 C-88.67,29.12 -91.51,31.96 -91.51,35.47 ZM-91.51,63.35 L-91.51,65.93 C-91.51,69.43 -88.67,72.27 -85.17,72.27 L-75.3,72.27 C-71.79,72.27 -68.95,69.43 -68.95,65.93 L-68.95,63.35 C-68.95,59.85 -71.79,57.01 -75.3,57.01 L-85.17,57.01 C-88.67,57.01 -91.51,59.85 -91.51,63.35 ZM-88.89,-25.21 C-90.88,-22.32 -90.16,-18.37 -87.27,-16.38 C-86.21,-15.65 -84.95,-15.25 -83.67,-15.25 L-74.87,-15.25 C-72.05,-15.25 -69.57,-17.12 -68.78,-19.83 L-65.34,-31.63 C-64.37,-34.99 -66.3,-38.51 -69.67,-39.49 C-70.24,-39.66 -70.84,-39.74 -71.44,-39.74 L-75.51,-39.74 C-77.6,-39.74 -79.55,-38.72 -80.73,-37 L-88.89,-25.21 ZM-4.01,37.18 C-3.97,36.9 -3.95,36.62 -3.95,36.32 L-3.95,27.75 L-0.92,59.45 C-1.83,58.97 -2.86,58.71 -3.95,58.73 L-3.95,38.04 C-3.95,37.93 -3.95,37.83 -3.96,37.72 C-3.97,37.54 -3.99,37.36 -4.01,37.18 ZM-1.81,-3.6 C-0.71,-2.8 0.64,-2.35 2.1,-2.38 L5.24,-2.47 L-1.81,0.96 L-1.81,-3.6 ZM7.16,10.71 L37.1,-3.88 C40.25,-5.42 41.56,-9.21 40.03,-12.36 C38.94,-14.6 36.64,-15.99 34.16,-15.93 L8.3,-15.24 L8.46,-50.49 L36.74,-49.79 C40.25,-49.71 43.16,-52.48 43.24,-55.98 C43.24,-56.03 43.24,-56.09 43.24,-56.14 L43.24,-67.08 C43.24,-70.58 40.4,-73.42 36.9,-73.42 C36.75,-73.42 36.6,-73.42 36.45,-73.41 L12.31,-71.71 L9.99,-103.86 L111.53,-114.17 L114.38,-77.7 L89.03,-75.98 C85.7,-75.76 83.11,-72.99 83.11,-69.65 L83.11,-56.14 C83.11,-52.63 85.95,-49.79 89.46,-49.79 C89.5,-49.79 89.54,-49.79 89.59,-49.79 L114.83,-50.31 L114.68,-14.87 L90.75,-15.71 C87.25,-15.83 84.31,-13.1 84.19,-9.59 C84.1,-6.97 85.63,-4.56 88.05,-3.53 L117.72,9.06 L103.82,43.75 L93.6,34.95 C90.94,32.66 86.93,32.96 84.65,35.62 C83.64,36.79 83.1,38.28 83.11,39.83 L83.68,89.38 L42.06,89.21 L42.81,43.94 C42.87,40.43 40.08,37.55 36.57,37.49 C34.92,37.46 33.32,38.08 32.12,39.21 L11.73,58.43 L7.16,10.71 ZM95.8,-63.72 L120.65,-65.4 L120.65,-63.12 L95.8,-62.61 L95.8,-63.72 ZM133.34,-102.32 L159.7,-102.17 L159.7,32.34 L133.34,32.34 L133.34,-102.32 ZM150.13,87.8 L150.45,50.62 L167.96,51.25 C171.46,51.37 174.4,48.63 174.53,45.13 C174.53,45.06 174.53,44.98 174.53,44.9 L174.53,-110.93 L212.04,-110.93 L212.04,88.86 L150.13,87.8 Z" fill="#FFFFFF" fill-rule="evenodd" />
			</g>
		</g>
	</g>
</svg>