<?xml version="1.0" encoding="UTF-8"?>
<!-- Created with Grafika (https://www.grafika.cc/) -->
<svg xmlns="http://www.w3.org/2000/svg" xmlns:svg="http://www.w3.org/2000/svg" xmlns:xlink="http://www.w3.org/1999/xlink" width="5329.13" height="3855.12" viewBox="0 0 1776.38 1285.04" preserveAspectRatio="xMidYMid meet">
	<rect x="0" y="0" width="1776.38" height="1285.04" fill="#FFFFFF" />
	<g id="差別されない。2">
		<path transform="matrix(1.3920724391937256, 0, 0, 1.3920724391937256, 1281.991943359375, 1096.53955078125)" d="M-275.73,-12.23 L-276.56,-41.39 L-236.18,-40.79 L-241.08,-65.88 L-204.75,-67.31 L-204.28,-57.04 L-180.02,-43.66 L-178.47,-17.85 L-197.94,-16.17 L-191.61,12.98 L-216.46,20.03 L-243.35,17.28 L-246.57,18.72 L-246.69,23.26 L-242.63,26.48 L-203.68,22.3 L-201.65,53.48 L-259.96,53.37 L-278.95,36.88 L-276.92,-3.63 L-250.52,-8.41 L-228.89,-7.21 L-230.2,-14.98 L-275.73,-12.23 ZM-203.68,-51.66 L-201.53,-41.98 L-197.35,-42.82 L-203.68,-51.66 ZM-119.63,14.65 L-118.67,53.37 L-150.82,53.25 L-149.86,27.68 L-155.71,42.01 L-168.74,8.8 L-160.73,-2.43 L-167.3,-15.22 L-168.86,-47.96 L-149.74,-49.75 L-150.82,-67.43 L-116.88,-67.43 L-118.08,-49.15 L-113.3,-45.21 L-83.9,-60.5 L-60.6,-32.3 L-65.5,10.95 L-56.66,-6.02 L-47.58,23.14 L-68.01,53.48 L-100.75,50.86 L-95.25,-16.17 L-97.53,-20.48 L-119.39,-1.6 L-119.63,14.65 ZM-149.5,-20.24 L-162.4,-16.53 L-156.31,-9.12 L-149.5,-20.24 ZM49.49,-14.26 L55.23,-2.19 L79.96,7.24 L66.82,41.06 L56.54,31.98 L52.48,53.96 L5.52,53.6 L-6.9,29.83 L3.13,-1.72 L25.6,-4.35 L25,-14.62 L30.49,-20.83 L38.62,-24.3 L30.73,-26.69 L35.87,-54.41 L54.87,-49.87 L82.11,-41.15 L68.37,-8.53 L53.08,-17.49 L49.49,-14.26 ZM28.7,-28.72 L5.04,-28.48 L-9.53,29.83 L-38.69,8.8 L-25.66,-27.53 L-37.01,-28.48 L-34.98,-57.64 L-21.6,-55.84 L-20.52,-67.43 L12.33,-66.48 L11.62,-63.13 L27.15,-57.4 L28.7,-28.72 ZM27.39,22.18 L23.09,22.9 L21.77,25.41 L23.68,28.15 L26.19,28.39 L27.39,22.18 ZM10.06,-55.84 L14.01,-55.96 L10.78,-58.95 L10.06,-55.84 ZM94.47,-61.1 L91.13,-8.53 L100.21,48.35 L135.69,49.78 L151.23,1.39 L134.26,-10.44 L125.06,4.38 L122.67,-11.39 L131.27,-54.41 L94.47,-61.1 ZM162.34,-32.42 L176.2,-9.96 L177.63,31.62 L212.04,28.27 L207.74,-19.04 L193.88,-50.11 L162.34,-32.42 ZM245.31,55.64 Q236.95,54.08 230.38,47.63 Q222.01,38.31 223.57,24.81 Q224.88,15.97 231.45,9.4 Q240.77,1.03 253.68,2.58 Q263.47,3.9 270.4,11.79 Q277.93,20.63 276.62,33.17 Q275.06,42.85 266.7,49.9 Q257.86,56.95 245.31,55.64 ZM242.8,29.11 Q242.8,32.1 244.83,34.19 Q246.87,36.28 249.97,36.28 Q252.96,36.28 254.99,34.19 Q257.02,32.1 257.02,29.11 Q257.02,26.24 254.99,24.09 Q252.96,21.94 249.97,21.94 Q246.87,21.94 244.83,24.09 Q242.8,26.24 242.8,29.11 Z" style="fill:#991717;" />
		<path transform="matrix(1.4470534324645996, 0, 0, 1.4470534324645996, 583.5729370117188, 1056.1527099609375)" d="M-103.19,46.06 L-103.19,42.48 L-137.33,42.48 L-140.91,45.88 L-103.19,46.06 ZM-75.84,-100.36 L-26.14,-96.96 L-30.61,-84.8 L-11.3,-85.52 L-11.48,-53.52 L-70.83,-54.23 L-70.83,-51.37 L-20.6,-52.09 L-20.77,-23.66 L-70.83,-24.38 L-70.83,-21.52 L-6.12,-22.23 L-6.12,8.87 L-104.26,7.98 L-108.37,11.55 L-15.95,11.02 L-15.95,43.2 L-58.32,42.48 L-58.32,46.06 L-8.8,46.24 L-8.8,80.02 L-151.64,79.67 L-151.46,59.29 L-170.59,80.02 L-188.28,29.79 L-154.32,7.8 L-187.39,8.34 L-187.39,-22.77 L-115.7,-21.7 L-115.88,-24.56 L-172.02,-24.2 L-172.02,-52.62 L-115.7,-51.55 L-115.7,-54.41 L-180.95,-54.05 L-180.95,-86.06 L-158.07,-85.16 L-163.08,-96.6 L-113.38,-100.36 L-111.77,-84.98 L-77.45,-84.98 L-75.84,-100.36 ZM67.26,-15.26 L109.45,-14.9 L105.34,80.2 L48.13,78.24 L45.99,61.07 L40.98,79.85 L6.3,40.16 L25.25,-20.09 L13.81,-20.27 L14.16,-98.39 L110.88,-98.39 L110.17,-19.55 L69.05,-19.91 L67.26,-15.26 ZM112.67,36.23 L113.38,-89.27 L144.49,-89.09 L143.77,36.58 L112.67,36.23 ZM186.86,79.85 L120.71,78.42 L126.25,40.69 L146.99,41.77 L147.17,-100 L187.22,-99.82 L186.86,79.85 ZM69.94,-54.41 L69.94,-61.74 L56.53,-61.74 L56.53,-54.41 L69.94,-54.41 ZM63.51,34.79 L64.58,23.71 L57.07,23.71 L54.03,34.08 L63.51,34.79 Z" style="fill:#991717;" />
	</g>
	<path transform="matrix(1.2189629077911377, 0, 0, 1.2189629077911377, 202.36810302734375, 1103.112548828125)" d="M-77.04,-39.88 L-76.69,-50.8 L-51.1,-50.17 L-51.49,-38.81 L-77.04,-39.88 ZM-77.38,-26.77 L-78.74,-14.04 L-70.75,-6.44 L-51.54,-6.49 L-51.78,-18.77 L-63.29,-17.8 L-65.77,-19.65 L-64.41,-26.08 L-77.38,-26.77 ZM-95.56,-52.07 L-81.47,-50.7 L-85.13,-27.21 L-84.25,-23.84 L-82.74,-29.11 L-80.2,-28.23 L-83.67,-7.46 L-94.63,-5.95 L-96.88,-26.67 L-95.56,-52.07 ZM-69.97,48.64 L-72.31,34.99 L-63.92,33.62 L-63.14,28.36 L-65.09,25.63 L-72.6,28.31 L-72.7,38.84 L-76.6,48.39 L-95.12,47.22 L-97.51,22.17 L-85.27,20.12 L-85.27,17 L-96.83,18.27 L-97.41,6.08 L-85.27,5.84 L-85.42,-0.65 L-71.43,-0.65 L-65.77,4.81 L-65.34,9 L-62.7,1.89 L-49,6.08 L-53.29,18.61 L-65.14,12.17 L-64.95,16.12 L-72.21,16.22 L-72.31,18.12 L-59.53,16.32 L-50.47,24.26 L-50.27,43.96 L-69.97,48.64 ZM-85.27,32.45 L-88.05,33.67 L-88,34.99 L-85.27,35.43 L-85.27,32.45 ZM-71.62,5.3 L-70.11,5.1 L-71.53,2.33 L-71.62,5.3 ZM-44.16,1.84 L-45.52,23.29 L-41.82,46.49 L-27.34,47.08 L-21,27.33 L-27.92,22.51 L-31.68,28.55 L-32.65,22.12 L-29.14,4.57 L-44.16,1.84 ZM-16.47,13.54 L-10.81,22.7 L-10.23,39.67 L3.81,38.3 L2.06,19 L-3.6,6.32 L-16.47,13.54 ZM8.08,15.78 L7.3,1.94 L52.73,0.77 L53.17,11.88 L43.42,11.59 L29.38,25.24 L29.92,32.31 L47.61,33.87 L46.1,47.86 L16.7,43.81 L15.39,20.56 L30.94,12.12 L8.08,15.78 ZM70.79,52.15 L57.82,38.01 L68.16,31.28 L81.08,42.98 L70.79,52.15 Z" style="fill:#6D6A6A;" />
	<g id="政治的、経済的又は社会的関係2">
		<path transform="matrix(1.2189629077911377, 0, 0, 1.2189629077911377, 1399.219482421875, 831.6073608398438)" d="M-154.97,20.53 L-141.36,20.53 L-141.36,37.97 L-194.69,37.97 L-194.69,20.53 L-176.49,20.53 L-176.49,-12.31 L-188.48,-11.97 L-191.46,-8.48 L-179.47,5.64 L-193.5,16.36 L-196.31,9.21 L-195.97,37.97 L-217.74,37.97 L-217.4,21.63 L-223.02,28.86 L-228.21,3.6 L-209.49,-15.96 L-227.61,-15.62 L-227.61,-35.7 L-216.98,-35.36 L-217.32,-48.29 L-195.54,-48.29 L-195.88,-35.36 L-187.12,-35.36 L-187.12,-31.28 L-176.49,-30.94 L-176.83,-48.2 L-154.63,-48.2 L-154.97,-30.94 L-142.89,-31.28 L-142.89,-11.97 L-154.97,-12.31 L-154.97,20.53 ZM-79.48,16.27 L-80.76,12.11 L-70.29,10.75 L-95.13,10.75 L-98.45,17.64 L-79.48,16.27 ZM-62.64,-14.52 L-62.64,-8.99 L-121.42,-8.99 L-121.33,-14.52 L-131.03,-9.07 L-135.45,-37.57 L-91.47,-47.95 L-49.11,-38.08 L-52.68,-8.9 L-62.64,-14.52 ZM-85.01,-26.51 L-92.24,-29.66 L-99.81,-26.51 L-85.01,-26.51 ZM-132.47,10.75 L-132.56,-7.12 L-51.75,-7.12 L-51.66,10.75 L-58.21,10.75 L-51.41,33.8 L-75.31,38.31 L-76.16,33.71 L-130.94,38.22 L-131.96,19.34 L-126.52,18.83 L-121.33,10.75 L-132.47,10.75 ZM-24.49,9.55 L-24.49,15.93 L-22.62,15.93 L-22.62,9.55 L-24.49,9.55 ZM-24.41,-9.24 L-22.53,-9.24 L-22.53,-15.62 L-24.41,-15.62 L-24.41,-9.24 ZM41.86,37.88 L8,36.86 L8.51,16.36 L22.46,16.7 L22.97,-20.39 L13.36,-20.39 L10.89,-16.56 L18.81,-18.01 L22.21,11.26 L8.09,13.89 L2.81,-4.06 L1.03,-0.99 L-4.16,-6.27 L-4.16,34.73 L-43.03,34.65 L-42.95,-34.93 L-34.1,-34.85 L-33.25,-47.95 L-10.63,-46.25 L-12.92,-34.85 L-4.08,-34.85 L-4.08,-31.87 L1.2,-47.95 L26.55,-44.89 L23.4,-39.87 L43.39,-39.87 L41.86,37.88 ZM70.31,21.55 L70.39,9.3 L82.47,9.64 L82.47,8.45 L71.24,8.53 L71.24,-3.04 L73.45,-3.04 L72.01,-6.27 L69.46,-6.27 L69.46,26.99 L77.54,21.21 L70.31,21.55 ZM69.54,-20.81 L69.54,-19.28 L72.52,-19.28 L72.52,-20.81 L69.54,-20.81 ZM69.54,-31.79 L72.52,-31.79 L72.52,-33.32 L69.54,-33.32 L69.54,-31.79 ZM115.22,-20.81 L112.16,-20.81 L112.16,-19.28 L115.22,-19.28 L115.22,-20.81 ZM115.22,-31.79 L115.22,-33.32 L112.16,-33.32 L112.16,-31.79 L115.22,-31.79 ZM111.39,-3.04 L113.52,-3.04 L113.52,8.62 L102.29,8.53 L102.29,9.72 L114.37,9.38 L114.37,21.55 L107.82,21.21 L109.26,22.48 L115.13,22.91 L115.13,-6.27 L112.84,-6.27 L111.39,-3.04 ZM69.46,38.05 L49.81,38.05 L49.81,-47.01 L91.91,-47.01 L91.91,-6.27 L89.87,-6.27 L91.06,-3.04 L94.04,-3.04 L95.31,-6.27 L92.76,-6.27 L92.76,-47.01 L134.95,-47.01 L134.95,38.05 L107.39,37.97 L107.14,35.07 L95.82,38.14 L92.25,31.33 L87.06,38.05 L69.46,27.33 L69.46,38.05 ZM192.07,-11.29 L209,-29.74 L204.4,-29.49 L191.05,-12.31 L192.07,-11.29 ZM211.46,-5.59 L210.95,-8.99 L207.55,-5.25 L211.46,-5.59 ZM145.88,11.51 L142.99,22.23 L141.46,-10.18 L147.33,-48.2 L169.95,-43.87 L226.01,-47.95 L227.37,-30.51 L219.71,-30.08 L226.77,-24.05 L214.18,-11.8 L226.35,-14.6 L228.22,11.68 L215.63,12.79 L228.3,24.53 L213.93,38.14 L205.76,22.23 L206.1,38.14 L185.26,38.14 L185.52,21.55 L179.56,38.14 L165.19,26.65 L165.61,38.14 L145.71,38.14 L145.88,11.51 ZM165.19,-14.18 L178.12,-27.19 L180.07,-24.81 L182.12,-28.21 L170.29,-27.11 L169.7,-40.63 L164.59,-18.26 L165.19,23.5 L174.63,12.36 L185.43,15.08 L185.43,11.68 L166.38,12.79 L165.87,-2.95 L175.14,-3.63 L165.19,-14.18 ZM214.86,9.98 L205.76,10.66 L205.76,14.83 L213.33,10.32 L215.29,12.19 L214.86,9.98 Z" style="fill:#3E3B39;" />
		<path transform="matrix(1.1075328588485718, 0, 0, 1.1075328588485718, 1082.37158203125, 831.6073608398438)" d="M-20.6,-36.94 L-20.6,-47.59 L19.7,-47.41 L19.7,-37.11 L11.8,-20.3 L22.23,-16.77 L19,-4.59 L0.01,-12.84 L-18.94,-4.59 L-22.21,-16.77 L-10.73,-20.43 L-18.98,-28.51 L-9.55,-36.76 L0.19,-24.19 L6.78,-37.11 L-20.6,-36.94 ZM-6.14,15.48 L-6.14,4.61 L4.25,5.09 L3.98,-0.32 L16.73,-0.36 L16.51,1.56 L21.53,4.83 L22.01,15.18 L15.9,15.44 L15.95,23.47 L22.19,24.74 L19.53,37.1 L15.6,34.87 L14.99,43.51 L1.36,43.38 L-8.46,39.45 L-5.66,22.56 L4.33,22.91 L4.33,15.22 L-6.14,15.48 ZM2.72,32.25 L2.59,33.17 L3.85,33.65 L3.94,32.42 L2.72,32.25 ZM-20.29,-0.23 L-7.67,0.99 L-11.12,24.13 L-10.34,27.14 L-8.98,21.38 L-6.71,22.16 L-9.81,42.33 L-19.63,43.16 L-21.64,24.61 L-20.29,-0.23 ZM16.29,5.44 L17.6,5.27 L16.38,3.39 L16.29,5.44 Z" style="fill:#6D6A6A;" />
		<path transform="matrix(1.2189629077911377, 0, 0, 1.2189629077911377, 688.0851440429688, 831.6073608398438)" d="M-257.06,-26.43 L-261.82,-26.43 L-261.82,-19.03 L-259.78,-19.37 L-257.06,-26.43 ZM-235.37,-6.18 L-233.07,-20.81 L-238.52,-20.81 L-240.98,-14.86 L-236.64,-15.62 L-235.37,-6.18 ZM-261.82,7.94 L-254.93,6.58 L-254.42,12.87 L-249.06,10.23 L-250.08,4.11 L-250.77,6.24 L-259.1,-0.06 L-261.82,-0.4 L-261.82,7.94 ZM-281.39,11.09 L-279.52,10.66 L-279.52,-26.43 L-298.57,-26.43 L-298.57,-45.74 L-254.93,-45.74 L-254.93,-32.55 L-251.02,-48.29 L-227.37,-46.59 L-230.01,-41.14 L-211.81,-41.48 L-211.81,-20.47 L-213.68,-20.81 L-221.33,11.26 L-211.72,13.72 L-216.4,37.88 L-236.39,25.63 L-257.57,38.22 L-263.18,28.18 L-296.95,33.12 L-298.57,13.47 L-296.44,13.21 L-296.44,-23.02 L-281.05,-23.02 L-281.39,11.09 ZM-155.8,20.19 L-146.27,20.19 L-146.27,14.32 L-155.8,14.32 L-155.8,20.19 ZM-204.03,-29.91 L-194.33,-47.95 L-177.15,-35.19 L-184.89,-22 L-204.03,-29.91 ZM-178.85,4.37 L-184.63,37.97 L-206.07,30.22 L-193.65,-0.31 L-178.85,4.37 ZM-126.79,-40.38 L-119.48,-8.73 L-140.49,-4.82 L-141.08,-8.05 L-181.15,-4.4 L-181.23,-11.29 L-186.85,-1.08 L-206.24,-9.5 L-196.71,-26.68 L-181.4,-14.94 L-181.57,-23.11 L-176.64,-23.45 L-172.38,-48.2 L-146.7,-43.78 L-153.59,-25.58 L-144.65,-26.43 L-146.36,-35.36 L-126.79,-40.38 ZM-177.57,-3.46 L-124.41,-3.46 L-124.41,37.97 L-177.66,37.97 L-177.57,-3.46 ZM-95.03,9.55 L-95.03,15.93 L-93.15,15.93 L-93.15,9.55 L-95.03,9.55 ZM-94.94,-9.24 L-93.07,-9.24 L-93.07,-15.62 L-94.94,-15.62 L-94.94,-9.24 ZM-28.68,37.88 L-62.53,36.86 L-62.02,16.36 L-48.07,16.7 L-47.56,-20.39 L-57.17,-20.39 L-59.64,-16.56 L-51.73,-18.01 L-48.33,11.26 L-62.45,13.89 L-67.72,-4.06 L-69.51,-0.99 L-74.7,-6.27 L-74.7,34.73 L-113.57,34.65 L-113.48,-34.93 L-104.64,-34.85 L-103.79,-47.95 L-81.16,-46.25 L-83.46,-34.85 L-74.61,-34.85 L-74.61,-31.87 L-69.34,-47.95 L-43.99,-44.89 L-47.14,-39.87 L-27.15,-39.87 L-28.68,37.88 ZM2.66,44.26 L-19.96,19.59 L-1.93,7.85 L20.61,28.27 L2.66,44.26 ZM55.95,-10.86 L54.59,-15.2 L52.63,-10.61 L55.95,-10.86 ZM89.12,-25.75 L92.61,-30.77 L86.49,-30.77 L89.12,-25.75 ZM27.37,32.86 L28.82,7.68 L36.81,8.11 L36.3,33.88 L27.37,32.86 ZM65.31,-30.77 L65.31,-46.84 L113.71,-46.84 L113.71,-31.11 L106.9,-19.28 L114.13,-17.92 L111.07,1.9 L89.64,-6.27 L78.41,-1.42 L100.18,-1.42 L99.93,2.92 L112.01,2.58 L111.92,19 L99.84,18.66 L99.84,22.06 L113.71,22.14 L113.71,38.31 L62.59,38.22 L62.59,30.56 L56.8,31.59 L56.29,7.34 L63.86,6.41 L64.97,22.06 L78.75,22.06 L78.75,18.66 L66.24,19 L66.24,5.64 L59.44,6.58 L59.1,5.3 L55.61,5.64 L56.04,37.97 L37.15,37.97 L37.41,6.58 L27.79,7.09 L27.37,-9.5 L35.11,-9.75 L27.37,-15.54 L29.07,-45.4 L32.3,-41.06 L33.07,-48.03 L52.04,-44.29 L44.98,-26.85 L46.17,-25.41 L51.44,-40.12 L64.8,-33.74 L55.44,-17.16 L63.01,-19.2 L68.45,2.58 L78.83,2.92 L78.41,-1.42 L70.75,1.9 L65.73,-17.84 L71.35,-19.03 L65.9,-25.58 L74.24,-30.77 L65.31,-30.77 ZM173.2,-21.58 L177.63,-24.98 L168.19,-24.98 L173.2,-21.58 ZM169.12,-2.52 L178.73,-2.52 L178.73,-3.8 L172.18,-6.78 L169.8,-5.76 L169.12,-2.52 ZM165.72,16.19 L178.73,16.19 L178.73,12.28 L166.31,12.28 L165.72,16.19 ZM146.32,5.73 L138.24,38.31 L119.78,27.08 L130.59,0.96 L146.32,5.73 ZM178.39,38.22 L178.73,30.65 L163.51,30.65 L162.06,38.65 L140.37,33.97 L148.45,0.71 L142.33,3.77 L140.03,-4.57 L137.82,-0.4 L119.53,-7.12 L128.63,-27.02 L142.67,-16.65 L149.3,-17.75 L143.01,-21.15 L150.92,-24.98 L141.9,-24.64 L141.9,-28.38 L137.56,-21.66 L119.7,-32.72 L133.56,-47.95 L141.9,-40.21 L141.9,-44.04 L161.55,-43.69 L161.21,-47.95 L185.2,-47.95 L184.86,-43.69 L206.21,-44.04 L206.21,-24.64 L201.96,-24.98 L195.49,-17.84 L206.12,-17.16 L204.42,6.41 L199.91,3.68 L200.25,38.22 L178.39,38.22 ZM230.74,9.55 L230.74,15.93 L232.62,15.93 L232.62,9.55 L230.74,9.55 ZM230.83,-9.24 L232.7,-9.24 L232.7,-15.62 L230.83,-15.62 L230.83,-9.24 ZM297.09,37.88 L263.24,36.86 L263.75,16.36 L277.7,16.7 L278.21,-20.39 L268.6,-20.39 L266.13,-16.56 L274.04,-18.01 L277.44,11.26 L263.32,13.89 L258.05,-4.06 L256.26,-0.99 L251.07,-6.27 L251.07,34.73 L212.2,34.65 L212.29,-34.93 L221.13,-34.85 L221.98,-47.95 L244.61,-46.25 L242.31,-34.85 L251.16,-34.85 L251.16,-31.87 L256.43,-47.95 L281.78,-44.89 L278.63,-39.87 L298.62,-39.87 L297.09,37.88 Z" style="fill:#3E3B39;" />
	</g>
	<path transform="matrix(1.2189629077911377, 0, 0, 1.2189629077911377, 194.072509765625, 851.8592529296875)" d="M-65.31,-13.1 L-64.97,-24.02 L-39.38,-23.38 L-39.77,-12.03 L-65.31,-13.1 ZM-65.65,0.02 L-67.02,12.74 L-59.02,20.34 L-39.82,20.3 L-40.06,8.01 L-51.57,8.99 L-54.05,7.13 L-52.69,0.7 L-65.65,0.02 ZM-83.84,-25.29 L-69.75,-23.92 L-73.41,-0.42 L-72.53,2.94 L-71.02,-2.32 L-68.48,-1.45 L-71.94,19.32 L-82.91,20.83 L-85.15,0.11 L-83.84,-25.29 ZM-3.09,-17.92 L8.22,-19.48 L9,-7.2 L-2.5,-7 L-2.31,-3.3 L13.1,4.5 L6.86,17.96 L-3.28,10.55 L-4.84,21.86 L-30.78,21.47 L-35.46,9.38 L-29.22,-5.05 L-15.37,-4.27 L-16.93,-27.28 L-2.89,-27.48 L-3.09,-17.92 ZM-15.57,8.01 L-21.22,7.43 L-21.81,8.6 L-21.22,10.16 L-15.96,10.16 L-15.57,8.01 ZM41.59,22.15 L29.89,12.01 L41.64,-0.96 L42.03,-14.71 L40.03,-17.39 L32.62,-7.2 L27.4,5.43 L17.17,5.43 L16.73,-27.58 L30.23,-27.43 L29.74,-17 L32.96,-25.48 L45,-27.53 L55.87,-17.39 L55.68,4.7 L41.59,22.15 ZM75,25.37 L62.04,11.23 L72.37,4.5 L85.29,16.2 L75,25.37 Z" style="fill:#6D6A6A;" />
	<g id="人種、信条、性別、社会的身分又は門地2">
		<path transform="matrix(1.2189629077911377, 0, 0, 1.2189629077911377, 1532.1949462890625, 680.1181640625)" d="M-122.97,52.83 L-122.97,-65.33 L-65.13,-65.33 L-65.13,2.44 L-94.82,2.44 L-94.82,52.83 L-122.97,52.83 ZM-5.4,52.83 L-49.87,52.23 L-51.06,24.08 L-33.55,24.68 L-33.55,2.44 L-63.12,2.44 L-63.12,-65.33 L-5.4,-65.33 L-5.4,52.83 ZM-94.82,-40.73 L-91.27,-40.73 L-91.27,-43.33 L-94.82,-43.33 L-94.82,-40.73 ZM-94.82,-22.16 L-94.82,-19.44 L-91.27,-19.44 L-91.27,-22.16 L-94.82,-22.16 ZM-33.55,-19.44 L-33.55,-22.16 L-36.98,-22.16 L-36.98,-19.44 L-33.55,-19.44 ZM-33.55,-40.73 L-33.55,-43.33 L-36.98,-43.33 L-36.98,-40.73 L-33.55,-40.73 ZM95.77,20.42 L75.19,20.77 L74.48,-17.31 L72.24,-16.48 L72.83,26.33 L96.48,26.33 L97.19,12.73 L95.54,12.38 L95.77,20.42 ZM95.54,-13.88 L98.02,-13.76 L98.26,-22.63 L95.54,-21.81 L95.54,-13.88 ZM45.27,12.73 L46.57,41.35 L6.6,52.59 L3.88,23.37 L10.26,21.72 L10.26,-16.72 L3.76,-16.01 L3.76,-46.05 L10.26,-45.82 L9.43,-64.27 L39.36,-64.27 L39.12,-46.17 L44.68,-46.41 L44.68,-44.4 L46.34,-44.87 L46.1,-59.18 L71.41,-59.65 L71.65,-49.6 L73.07,-50.43 L72.71,-65.92 L98.02,-66.28 L98.26,-55.99 L122.74,-64.03 L121.2,11.9 L123.92,12.14 L122.5,52.94 L47.99,52.94 L46.93,-8.44 L40.78,-6.19 L39.71,-16.72 L38.17,-17.07 L38.29,14.74 L45.27,12.73 Z" style="fill:#3E3B39;" />
		<path transform="matrix(1.2189629077911377, 0, 0, 1.2189629077911377, 1323.6754150390625, 684.9490966796875)" d="M-25.83,-46.35 L-25.83,-59.72 L24.73,-59.5 L24.73,-46.57 L14.82,-25.48 L27.91,-21.04 L23.85,-5.76 L0.02,-16.11 L-23.75,-5.76 L-27.86,-21.04 L-13.45,-25.64 L-23.81,-35.78 L-11.97,-46.13 L0.24,-30.35 L8.52,-46.57 L-25.83,-46.35 ZM-7.7,19.43 L-7.7,5.79 L5.34,6.39 L5.01,-0.4 L21.01,-0.45 L20.73,1.96 L27.03,6.06 L27.63,19.05 L19.97,19.38 L20.02,29.46 L27.85,31.05 L24.51,46.55 L19.58,43.76 L18.81,54.6 L1.72,54.44 L-10.6,49.51 L-7.1,28.31 L5.45,28.74 L5.45,19.1 L-7.7,19.43 ZM3.42,40.47 L3.26,41.62 L4.84,42.22 L4.95,40.69 L3.42,40.47 ZM-25.45,-0.29 L-9.62,1.24 L-13.95,30.28 L-12.96,34.06 L-11.26,26.83 L-8.41,27.81 L-12.3,53.12 L-24.63,54.16 L-27.15,30.88 L-25.45,-0.29 ZM20.46,6.83 L22.1,6.61 L20.57,4.26 L20.46,6.83 Z" style="fill:#6D6A6A;" />
		<g id="社会的身分2">
			<path transform="matrix(1.2189629077911377, 0, 0, 1.2189629077911377, 681.01806640625, 674.0474243164062)" d="M-49.26,24.32 L-62.27,29.88 L-49.26,30 L-49.26,24.32 ZM-82.73,-22.63 L-82.85,-21.1 L-49.26,-21.1 L-49.26,-22.63 L-82.73,-22.63 ZM-82.73,-38.48 L-49.26,-38.48 L-49.26,-40.37 L-82.73,-40.37 L-82.73,-38.48 ZM-82.73,-3.59 L-49.26,-4.3 L-49.26,-5.72 L-82.73,-5.72 L-82.73,-3.59 ZM-67.83,53.06 L-67.47,32.25 L-108.28,50.34 L-123.89,25.5 L-82.85,14.98 L-123.65,18.05 L-124.24,-7.61 L-114.19,-7.85 L-114.19,-58.83 L-84.27,-58.83 L-82.61,-66.99 L-45.95,-65.21 L-47.96,-58.83 L-18.86,-58.83 L-18.98,-14.95 L-10.23,-19.44 L-3.96,9.77 L-18.98,13.79 L-18.98,53.3 L-67.83,53.06 ZM53.34,51.52 L59.25,23.37 L74.75,24.68 L75.57,-5.37 L65.76,-5.37 L41.98,54.36 L9.93,39.58 L37.49,-5.37 L28.5,-5.37 L23.18,6.58 L3.78,-21.92 L26.96,-66.51 L56.77,-60.01 L43.17,-33.16 L81.96,-33.16 L79.36,-39.67 L63.75,-39.19 L63.75,-65.21 L99.82,-64.86 L124.66,-14.95 L105.97,10.6 L103.72,5.52 L104.55,53.18 L53.34,51.52 Z" style="fill:#3E3B39;" />
			<path transform="matrix(1.2189629077911377, 0, 0, 1.2189629077911377, 463.4105529785156, 693.42041015625)" d="M-23.63,9.22 L-23.63,15.37 L-21.83,15.37 L-21.83,9.22 L-23.63,9.22 ZM-23.55,-8.92 L-21.75,-8.92 L-21.75,-15.07 L-23.55,-15.07 L-23.55,-8.92 ZM40.37,36.54 L7.71,35.56 L8.21,15.78 L21.66,16.11 L22.16,-19.67 L12.88,-19.67 L10.5,-15.97 L18.13,-17.37 L21.42,10.86 L7.8,13.4 L2.71,-3.91 L0.98,-0.96 L-4.02,-6.05 L-4.02,33.51 L-41.52,33.42 L-41.44,-33.7 L-32.9,-33.62 L-32.08,-46.25 L-10.26,-44.61 L-12.47,-33.62 L-3.94,-33.62 L-3.94,-30.75 L1.15,-46.25 L25.6,-43.3 L22.57,-38.46 L41.85,-38.46 L40.37,36.54 Z" style="fill:#6D6A6A;" />
			<path transform="matrix(1.2189629077911377, 0, 0, 1.2189629077911377, 239.6446533203125, 671.7626953125)" d="M-22.89,28.58 L-3.97,28.58 L-3.97,52.83 L-78.13,52.83 L-78.13,28.58 L-52.82,28.58 L-52.82,-17.07 L-69.49,-16.6 L-73.63,-11.75 L-56.96,7.88 L-76.47,22.78 L-80.37,12.85 L-79.9,52.83 L-110.18,52.83 L-109.71,30.12 L-117.51,40.17 L-124.73,5.04 L-98.71,-22.16 L-123.9,-21.69 L-123.9,-49.6 L-109.11,-49.13 L-109.59,-67.1 L-79.31,-67.1 L-79.78,-49.13 L-67.6,-49.13 L-67.6,-43.45 L-52.82,-42.98 L-53.29,-66.99 L-22.42,-66.99 L-22.89,-42.98 L-6.1,-43.45 L-6.1,-16.6 L-22.89,-17.07 L-22.89,28.58 ZM82.07,22.67 L80.29,16.87 L94.84,14.98 L60.31,14.98 L55.69,24.56 L82.07,22.67 ZM105.49,-20.15 L105.49,-12.46 L23.76,-12.46 L23.88,-20.15 L10.39,-12.58 L4.24,-52.2 L65.39,-66.63 L124.29,-52.91 L119.32,-12.34 L105.49,-20.15 ZM74.38,-36.83 L64.33,-41.2 L53.8,-36.83 L74.38,-36.83 ZM8.38,14.98 L8.27,-9.86 L120.63,-9.86 L120.74,14.98 L111.64,14.98 L121.1,47.03 L87.86,53.3 L86.68,46.91 L10.51,53.18 L9.09,26.92 L16.66,26.21 L23.88,14.98 L8.38,14.98 Z" style="fill:#3E3B39;" />
		</g>
		<path transform="matrix(1.2189629077911377, 0, 0, 1.2189629077911377, 1497.13671875, 470.2870788574219)" d="M-94.87,-11.75 L-87.3,-11.4 L-87.3,-22.28 L-93.57,-22.28 L-94.87,-11.75 ZM-57.26,26.92 L-37.98,26.92 L-37.86,52.94 L-116.04,52.94 L-116.16,26.92 L-87.3,26.92 L-87.3,14.39 L-110.13,14.98 L-110.25,-3.83 L-121.13,-6.43 L-120.89,52.94 L-151.88,52.94 L-151.17,9.89 L-158.27,9.3 L-158.03,-40.97 L-151.17,-39.67 L-151.76,-66.51 L-120.77,-66.51 L-121.25,-40.49 L-117.93,-41.44 L-116.4,-65.69 L-88.37,-63.2 L-90.14,-48.65 L-87.42,-48.65 L-87.89,-66.63 L-56.9,-66.63 L-57.26,-48.77 L-38.22,-49.25 L-38.22,-21.92 L-57.26,-22.4 L-57.26,-11.4 L-40.58,-11.87 L-40.58,14.86 L-57.26,14.39 L-57.26,26.92 ZM-120.06,-15.18 L-121.13,-25.59 L-121.13,-7.85 L-120.06,-15.18 ZM10.56,-10.1 L38.48,-9.86 L35.76,53.06 L-2.09,51.76 L-3.51,40.41 L-6.82,52.83 L-29.77,26.57 L-17.23,-13.29 L-24.8,-13.41 L-24.56,-65.09 L39.42,-65.09 L38.95,-12.94 L11.75,-13.17 L10.56,-10.1 ZM40.61,23.97 L41.08,-59.06 L61.66,-58.94 L61.19,24.2 L40.61,23.97 ZM89.69,52.83 L45.93,51.88 L49.59,26.92 L63.31,27.63 L63.43,-66.16 L89.93,-66.04 L89.69,52.83 ZM12.34,-36 L12.34,-40.85 L3.47,-40.85 L3.47,-36 L12.34,-36 ZM8.08,23.02 L8.79,15.69 L3.82,15.69 L1.81,22.55 L8.08,23.02 ZM132.08,61.58 L100.62,27.28 L125.7,10.96 L157.04,39.34 L132.08,61.58 Z" style="fill:#3E3B39;" />
		<path transform="matrix(1.2189629077911377, 0, 0, 1.2189629077911377, 666.8299560546875, 470.2870788574219)" d="M-91.01,-29.49 L-90.65,52.83 L-120.34,52.83 L-119.75,20.42 L-122.59,36.27 L-124.72,-12.94 L-114.43,-66.75 L-82.02,-63.56 L-86.51,-47.12 L-4.55,-47 L-4.55,-26.77 L-89.71,-26.77 L-89.71,-37.3 L-91.01,-29.49 ZM-85.45,52.83 L-85.45,8 L-9.87,8 L-9.87,52.83 L-85.45,52.83 ZM-79.65,-48.18 L-79.65,-65.57 L-11.29,-65.57 L-11.29,-48.18 L-79.65,-48.18 ZM-82.73,-9.86 L-82.73,-25.83 L-12.36,-25.83 L-12.36,-9.86 L-82.73,-9.86 ZM-82.73,7.17 L-82.73,-8.91 L-12.36,-8.91 L-12.36,7.17 L-82.73,7.17 ZM-39.44,32.01 L-39.44,28.7 L-55.64,28.7 L-55.64,32.01 L-39.44,32.01 ZM35.24,-29.02 L32.4,-31.98 L26.25,-27.72 L35.24,-29.02 ZM66.23,-32.33 L78.06,-38.01 L58.66,-38.01 L66.23,-32.33 ZM7.21,-40.49 L28.85,-67.1 L63.75,-64.74 L57,-60.24 L117.68,-60.24 L117.68,-39.9 L101.12,-27.36 L122.65,-26.54 L120.4,-2.41 L79.48,-8.91 L79,-0.52 L119.69,-1.46 L119.69,20.77 L89.53,19.83 L124.54,27.16 L116.02,52.12 L79,38.51 L79.48,52.71 L48.02,52.71 L48.49,38.51 L12.41,52.12 L3.9,27.16 L37.49,19.83 L8.75,20.77 L8.75,-1.46 L48.49,-0.52 L48.02,-8.68 L9.93,-2.41 L6.03,-25.47 L20.93,-26.77 L7.21,-40.49 ZM65.16,-11.4 L51.8,-9.03 L79,-9.03 L65.16,-11.4 Z" style="fill:#3E3B39;" />
		<path transform="matrix(1.2189629077911377, 0, 0, 1.2189629077911377, 291.162353515625, 472.2118225097656)" d="M-158.18,31.54 L-115.48,-15.42 L-115.95,-66.63 L-81.18,-66.63 L-81.66,-15.42 L-38.01,31.54 L-64.51,53.06 L-98.1,9.3 L-131.69,53.06 L-158.18,31.54 ZM62.22,-9.74 L64.82,-9.74 L64.82,-11.99 L62.22,-11.99 L62.22,-9.74 ZM62.22,-2.29 L62.22,-0.04 L64.82,-0.04 L64.82,-2.29 L62.22,-2.29 ZM34.66,-9.86 L37.38,-9.86 L37.38,-12.11 L34.66,-12.11 L34.66,-9.86 ZM34.66,-0.16 L37.38,-0.16 L37.38,-2.41 L34.66,-2.41 L34.66,-0.16 ZM19.99,14.86 L17.87,16.4 L37.38,16.99 L37.38,14.86 L19.99,14.86 ZM13.96,-27.13 L37.38,-27.13 L37.38,-28.78 L13.96,-28.31 L13.96,-27.13 ZM6.27,-40.85 L6.27,-33.51 L9.7,-33.87 L9.82,-41.08 L6.27,-40.85 ZM8.88,-7.73 L11.12,-4.54 L11.12,-7.61 L8.88,-7.73 ZM89.42,33.19 L62.22,32.6 L62.22,34.37 L90.84,34.49 L90.84,53.06 L7.69,53.06 L7.81,34.26 L37.38,34.37 L37.38,32.6 L10.89,33.07 L10.77,23.02 L8.28,25.15 L6.04,19.12 L6.51,53.06 L-23.77,53.06 L-23.29,30.12 L-26.01,39.46 L-30.39,6.23 L-23.06,-7.73 L-29.68,-7.26 L-29.68,-33.99 L-23.06,-33.51 L-23.06,-37.77 L-29.09,-37.18 L-29.92,-63.67 L13.61,-66.87 L13.73,-63.56 L88.59,-66.28 L89.42,-46.29 L62.22,-45.82 L62.22,-44.28 L89.78,-44.75 L89.66,-28.19 L62.22,-28.67 L62.22,-27.01 L88.24,-27.13 L88.24,14.86 L62.22,14.98 L62.22,17.11 L89.3,16.63 L89.42,33.19 ZM37.38,-44.4 L37.38,-45.82 L15.03,-45.46 L15.03,-44.75 L37.38,-44.4 ZM132.05,61.58 L100.59,27.28 L125.66,10.96 L157.01,39.34 L132.05,61.58 Z" style="fill:#3E3B39;" />
	</g>
	<g id="法の下に平等であつて、2">
		<path transform="matrix(2.6296918392181396, 0, 0, 2.6296918392181396, 1551.989990234375, 279.0394592285156)" d="M-33.59,-18.99 Q-34.39,-19.19 -35.05,-19.93 Q-35.67,-20.88 -35.43,-22.18 Q-35.25,-23.01 -34.48,-23.55 Q-33.51,-24.32 -32,-23.63 Q-32.71,-21.68 -31.02,-20.05 Q-32.2,-18.66 -33.59,-18.99 ZM-29.66,-20.29 Q-30.4,-20.47 -30.93,-21.24 Q-32.14,-23.01 -30.54,-24.64 Q-28.86,-25.8 -27.14,-24.26 Q-26.52,-23.43 -26.66,-22.21 Q-26.87,-21.3 -27.64,-20.67 Q-28.5,-20.05 -29.66,-20.29 ZM-54.35,-22.95 L-54.83,-31.36 L-27.23,-32.07 L-26.96,-25.32 L-32.88,-25.5 L-41.41,-17.21 L-41.09,-12.91 L-30.34,-11.97 L-31.25,-3.47 L-49.11,-5.92 L-49.91,-20.05 L-40.47,-25.17 L-54.35,-22.95 ZM-29.83,-0.42 L-29,6.65 L-35.82,7.01 L-28.62,8.22 L-29.15,9.5 L-26.93,9.94 L-24.95,18.71 L-27.23,27.92 L-40.88,29.93 L-41.41,25.52 L-44.37,26.91 L-44.76,25.7 L-51.25,28.1 L-54.86,14.89 L-46.6,8.67 L-46.6,7.39 L-52.99,7.25 L-52.52,0.17 L-46.6,0.61 L-46.68,-0.48 L-38.39,-0.48 L-38.48,0.61 L-29.83,-0.42 ZM-38.45,14.5 L-39.31,14.47 L-39.31,15.98 L-38.45,14.5 ZM-45.56,16.78 L-46.24,17.38 L-45.91,18.41 L-45.41,18.23 L-45.56,16.78 ZM-38.48,7.16 L-38.48,8.08 L-36.85,8.14 L-36.59,7.07 L-38.48,7.16 ZM-34.48,22.05 L-33.24,18.62 L-33.36,18.2 L-35.1,21.23 L-37.3,22.38 L-34.48,22.05 ZM-22.71,6.06 L1.42,1.83 L6.64,10.18 L5.07,24.33 L-10.07,26.62 L-11.34,18.41 L-2.9,17.46 L-1.98,12.99 L-3.79,9.85 L-20.94,14.98 L-22.71,6.06 ZM9.23,9.59 L8.75,1.18 L36.35,0.46 L36.62,7.22 L30.7,7.04 L22.17,15.33 L22.49,19.63 L33.24,20.57 L32.33,29.07 L14.47,26.62 L13.67,12.49 L23.12,7.37 L9.23,9.59 ZM47.32,31.68 L39.45,23.09 L45.72,19 L53.57,26.11 L47.32,31.68 Z" style="fill:#6D6A6A;" />
		<path transform="matrix(1.2189629077911377, 0, 0, 1.2189629077911377, 1192.540771484375, 259.1978759765625)" d="M-19.69,-43.7 L-29.2,-10.69 L-6.75,-11.29 L-6.75,24.24 L-61.47,23.65 L-60.87,67.36 L-100.42,67.36 L-99.82,23.65 L-154.53,24.24 L-154.53,-11.29 L-132.09,-10.69 L-141.6,-42.66 L-124.21,-46.82 L-148.59,-46.82 L-148.59,-80.42 L-12.85,-80.42 L-12.85,-46.82 L-38.12,-46.82 L-19.69,-43.7 ZM-58.94,-15.3 L-53.44,-46.82 L-61.47,-46.82 L-61.47,-10.69 L-36.49,-10.69 L-58.94,-15.3 ZM-99.82,-10.69 L-99.82,-46.82 L-107.26,-46.82 L-102.35,-15.3 L-124.8,-10.69 L-99.82,-10.69 ZM65.12,-37.9 L55.46,-37.01 L65.12,-37.01 L65.12,-37.9 ZM40.89,-48.31 L38.06,-48.46 L30.92,-37.16 L43.12,-37.01 L40.89,-48.31 ZM74.49,-48.31 L75.38,-46.23 L83.11,-46.23 L81.18,-48.31 L74.49,-48.31 ZM112.1,-48.31 L108.53,-48.31 L100.5,-36.86 L114.78,-37.01 L112.1,-48.31 ZM5.2,-50.24 L16.06,-83.1 L56.5,-81.76 L52.18,-76.85 L84.15,-77.45 L84.15,-63.62 L89.95,-83.54 L126.67,-81.46 L122.36,-76.7 L154.47,-77.3 L154.32,-47.56 L144.96,-48.16 L147.48,-43.55 L124.14,-36.86 L147.19,-37.45 L147.19,-15.45 L100.5,-16.34 L100.5,-13.67 L152.54,-14.11 L152.54,9.97 L132.91,9.23 L132.76,12.05 L152.39,11.61 L152.39,36.73 L132.76,35.99 L132.76,67.81 L70.77,66.76 L71.66,39.11 L96.64,40.15 L96.64,35.84 L59.32,35.84 L69.43,43.57 L56.79,65.72 L16.21,47.59 L24.23,35.69 L8.77,36.14 L8.77,11.16 L96.79,11.9 L96.64,9.08 L8.77,9.53 L8.92,-14.41 L65.12,-13.82 L65.12,-16.49 L16.06,-15.9 L16.06,-35.82 L5.2,-50.24 Z" style="fill:#8338EC;" />
		<g id="法の下に2">
			<path transform="matrix(1.2189629077911377, 0, 0, 1.2189629077911377, 918.968994140625, 298.34326171875)" d="M-5.05,-22.05 L-4.48,-40.43 L38.6,-39.36 L37.94,-20.24 L-5.05,-22.05 ZM-5.63,0.03 L-7.93,21.44 L5.53,34.24 L37.86,34.16 L37.45,13.48 L18.09,15.12 L13.9,12.01 L16.2,1.18 L-5.63,0.03 ZM-36.23,-42.56 L-12.52,-40.26 L-18.67,-0.71 L-17.2,4.95 L-14.65,-3.91 L-10.39,-2.44 L-16.21,32.52 L-34.68,35.06 L-38.45,0.19 L-36.23,-42.56 Z" style="fill:#8338EC;" />
			<path transform="matrix(1.2189629077911377, 0, 0, 1.2189629077911377, 789.2887573242188, 269.91778564453125)" d="M10.81,8.47 L11.28,52.94 L-20.18,52.94 L-19.71,-38.01 L-59.45,-38.01 L-59.45,-64.03 L59.06,-64.03 L59.06,-38.01 L10.81,-38.01 L10.81,-24.29 L55.16,-1.46 L38.84,28.46 L10.81,8.47 Z" style="fill:#8338EC;" />
			<path transform="matrix(1.2189629077911377, 0, 0, 1.2189629077911377, 650.0866088867188, 298.34326171875)" d="M5.62,-21.97 L6.27,-14.09 L1.68,21.69 L-8.83,32.85 L-28.85,32.85 L-41.65,2.98 L-30.82,-36.74 L-3.25,-42.64 L32.86,-36.41 L41.72,-6.54 L35.81,27.27 L9.23,35.15 L2.99,12.17 L16.12,8.89 L18.74,-5.55 L15.79,-18.68 L5.62,-21.97 ZM-19,6.67 L-16.95,4.7 L-11.53,-14.66 L-11.45,-21.97 L-16.38,-20.65 L-20.97,5.28 L-19,6.67 Z" style="fill:#8338EC;" />
			<path transform="matrix(1.2189629077911377, 0, 0, 1.2189629077911377, 501.8828125, 269.91778564453125)" d="M-58.39,-45.44 L-43.96,-69.92 L-21.37,-52.3 L-29.77,-34.91 L-58.39,-45.44 ZM-21.97,6.49 L-26.58,22.69 L-21.61,22.33 L-10.97,0.45 L-28.47,0.57 L-28.47,-14.92 L-32.14,-3.8 L-60.05,-13.15 L-50.59,-38.34 L-28.23,-25.33 L0.27,-24.86 L0.27,-34.79 L-21.14,-34.2 L-21.14,-60.1 L0.27,-59.51 L-0.2,-69.09 L31.61,-69.21 L31.14,-59.63 L53.97,-60.46 L53.97,-34.32 L31.14,-34.79 L31.14,-24.86 L59.41,-25.33 L59.52,0.93 L48.53,0.45 L60.12,44.69 L30.19,50.13 L29.37,45.16 L-26.11,49.18 L-27.41,25.41 L-32.73,49.42 L-60.29,38.66 L-42.9,-0.02 L-21.97,6.49 ZM20.38,0.45 L10.8,20.91 L24.52,19.73 L21.44,6.84 L48.41,0.45 L20.38,0.45 Z" style="fill:#8338EC;" />
		</g>
	</g>
	<g id="すべて国民は、2">
		<path transform="matrix(1.2189629077911377, 0, 0, 1.2189629077911377, 355.3041687011719, 324.4638977050781)" d="M-20.88,-9.51 L-20.88,-21.67 L-9.26,-21.13 L-9.55,-27.19 L4.71,-27.24 L4.47,-25.09 L10.08,-21.43 L10.62,-9.85 L3.78,-9.56 L3.83,-0.57 L10.82,0.85 L7.84,14.67 L3.44,12.18 L2.76,21.85 L-12.48,21.7 L-23.47,17.31 L-20.34,-1.6 L-9.16,-1.21 L-9.16,-9.8 L-20.88,-9.51 ZM-10.97,9.25 L-11.11,10.27 L-9.7,10.81 L-9.6,9.44 L-10.97,9.25 ZM-36.7,-27.09 L-22.59,-25.72 L-26.45,0.16 L-25.57,3.53 L-24.05,-2.91 L-21.51,-2.04 L-24.98,20.53 L-35.97,21.46 L-38.22,0.7 L-36.7,-27.09 ZM4.22,-20.74 L5.69,-20.94 L4.32,-23.04 L4.22,-20.74 ZM28.03,25.41 L15.04,11.25 L25.39,4.51 L38.34,16.23 L28.03,25.41 Z" style="fill:#6D6A6A;" />
		<path transform="matrix(1.2189629077911377, 0, 0, 1.2189629077911377, 186.33270263671875, 303.0578308105469)" d="M-30,1.24 L-32.58,1.24 L-32.58,3.52 L-31.21,3.52 L-32.2,2.31 L-30,1.24 ZM-61.56,19.27 L-20.94,19.27 L-20.94,10.9 L-21.78,11.28 L-21.78,18.28 L-60.72,18.28 L-60.72,3.52 L-50.68,3.52 L-50.68,1.24 L-58.37,1.55 L-58.37,-10.24 L-50.68,-9.94 L-50.68,-11.31 L-60.34,-11.31 L-60.34,-25.68 L-22.16,-25.68 L-22.16,-11.31 L-32.58,-11.31 L-32.58,-9.94 L-24.14,-10.24 L-24.14,-1.57 L-22.16,-2.41 L-20.94,1.85 L-20.94,-26.98 L-61.56,-26.98 L-61.56,19.27 ZM-78.83,33.95 L-78.83,-41.73 L-3.68,-41.73 L-3.68,33.95 L-78.83,33.95 ZM26.17,-25.46 L55.84,-25.46 L55.84,-28.27 L26.17,-28.27 L26.17,-25.46 ZM36.06,-9.64 L34.84,-12.3 L26.17,-12.3 L26.17,-9.64 L36.06,-9.64 ZM64.73,6.41 L79.95,12.8 L72.04,33.49 L52.26,33.8 L41.38,5.65 L26.17,5.65 L26.17,15.39 L43.74,13.03 L44.81,29.54 L3.89,34.02 L2.67,17.97 L5.71,17.59 L5.71,-42.19 L75.69,-42.11 L75.76,-12.22 L54.77,-12.3 L55.99,-9.64 L76.6,-9.86 L76.6,6.03 L61.08,5.65 L63.52,11.89 L64.73,6.41 Z" style="fill:#3E3B39;" />
		<g id="すべて2">
			<path transform="matrix(1.2189629077911377, 0, 0, 1.2189629077911377, 323.2332763671875, 200.16421508789062)" d="M-25.09,-12.36 L-25.97,-27.92 L25.09,-29.24 L25.58,-16.75 L14.63,-17.07 L-1.15,-1.74 L-0.55,6.21 L19.34,7.96 L17.64,23.68 L-15.39,19.14 L-16.87,-6.99 L0.6,-16.47 L-25.09,-12.36 Z" style="fill:#3E3B39;" />
			<path transform="matrix(1.2189629077911377, 0, 0, 1.2189629077911377, 186.33270263671875, 184.97976684570312)" d="M-43.87,15.14 L-59.29,15.61 L-64.62,-8.07 L-61.07,-16.02 L-43.71,-18.18 L-43.87,-19.8 L-79.89,-14.86 L-80.74,-36 L-45.02,-36.69 L-45.79,-42.86 L-22.65,-43.48 L-22.73,-42.09 L-2.91,-37.62 L-3.21,-21.42 L-23.19,-21.65 L-24.5,-15.48 L-20.57,5.04 L-26.59,30.03 L-60.84,34.89 L-63.46,17.3 L-44.41,16.46 L-43.87,15.14 ZM-45.02,-1.06 L-42.25,-1.13 L-42.63,-3.6 L-46.03,-4.14 L-46.49,-3.45 L-45.02,-1.06 ZM-22.88,-37 L-18.33,-37.39 L-22.81,-39.32 L-22.88,-37 ZM53.75,-23.73 Q51.82,-24.58 50.43,-26.74 Q49.2,-29.44 50.35,-32.68 Q51.12,-34.76 53.28,-35.77 Q56.14,-37.39 59.76,-35.07 Q57.91,-29.13 60.84,-25.43 Q57.22,-22.35 53.75,-23.73 ZM65.32,-25.35 Q63.54,-26.13 62.46,-28.28 Q60,-33.38 64.78,-36.92 Q69.56,-39.24 73.42,-34.61 Q74.65,-32.22 73.8,-29.13 Q72.88,-26.82 70.72,-25.59 Q68.25,-24.27 65.32,-25.35 ZM2.68,-3.99 L30.45,-36.08 L42.49,-34.53 L48.89,-23.66 L81.05,3.73 L66.24,22.86 L37.86,-8.07 L35.7,-14.17 L21.2,9.9 L2.68,-3.99 Z" style="fill:#3E3B39;" />
		</g>
	</g>
	<g id="グループ 12" transform="matrix(0.9391663074493408, 0, 0, 0.9391663074493408, 971.69091796875, 596.5403442382812)">
		<path d="M-123.41,-233.41 L324.14,-233.41 L324.14,179.07 L-123.41,179.07 L-123.41,-233.41 Z" style="fill:#3A86FF;" />
		<g id="グループ2">
			<path transform="matrix(3.233937978744507, 0, 0, 3.233937978744507, 179.2843780517578, 83.44207763671875)" d="M32.06,-2.81 Q27.96,-3.63 24.29,-4.64 Q20.62,-5.65 17.27,-6.96 Q13.8,-5.53 9.78,-4.42 Q5.78,-3.3 1.32,-2.49 L-1.17,-5.61 Q2.74,-6.06 6.34,-6.86 Q9.95,-7.66 13.12,-8.81 Q9.08,-10.74 5.72,-13.21 Q4.55,-12.34 3.4,-11.56 Q2.24,-10.78 1,-10.08 L-2.35,-12.75 Q1.12,-14.48 4.14,-16.86 Q7.16,-19.24 9.01,-21.95 L14.04,-21.25 Q12.92,-19.77 11.43,-18.17 L33.06,-18.17 L33.06,-15.13 L29.01,-15.13 Q26.16,-11.56 21.18,-8.85 Q27.34,-6.8 34.29,-5.85 L32.06,-2.81 ZM31.75,13.37 Q28.21,11.64 24.98,9.49 Q21.75,7.32 19.38,4.91 L19.38,15.25 L14.42,15.25 L14.42,4.99 Q11.61,7.69 8.2,9.77 Q4.79,11.84 1.12,13.37 L-1.99,10.53 Q2.49,9.14 6.12,7.19 Q9.76,5.24 12.37,2.89 L0.13,2.89 L0.13,-0.27 L14.42,-0.27 L14.42,-4.22 L19.38,-4.22 L19.38,-0.27 L33.06,-0.27 L33.06,2.89 L21.06,2.89 Q22.37,4 24,5.08 Q25.66,6.14 27.46,7.12 Q29.27,8.1 31.19,8.99 Q33.12,9.87 34.85,10.57 L31.75,13.37 ZM8.89,-15.13 Q10.69,-13.82 12.77,-12.63 Q14.84,-11.43 17.21,-10.45 Q19.38,-11.52 21.06,-12.69 Q22.75,-13.86 23.79,-15.13 L8.89,-15.13 Z" style="fill:#FFFFFF;" />
			<path transform="matrix(0.5875037312507629, 0, 0, 0.5875037312507629, 31.524627685546875, 34.256591796875)" d="M-101.57,128.19 Q-101.57,149.37 -87.64,160.5 L-169.64,160.5 Q-155.97,149.25 -155.97,128.19 L-155.97,-141.96 Q-155.97,-149.02 -154.9,-147.71 Q-168.83,-142.8 -211.97,-138.73 L-211.97,-173.79 Q-188.39,-176.06 -175.4,-178.46 Q-162.27,-180.97 -155.03,-182.88 Q-147.66,-184.92 -139.36,-189.34 Q-130.92,-193.89 -127.57,-196.16 Q-124.08,-198.44 -101.57,-214.11 L-101.57,128.19 ZM131.52,36.55 L131.52,-117.8 L10,36.55 L131.52,36.55 ZM78.46,167.68 Q131.52,149.13 131.52,127.71 L131.52,71.96 L-41.32,71.96 L-41.32,39.06 L149.61,-197.72 L182.43,-197.72 L182.43,36.55 L218.61,36.55 L218.61,71.96 L182.43,71.96 L182.43,127.71 Q182.43,141.23 185.11,146.5 Q187.79,151.64 191.54,160.5 L78.46,167.68 Z" style="fill:#FFFFFF;" />
			<path transform="matrix(1.012826919555664, 0, 0, 1.012826919555664, 99.6136474609375, -151.88246154785156)" d="M-184.37,39.6 Q-186.42,39.6 -188.19,38.85 Q-189.93,38.07 -189.93,36.09 Q-189.93,34.22 -188.34,33.16 Q-186.73,32.08 -184.43,31.39 Q-181.41,30.46 -178.96,28.66 Q-176.47,26.85 -174.64,22.63 Q-171.06,14.45 -168.11,7.37 Q-165.13,0.28 -162.46,-6.59 Q-159.78,-13.49 -156.92,-20.91 Q-154.03,-28.34 -150.86,-37.08 Q-150.24,-38.82 -149.78,-40.46 Q-149.31,-42.14 -149.09,-45.22 Q-146.79,-46 -145.77,-46.34 Q-144.71,-46.68 -143.78,-47.3 Q-143.19,-47.71 -142.81,-49.04 Q-142.41,-50.41 -141.76,-51.31 Q-140.98,-52.09 -139.83,-52.09 Q-138.68,-52.09 -138.03,-50.78 Q-137.69,-50.1 -137.47,-49.26 Q-137.25,-48.45 -137.03,-47.74 Q-133.99,-38.04 -130.69,-28 Q-127.37,-17.96 -124.26,-8.61 Q-121.12,0.75 -118.51,8.21 Q-115.9,15.64 -114.38,20.23 Q-112.73,25.02 -110.93,27.26 Q-109.12,29.47 -107.2,30.37 Q-105.24,31.24 -102.94,31.7 Q-100.33,32.2 -98.77,33.44 Q-97.22,34.69 -97.22,36.49 Q-97.22,38.7 -99.08,39.13 Q-100.92,39.6 -102.78,39.6 Q-104.62,39.6 -107.69,39.41 Q-110.77,39.22 -114.19,39.04 Q-117.61,38.85 -120.47,38.85 Q-122.89,38.85 -125.44,38.85 Q-127.96,38.85 -130.13,38.91 Q-132.28,38.98 -133.83,38.98 Q-135.85,38.98 -137.62,38.29 Q-139.39,37.61 -139.39,35.59 Q-139.39,33.54 -137.47,32.57 Q-135.54,31.61 -133.61,31.33 Q-129.95,30.77 -128.7,29.68 Q-127.43,28.6 -127.43,27.45 Q-127.43,25.74 -128.24,22.26 Q-129.01,18.74 -130.16,14.64 Q-131.28,10.54 -132.34,7.31 Q-132.28,7.24 -132.37,7.27 Q-132.43,7.27 -133.96,7.27 L-158.04,7.27 Q-158.04,6.84 -158.07,7.15 Q-158.1,7.43 -158.42,8.27 Q-158.79,9.54 -159.69,12.28 Q-160.59,15.01 -161.46,18.06 Q-162.33,21.07 -162.95,23.37 Q-163.54,25.64 -163.54,26.05 Q-163.54,27.97 -161.9,29.4 Q-160.22,30.83 -157.58,31.49 Q-151.95,33.01 -151.95,35.84 Q-151.95,38.01 -153.78,38.57 Q-155.59,39.1 -157.51,39.1 Q-159.19,39.1 -162.39,38.98 Q-165.56,38.85 -169.11,38.85 Q-173.21,38.85 -177.16,39.22 Q-181.1,39.6 -184.37,39.6 ZM-154.59,-0.65 L-134.86,-0.65 Q-133.74,0.56 -134.95,0.56 Q-134.95,0.5 -134.98,0.34 Q-135.01,0.16 -135.11,-0.15 L-145.02,-31.17 Q-144.4,-33.53 -144.4,-32.2 Q-144.4,-33.72 -143.68,-31.23 L-155.25,-0.09 Q-155.68,0.31 -155.4,0.31 Q-156.49,0.31 -156.12,-0.15 Q-155.71,-0.65 -154.59,-0.65 ZM-85.84,39.35 Q-87.55,39.35 -88.92,38.7 Q-90.25,38.01 -90.25,36.09 Q-90.25,33.82 -88.85,33.26 Q-87.46,32.67 -85.96,32.26 Q-84.01,31.73 -83.26,30.99 Q-82.48,30.21 -82.48,29.22 L-82.48,1.84 Q-82.48,-1.21 -83.26,-3.14 Q-84.04,-5.06 -86.24,-5.5 Q-87.46,-5.81 -88.23,-6.8 Q-88.98,-7.83 -88.98,-8.98 Q-88.98,-11.75 -86.43,-12.31 Q-83.38,-13.27 -79.87,-15.16 Q-76.33,-17.09 -74.37,-18.33 Q-73.47,-18.89 -72.79,-19.17 Q-72.1,-19.48 -71.45,-19.48 Q-68.96,-19.48 -68.96,-16.75 Q-68.96,-16.31 -69.03,-14.76 Q-69.09,-13.24 -69.15,-11.19 Q-69.21,-9.14 -69.34,-7.12 Q-70.95,-7.18 -71.2,-7.46 Q-70.24,-10.81 -67.6,-12.86 Q-64.92,-14.92 -62.03,-16.19 Q-59.14,-17.46 -56.31,-17.46 Q-53.08,-17.46 -50.72,-15.88 Q-48.33,-14.29 -48.33,-11.53 Q-48.33,-9.85 -49.2,-7.95 Q-50.04,-6.09 -51.59,-4.57 Q-53.11,-3.04 -55.16,-3.04 Q-56.25,-3.04 -57.37,-3.42 Q-58.46,-3.82 -59.48,-4.35 Q-60.42,-4.69 -61.29,-5 Q-62.13,-5.31 -62.81,-5.31 Q-65.23,-5.31 -67.5,-3.6 Q-69.74,-1.92 -69.74,3.51 L-69.74,29.22 Q-69.74,29.81 -68.5,30.58 Q-67.25,31.33 -64.3,32.26 Q-62.75,32.7 -61.41,33.38 Q-60.04,34.07 -60.04,36.09 Q-60.04,39.35 -64.46,39.35 Q-68.43,39.35 -70.42,39.04 Q-72.38,38.73 -75.55,38.73 Q-77.6,38.73 -78.88,38.85 Q-80.15,38.98 -81.67,39.16 Q-83.17,39.35 -85.84,39.35 ZM-17.87,40.75 Q-24.93,40.75 -28.97,36.37 Q-32.98,31.98 -32.98,23.75 L-32.98,-5.78 Q-32.92,-5.78 -33.04,-5.81 Q-33.13,-5.84 -35.19,-5.84 L-35.93,-5.84 Q-37.7,-5.84 -38.54,-7.36 Q-39.35,-8.89 -39.35,-10.25 Q-39.35,-11.12 -38.73,-11.93 Q-38.11,-12.77 -37.8,-13.08 Q-35.19,-14.92 -33.17,-16.63 Q-31.11,-18.37 -29.44,-20.01 Q-27.76,-21.66 -26.64,-23.06 Q-25.95,-23.77 -25.24,-24.49 Q-24.49,-25.23 -23.1,-25.23 Q-22.04,-25.23 -20.64,-24.58 Q-19.21,-23.93 -19.61,-21.69 L-20.21,-16.03 Q-20.24,-15.76 -20.17,-15.69 Q-20.11,-15.66 -19.02,-15.66 L-4.51,-15.66 Q-2.77,-15.66 -2.09,-14.11 Q-1.37,-12.55 -1.37,-11 Q-1.37,-9.54 -2.02,-7.67 Q-2.65,-5.84 -4.51,-5.84 L-17.1,-5.84 Q-19.83,-5.84 -20.08,-5.69 Q-20.33,-5.56 -20.33,-4.13 L-20.33,20.95 Q-20.33,25.43 -18.65,27.72 Q-16.94,30.02 -13.8,30.02 Q-10.35,30.02 -8.61,29.53 Q-6.84,29.03 -5.54,28.13 Q-4.82,27.48 -3.86,27.48 Q-1.99,27.48 -1.56,28.84 Q-1.12,30.21 -1.12,31.11 Q-1.12,32.6 -3.64,34.87 Q-6.13,37.14 -9.82,38.94 Q-13.49,40.75 -17.87,40.75 ZM11.27,39.35 Q9.72,39.35 8.29,38.73 Q6.86,38.07 6.86,36.09 Q6.86,33.79 8.48,33.16 Q10.09,32.54 11.24,32.26 Q13.57,31.67 14.41,31.11 Q15.28,30.52 15.28,29.22 L15.28,1.59 Q15.28,-1.43 14.35,-3.45 Q13.45,-5.5 11.06,-5.87 Q9.78,-6.12 9.01,-6.99 Q8.26,-7.86 8.26,-9.35 Q8.26,-12.43 10.96,-12.71 Q15.66,-13.77 18.8,-15.63 Q21.94,-17.53 23.49,-18.71 Q25.14,-20.01 26.44,-20.01 Q29.05,-20.01 29.05,-17.5 Q29.05,-16.38 28.74,-13.36 Q28.43,-10.35 28.15,-6.74 Q27.9,-3.17 27.9,-0.31 L27.9,29.22 Q27.9,30.4 28.83,31.05 Q29.77,31.7 31.97,32.26 Q33.09,32.54 34.71,33.16 Q36.33,33.79 36.33,36.09 Q36.33,39.35 31.91,39.35 Q29.36,39.35 27.84,39.16 Q26.35,38.98 25.07,38.85 Q23.8,38.73 21.59,38.73 Q19.51,38.73 18.17,38.85 Q16.84,38.98 15.38,39.16 Q13.95,39.35 11.27,39.35 ZM21.47,-26.73 Q18.02,-26.73 15.63,-29.09 Q13.23,-31.48 13.23,-34.93 Q13.23,-38.51 15.63,-40.9 Q18.02,-43.29 21.47,-43.29 Q25.04,-43.29 27.44,-40.9 Q29.83,-38.51 29.83,-34.93 Q29.83,-31.48 27.44,-29.09 Q25.04,-26.73 21.47,-26.73 ZM71.61,40.87 Q64.74,40.87 59.11,37.36 Q53.52,33.85 50.29,27.76 Q47.09,21.66 47.09,14.21 Q47.09,5.44 50.94,-1.71 Q54.79,-8.89 61.32,-13.18 Q67.88,-17.46 75.84,-17.46 Q84.69,-17.46 91.44,-12.65 Q93.74,-10.94 93.74,-8.73 Q93.74,-7.12 92.56,-5.44 Q91.38,-3.79 89.73,-2.7 Q88.08,-1.65 86.4,-1.65 Q85.16,-1.65 84.29,-2.24 Q83.42,-2.86 82.64,-3.42 Q79.88,-5.5 76.71,-7.24 Q73.54,-9.01 71.76,-9.01 Q66.51,-9.01 63.06,-3.85 Q59.61,1.28 59.61,10.13 Q59.61,15.64 61.97,20.05 Q64.37,24.46 68.35,27.01 Q72.32,29.53 77.11,29.53 Q80.37,29.53 82.7,28.47 Q85.03,27.41 87.83,24.65 Q88.3,24.15 89.01,23.78 Q89.76,23.4 90.47,23.4 Q93.74,23.4 93.74,27.04 Q93.74,28.25 93.15,29.5 Q92.56,30.71 91.41,32.14 Q89.2,34.94 86.15,36.96 Q83.11,38.98 79.44,39.91 Q75.8,40.87 71.61,40.87 ZM108.93,39.35 Q108.09,39.35 106.29,38.98 Q104.52,38.63 104.52,36.33 Q104.52,34.16 106.04,33.44 Q107.56,32.73 108.68,32.29 Q110.51,31.67 111.7,31.14 Q112.91,30.58 112.91,29.22 L112.91,-34.93 Q112.91,-38.16 111.88,-40.06 Q110.89,-41.96 108.49,-42.42 Q106.04,-43.07 106.04,-45.9 Q106.04,-48.61 108.34,-49.23 Q111.6,-49.97 113.93,-50.78 Q116.26,-51.59 118.35,-52.46 Q120.46,-53.36 122.42,-54.08 Q123.19,-54.51 123.94,-54.51 Q125.21,-54.51 125.84,-53.52 Q126.46,-52.52 126.46,-51.75 Q126.46,-50.47 125.99,-46.71 Q125.56,-42.95 125.56,-34.43 L125.56,29.22 Q125.56,30.58 126.74,31.14 Q127.95,31.67 129.78,32.29 Q130.9,32.73 132.43,33.44 Q133.95,34.16 133.95,36.33 Q133.95,38.63 132.15,38.98 Q130.37,39.35 129.54,39.35 Q126.99,39.35 125.46,39.16 Q123.97,38.98 122.7,38.85 Q121.42,38.73 119.25,38.73 Q117.17,38.73 115.83,38.85 Q114.49,38.98 113.03,39.16 Q111.6,39.35 108.93,39.35 ZM169.25,40.87 Q161.7,40.87 156.01,37.14 Q150.35,33.41 147.21,26.7 Q144.1,19.96 144.1,11.28 Q144.1,3.39 147.71,-3.04 Q151.32,-9.51 157.31,-13.49 Q163.34,-17.46 170.52,-17.46 Q176.09,-17.46 180.44,-15.2 Q184.82,-12.96 187.34,-8.86 Q189.85,-4.78 189.85,0.44 Q189.85,6.25 184.17,6.25 L157.28,6.25 Q156.47,6.25 156.23,6.59 Q155.98,6.9 155.98,9.11 Q155.98,14.73 158.43,19.36 Q160.89,24 164.9,26.7 Q168.94,29.4 173.72,29.4 Q177.11,29.4 179.85,28.1 Q182.61,26.79 184.76,24.31 Q185.41,23.56 185.97,23.09 Q186.56,22.63 187.58,22.63 Q190.48,22.63 190.48,25.77 Q190.48,28.84 187.77,32.26 Q185.69,34.94 182.77,36.89 Q179.88,38.82 176.43,39.85 Q172.98,40.87 169.25,40.87 ZM157.56,-1.43 L169.12,-1.43 Q172.14,-1.43 174.22,-1.55 Q176.3,-1.68 178.2,-2.02 Q178.35,-1.21 178.01,-1.58 Q177.7,-1.96 177.7,-2.98 Q177.7,-5.78 175.06,-7.89 Q172.42,-10.04 168.63,-10.04 Q166.2,-10.04 163.65,-8.51 Q161.11,-7.02 159.49,-4.88 Q157.87,-2.76 157.87,-0.84 Q157.28,-0.84 157.56,-1.43 Z" style="fill:#FFFFFF;" />
		</g>
	</g>
</svg>