<?xml version="1.0" encoding="UTF-8"?>
<!-- Created with Grafika (https://www.grafika.cc/) -->
<svg xmlns="http://www.w3.org/2000/svg" xmlns:svg="http://www.w3.org/2000/svg" xmlns:xlink="http://www.w3.org/1999/xlink" width="4762.2" height="3367.56" viewBox="0 0 1587.4 1122.52" preserveAspectRatio="xMidYMid meet">
	<rect x="0" y="0" width="1587.4" height="1122.52" fill="#000000" />
	<g transform="matrix(0.2610413134098053, 0, 0, 0.2610413134098053, 1132.5294189453125, 227.47149658203125)">
		<path d="M-521.22,-15.46 L-521.22,-13 L-485.35,-13 L-485.35,-15.46 L-521.22,-15.46 ZM-521.22,-33.8 L-521.22,-31.51 L-485.35,-31.51 L-485.35,-33.8 L-521.22,-33.8 ZM-521.22,-50.02 L-485.35,-50.02 L-485.35,-52.32 L-521.22,-52.32 L-521.22,-50.02 ZM-475.36,17.96 L-481.09,13.54 L-481.75,18.78 L-475.36,17.96 ZM-481.91,42.53 L-481.75,44.66 L-421.63,44.66 L-421.63,73.49 L-584.29,73.16 L-584.29,44.66 L-524.5,44.66 L-524.5,42.04 L-555.13,42.69 L-554.97,37.12 L-563.16,44 L-586.42,18.12 L-570.69,11.08 L-584.13,11.73 L-583.96,-20.7 L-562.83,-20.04 L-562.67,-49.04 L-582.16,-48.38 L-582.16,-81.8 L-562.67,-81.15 L-563.32,-92.28 L-520.57,-91.47 L-521.22,-80.98 L-485.35,-80.98 L-486.01,-91.47 L-442.6,-91.96 L-443.25,-80.98 L-423.76,-81.47 L-423.76,-48.06 L-443.25,-48.88 L-443.42,-19.88 L-422.28,-20.37 L-422.45,12.23 L-438.5,11.41 L-419.83,18.45 L-443.09,44.17 L-451.44,37.45 L-451.44,43.19 L-481.91,42.53 ZM-484.2,11.24 L-521.72,11.24 L-524.83,13.54 L-481.25,13.54 L-484.2,11.24 ZM-531.05,17.96 L-524.5,18.45 L-525.16,13.7 L-531.05,17.96 ZM-345.65,-34.62 L-382.67,-33.97 L-382.67,-74.43 L-324.52,-73.77 L-325.34,-92.61 L-278.66,-92.61 L-279.31,-73.77 L-221.16,-74.43 L-221.16,-33.97 L-255.56,-34.79 L-218.7,-0.55 L-242.29,51.21 L-257.53,30.74 L-257.53,48.75 L-279.97,48.1 L-279.15,73.65 L-324.52,73.65 L-323.87,48.1 L-346.31,48.75 L-346.31,29.75 L-362.2,51.21 L-385.13,0.1 L-345.65,-34.62 ZM-279.8,0.1 L-279.97,13.86 L-270.3,13.21 L-279.8,0.1 ZM-323.87,13.86 L-323.87,0.1 L-333.53,13.21 L-323.87,13.86 ZM-147.81,18.45 L-147.81,30.74 L-144.2,30.74 L-144.2,18.45 L-147.81,18.45 ZM-147.64,-17.75 L-144.04,-17.75 L-144.04,-30.04 L-147.64,-30.04 L-147.64,-17.75 ZM-20.04,73 L-85.23,71.03 L-84.25,31.55 L-57.38,32.21 L-56.4,-39.21 L-74.91,-39.21 L-79.66,-31.84 L-64.43,-34.62 L-57.88,21.73 L-85.07,26.8 L-95.22,-7.76 L-98.66,-1.86 L-108.66,-12.02 L-108.66,66.94 L-183.52,66.77 L-183.35,-67.22 L-166.32,-67.06 L-164.68,-92.28 L-121.11,-89.01 L-125.53,-67.06 L-108.49,-67.06 L-108.49,-61.32 L-98.34,-92.28 L-49.52,-86.39 L-55.58,-76.72 L-17.09,-76.72 L-20.04,73 ZM17.44,43.68 L76.58,-21.36 L75.92,-92.28 L124.08,-92.28 L123.43,-21.36 L183.87,43.68 L147.18,73.49 L100.66,12.88 L54.14,73.49 L17.44,43.68 ZM291.13,-52.97 L276.72,-55.76 L276.72,-53.63 L291.13,-52.97 ZM305.88,-52.97 L308.66,-56.41 L304.4,-56.41 L302.11,-52.97 L305.88,-52.97 ZM288.19,-25.45 L275.08,-24.8 L275.08,-31.35 L269.68,-32 L279.18,-16.77 L288.19,-25.45 ZM328.32,27.13 L320.78,27.13 L320.78,29.75 L328.32,29.75 L328.32,27.13 ZM320.78,6.49 L320.78,8.62 L328.32,8.62 L328.32,6.49 L320.78,6.49 ZM328.65,-16.44 L331.27,-25.45 L328.15,-25.45 L321.93,-16.44 L328.65,-16.44 ZM365.01,8.62 L377.95,7.97 L377.95,27.79 L365.01,27.13 L365.01,29.75 L377.95,29.1 L377.95,49.08 L365.01,48.43 L365.01,50.39 L382.87,49.74 L382.87,73.33 L281.8,73.33 L281.8,17.63 L279.01,12.72 L271.8,31.72 L267.87,20.42 L268.53,73.33 L227.25,73.33 L227.9,21.73 L220.53,50.23 L218.24,-1.86 L226.43,-32 L218.57,-31.35 L218.57,-70.17 L227.9,-69.51 L227.25,-92.94 L268.53,-92.94 L267.87,-69.51 L274.59,-70.17 L279.83,-92.61 L321.77,-91.3 L318.98,-86.71 L381.88,-88.03 L381.88,-55.76 L348.14,-56.41 L346.01,-52.97 L385.16,-53.63 L385.16,-24.8 L359.77,-25.61 L373.53,-22.34 L368.62,-16.44 L379.59,-17.1 L379.59,7.15 L365.01,6.49 L365.01,8.62 ZM320.78,50.39 L328.32,50.39 L328.32,48.43 L320.78,48.43 L320.78,50.39 ZM469.65,-31.84 L469.65,-72.63 L519.12,-70.83 L518.14,-91.14 L562.7,-91.3 L561.71,-69.51 L584.65,-70.5 L584.48,-30.36 L560.24,-32 L560.4,-9.72 L586.45,1.58 L575.14,47.28 L557.78,33.03 L552.21,73.33 L504.38,72.83 L468.18,55.47 L469.98,71.85 L425.42,72.67 L420.67,-12.51 L425.1,-90.97 L469.65,-89.5 L463.26,-12.51 L467.03,44.33 L476.04,-18.41 L519.45,-17.1 L519.45,-32.82 L469.65,-31.84 ZM508.15,20.58 L507,33.85 L516.99,36.31 L518.63,21.23 L508.15,20.58 Z" fill="#FFFFFF" />
	</g>
	<g id="グループ 32" transform="matrix(0.5144555568695068, 0, 0, 0.5144557356834412, 1132.8824462890625, 566.5809936523438)">
		<g transform="matrix(0.4737870395183563, 0, 0, 0.4737870395183563, -0.6861419677734375, -446.5589294433594)">
			<path d="M-1043.37,51.92 L-972.99,-25.48 L-973.77,-109.9 L-916.45,-109.9 L-917.23,-25.48 L-845.29,51.92 L-888.97,87.41 L-944.33,15.27 L-999.7,87.41 L-1043.37,51.92 ZM-680.4,-67.2 L-678.64,-70.12 L-705.16,-70.12 L-705.16,-86.7 L-713.54,-68.17 L-707.11,-68.95 L-707.11,-32.3 L-716.66,-33.08 L-703.21,-27.62 L-703.21,-67.2 L-680.4,-67.2 ZM-660.51,11.37 L-660.51,14.49 L-652.13,14.49 L-652.13,11.37 L-660.51,11.37 ZM-660.51,-12.61 L-660.51,-9.49 L-652.13,-9.49 L-652.13,-12.61 L-660.51,-12.61 ZM-660.51,-34.25 L-652.13,-34.25 L-652.13,-37.37 L-660.51,-37.37 L-660.51,-34.25 ZM-659.34,46.46 L-663.04,87.41 L-711,79.61 L-695.41,43.34 L-703.21,43.34 L-703.01,-17.09 L-712.76,-1.3 L-705.55,-2.08 L-705.55,36.33 L-719.19,35.55 L-701.65,55.43 L-735.57,87.41 L-750.39,55.43 L-769.88,87.41 L-804.39,55.24 L-783.92,35.55 L-802.44,36.33 L-802.44,-2.08 L-792.3,-1.3 L-804.39,-24.11 L-787.62,-33.08 L-802.44,-32.3 L-802.44,-68.95 L-794.84,-68.17 L-804.39,-98.39 L-777.88,-109.7 L-773.59,-93.52 L-774.37,-109.9 L-730.11,-109.9 L-730.89,-94.1 L-727.19,-109.12 L-705.16,-101.71 L-705.16,-108.34 L-605.14,-108.34 L-605.14,-70.12 L-631.66,-70.12 L-633.8,-67.2 L-609.04,-67.2 L-609.04,43.15 L-617.42,43.34 L-605.73,79.8 L-652.13,87.41 L-654.66,46.46 L-620.35,43.34 L-686.05,43.34 L-659.34,46.46 ZM-730.89,-71.49 L-730.89,-68.17 L-718.22,-68.17 L-730.89,-71.49 ZM-773.59,-68.17 L-773.59,-71.68 L-787.04,-68.37 L-773.59,-68.17 ZM-730.89,-1.3 L-726.21,-1.3 L-731.67,-7.15 L-730.89,-1.3 ZM-773.59,-5.98 L-779.05,-1.3 L-774.37,-1.3 L-773.59,-5.98 ZM-439.46,-52.19 L-454.28,79.61 L-510.43,81.17 L-564.24,51.53 L-553.32,-90.4 L-473,-106 L-387.21,-92.74 L-366.16,-17.09 L-380.19,66.35 L-436.34,82.73 L-448.04,28.14 L-425.42,24.24 L-416.07,-14.75 L-426.2,-49.07 L-439.46,-52.19 ZM-498.73,33.6 L-489.37,-52.97 L-505.75,-49.07 L-511.99,25.8 L-498.73,33.6 ZM-194.04,16.44 L-175.13,10.01 L-175.33,5.33 L-193.46,5.33 L-200.09,9.23 L-194.04,16.44 ZM-233.04,-57.84 L-208.86,-67 L-230.11,-68.37 L-238.69,-64.08 L-233.04,-57.84 ZM-324.08,-74.41 L-252.34,-110.29 L-149.98,-106.78 L-151.74,-46.34 L-175.72,-37.57 L-126.59,-36.98 L-126.39,42.76 L-277.1,91.11 L-291.33,47.63 L-268.13,41.2 L-291.53,10.98 L-250.97,-9.49 L-309.85,17.02 L-325.06,-25.87 L-275.93,-39.32 L-278.85,-44.58 L-307.32,-31.72 L-324.08,-74.41 ZM-234.4,30.87 L-237.33,26.77 L-256.63,38.08 L-234.4,30.87 ZM-64.82,-15.34 L-84.32,-22.75 L-59.76,-109.9 L3.22,-106 L-1.66,-95.66 L107.91,-96.83 L107.72,-51.99 L54.49,-52.97 L54.49,-42.24 L101.87,-42.83 L101.87,-1.3 L54.49,-2.86 L54.49,14.29 L112.4,13.12 L112.59,56.6 L54.49,54.65 L55.66,86.24 L2.05,86.24 L4,54.65 L-84.32,55.04 L-84.52,13.9 L-65.02,14.1 L-64.82,-15.34 ZM-22.32,-42.24 L4,-42.24 L4,-52.97 L-17.45,-52.97 L-22.32,-42.24 ZM-14.91,13.9 L4,14.29 L4,-2.86 L-14.72,-2.86 L-14.91,13.9 ZM158.95,-103.27 L156.22,0.84 L161.88,82.14 L215.49,81.95 L206.33,1.43 L210.62,-103.85 L158.95,-103.27 ZM220.95,-54.72 L219.2,-103.85 L344.17,-102.88 L339.49,-37.96 L287.24,-37.76 L290.36,-58.43 L220.95,-54.72 ZM219.59,-2.28 L214.13,48.61 L246.1,79.02 L342.41,78.83 L341.44,29.7 L275.93,33.6 L265.99,26.19 L271.45,0.45 L219.59,-2.28 ZM471.83,24.82 L475.14,87.21 L423.48,87.21 L424.65,40.61 L409.24,61.28 L387.99,8.64 L422.89,-27.23 L389.75,-24.11 L388.77,-76.75 L421.53,-75.58 L419.38,-107.36 L472.41,-107.75 L470.66,-72.66 L517.45,-99.17 L560.34,-82.6 L584.32,-21.77 L575.16,77.07 L495.61,85.46 L487.62,32.82 L529.15,30.87 L533.63,-11.25 L519.2,-41.66 L471.44,-13.58 L471.83,24.82 ZM697.55,16.83 L745.71,24.63 L740.25,42.17 L745.32,46.46 L813.17,41.78 L816.28,86.43 L703.4,86.24 L691.31,62.84 L697.55,16.83 ZM629.32,-40.29 L629.71,-89.42 L658.56,-88.06 L660.9,-110.09 L716.46,-107.75 L712.57,-90.59 L794.06,-98.59 L797.96,-49.46 L702.04,-45.36 L682.93,88.77 L626.59,79.8 L653.3,-42.24 L629.32,-40.29 ZM710.42,-42.83 L815.31,-45.17 L813.17,0.65 L710.81,-0.91 L710.42,-42.83 ZM868.3,-61.94 L865.38,-105.8 L1030.12,-105.61 L1029.14,-60.38 L978.84,-39.9 L1026.41,-37.37 L1043.38,32.23 L1000.87,84.48 L885.26,87.6 L859.92,47.05 L882.14,-2.67 L961.3,1.62 L979.82,26.97 L988.2,20.34 L982.55,0.45 L862.06,-7.74 L861.48,-36.98 L939.46,-64.27 L868.3,-61.94 ZM926.01,38.08 L917.43,37.49 L912.17,46.85 L932.44,45.88 L926.01,38.08 Z" fill="#FFFFFF" />
		</g>
		<g id="グループ 22">
			<g transform="matrix(0.5987473130226135, 0, 0, 0.5987473130226135, 584.8558349609375, -282.68023681640625)">
				<path d="M-183.71,-49.27 L-134.8,-49.27 L-136.52,-56.57 L-183.28,-56.57 L-183.71,-49.27 ZM-186.29,17.02 L-178.14,17.66 L-177.28,2 L-185.43,2 L-186.29,17.02 ZM-141.88,-120.28 L-83.96,-120.28 L-83.96,-103.98 L-79.24,-104.19 L-82.24,-115.99 L-31.61,-120.5 L-32.04,-104.19 L-23.67,-105.05 L-23.46,-55.71 L-83.31,-56.57 L-81.17,-31.9 L-64,-54.85 L-22.81,-19.88 L-56.28,15.52 L-21.96,19.59 L-27.1,95.97 L-113.56,75.37 L-140.38,98.75 L-161.19,68.93 L-185,70.22 L-186.93,46.84 L-188.65,96.61 L-241.64,93.61 L-231.55,-103.12 L-140.81,-103.12 L-141.88,-120.28 ZM-132.87,20.66 L-127.51,14.44 L-132.23,-22.89 L-132.87,20.66 ZM-69.15,30.75 L-63.15,31.82 L-62.29,22.38 L-69.15,30.75 ZM104.36,-83.17 L85.48,-83.17 L85.48,-79.52 L104.36,-79.52 L104.36,-83.17 ZM159.71,-83.17 L159.71,-79.31 L178.59,-79.52 L178.59,-83.17 L159.71,-83.17 ZM85.7,-48.63 L104.58,-48.63 L104.58,-52.49 L85.7,-52.49 L85.7,-48.63 ZM32.06,-16.45 L32.06,-118.78 L232.01,-118.78 L232.01,-16.45 L159.71,-16.45 L159.71,-11.95 L237.8,-12.8 L237.8,30.96 L199.4,30.1 L241.23,43.19 L221.71,92.1 L159.71,57.78 L160.57,95.75 L103.29,95.75 L104.36,57.78 L42.36,91.89 L22.62,41.9 L63.17,29.89 L26.27,30.96 L26.49,-12.8 L104.36,-12.16 L104.36,-16.66 L32.06,-16.45 ZM178.59,-48.63 L178.59,-52.49 L159.71,-52.49 L159.71,-48.63 L178.59,-48.63 Z" fill="#FFFFFF" />
			</g>
			<g transform="matrix(0.5987473130226135, 0, 0, 0.5987473130226135, -58.357086181640625, -263.1502685546875)">
				<path d="M21.72,-43.89 L9.25,66.95 L-37.97,68.26 L-83.23,43.34 L-74.04,-76.03 L-6.49,-89.15 L65.66,-78 L83.37,-14.38 L71.56,55.8 L24.34,69.58 L14.5,23.66 L33.52,20.39 L41.39,-12.41 L32.87,-41.27 L21.72,-43.89 ZM-28.13,28.26 L-20.26,-44.55 L-34.03,-41.27 L-39.28,21.7 L-28.13,28.26 Z" fill="#FFFFFF" />
			</g>
			<g transform="matrix(0.5987473130226135, 0, 0, 0.5987473130226135, 151.66940307617188, -282.68023681640625)">
				<path d="M-174.66,-9.37 L-187.97,-2.08 L-166.3,-2.08 L-166.51,-4.01 L-174.66,-9.37 ZM-179.81,-64.51 L-176.81,-70.08 L-183.25,-70.08 L-184.32,-67.51 L-179.81,-64.51 ZM-84.13,-14.09 L-107.52,-1.65 L-62.68,-1.43 L-84.13,-14.09 ZM-122.32,-51.42 L-130.47,-62.58 L-114.38,-75.45 L-126.82,-75.45 L-137.55,-48.85 L-131.33,-45.41 L-122.32,-51.42 ZM-80.48,-68.37 L-75.98,-75.23 L-83.49,-75.23 L-80.48,-68.37 ZM-216.07,-121.36 L-159.22,-119.21 L-162.86,-111.92 L-132.4,-111.92 L-132.4,-119.43 L-25.13,-119 L-25.35,-68.8 L-41.44,-46.7 L-22.13,-41.12 L-31.78,15.94 L-37.36,12.51 L-39.51,96.18 L-125.75,92.96 L-118.03,49.2 L-91.43,51.34 L-91.21,42.76 L-119.53,42.55 L-179.6,96.39 L-238.17,67.86 L-191.61,42.55 L-234.52,42.33 L-234.3,7.58 L-241.17,-22.89 L-213.28,-30.4 L-241.17,-61.29 L-234.52,-70.3 L-240.74,-69.44 L-240.53,-113.21 L-219.93,-112.35 L-216.07,-121.36 ZM-144.2,-11.09 L-122.96,-11.09 L-131.97,-32.54 L-144.2,-11.09 ZM-206.42,-32.75 L-209.63,-35.33 L-212.42,-30.61 L-206.42,-32.75 ZM81.45,-40.05 L27.17,-39.19 L27.17,-91.54 L84.02,-90.68 L82.95,-120.28 L143.45,-120.28 L142.8,-90.68 L239.13,-91.54 L235.91,95.97 L133.15,92.75 L138.94,38.26 L183.13,39.76 L184.42,-39.19 L135.29,-40.05 L90.67,98.75 L23.09,70.22 L81.45,-40.05 Z" fill="#FFFFFF" />
			</g>
			<g transform="matrix(0.5987473130226135, 0, 0, 0.5987473130226135, 369.0216979980469, -263.1502685546875)">
				<path d="M21.65,-43.89 L9.19,66.95 L-38.04,68.26 L-83.29,43.34 L-74.11,-76.03 L-6.55,-89.15 L65.59,-78 L83.3,-14.38 L71.5,55.8 L24.27,69.58 L14.43,23.66 L33.45,20.39 L41.33,-12.41 L32.8,-41.27 L21.65,-43.89 ZM-28.2,28.26 L-20.33,-44.55 L-34.1,-41.27 L-39.35,21.7 L-28.2,28.26 Z" fill="#FFFFFF" />
			</g>
			<g transform="matrix(0.5987473130226135, 0, 0, 0.5987473130226135, -433.7970275878906, -282.68023681640625)">
				<path d="M-347.79,-42.84 L-347.79,-50.78 L-441.33,-50.78 L-441.33,-42.84 L-347.79,-42.84 ZM-441.33,-3.15 L-441.33,5.65 L-347.79,5.65 L-347.79,-3.15 L-441.33,-3.15 ZM-441.33,45.34 L-441.33,53.27 L-347.79,53.27 L-347.79,45.34 L-441.33,45.34 ZM-495.82,96.18 L-495.82,-94.54 L-431.24,-94.54 L-425.67,-120.5 L-365.81,-115.35 L-373.1,-94.54 L-293.3,-94.54 L-293.3,96.18 L-495.82,96.18 ZM-105.2,-34.04 L-105.2,-13.02 L-86.1,-13.02 L-86.1,-34.04 L-105.2,-34.04 ZM-158.4,-34.04 L-177.49,-34.04 L-177.49,-13.02 L-158.4,-13.02 L-158.4,-34.04 ZM-177.49,29.89 L-177.49,50.7 L-158.4,50.7 L-158.4,29.89 L-177.49,29.89 ZM-105.2,50.7 L-86.1,50.7 L-86.1,29.89 L-105.2,29.89 L-105.2,50.7 ZM-231.98,95.32 L-231.98,-79.09 L-158.4,-79.09 L-159.26,-119.86 L-104.34,-119.86 L-105.2,-79.09 L-31.61,-79.09 L-31.61,95.32 L-231.98,95.32 ZM112.94,-76.73 L112.94,-80.17 L100.71,-79.31 L102.65,-73.73 L106.08,-78.02 L112.94,-76.73 ZM171.08,-70.08 L172.8,-77.16 L176.02,-76.52 L176.02,-80.38 L165.5,-80.38 L166.36,-74.59 L154.99,-74.59 L150.7,-70.08 L171.08,-70.08 ZM162.5,-45.63 L162.5,-48.42 L154.78,-48.42 L154.78,-45.63 L162.5,-45.63 ZM162.5,-26.75 L162.29,-29.75 L154.78,-29.75 L154.78,-26.75 L162.5,-26.75 ZM162.29,-11.09 L154.56,-11.09 L154.78,-8.08 L162.29,-8.08 L162.29,-11.09 ZM167.22,49.41 L175.8,44.26 L162.29,44.26 L167.22,49.41 ZM98.57,44.26 L98.57,15.94 L236.73,15.73 L236.73,45.98 L223.64,56.06 L241.02,58.21 L236.51,96.61 L166.15,85.45 L98.35,96.61 L89.99,77.52 L87.84,96.18 L23.7,92.96 L29.06,39.97 L41.29,41.9 L42.58,29.89 L31.21,36.11 L22.84,-16.66 L39.36,-25.46 L37.64,-36.19 L27.77,-28.68 L22.62,-85.53 L30.13,-88.1 L22.41,-106.34 L73.25,-122 L75.83,-111.06 L91.06,-120.93 L92.78,-114.49 L112.94,-113.85 L112.08,-121.57 L166.36,-120.71 L165.5,-113.85 L176.02,-113.85 L175.16,-120.71 L229.43,-121.36 L228.58,-113.85 L239.3,-114.71 L239.3,-79.52 L228.36,-80.38 L229.43,-74.59 L219.99,-74.59 L218.06,-69.87 L238.44,-70.94 L238.44,-47.56 L214.42,-48.2 L214.42,-45.41 L235.01,-46.49 L235.01,-28.89 L214.42,-29.75 L214.42,-26.75 L235.01,-27.61 L235.01,-10.23 L214.42,-11.09 L214.42,-8.08 L238.44,-8.73 L238.44,13.16 L102,13.16 L102,-17.09 L92.56,-21.17 L94.28,17.87 L91.27,57.99 L110.15,55.63 L101.79,47.91 L116.16,44.26 L98.57,44.26 ZM89.56,-65.15 L90.85,-59.57 L98.78,-69.01 L89.56,-65.15 ZM416.46,-62.36 L416.46,-58.07 L443.93,-58.07 L443.93,-62.36 L416.46,-62.36 ZM416.46,-83.81 L443.93,-83.81 L443.93,-88.1 L416.46,-88.1 L416.46,-83.81 ZM417.97,48.34 L420.33,52.41 L433.63,53.92 L433.63,48.77 L417.97,48.34 ZM433.63,8.65 L357.68,9.51 L357.68,-8.51 L351.03,5 L352.1,95.75 L297.4,95.75 L298.26,63.36 L290.75,76.23 L286.03,4.36 L335.16,-62.58 L360.69,-48.85 L360.69,-99.26 L309.84,-33.83 L286.03,-65.36 L309.84,-120.93 L360.69,-101.83 L360.69,-118.35 L499.92,-118.35 L499.92,-29.11 L371.41,-29.11 L369.27,-26.1 L502.06,-26.1 L502.06,9.29 L487.9,8.65 L487.9,12.51 L503.35,11.65 L503.14,48.77 L487.9,47.91 L487.9,95.75 L414.75,94.68 L413.46,73.87 L398.44,88.46 L365.41,56.28 L376.78,47.91 L357.68,48.77 L357.68,11.65 L433.63,12.51 L433.63,8.65 Z" fill="#FFFFFF" />
			</g>
		</g>
		<g transform="matrix(0.5987473130226135, 0, 0, 0.5987473130226135, -0.6861495971679688, -116.51911926269531)">
			<path d="M-238.18,-12.29 Q-242.34,-13.37 -245.74,-17.23 Q-248.98,-22.17 -247.74,-28.95 Q-246.82,-33.27 -242.81,-36.05 Q-237.71,-40.06 -229.85,-36.51 Q-233.55,-26.33 -224.75,-17.85 Q-230.93,-10.6 -238.18,-12.29 ZM-217.66,-19.08 Q-221.51,-20.01 -224.29,-24.02 Q-230.62,-33.27 -222.29,-41.76 Q-213.49,-47.78 -204.54,-39.75 Q-201.3,-35.43 -202.08,-29.11 Q-203.16,-24.33 -207.17,-21.09 Q-211.64,-17.85 -217.66,-19.08 ZM-344.78,-37.29 L-347.25,-78.63 L-203.46,-82.33 L-202.69,-45.31 L-205.47,-43.92 Q-211.33,-48.86 -217.97,-47.47 Q-225.22,-45.62 -227.84,-39.45 Q-240.34,-44.23 -248.2,-36.36 Q-254.99,-27.26 -249.59,-15.53 L-276.75,2.52 L-275.67,11.31 L-206.7,28.59 L-220.13,69.17 L-314.39,42.78 L-321.64,-13.53 L-276.75,-42.69 L-344.78,-37.29 ZM-22.37,-78.17 L-22.37,-41.45 L-88.56,-42.69 L-88.56,-39.29 L-56.78,-39.45 L-27.16,-27.72 L-17.9,17.95 L-25.31,68.55 L-70.35,58.67 L-54.31,16.71 L-54.93,14.24 L-87.02,59.29 L-155.21,61.76 L-167.86,-22.17 L-127.28,-35.59 L-127.28,-42.69 L-165.85,-41.45 L-165.85,-78.17 L-127.28,-76.93 L-127.9,-86.5 L-87.94,-86.5 L-88.56,-76.93 L-22.37,-78.17 ZM-83.93,-4.89 L-88.56,-5.04 L-88.56,9.92 L-83.93,-4.89 ZM-125.43,0.36 L-130.21,2.52 L-125.28,30.29 L-125.43,0.36 ZM15.08,-64.28 L140.82,-74 L167.97,-31.73 L157.33,45.72 L68,60.68 L61.37,17.95 L118.3,11.77 L124.31,-16.46 L114.9,-32.81 L19.4,-19.7 L15.08,-64.28 ZM203.58,-37.29 L201.11,-78.63 L344.9,-82.33 L345.67,-46.54 L271.62,2.52 L272.7,11.31 L341.66,28.59 L328.24,69.17 L233.97,42.78 L226.72,-13.53 L271.62,-42.69 L203.58,-37.29 Z" fill="#FFFFFF" />
		</g>
	</g>
	<g id="グループ 12" transform="matrix(0.5144555568695068, 0, 0, 0.5144555568695068, 1188.3314208984375, 593.8509521484375)">
		<g transform="matrix(0.5987473130226135, 0, 0, 0.5987473130226135, -686.1544189453125, 169.50003051757812)">
			<path d="M-89.72,-40.28 L-89.72,-62.75 L-59.87,-62.75 L-59.87,-64.88 L-92.34,-64.88 L-92.34,-40.28 L-89.72,-40.28 ZM-63.32,-40.28 L-59.87,-40.28 L-59.87,-42.74 L-63.32,-42.74 L-63.32,-40.28 ZM-77.42,12.84 L-73.81,12.84 L-73.81,9.23 L-77.42,9.23 L-77.42,12.84 ZM-129.23,-52.91 L-152.51,-34.22 L-184.49,-65.7 L-149.73,-92.59 L-129.23,-52.91 ZM-183.18,-34.54 L-136.94,-33.23 L-137.1,35.47 L-134.15,36.12 L-134.15,-40.45 L-128.41,-40.28 L-128.41,-90.95 L-22.82,-90.95 L-22.98,-40.28 L-18.23,-40.28 L-18.06,37.44 L-62.83,36.62 L-63.15,35.14 L-99.06,34.98 L-99.06,-12.24 L-53.97,-12.24 L-53.97,5.96 L-51.68,5.96 L-51.68,-14.38 L-101.36,-14.38 L-101.36,37.11 L-17.08,38.26 L-18.06,73.51 L-166.78,69.57 L-179.73,74.33 L-184.16,31.53 L-175.8,29.89 L-175.8,5.79 L-183.18,6.45 L-183.18,-34.54 ZM160.13,2.68 L178.83,61.87 L136.2,71.71 L134.39,63.67 L28.31,71.38 L26.67,31.7 L45.03,31.37 L59.62,1.36 L19.29,2.02 L19.29,-35.69 L77.99,-35.04 L77.99,-44.22 L31.09,-43.56 L31.09,-80.62 L77.33,-79.96 L76.68,-91.77 L124.23,-91.77 L123.57,-79.96 L169.81,-80.62 L169.81,-43.56 L122.91,-44.22 L122.91,-35.04 L182.27,-35.69 L182.27,2.02 L104.88,1.53 L91.92,30.06 L127.01,27.76 L123.24,12.68 L160.13,2.68 Z" fill="#FFFFFF" />
		</g>
		<g transform="matrix(0.5987473130226135, 0, 0, 0.5987473130226135, 529.7572021484375, 169.50003051757812)">
			<path d="M-83.21,3.33 L-33.36,-81.27 L7.3,-76.03 L83.38,20.38 L51.24,55.14 L-12.38,-31.43 L-45.17,28.25 L-83.21,3.33 Z" fill="#FFFFFF" />
		</g>
		<g transform="matrix(0.5987473130226135, 0, 0, 0.5987473130226135, 398.0682373046875, 149.97003173828125)">
			<path d="M-36.04,57.35 L-107.05,74.51 L-109.84,21.31 L-99.75,18.95 L-99.75,-28.68 L-109.62,-27.82 L-109.62,-75.87 L-99.75,-75.02 L-100.61,-114.7 L-46.55,-114.7 L-47.41,-75.02 L-36.9,-75.87 L-36.9,-27.82 L-47.41,-28.68 L-47.41,7.36 L-38.61,5 L-36.04,57.35 ZM106.83,-69.01 L96.97,-69.87 L96.97,-25.89 L108.98,-26.75 L108.98,16.8 L87.96,16.16 L87.96,22.59 L90.32,22.59 L91.17,17.66 L107.05,20.02 L101.9,52.2 L53.85,52.2 L53.85,16.16 L51.49,16.16 L49.56,54.77 L102.76,54.77 L102.76,96.18 L-30.46,96.18 L-30.46,16.16 L-37.76,17.02 L-37.76,-26.75 L-25.53,-25.89 L-25.53,-69.87 L-35.4,-69.01 L-35.4,-112.13 L-25.53,-111.27 L-26.39,-121.14 L28.53,-120.28 L27.67,-111.27 L43.76,-111.27 L42.91,-120.28 L97.82,-121.14 L96.97,-111.27 L106.83,-112.13 L106.83,-69.01 ZM15.66,35.04 L19.09,16.16 L15.66,16.16 L15.66,35.04 ZM34.32,54.77 L15.66,50.7 L15.66,54.77 L34.32,54.77 ZM27.67,-28.46 L27.67,-25.03 L43.76,-25.03 L43.76,-28.46 L27.67,-28.46 ZM27.67,-51.2 L27.67,-47.13 L43.76,-47.13 L43.76,-51.2 L27.67,-51.2 ZM27.67,-69.65 L43.76,-69.65 L43.76,-73.3 L27.67,-73.3 L27.67,-69.65 Z" fill="#FFFFFF" />
		</g>
		<g transform="matrix(0.5987473130226135, 0, 0, 0.5987473130226135, 261.0669860839844, 167.50003051757812)">
			<path d="M-76.65,-86.85 L-78.95,0.71 L-74.19,69.08 L-29.1,68.92 L-36.81,1.2 L-33.2,-87.34 L-76.65,-86.85 ZM-24.51,-46.02 L-25.99,-87.34 L79.12,-86.52 L75.18,-31.92 L31.24,-31.76 L33.86,-49.14 L-24.51,-46.02 ZM-25.66,-1.92 L-30.25,40.88 L-3.36,66.46 L77.64,66.29 L76.82,24.98 L21.73,28.25 L13.37,22.02 L17.96,0.38 L-25.66,-1.92 Z" fill="#FFFFFF" />
		</g>
		<g transform="matrix(0.5987473130226135, 0, 0, 0.5987473130226135, 37.703277587890625, 149.97003173828125)">
			<path d="M-97.88,39.54 L-103.46,-4.22 L-108.82,-4.22 L-108.82,41.9 L-97.88,39.54 ZM-237.54,96.39 L-237.54,19.81 L-164.6,19.81 L-164.6,96.39 L-237.54,96.39 ZM-202.57,61.85 L-198.71,61.85 L-198.71,52.84 L-202.57,52.84 L-202.57,61.85 ZM-54.33,29.24 L-52.4,4.14 L-22.37,21.31 L-34.81,96.18 L-89.73,96.18 L-93.38,82.66 L-158.16,96.82 L-161.38,50.27 L-151.3,48.55 L-151.3,-4.22 L-160.31,-4.22 L-160.31,-44.55 L-108.61,-44.55 L-109.25,-51.63 L-160.31,-50.77 L-160.31,-96.47 L-111.83,-95.61 L-114.4,-121.14 L-61.84,-121.35 L-61.63,-95.82 L-58.62,-95.61 L-59.7,-119.85 L-24.3,-118.56 L-27.3,-95.61 L-24.09,-96.47 L-24.09,-50.77 L-61.2,-51.85 L-54.33,29.24 ZM-237.54,-87.24 L-237.54,-118.78 L-166.1,-118.78 L-166.1,-87.24 L-237.54,-87.24 ZM-240.76,-46.91 L-240.76,-84.45 L-162.03,-84.45 L-162.03,-46.91 L-240.76,-46.91 ZM-235.39,-14.52 L-235.39,-44.12 L-165.67,-44.34 L-165.67,-14.52 L-235.39,-14.52 ZM-235.39,17.87 L-235.39,-12.37 L-165.67,-12.37 L-165.67,17.87 L-235.39,17.87 ZM66.83,-73.73 L76.7,-73.73 L71.98,-77.59 L66.83,-73.73 ZM111.02,-66.43 L145.78,-66.43 L145.78,-72.01 L115.1,-71.15 L111.02,-66.43 ZM149.85,-29.54 L153.5,-29.54 L153.5,-32.97 L149.85,-32.97 L149.85,-29.54 ZM149.85,-3.79 L153.5,-3.79 L153.5,-7.23 L149.85,-7.23 L149.85,-3.79 ZM195.55,-7.23 L192.11,-7.23 L192.11,-3.79 L195.55,-3.79 L195.55,-7.23 ZM195.55,-29.54 L195.55,-32.97 L192.11,-32.97 L192.11,-29.54 L195.55,-29.54 ZM145.78,71.29 L110.81,91.67 L109.74,86.95 L25.21,95.53 L22.42,47.48 L41.73,45.98 L41.73,11.01 L25.64,11.87 L25.64,-29.54 L41.73,-28.68 L41.73,-32.54 L31,-32.54 L31,-48.41 L23.93,-41.98 L22.21,-103.76 L71.98,-121.78 L105.23,-111.49 L105.23,-115.78 L145.78,-114.92 L144.92,-121.78 L200.7,-121.78 L199.84,-114.92 L241.24,-115.78 L241.24,-71.15 L199.84,-72.01 L199.84,-66.43 L238.02,-66.43 L238.02,27.31 L201.77,27.31 L241.46,38.04 L229.87,91.67 L199.84,70.43 L200.7,96.18 L144.92,96.18 L145.78,71.29 ZM144.7,27.31 L109.95,27.31 L109.95,-64.5 L105.87,-54.85 L105.87,-32.54 L94.08,-32.54 L94.08,-28.68 L106.95,-29.54 L106.95,11.87 L94.08,11.01 L94.08,43.19 L102.87,42.33 L102.44,41.04 L96.22,41.04 L96.22,13.37 L107.59,13.8 L105.66,34.82 L144.7,27.31 ZM23.5,15.73 L39.16,13.8 L39.37,43.62 L27.14,45.12 L23.5,15.73 Z" fill="#FFFFFF" />
		</g>
		<g transform="matrix(0.5987473130226135, 0, 0, 0.5987473130226135, -184.69927978515625, 169.50003051757812)">
			<path d="M21.73,-43.89 L9.27,66.95 L-37.96,68.26 L-83.21,43.34 L-74.03,-76.03 L-6.47,-89.14 L65.67,-78 L83.38,-14.38 L71.57,55.8 L24.35,69.57 L14.51,23.66 L33.53,20.38 L41.4,-12.41 L32.88,-41.27 L21.73,-43.89 ZM-28.12,28.25 L-20.25,-44.55 L-34.02,-41.27 L-39.27,21.7 L-28.12,28.25 Z" fill="#FFFFFF" />
		</g>
		<g transform="matrix(0.5987473130226135, 0, 0, 0.5987473130226135, -412.1871032714844, 149.97003173828125)">
			<path d="M-178.51,-49.49 L-179.58,-52.92 L-182.8,-49.06 L-178.51,-49.49 ZM-99.99,-52.06 L-96.77,-56.57 L-101.49,-60 L-99.99,-52.06 ZM-48.93,-52.28 L-49.79,-55.92 L-52.15,-51.85 L-48.93,-52.28 ZM-93.98,-9.59 L-88.83,-9.8 L-90.76,-14.73 L-95.7,-14.09 L-93.98,-9.59 ZM-143.54,45.33 L-135.39,38.9 L-139.03,28.6 L-166.06,28.6 L-167.56,33.53 L-141.61,36.11 L-143.54,45.33 ZM-54.08,48.12 L-54.29,33.53 L-22.12,36.11 L-27.48,97.68 L-109.86,79.44 L-130.88,98.54 L-151.05,81.16 L-177,70.43 L-185.37,97.89 L-240.29,73.44 L-213.9,29.03 L-240.07,29.89 L-240.07,-10.23 L-148.26,-9.59 L-152.33,-42.62 L-150.62,-14.52 L-177.86,-10.66 L-178.29,-15.59 L-237.5,-11.09 L-239.86,-46.48 L-231.49,-47.13 L-229.13,-53.13 L-240.5,-62.14 L-232.35,-118.56 L-227.85,-112.99 L-226.13,-121.35 L-182.58,-114.06 L-200.6,-82.74 L-199.53,-81.02 L-185.16,-106.98 L-158.34,-95.82 L-161.34,-119.64 L-104.28,-120.5 L-103.64,-105.91 L-99.77,-116.85 L-95.7,-112.34 L-92.91,-121.78 L-57.51,-113.63 L-70.38,-90.03 L-68.24,-87.67 L-58.58,-109.55 L-22.33,-91.96 L-43.78,-62.57 L-24.05,-66.43 L-23.19,-14.95 L-46.36,-11.73 L-47.86,-17.95 L-51.72,-17.31 L-48.93,-9.59 L-23.4,-10.66 L-23.19,29.67 L-68.88,28.6 L-55.37,39.11 L-64.81,46.19 L-54.08,48.12 ZM-156.19,-75.44 L-169.07,-61.93 L-154.69,-62.79 L-156.19,-75.44 ZM166.63,18.09 L187.43,11.01 L187.22,5.86 L167.27,5.86 L159.97,10.15 L166.63,18.09 ZM123.72,-63.65 L150.32,-73.73 L126.94,-75.23 L117.5,-70.51 L123.72,-63.65 ZM23.54,-81.88 L102.48,-121.35 L215.11,-117.49 L213.18,-50.99 L186.79,-41.34 L240.85,-40.69 L241.07,47.05 L75.24,100.25 L59.58,52.41 L85.1,45.33 L59.36,12.08 L103.98,-10.44 L39.2,18.73 L22.46,-28.46 L76.52,-43.27 L73.31,-49.06 L41.99,-34.9 L23.54,-81.88 ZM122.22,33.96 L119,29.46 L97.76,41.9 L122.22,33.96 Z" fill="#FFFFFF" />
		</g>
	</g>
	<g id="グループ 42" transform="matrix(0.43597912788391113, 0, 0, 0.43597912788391113, 1132.82861328125, 612.6432495117188)">
		<g transform="matrix(0.7065218091011047, 0, 0, 0.7065218091011047, -0.6861752271652222, 475.8059387207031)">
			<path d="M-941.41,8.25 L-880.2,8.25 L-880.2,5.52 L-941.41,5.52 L-941.41,8.25 ZM-907.1,43.54 L-899.5,38.47 L-913.53,38.47 L-907.1,43.54 ZM-961.49,50.56 L-971.05,46.07 L-953.5,38.47 L-974.36,38.47 L-974.36,24.04 L-979.24,24.04 L-978.46,51.92 L-961.49,50.56 ZM-839.64,-24.5 L-966.56,-24.5 L-966.56,-51.8 L-889.55,-51.8 L-889.55,-53.94 L-963.05,-53.16 L-963.05,-78.9 L-889.55,-78.12 L-889.55,-79.87 L-965,-79.87 L-965,-107.95 L-839.64,-107.95 L-839.64,-24.5 ZM-833.79,52.12 L-843.93,87.02 L-906.9,76.29 L-970.66,87.02 L-978.46,63.42 L-977.68,87.02 L-1027.39,87.02 L-1026.61,36.13 L-1030.51,49.19 L-1033.04,-27.23 L-1022.13,-110.68 L-966.56,-104.05 L-980.02,-51.02 L-979.24,-23.14 L-833.99,-23.14 L-833.99,24.04 L-841.2,24.04 L-841.2,38.47 L-857.77,49.39 L-833.79,52.12 ZM-691.71,38.27 L-756.43,39.44 L-766.38,-4.81 L-750,-50.63 L-695.22,-49.07 L-695.61,-53.94 L-788.99,-51.6 L-789.58,-97.22 L-696.19,-96.64 L-698.14,-108.34 L-638.87,-109.12 L-639.46,-97.42 L-598.32,-98.98 L-597.54,-54.14 L-640.24,-54.72 L-643.55,-39.12 L-632.05,12.73 L-648.81,75.9 L-741.62,88.18 L-748.25,42.95 L-693.07,41.59 L-691.71,38.27 ZM-711.79,1.23 L-691.51,1.82 L-693.27,-7.54 L-711.2,-8.13 L-713.54,-3.45 L-711.79,1.23 ZM-541.24,-51.41 L-542.99,-101.12 L-374.54,-102.88 L-379.22,-33.28 L-436.93,-31.52 L-432.25,-53.16 L-541.24,-51.41 ZM-543.57,-1.5 L-550.79,52.51 L-518.81,81.75 L-373.76,79.02 L-379.61,22.09 L-484.7,34.38 L-493.66,30.67 L-487.43,3.77 L-543.57,-1.5 ZM-182.93,-109.51 L-145.89,-64.47 L-266.38,14.68 L-264.43,35.94 L-146.09,27.36 L-144.72,82.14 L-313.17,81.36 L-320.58,-7.93 L-289.97,-29.96 L-330.33,-82.02 L-279.83,-110.68 L-249.22,-56.28 L-182.93,-109.51 ZM21.93,-52.19 L7.11,79.61 L-49.04,81.17 L-102.84,51.53 L-91.93,-90.4 L-11.6,-106 L74.18,-92.74 L95.24,-17.09 L81.2,66.35 L25.05,82.73 L13.35,28.14 L35.97,24.24 L45.33,-14.75 L35.19,-49.07 L21.93,-52.19 ZM-37.34,33.6 L-27.98,-52.97 L-44.36,-49.07 L-50.59,25.8 L-37.34,33.6 ZM274.95,-15.53 Q269.69,-16.9 265.4,-21.77 Q261.3,-28.01 262.86,-36.59 Q264.03,-42.05 269.1,-45.56 Q275.54,-50.63 285.48,-46.14 Q280.8,-33.28 291.91,-22.55 Q284.11,-13.39 274.95,-15.53 ZM300.88,-24.11 Q296.01,-25.28 292.5,-30.35 Q284.51,-42.05 295.03,-52.77 Q306.15,-60.38 317.45,-50.24 Q321.55,-44.78 320.57,-36.79 Q319.21,-30.74 314.14,-26.65 Q308.49,-22.55 300.88,-24.11 ZM140.23,-47.12 L137.11,-99.37 L318.82,-104.05 L319.79,-57.26 L316.28,-55.5 Q308.88,-61.74 300.49,-59.99 Q291.33,-57.65 288.01,-49.85 Q272.22,-55.89 262.28,-45.95 Q253.7,-34.45 260.52,-19.63 L226.21,3.18 L227.58,14.29 L314.72,36.13 L297.76,87.41 L178.64,54.07 L169.48,-17.09 L226.21,-53.94 L140.23,-47.12 ZM368.69,4.16 L368.1,-41.85 L441.8,-40.88 L441.22,-50.24 L370.83,-47.51 L370.25,-94.1 L436.93,-92.74 L434.59,-106 L490.74,-108.34 L490.74,-94.69 L542.98,-98.59 L543.76,-53.36 L492.49,-52.38 L494.44,-42.83 L549.03,-46.34 L550.78,-1.11 L501.85,-1.5 L512.18,21.12 L452.91,32.62 L447.65,0.45 L368.69,4.16 ZM430.1,16.05 L423.08,37.88 L431.27,43.15 L546.3,32.43 L550.39,83.31 L401.44,87.02 L367.32,60.11 L375.51,6.5 L430.1,16.05 ZM770.86,-32.3 L698.72,-73.83 L720.95,-110.29 L793.47,-81.24 L770.86,-32.3 ZM758.18,-3.64 L793.08,25.02 L763.84,66.93 L751.75,49.78 L745.9,84.09 L663.82,83.51 L643.55,36.13 L660.7,-20.02 L709.05,-24.31 L708.08,-40.29 L761.3,-36.59 L758.18,-3.64 ZM597.54,-39.51 L596.17,-85.53 L624.24,-84.94 L625.22,-109.31 L676.49,-107.75 L672.79,-88.06 L697.55,-90.59 L698.92,-45.36 L666.16,-43.41 L636.92,46.27 L594.81,13.51 L619.18,-41.85 L597.54,-39.51 ZM710.42,18.97 L693.26,20.14 L690.34,32.82 L693.46,41.98 L709.25,42.37 L710.42,18.97 ZM836.71,-99.76 L835.15,-20.99 L850.75,75.71 L950.57,58.55 L934.97,5.52 L893.64,21.9 L887.4,-25.67 L896.76,-95.08 L836.71,-99.76 ZM941.21,-73.24 L973.97,-26.45 L976.31,51.53 L1032.46,40.61 L1025.44,-41.27 L992.68,-102.1 L941.21,-73.24 Z" fill="#FFFFFF" />
		</g>
		<g transform="matrix(0.6885594129562378, 0, 0, 0.6885594129562378, -0.6646094918251038, 875.67626953125)">
			<path d="M-1131.16,-92.1 L-1100.01,-54.22 L-1201.34,12.35 L-1199.7,30.22 L-1100.17,23.01 L-1099.02,69.08 L-1240.69,68.43 L-1246.92,-6.67 L-1221.18,-25.2 L-1255.12,-68.98 L-1212.65,-93.08 L-1186.91,-47.33 L-1131.16,-92.1 ZM-1061.83,-87.51 L-1011.82,-89.64 L-1012.48,15.63 L-999.04,26.94 L-965.59,26.61 L-952.47,-11.26 L-906.23,5.14 L-931.48,67.77 L-1024.61,71.71 L-1056.59,44.65 L-1061.83,-87.51 ZM-866.58,-39.63 L-869.21,-83.57 L-716.39,-87.51 L-715.57,-49.47 L-794.28,2.68 L-793.13,12.02 L-719.83,30.39 L-734.1,73.51 L-834.28,45.47 L-841.99,-14.38 L-794.28,-45.37 L-866.58,-39.63 ZM-632.47,-40.94 L-631.98,73.18 L-673.14,73.18 L-672.32,28.25 L-676.25,50.23 L-679.2,-17.98 L-664.94,-92.59 L-620.01,-88.16 L-626.24,-65.37 L-512.62,-65.21 L-512.62,-37.17 L-630.67,-37.17 L-630.67,-51.76 L-632.47,-40.94 ZM-624.77,73.18 L-624.77,11.04 L-519.99,11.04 L-519.99,73.18 L-624.77,73.18 ZM-616.73,-66.85 L-616.73,-90.95 L-521.96,-90.95 L-521.96,-66.85 L-616.73,-66.85 ZM-621,-13.72 L-621,-35.86 L-523.44,-35.86 L-523.44,-13.72 L-621,-13.72 ZM-621,9.89 L-621,-12.41 L-523.44,-12.41 L-523.44,9.89 L-621,9.89 ZM-560.99,44.32 L-560.99,39.73 L-583.45,39.73 L-583.45,44.32 L-560.99,44.32 ZM-474.28,73.51 L-474.28,12.84 L-409.68,12.84 L-409.68,73.51 L-474.28,73.51 ZM-444.77,45.47 L-438.37,45.47 L-438.37,40.55 L-444.77,40.55 L-444.77,45.47 ZM-474.28,-68.16 L-474.28,-90.95 L-410.5,-90.95 L-410.5,-68.16 L-474.28,-68.16 ZM-477.23,-36.68 L-477.23,-66.35 L-407.87,-66.35 L-407.87,-36.68 L-477.23,-36.68 ZM-472.31,-12.9 L-472.31,-35.04 L-410.5,-35.04 L-410.5,-12.9 L-472.31,-12.9 ZM-472.31,10.87 L-472.31,-11.1 L-410.5,-11.1 L-410.5,10.87 L-472.31,10.87 ZM-345.57,22.02 L-309.82,24.48 L-313.1,73.51 L-392.95,73.51 L-392.95,10.71 L-406.23,12.84 L-407.05,-26.02 L-392.95,-26.67 L-392.95,-49.79 L-404.76,-48.65 L-406.56,-85.21 L-316.71,-93.08 L-312.28,-54.71 L-350.98,-52.25 L-350.98,-29.46 L-310.97,-34.22 L-310.15,6.12 L-350.98,7.59 L-350.98,37.44 L-345.9,37.44 L-345.57,22.02 ZM-170.32,-65.7 L-119,-70.12 L-116.87,-28.81 L-162.12,-28.64 L-149.66,5.46 L-200.16,16.29 L-209.51,-26.18 L-272.8,-22.9 L-274.77,-64.39 L-221.64,-64.06 L-229.02,-84.72 L-175.08,-92.26 L-170.32,-65.7 ZM-220.33,0.54 L-229.19,26.94 L-222.95,33.83 L-123.92,21.37 L-118.67,65.64 L-250.17,72.03 L-274.11,32.85 L-262.63,-9.29 L-220.33,0.54 ZM-13.93,20.06 L-13.28,73.18 L-58.04,73.02 L-55.41,37.93 L-60.83,47.77 L-81.32,10.05 L-52.96,-29.13 L-79.85,-27.82 L-79.52,-68.49 L-55.25,-67.01 L-56.73,-91.28 L-10.16,-91.28 L-12.13,-57.99 L32.47,-85.7 L62.15,-70.12 L77.56,-45.04 L59.69,34.65 L81,29.73 L84.94,71.05 L28.04,72.69 L14.6,31.7 L30.67,-24.87 L27.55,-30.77 L-13.6,-2.24 L-13.93,20.06 ZM179.51,14.15 L220.01,20.71 L215.42,35.47 L219.69,39.08 L276.75,35.14 L279.37,72.69 L184.43,72.53 L174.27,52.85 L179.51,14.15 ZM122.13,-33.89 L122.45,-75.21 L146.72,-74.06 L148.69,-92.59 L195.42,-90.62 L192.14,-76.19 L260.68,-82.91 L263.96,-41.59 L183.29,-38.15 L167.22,74.66 L119.83,67.11 L142.29,-35.53 L122.13,-33.89 ZM190.34,-36.02 L278.55,-37.99 L276.75,0.54 L190.66,-0.77 L190.34,-36.02 ZM340.99,-91.93 L388.87,-91.77 L387.39,-76.52 L449.04,-78.32 L449.21,-38.32 L385.42,-38.97 L385.09,-28.48 L444.61,-30.28 L445.11,-6.34 L465.77,-12.41 L476.59,46.78 L461.01,69.9 L356.4,74 L336.89,49.24 L338.36,7.92 L315.41,9.07 L316.72,-29.63 L340.33,-28.97 L340.82,-40.12 L314.43,-39.46 L315.9,-77.5 L341.48,-76.19 L340.99,-91.93 ZM382.96,6.28 L381.82,29.57 L385.26,34.49 L426.41,32.19 L430.84,23.34 L426.74,6.78 L382.96,6.28 ZM616.91,-43.89 L604.45,66.95 L557.23,68.26 L511.97,43.34 L521.15,-76.03 L588.71,-89.14 L660.85,-78 L678.56,-14.38 L666.75,55.8 L619.53,69.57 L609.69,23.66 L628.71,20.38 L636.58,-12.41 L628.06,-41.27 L616.91,-43.89 ZM567.06,28.25 L574.93,-44.55 L561.16,-41.27 L555.91,21.7 L567.06,28.25 ZM829.7,-13.06 Q825.28,-14.21 821.67,-18.31 Q818.23,-23.56 819.54,-30.77 Q820.52,-35.36 824.78,-38.32 Q830.2,-42.58 838.56,-38.81 Q834.62,-27.99 843.97,-18.97 Q837.41,-11.26 829.7,-13.06 ZM851.51,-20.28 Q847.41,-21.26 844.46,-25.53 Q837.74,-35.36 846.59,-44.38 Q855.94,-50.78 865.45,-42.25 Q868.89,-37.66 868.07,-30.94 Q866.92,-25.85 862.66,-22.41 Q857.91,-18.97 851.51,-20.28 ZM716.4,-39.63 L713.78,-83.57 L866.6,-87.51 L867.42,-48.15 L864.46,-46.68 Q858.23,-51.92 851.18,-50.45 Q843.48,-48.48 840.69,-41.92 Q827.41,-47.01 819.05,-38.64 Q811.83,-28.97 817.57,-16.51 L788.71,2.68 L789.86,12.02 L863.15,30.39 L848.89,73.51 L748.7,45.47 L741,-14.38 L788.71,-45.37 L716.4,-39.63 ZM1059.06,-83.08 L1059.06,-44.05 L988.72,-45.37 L988.72,-41.76 L1022.49,-41.92 L1053.98,-29.46 L1063.81,19.07 L1055.94,72.85 L1008.06,62.36 L1025.12,17.76 L1024.46,15.14 L990.36,63.02 L917.88,65.64 L904.44,-23.56 L947.56,-37.82 L947.56,-45.37 L906.57,-44.05 L906.57,-83.08 L947.56,-81.77 L946.91,-91.93 L989.37,-91.93 L988.72,-81.77 L1059.06,-83.08 ZM993.64,-5.19 L988.72,-5.36 L988.72,10.55 L993.64,-5.19 ZM949.53,0.38 L944.45,2.68 L949.69,32.19 L949.53,0.38 ZM1107.4,-52.09 L1104.94,-88.98 L1243.49,-88.82 L1242.67,-50.78 L1200.36,-33.56 L1240.37,-31.43 L1254.64,27.11 L1218.89,71.05 L1121.66,73.67 L1100.34,39.57 L1119.04,-2.24 L1185.61,1.36 L1201.18,22.68 L1208.23,17.1 L1203.48,0.38 L1102.15,-6.51 L1101.66,-31.1 L1167.24,-54.06 L1107.4,-52.09 ZM1155.93,32.03 L1148.71,31.53 L1144.29,39.4 L1161.34,38.58 L1155.93,32.03 Z" fill="#FFFFFF" />
		</g>
		<g id="グループ2" transform="matrix(1.3109999895095825, 0, 0, 1.3109999895095825, 182.23690795898438, -250.720458984375)">
			<g transform="matrix(0.5987473130226135, 0, 0, 0.5987473130226135, -140.98565673828125, 733.0703125)">
				<path d="M21.65,-43.89 L9.18,66.95 L-38.04,68.26 L-83.29,43.34 L-74.11,-76.03 L-6.56,-89.14 L65.59,-78 L83.3,-14.38 L71.49,55.8 L24.27,69.57 L14.43,23.66 L33.45,20.38 L41.32,-12.41 L32.8,-41.27 L21.65,-43.89 ZM-28.2,28.25 L-20.33,-44.55 L-34.1,-41.27 L-39.35,21.7 L-28.2,28.25 Z" fill="#FFFFFF" />
			</g>
			<g transform="matrix(0.5987473130226135, 0, 0, 0.5987473130226135, -350.97076416015625, 711.0758056640625)">
				<path d="M-207.69,-80.38 L-195.25,-121.78 L-70.82,-113.2 L-82.84,-61.93 L-94.42,-64.29 L-94.42,-47.13 L-55.38,-84.03 L-22.77,-33.61 L-77.9,-1.43 L-22.34,28.17 L-50.23,81.37 L-94.42,46.41 L-94.42,96.61 L-182.38,94.67 L-177.87,45.55 L-148.27,46.41 L-148.27,-32.97 L-213.91,-32.11 L-213.91,-76.95 L-174.87,-76.09 L-207.69,-80.38 ZM-238.15,17.23 L-238.37,-30.18 L-151.06,-30.18 L-151.06,3.5 L-202.76,83.3 L-240.94,44.48 L-210.48,15.51 L-238.15,17.23 ZM184.85,2.43 L240.63,61.85 L183.78,95.1 L145.16,35.04 L79.73,95.75 L25.03,52.84 L164.04,-48.41 L96.46,-51.2 L74.58,2.21 L23.1,-19.02 L54.42,-120.92 L122.85,-116.42 L116.42,-102.26 L235.26,-97.97 L233.33,-39.62 L184.85,2.43 Z" fill="#FFFFFF" />
			</g>
			<g transform="matrix(0.5987473130226135, 0, 0, 0.5987473130226135, 72.29629516601562, 711.0758056640625)">
				<path d="M-145.96,-69.44 L-164.84,-73.08 L-164.84,-70.3 L-145.96,-69.44 ZM-126.66,-69.44 L-123.01,-73.94 L-128.59,-73.94 L-131.59,-69.44 L-126.66,-69.44 ZM-149.83,-33.4 L-166.99,-32.54 L-166.99,-41.12 L-174.07,-41.98 L-161.62,-22.03 L-149.83,-33.4 ZM-97.27,35.47 L-107.13,35.47 L-107.13,38.9 L-97.27,38.9 L-97.27,35.47 ZM-107.13,8.44 L-107.13,11.22 L-97.27,11.22 L-97.27,8.44 L-107.13,8.44 ZM-96.84,-21.6 L-93.4,-33.4 L-97.48,-33.4 L-105.63,-21.6 L-96.84,-21.6 ZM-49.21,11.22 L-32.26,10.37 L-32.26,36.32 L-49.21,35.47 L-49.21,38.9 L-32.26,38.04 L-32.26,64.21 L-49.21,63.35 L-49.21,65.93 L-25.83,65.07 L-25.83,95.96 L-158.19,95.96 L-158.19,23.02 L-161.84,16.59 L-171.28,41.47 L-176.43,26.67 L-175.57,95.96 L-229.63,95.96 L-228.77,28.39 L-238.42,65.71 L-241.43,-2.51 L-230.7,-41.98 L-241,-41.12 L-241,-91.96 L-228.77,-91.11 L-229.63,-121.78 L-175.57,-121.78 L-176.43,-91.11 L-167.63,-91.96 L-160.77,-121.35 L-105.85,-119.64 L-109.49,-113.63 L-27.12,-115.35 L-27.12,-73.08 L-71.31,-73.94 L-74.1,-69.44 L-22.83,-70.3 L-22.83,-32.54 L-56.08,-33.61 L-38.06,-29.32 L-44.49,-21.6 L-30.12,-22.46 L-30.12,9.29 L-49.21,8.44 L-49.21,11.22 ZM-107.13,65.93 L-97.27,65.93 L-97.27,63.35 L-107.13,63.35 L-107.13,65.93 ZM143.18,-56.78 L142.96,-8.3 L112.5,-9.37 L147.89,5.65 L128.37,54.34 L111.43,39.76 L112.07,95.75 L57.58,95.53 L58.44,43.83 L28.62,71.94 L22.4,6.93 L56.29,-9.59 L23.9,-8.73 L24.11,-57 L58.87,-56.14 L58.87,-67.08 L28.4,-64.93 L25.19,-109.55 L139.31,-121.14 L143.18,-71.8 L111.43,-69.65 L111.43,-56.14 L143.18,-56.78 ZM148.97,38.68 L148.97,-108.7 L188.01,-108.48 L188.01,38.68 L148.97,38.68 ZM240.36,95.32 L165.7,94.03 L166.13,44.05 L190.16,44.9 L190.16,-117.28 L240.36,-117.28 L240.36,95.32 Z" fill="#FFFFFF" />
			</g>
		</g>
	</g>
	<g id="グループ3" transform="matrix(0.518220067024231, 0, 0, 0.5425546765327454, 687.0413208007812, 261.5037841796875)">
		<path transform="matrix(3.233937978744507, 0, 0, 3.233937978744507, 479.42999267578125, -240.96678161621094)" d="M32.06,-2.81 Q27.96,-3.63 24.29,-4.64 Q20.62,-5.65 17.27,-6.96 Q13.8,-5.53 9.78,-4.42 Q5.78,-3.3 1.32,-2.49 L-1.17,-5.61 Q2.74,-6.06 6.34,-6.86 Q9.95,-7.66 13.12,-8.81 Q9.08,-10.74 5.72,-13.21 Q4.55,-12.34 3.4,-11.56 Q2.24,-10.78 1,-10.08 L-2.35,-12.75 Q1.12,-14.48 4.14,-16.86 Q7.16,-19.24 9.01,-21.95 L14.04,-21.25 Q12.92,-19.77 11.43,-18.17 L33.06,-18.17 L33.06,-15.13 L29.01,-15.13 Q26.16,-11.56 21.18,-8.85 Q27.34,-6.8 34.29,-5.85 L32.06,-2.81 ZM31.75,13.37 Q28.21,11.64 24.98,9.49 Q21.75,7.32 19.38,4.91 L19.38,15.25 L14.42,15.25 L14.42,4.99 Q11.61,7.69 8.2,9.77 Q4.79,11.84 1.12,13.37 L-1.99,10.53 Q2.49,9.14 6.12,7.19 Q9.76,5.24 12.37,2.89 L0.13,2.89 L0.13,-0.27 L14.42,-0.27 L14.42,-4.22 L19.38,-4.22 L19.38,-0.27 L33.06,-0.27 L33.06,2.89 L21.06,2.89 Q22.37,4 24,5.08 Q25.66,6.14 27.46,7.12 Q29.27,8.1 31.19,8.99 Q33.12,9.87 34.85,10.57 L31.75,13.37 ZM8.89,-15.13 Q10.69,-13.82 12.77,-12.63 Q14.84,-11.43 17.21,-10.45 Q19.38,-11.52 21.06,-12.69 Q22.75,-13.86 23.79,-15.13 L8.89,-15.13 Z" style="fill:#FFFFFF;" />
		<path transform="matrix(1.012826919555664, 0, 0, 1.012826919555664, -48.27472686767578, -136.43145751953125)" d="M-184.37,39.6 Q-186.42,39.6 -188.19,38.85 Q-189.93,38.07 -189.93,36.09 Q-189.93,34.22 -188.34,33.16 Q-186.73,32.08 -184.43,31.39 Q-181.41,30.46 -178.96,28.66 Q-176.47,26.85 -174.64,22.63 Q-171.06,14.45 -168.11,7.37 Q-165.13,0.28 -162.46,-6.59 Q-159.78,-13.49 -156.92,-20.91 Q-154.03,-28.34 -150.86,-37.08 Q-150.24,-38.82 -149.78,-40.46 Q-149.31,-42.14 -149.09,-45.22 Q-146.79,-46 -145.77,-46.34 Q-144.71,-46.68 -143.78,-47.3 Q-143.19,-47.71 -142.81,-49.04 Q-142.41,-50.41 -141.76,-51.31 Q-140.98,-52.09 -139.83,-52.09 Q-138.68,-52.09 -138.03,-50.78 Q-137.69,-50.1 -137.47,-49.26 Q-137.25,-48.45 -137.03,-47.74 Q-133.99,-38.04 -130.69,-28 Q-127.37,-17.96 -124.26,-8.61 Q-121.12,0.75 -118.51,8.21 Q-115.9,15.64 -114.38,20.23 Q-112.73,25.02 -110.93,27.26 Q-109.12,29.47 -107.2,30.37 Q-105.24,31.24 -102.94,31.7 Q-100.33,32.2 -98.77,33.44 Q-97.22,34.69 -97.22,36.49 Q-97.22,38.7 -99.08,39.13 Q-100.92,39.6 -102.78,39.6 Q-104.62,39.6 -107.69,39.41 Q-110.77,39.22 -114.19,39.04 Q-117.61,38.85 -120.47,38.85 Q-122.89,38.85 -125.44,38.85 Q-127.96,38.85 -130.13,38.91 Q-132.28,38.98 -133.83,38.98 Q-135.85,38.98 -137.62,38.29 Q-139.39,37.61 -139.39,35.59 Q-139.39,33.54 -137.47,32.57 Q-135.54,31.61 -133.61,31.33 Q-129.95,30.77 -128.7,29.68 Q-127.43,28.6 -127.43,27.45 Q-127.43,25.74 -128.24,22.26 Q-129.01,18.74 -130.16,14.64 Q-131.28,10.54 -132.34,7.31 Q-132.28,7.24 -132.37,7.27 Q-132.43,7.27 -133.96,7.27 L-158.04,7.27 Q-158.04,6.84 -158.07,7.15 Q-158.1,7.43 -158.42,8.27 Q-158.79,9.54 -159.69,12.28 Q-160.59,15.01 -161.46,18.06 Q-162.33,21.07 -162.95,23.37 Q-163.54,25.64 -163.54,26.05 Q-163.54,27.97 -161.9,29.4 Q-160.22,30.83 -157.58,31.49 Q-151.95,33.01 -151.95,35.84 Q-151.95,38.01 -153.78,38.57 Q-155.59,39.1 -157.51,39.1 Q-159.19,39.1 -162.39,38.98 Q-165.56,38.85 -169.11,38.85 Q-173.21,38.85 -177.16,39.22 Q-181.1,39.6 -184.37,39.6 ZM-154.59,-0.65 L-134.86,-0.65 Q-133.74,0.56 -134.95,0.56 Q-134.95,0.5 -134.98,0.34 Q-135.01,0.16 -135.11,-0.15 L-145.02,-31.17 Q-144.4,-33.53 -144.4,-32.2 Q-144.4,-33.72 -143.68,-31.23 L-155.25,-0.09 Q-155.68,0.31 -155.4,0.31 Q-156.49,0.31 -156.12,-0.15 Q-155.71,-0.65 -154.59,-0.65 ZM-85.84,39.35 Q-87.55,39.35 -88.92,38.7 Q-90.25,38.01 -90.25,36.09 Q-90.25,33.82 -88.85,33.26 Q-87.46,32.67 -85.96,32.26 Q-84.01,31.73 -83.26,30.99 Q-82.48,30.21 -82.48,29.22 L-82.48,1.84 Q-82.48,-1.21 -83.26,-3.14 Q-84.04,-5.06 -86.24,-5.5 Q-87.46,-5.81 -88.23,-6.8 Q-88.98,-7.83 -88.98,-8.98 Q-88.98,-11.75 -86.43,-12.31 Q-83.38,-13.27 -79.87,-15.16 Q-76.33,-17.09 -74.37,-18.33 Q-73.47,-18.89 -72.79,-19.17 Q-72.1,-19.48 -71.45,-19.48 Q-68.96,-19.48 -68.96,-16.75 Q-68.96,-16.31 -69.03,-14.76 Q-69.09,-13.24 -69.15,-11.19 Q-69.21,-9.14 -69.34,-7.12 Q-70.95,-7.18 -71.2,-7.46 Q-70.24,-10.81 -67.6,-12.86 Q-64.92,-14.92 -62.03,-16.19 Q-59.14,-17.46 -56.31,-17.46 Q-53.08,-17.46 -50.72,-15.88 Q-48.33,-14.29 -48.33,-11.53 Q-48.33,-9.85 -49.2,-7.95 Q-50.04,-6.09 -51.59,-4.57 Q-53.11,-3.04 -55.16,-3.04 Q-56.25,-3.04 -57.37,-3.42 Q-58.46,-3.82 -59.48,-4.35 Q-60.42,-4.69 -61.29,-5 Q-62.13,-5.31 -62.81,-5.31 Q-65.23,-5.31 -67.5,-3.6 Q-69.74,-1.92 -69.74,3.51 L-69.74,29.22 Q-69.74,29.81 -68.5,30.58 Q-67.25,31.33 -64.3,32.26 Q-62.75,32.7 -61.41,33.38 Q-60.04,34.07 -60.04,36.09 Q-60.04,39.35 -64.46,39.35 Q-68.43,39.35 -70.42,39.04 Q-72.38,38.73 -75.55,38.73 Q-77.6,38.73 -78.88,38.85 Q-80.15,38.98 -81.67,39.16 Q-83.17,39.35 -85.84,39.35 ZM-17.87,40.75 Q-24.93,40.75 -28.97,36.37 Q-32.98,31.98 -32.98,23.75 L-32.98,-5.78 Q-32.92,-5.78 -33.04,-5.81 Q-33.13,-5.84 -35.19,-5.84 L-35.93,-5.84 Q-37.7,-5.84 -38.54,-7.36 Q-39.35,-8.89 -39.35,-10.25 Q-39.35,-11.12 -38.73,-11.93 Q-38.11,-12.77 -37.8,-13.08 Q-35.19,-14.92 -33.17,-16.63 Q-31.11,-18.37 -29.44,-20.01 Q-27.76,-21.66 -26.64,-23.06 Q-25.95,-23.77 -25.24,-24.49 Q-24.49,-25.23 -23.1,-25.23 Q-22.04,-25.23 -20.64,-24.58 Q-19.21,-23.93 -19.61,-21.69 L-20.21,-16.03 Q-20.24,-15.76 -20.17,-15.69 Q-20.11,-15.66 -19.02,-15.66 L-4.51,-15.66 Q-2.77,-15.66 -2.09,-14.11 Q-1.37,-12.55 -1.37,-11 Q-1.37,-9.54 -2.02,-7.67 Q-2.65,-5.84 -4.51,-5.84 L-17.1,-5.84 Q-19.83,-5.84 -20.08,-5.69 Q-20.33,-5.56 -20.33,-4.13 L-20.33,20.95 Q-20.33,25.43 -18.65,27.72 Q-16.94,30.02 -13.8,30.02 Q-10.35,30.02 -8.61,29.53 Q-6.84,29.03 -5.54,28.13 Q-4.82,27.48 -3.86,27.48 Q-1.99,27.48 -1.56,28.84 Q-1.12,30.21 -1.12,31.11 Q-1.12,32.6 -3.64,34.87 Q-6.13,37.14 -9.82,38.94 Q-13.49,40.75 -17.87,40.75 ZM11.27,39.35 Q9.72,39.35 8.29,38.73 Q6.86,38.07 6.86,36.09 Q6.86,33.79 8.48,33.16 Q10.09,32.54 11.24,32.26 Q13.57,31.67 14.41,31.11 Q15.28,30.52 15.28,29.22 L15.28,1.59 Q15.28,-1.43 14.35,-3.45 Q13.45,-5.5 11.06,-5.87 Q9.78,-6.12 9.01,-6.99 Q8.26,-7.86 8.26,-9.35 Q8.26,-12.43 10.96,-12.71 Q15.66,-13.77 18.8,-15.63 Q21.94,-17.53 23.49,-18.71 Q25.14,-20.01 26.44,-20.01 Q29.05,-20.01 29.05,-17.5 Q29.05,-16.38 28.74,-13.36 Q28.43,-10.35 28.15,-6.74 Q27.9,-3.17 27.9,-0.31 L27.9,29.22 Q27.9,30.4 28.83,31.05 Q29.77,31.7 31.97,32.26 Q33.09,32.54 34.71,33.16 Q36.33,33.79 36.33,36.09 Q36.33,39.35 31.91,39.35 Q29.36,39.35 27.84,39.16 Q26.35,38.98 25.07,38.85 Q23.8,38.73 21.59,38.73 Q19.51,38.73 18.17,38.85 Q16.84,38.98 15.38,39.16 Q13.95,39.35 11.27,39.35 ZM21.47,-26.73 Q18.02,-26.73 15.63,-29.09 Q13.23,-31.48 13.23,-34.93 Q13.23,-38.51 15.63,-40.9 Q18.02,-43.29 21.47,-43.29 Q25.04,-43.29 27.44,-40.9 Q29.83,-38.51 29.83,-34.93 Q29.83,-31.48 27.44,-29.09 Q25.04,-26.73 21.47,-26.73 ZM71.61,40.87 Q64.74,40.87 59.11,37.36 Q53.52,33.85 50.29,27.76 Q47.09,21.66 47.09,14.21 Q47.09,5.44 50.94,-1.71 Q54.79,-8.89 61.32,-13.18 Q67.88,-17.46 75.84,-17.46 Q84.69,-17.46 91.44,-12.65 Q93.74,-10.94 93.74,-8.73 Q93.74,-7.12 92.56,-5.44 Q91.38,-3.79 89.73,-2.7 Q88.08,-1.65 86.4,-1.65 Q85.16,-1.65 84.29,-2.24 Q83.42,-2.86 82.64,-3.42 Q79.88,-5.5 76.71,-7.24 Q73.54,-9.01 71.76,-9.01 Q66.51,-9.01 63.06,-3.85 Q59.61,1.28 59.61,10.13 Q59.61,15.64 61.97,20.05 Q64.37,24.46 68.35,27.01 Q72.32,29.53 77.11,29.53 Q80.37,29.53 82.7,28.47 Q85.03,27.41 87.83,24.65 Q88.3,24.15 89.01,23.78 Q89.76,23.4 90.47,23.4 Q93.74,23.4 93.74,27.04 Q93.74,28.25 93.15,29.5 Q92.56,30.71 91.41,32.14 Q89.2,34.94 86.15,36.96 Q83.11,38.98 79.44,39.91 Q75.8,40.87 71.61,40.87 ZM108.93,39.35 Q108.09,39.35 106.29,38.98 Q104.52,38.63 104.52,36.33 Q104.52,34.16 106.04,33.44 Q107.56,32.73 108.68,32.29 Q110.51,31.67 111.7,31.14 Q112.91,30.58 112.91,29.22 L112.91,-34.93 Q112.91,-38.16 111.88,-40.06 Q110.89,-41.96 108.49,-42.42 Q106.04,-43.07 106.04,-45.9 Q106.04,-48.61 108.34,-49.23 Q111.6,-49.97 113.93,-50.78 Q116.26,-51.59 118.35,-52.46 Q120.46,-53.36 122.42,-54.08 Q123.19,-54.51 123.94,-54.51 Q125.21,-54.51 125.84,-53.52 Q126.46,-52.52 126.46,-51.75 Q126.46,-50.47 125.99,-46.71 Q125.56,-42.95 125.56,-34.43 L125.56,29.22 Q125.56,30.58 126.74,31.14 Q127.95,31.67 129.78,32.29 Q130.9,32.73 132.43,33.44 Q133.95,34.16 133.95,36.33 Q133.95,38.63 132.15,38.98 Q130.37,39.35 129.54,39.35 Q126.99,39.35 125.46,39.16 Q123.97,38.98 122.7,38.85 Q121.42,38.73 119.25,38.73 Q117.17,38.73 115.83,38.85 Q114.49,38.98 113.03,39.16 Q111.6,39.35 108.93,39.35 ZM169.25,40.87 Q161.7,40.87 156.01,37.14 Q150.35,33.41 147.21,26.7 Q144.1,19.96 144.1,11.28 Q144.1,3.39 147.71,-3.04 Q151.32,-9.51 157.31,-13.49 Q163.34,-17.46 170.52,-17.46 Q176.09,-17.46 180.44,-15.2 Q184.82,-12.96 187.34,-8.86 Q189.85,-4.78 189.85,0.44 Q189.85,6.25 184.17,6.25 L157.28,6.25 Q156.47,6.25 156.23,6.59 Q155.98,6.9 155.98,9.11 Q155.98,14.73 158.43,19.36 Q160.89,24 164.9,26.7 Q168.94,29.4 173.72,29.4 Q177.11,29.4 179.85,28.1 Q182.61,26.79 184.76,24.31 Q185.41,23.56 185.97,23.09 Q186.56,22.63 187.58,22.63 Q190.48,22.63 190.48,25.77 Q190.48,28.84 187.77,32.26 Q185.69,34.94 182.77,36.89 Q179.88,38.82 176.43,39.85 Q172.98,40.87 169.25,40.87 ZM157.56,-1.43 L169.12,-1.43 Q172.14,-1.43 174.22,-1.55 Q176.3,-1.68 178.2,-2.02 Q178.35,-1.21 178.01,-1.58 Q177.7,-1.96 177.7,-2.98 Q177.7,-5.78 175.06,-7.89 Q172.42,-10.04 168.63,-10.04 Q166.2,-10.04 163.65,-8.51 Q161.11,-7.02 159.49,-4.88 Q157.87,-2.76 157.87,-0.84 Q157.28,-0.84 157.56,-1.43 Z" style="fill:#FFFFFF;" />
		<g transform="matrix(6.960744857788086, 0, 0, 6.648540496826172, 290.3167419433594, -191.64207458496094)">
			<path d="M-21.59,-8.62 Q-21.56,-12.7 -18.64,-15.69 Q-15.71,-18.68 -10.99,-18.68 Q-6.26,-18.68 -3.46,-15.53 Q-0.64,-12.37 -0.64,-6.69 Q-0.64,-1.02 -4.6,5.03 Q-8.56,11.08 -15.27,13.9 Q-15.26,14.29 -15.83,14.29 Q-16.4,14.29 -17.01,13.96 Q-17.62,13.63 -17.62,12.71 Q-17.62,11.79 -16.65,11.22 Q-8.64,6.39 -7.02,0.38 Q-7.92,1.18 -11.68,1.18 Q-16.44,1.18 -19.03,-1.69 Q-21.61,-4.56 -21.59,-8.62 ZM-7.32,-13.68 Q-8.75,-15.56 -11.11,-15.56 Q-13.45,-15.56 -14.9,-13.68 Q-16.33,-11.82 -16.33,-8.69 Q-16.33,-5.56 -14.89,-3.9 Q-13.44,-2.25 -11.11,-2.25 Q-8.77,-2.25 -7.32,-3.9 Q-5.88,-5.56 -5.88,-8.69 Q-5.88,-11.82 -7.32,-13.68 ZM22.21,-18.2 Q23.33,-18.2 23.33,-17.12 Q23.33,-16.84 23.23,-16.66 Q16.64,2.74 14.16,12.72 Q13.99,13.76 12.92,13.76 L10.1,13.76 Q9.6,13.76 9.21,13.32 Q8.82,12.89 9.08,12.33 Q10.85,6.42 18.63,-13.19 L8.53,-13.19 Q7.43,-13.19 7.08,-12.51 Q6.72,-11.83 5.68,-11.83 Q4.65,-11.83 4.65,-13.18 Q4.65,-13.29 4.86,-16.2 Q4.93,-17.1 5.45,-17.64 Q5.97,-18.2 6.69,-18.2 L22.21,-18.2 Z" fill="#FFFFFF" />
		</g>
	</g>
	<g transform="matrix(0.22690388560295105, 0, 0, 0.22690388560295105, 372.57232666015625, 738.9982299804688)">
		<path d="M-1069.73,-1213.55 L-984.1,-1213.55 L-1025.8,-1229.78 L-1069.73,-1213.55 ZM-989.98,-1070 L-898.48,-1071.12 L-898.48,-1011.24 L-1153.67,-1011.52 L-1153.67,-1071.68 L-1061.05,-1070 L-1061.05,-1085.95 L-1127.93,-1085.11 L-1127.93,-1142.19 L-1060.77,-1141.07 L-1060.77,-1158.7 L-1135.21,-1157.58 L-1135.49,-1180.53 L-1153.39,-1169.05 L-1167.66,-1250.48 L-1025.52,-1295.53 L-883.93,-1249.92 L-898.2,-1168.5 L-917.23,-1179.13 L-917.51,-1157.02 L-989.98,-1158.42 L-989.98,-1140.79 L-924.22,-1141.91 L-924.22,-1084.83 L-989.98,-1085.95 L-989.98,-1070 ZM-747.2,-1254.12 L-748.32,-1293.57 L-674.72,-1293.57 L-676.12,-1253.84 L-667.45,-1253.84 L-669.41,-1293.57 L-593.02,-1293.57 L-595.53,-1253.84 L-566.71,-1254.96 L-566.71,-1176.89 L-595.53,-1178.57 L-595.53,-1089.31 L-747.48,-1089.31 L-747.48,-1178.57 L-755.03,-1178.57 L-755.03,-1080.63 L-575.95,-1082.87 L-576.23,-1012.08 L-826.95,-1014.31 L-826.95,-1178.57 L-848.77,-1176.33 L-848.77,-1256.64 L-826.95,-1254.4 L-828.06,-1293.57 L-753.63,-1293.57 L-754.75,-1254.12 L-747.2,-1254.12 ZM-676.12,-1178.57 L-676.12,-1158.42 L-667.45,-1158.42 L-667.45,-1178.57 L-676.12,-1178.57 ZM-352.19,-1235.65 L-330.93,-1235.65 L-330.93,-1240.97 L-352.19,-1240.97 L-352.19,-1235.65 ZM-352.19,-1198.44 L-352.19,-1193.12 L-330.93,-1193.12 L-330.93,-1198.44 L-352.19,-1198.44 ZM-441.73,-1199 L-442.01,-1194.8 L-421.59,-1194.8 L-421.59,-1199 L-441.73,-1199 ZM-441.45,-1236.21 L-421.31,-1236.21 L-421.59,-1241.53 L-441.73,-1241.53 L-441.45,-1236.21 ZM-381.29,-1010.96 L-376.82,-1066.08 L-375.14,-1121.21 L-361.71,-1121.21 L-382.13,-1143.03 L-396.68,-1143.03 L-408.72,-1121.49 L-395,-1121.21 L-398.08,-1042.3 L-498.54,-1009.56 L-525.4,-1064.68 L-467.76,-1080.63 L-466.64,-1089.59 L-522.88,-1073.92 L-532.4,-1134.64 L-482.31,-1138.55 L-477.83,-1143.03 L-510.57,-1143.03 L-510.57,-1290.5 L-261.81,-1290.78 L-261.81,-1143.03 L-296.51,-1143.03 L-275.52,-1131.84 L-247.82,-1130.16 L-254.26,-1061.6 L-304.9,-1076.15 L-303.22,-1010.96 L-381.29,-1010.96 ZM-34.7,-1211.59 L-55.96,-1022.43 L-136.55,-1020.19 L-213.78,-1062.72 L-198.11,-1266.43 L-82.83,-1288.82 L40.29,-1269.79 L70.51,-1161.22 L50.37,-1041.46 L-30.22,-1017.95 L-47.01,-1096.3 L-14.55,-1101.9 L-1.12,-1157.86 L-15.67,-1207.11 L-34.7,-1211.59 ZM-119.76,-1088.47 L-106.33,-1212.71 L-129.84,-1207.11 L-138.79,-1099.66 L-119.76,-1088.47 ZM287.83,-1132.12 L278.32,-1132.12 L278.32,-1123.72 L283.36,-1123.72 L279.72,-1128.2 L287.83,-1132.12 ZM171.71,-1065.8 L321.13,-1065.8 L321.13,-1096.58 L318.05,-1095.18 L318.05,-1069.44 L174.79,-1069.44 L174.79,-1123.72 L211.72,-1123.72 L211.72,-1132.12 L183.46,-1131 L183.46,-1174.37 L211.72,-1173.25 L211.72,-1178.29 L176.19,-1178.29 L176.19,-1231.17 L316.65,-1231.17 L316.65,-1178.29 L278.32,-1178.29 L278.32,-1173.25 L309.38,-1174.37 L309.38,-1142.47 L316.65,-1145.55 L321.13,-1129.88 L321.13,-1235.93 L171.71,-1235.93 L171.71,-1065.8 ZM108.19,-1011.8 L108.19,-1290.22 L384.65,-1290.22 L384.65,-1011.8 L108.19,-1011.8 ZM508.79,-1230.34 L617.92,-1230.34 L617.92,-1240.69 L508.79,-1240.69 L508.79,-1230.34 ZM545.17,-1172.13 L540.69,-1181.93 L508.79,-1181.93 L508.79,-1172.13 L545.17,-1172.13 ZM650.66,-1113.09 L706.62,-1089.59 L677.52,-1013.48 L604.77,-1012.36 L564.75,-1115.89 L508.79,-1115.89 L508.79,-1080.07 L573.43,-1088.75 L577.35,-1028.03 L426.8,-1011.52 L422.33,-1070.56 L433.52,-1071.96 L433.52,-1291.9 L690.95,-1291.62 L691.23,-1181.65 L614,-1181.93 L618.48,-1172.13 L694.31,-1172.97 L694.31,-1114.49 L637.23,-1115.89 L646.18,-1092.94 L650.66,-1113.09 ZM1023.56,-1107.49 L955.28,-1096.3 L938.49,-1221.66 L1003.41,-1233.97 L1023.56,-1107.49 ZM942.97,-1233.41 Q935.97,-1236.49 930.94,-1244.33 Q926.46,-1254.12 930.66,-1265.87 Q933.46,-1273.43 941.29,-1277.07 Q951.64,-1282.94 964.8,-1274.55 Q954.72,-1258.6 968.71,-1239.57 Q955.56,-1228.38 942.97,-1233.41 ZM981.58,-1239.29 Q975.15,-1242.09 971.23,-1249.92 Q962.28,-1268.39 979.63,-1281.26 Q996.97,-1289.66 1010.97,-1272.87 Q1015.44,-1264.19 1012.36,-1253 Q1009.01,-1244.61 1001.17,-1240.13 Q992.22,-1235.37 981.58,-1239.29 ZM942.97,-1228.38 L932.9,-1226.14 L948.57,-1106.38 L942.97,-1011.24 L822.37,-1026.07 L833,-1097.98 L874.69,-1091.82 L879.73,-1178.57 L843.63,-1178.57 L812.85,-1010.96 L740.38,-1032.5 L771.72,-1177.73 L744.86,-1176.05 L741.5,-1247.12 L781.51,-1248.24 L782.63,-1291.9 L860.14,-1289.1 L857.06,-1250.48 L923.66,-1253 Q923.1,-1245.17 928.14,-1237.33 Q935.13,-1228.66 942.97,-1228.38 ZM1137.62,-991.09 L1063.19,-1072.24 L1122.51,-1110.85 L1196.66,-1043.7 L1137.62,-991.09 ZM-1136.88,-830.78 L-1165.99,-827.42 L-1165.99,-903.54 L-1047.06,-909.13 L-1084.28,-724.45 L-1073.09,-709.9 L-1005.93,-718.85 L-1024.12,-904.09 L-958.92,-913.33 L-883.37,-819.59 L-926.46,-760.27 L-942.13,-788.53 L-923.1,-657.29 L-1105.54,-636.03 L-1165.99,-703.18 L-1136.88,-830.78 ZM-638.91,-913.05 L-585.74,-848.41 L-758.67,-734.8 L-755.87,-704.3 L-586.02,-716.62 L-584.06,-637.99 L-825.83,-639.11 L-836.46,-767.26 L-792.53,-798.88 L-850.45,-873.59 L-777.98,-914.73 L-734.05,-836.66 L-638.91,-913.05 ZM-546.39,-905.21 L-461.04,-908.85 L-462.16,-729.21 L-439.22,-709.9 L-382.13,-710.46 L-359.75,-775.1 L-280.84,-747.12 L-323.93,-640.22 L-482.87,-633.51 L-537.43,-679.68 L-546.39,-905.21 ZM-34.14,-913.33 L-4.2,-841.14 L-165.65,-783.21 L-165.65,-765.3 L-2.52,-705.7 L-38.62,-631.27 L-238.97,-725.29 L-238.97,-830.5 L-34.14,-913.33 ZM-983.54,-465.7 L-973.47,-470.18 L-966.75,-443.59 L-966.75,-472.7 L-983.26,-472.7 L-983.54,-465.7 ZM-906.59,-530.9 L-906.59,-418.97 L-903.79,-418.69 L-902.68,-456.75 L-883.09,-455.91 L-885.89,-370.56 L-966.47,-370.56 L-966.47,-401.9 L-1000.05,-383.15 L-1002.57,-392.67 L-1008.73,-377.56 L-988.86,-387.07 L-970.95,-336.98 L-984.38,-329.71 L-950.24,-326.63 L-957.52,-350.41 L-890.92,-364.97 L-883.93,-264.79 L-932.62,-252.76 L-935.41,-266.47 L-937.93,-252.48 L-1114.78,-252.48 L-1114.78,-288.01 L-1120.1,-252.76 L-1168.78,-259.19 L-1164.03,-363.01 L-1114.78,-356.57 L-1115.9,-366.92 L-1045.1,-366.92 L-1047.06,-307.6 L-999.77,-307.6 L-998.93,-320.75 L-1013.76,-312.36 L-1041.75,-361.61 L-1020.48,-371.96 L-1059.37,-391.83 L-1162.35,-370.28 L-1166.55,-440.24 L-1138.56,-445.55 L-1138.56,-469.62 L-1167.1,-469.62 L-1167.1,-530.34 L-1044.54,-530.34 L-1044.54,-469.62 L-1069.17,-469.62 L-1069.17,-455.35 L-1042.03,-460.1 L-1039.51,-530.9 L-906.59,-530.9 ZM-736.84,-448.91 L-731.81,-463.18 L-741.88,-462.06 L-736.84,-448.91 ZM-682.28,-432.68 L-677.8,-432.68 L-677.8,-442.2 L-682.28,-432.68 ZM-624.64,-336.42 L-619.88,-335.58 L-619.88,-373.92 L-624.64,-373.92 L-624.64,-336.42 ZM-764.55,-431.28 L-764.55,-403.58 L-749.99,-419.25 L-760.07,-413.09 L-764.55,-431.28 ZM-831.98,-346.5 L-849.89,-349.58 L-843.73,-472.14 L-828.9,-469.06 L-830.02,-534.82 L-763.43,-534.82 L-764.55,-472.14 L-755.31,-475.77 L-755.31,-524.74 L-719.21,-523.62 L-717.54,-535.93 L-645.62,-532.86 L-648.98,-523.62 L-564.75,-524.74 L-564.75,-462.06 L-664.93,-463.18 L-668.01,-458.7 L-619.04,-458.7 L-620.16,-432.68 L-564.47,-432.68 L-564.47,-270.67 L-624.64,-272.07 L-623.52,-252.48 L-687.32,-252.48 L-686.2,-373.92 L-691.51,-373.92 L-691.51,-267.59 L-746.36,-267.59 L-746.36,-333.07 L-753.63,-321.03 L-764.55,-356.85 L-763.43,-252.48 L-830.02,-252.48 L-828.9,-383.43 L-831.98,-346.5 ZM-320.85,-534.54 L-267.69,-469.9 L-440.62,-356.29 L-437.82,-325.79 L-267.97,-338.1 L-266.01,-259.47 L-507.77,-260.59 L-518.4,-388.75 L-474.47,-420.37 L-532.4,-495.08 L-459.92,-536.21 L-415.99,-458.15 L-320.85,-534.54 ZM-27.98,-445.55 L-140.47,-444.99 L-165.65,-378.68 L-232.53,-408.9 L-185.52,-536.21 L-109.41,-526.14 L-116.41,-509.35 L52.33,-510.47 L32.74,-357.13 L-42.53,-387.91 L-27.98,-445.55 ZM-53.73,-372.52 L52.33,-326.35 L21.27,-251.64 L-88.42,-315.16 L-195.87,-249.96 L-228.05,-319.91 L-128.16,-371.96 L-129.56,-436.32 L-52.05,-435.76 L-53.73,-372.52 ZM163.59,-293.05 L156.6,-251.92 L85.24,-276.26 L124.7,-376.72 L191.3,-376.72 L215.92,-336.42 L267.97,-395.19 L94.76,-394.07 L94.76,-455.63 L194.37,-454.51 L194.37,-467.1 L95.6,-464.3 L92.52,-525.86 L359.19,-535.38 L363.38,-471.58 L266.29,-469.34 L266.29,-454.51 L360.31,-454.51 L360.31,-399.66 L290.35,-319.63 L371.78,-319.07 L368.98,-252.2 L180.38,-260.87 L163.59,-293.05 ZM611.48,-356.01 L607.01,-251.92 L486.4,-266.75 L497.04,-338.66 L538.73,-332.51 L543.77,-419.25 L507.67,-419.25 L476.89,-251.64 L404.42,-273.18 L435.76,-418.41 L408.89,-416.73 L405.54,-487.81 L445.55,-488.93 L446.67,-532.58 L524.18,-529.78 L521.1,-491.16 L593.58,-493.68 L611.48,-356.01 ZM688.71,-346.22 L618.76,-335.3 L596.93,-504.88 L665.21,-513.83 L688.71,-346.22 ZM757.17,-530.34 L744.02,-473.82 L917.51,-450.31 L925.62,-522.22 L757.17,-530.34 ZM803.06,-455.07 L728.91,-460.94 L725.83,-345.38 L890.64,-376.44 L904.63,-357.69 L905.19,-337.54 L854.27,-324.95 L773.96,-332.79 L752.41,-263.39 L858.46,-252.2 L985.78,-287.46 L979.91,-381.19 L932.34,-446.39 L801.94,-427.09 L803.06,-455.07 ZM223.2,-24.51 L198.29,-24.51 L198.29,-13.04 L223.2,-13.04 L223.2,-24.51 ZM289.51,-24.51 L289.51,-13.04 L314.42,-13.04 L314.42,-24.51 L289.51,-24.51 ZM363.66,-97.82 L348.27,-82.15 L381.85,-82.15 L381.85,41.81 L314.98,41.81 L314.98,72.31 L321.41,72.31 L323.93,47.69 L389.41,53.84 L376.54,126.04 L243.62,126.04 L243.62,41.81 L237.19,41.81 L170.59,130.51 L104.27,83.78 L156.88,41.81 L130.85,41.81 L130.85,-36.54 L105.11,-57.53 L141.77,-156.58 L232.43,-152.94 L227.11,-145.39 L363.66,-145.39 L363.66,-97.82 ZM276.36,-91.1 L200.53,-91.1 L194.09,-82.15 L264.33,-82.15 L276.36,-91.1 ZM629.39,22.5 L624.92,126.59 L504.31,111.76 L514.95,39.85 L556.64,46.01 L561.68,-40.74 L525.58,-40.74 L494.8,126.87 L422.33,105.33 L453.67,-39.9 L426.8,-38.22 L423.45,-109.29 L463.46,-110.41 L464.58,-154.06 L542.09,-151.27 L539.01,-112.65 L611.48,-115.17 L629.39,22.5 ZM706.62,32.3 L636.67,43.21 L614.84,-126.36 L683.12,-135.32 L706.62,32.3 ZM855.39,35.37 L856.51,126.04 L780.11,125.76 L784.59,65.87 L775.36,82.66 L740.38,18.3 L788.79,-48.57 L742.9,-46.33 L743.46,-115.73 L784.87,-113.21 L782.35,-154.62 L861.82,-154.62 L858.46,-97.82 L934.57,-145.11 L985.22,-118.53 L1011.53,-75.71 L981.02,60.28 L1017.4,51.88 L1024.12,122.4 L927.02,125.2 L904.07,55.24 L931.5,-41.3 L926.18,-51.37 L855.95,-2.68 L855.39,35.37 ZM1137.62,146.74 L1063.19,65.59 L1122.51,26.98 L1196.66,94.14 L1137.62,146.74 ZM-911.07,295.52 L-928.98,357.64 L-886.73,356.52 L-886.73,423.4 L-989.7,422.28 L-988.58,504.55 L-1063.01,504.55 L-1061.89,422.28 L-1164.87,423.4 L-1164.87,356.52 L-1122.61,357.64 L-1140.52,297.48 L-1107.78,289.65 L-1153.67,289.65 L-1153.67,226.41 L-898.2,226.41 L-898.2,289.65 L-945.77,289.65 L-911.07,295.52 ZM-984.94,348.97 L-974.59,289.65 L-989.7,289.65 L-989.7,357.64 L-942.69,357.64 L-984.94,348.97 ZM-1061.89,357.64 L-1061.89,289.65 L-1075.88,289.65 L-1066.65,348.97 L-1108.9,357.64 L-1061.89,357.64 ZM-631.35,430.68 L-631.35,297.48 L-638.91,297.2 L-638.91,430.68 L-631.35,430.68 ZM-706.34,307.56 L-706.34,373.03 L-730.13,371.91 L-703.54,389.54 L-703.54,233.68 L-567.55,233.68 L-567.55,494.75 L-703.82,494.75 L-703.54,433.75 L-729.01,461.74 L-740.48,443.55 L-739.36,504.55 L-811.56,504.55 L-810.44,459.22 L-833.1,485.8 L-851.01,409.13 L-814.91,371.63 L-848.21,372.75 L-848.21,307.28 L-810.44,308.39 L-810.44,296.36 L-844.85,298.6 L-849.89,237.04 L-711.38,221.37 L-704.94,290.21 L-740.48,291.61 L-740.48,308.67 L-706.34,307.56 ZM-352.75,304.76 L-374.02,493.92 L-454.61,496.15 L-531.84,453.62 L-516.17,249.91 L-400.88,227.53 L-277.76,246.55 L-247.54,355.12 L-267.69,474.89 L-348.27,498.39 L-365.06,420.04 L-332.6,414.45 L-319.17,358.48 L-333.72,309.23 L-352.75,304.76 ZM-437.82,427.88 L-424.39,303.64 L-447.89,309.23 L-456.84,416.68 L-437.82,427.88 ZM-172.37,221.93 L-176.85,284.61 L12.31,286.85 L15.67,232 L-172.37,221.93 ZM-211.54,307 L-162.3,292.44 L11.19,290.21 L55.96,351.77 L45.89,453.62 L-132.07,507.35 L-157.82,435.71 L-21.27,397.66 L-19.03,370.79 L-29.1,358.48 L-153.34,364.08 L-190.28,381.99 L-211.54,307 ZM171.71,249.35 L172.55,221.93 L260.13,226.13 L252.58,254.67 L356.39,255.79 L353.31,324.9 L238.59,316.51 L226.83,340.57 L349.95,350.65 L335.12,502.03 L137.57,503.99 L93.92,438.79 L165.27,400.18 L177.03,437.39 L271.6,436.27 L273.56,407.45 L127.78,389.82 L159.12,314.27 L94.48,313.43 L97.56,240.68 L171.71,249.35 ZM398.54,231.44 L394.62,380.87 L402.74,497.55 L479.69,497.27 L466.54,381.71 L472.69,230.6 L398.54,231.44 ZM487.52,301.12 L485.01,230.6 L664.37,232 L657.65,325.18 L582.66,325.46 L587.14,295.8 L487.52,301.12 ZM485.57,376.39 L477.73,449.42 L523.62,493.08 L661.85,492.8 L660.45,422.28 L566.43,427.88 L552.16,417.24 L560,380.31 L485.57,376.39 ZM-976.27,817.3 L-886.73,817.3 L-884.49,879.7 L-1159.27,879.7 L-1157.03,817.3 L-1053.22,817.3 L-1053.22,794.36 L-1123.45,795.48 L-1124.29,737.56 L-1167.94,725.8 L-1144.44,600.44 L-1063.85,612.76 L-1073.65,639.34 L-1053.22,639.34 L-1054.34,601.56 L-975.15,601.56 L-976.27,639.34 L-888.68,639.34 L-888.68,705.94 L-976.27,705.94 L-976.27,731.4 L-909.67,730.28 L-909.67,795.48 L-976.27,794.36 L-976.27,817.3 ZM-1053.22,731.4 L-1053.22,705.94 L-1094.91,705.94 L-1101.35,730.56 L-1053.22,731.4 ZM-846.81,676.27 L-846.81,614.15 L-757.83,615.55 L-754.75,600.16 L-664.93,602.96 L-669.41,615.27 L-568.67,614.43 L-568.67,676.55 L-687.87,675.44 L-692.35,679.91 L-576.79,681.31 L-577.07,739.79 L-599.17,752.95 L-568.11,751.83 L-568.39,815.07 L-611.76,813.95 L-612.04,883.06 L-713.62,881.66 L-711.94,819.82 L-683.4,821.5 L-683.4,813.95 L-746.64,814.79 L-746.36,751.55 L-683.68,752.67 L-683.68,747.35 L-662.97,739.79 L-726.21,740.63 L-726.21,730.56 L-752.51,758.54 L-751.67,883.34 L-822.75,883.06 L-821.63,823.46 L-832.26,836.61 L-849.61,753.5 L-821.35,730 L-822.47,692.5 L-795.89,692.5 L-779.94,675.16 L-846.81,676.27 ZM-386.89,813.11 L-479.79,814.79 L-494.06,751.27 L-470.56,685.51 L-391.93,687.75 L-392.49,680.75 L-526.52,684.11 L-527.36,618.63 L-393.33,619.47 L-396.12,602.68 L-311.06,601.56 L-311.9,618.35 L-252.86,616.11 L-251.74,680.47 L-313.02,679.63 L-317.77,702.02 L-301.26,776.45 L-325.33,867.11 L-458.52,884.74 L-468.04,819.82 L-388.85,817.86 L-386.89,813.11 ZM-415.71,759.94 L-386.61,760.78 L-389.13,747.35 L-414.87,746.51 L-418.23,753.22 L-415.71,759.94 ZM-198.95,669.28 L-203.15,606.32 L33.3,606.6 L31.9,671.52 L-40.29,700.9 L27.98,704.54 L52.33,804.43 L-8.67,879.42 L-174.61,883.9 L-210.98,825.7 L-179.08,754.34 L-65.48,760.5 L-38.9,796.88 L-26.86,787.36 L-34.98,758.82 L-207.91,747.07 L-208.75,705.1 L-96.82,665.92 L-198.95,669.28 ZM-116.13,812.83 L-128.44,811.99 L-135.99,825.42 L-106.89,824.02 L-116.13,812.83 ZM210.04,667.6 L185.42,662.84 L185.42,666.48 L210.04,667.6 ZM235.23,667.6 L239.98,661.72 L232.71,661.72 L228.79,667.6 L235.23,667.6 ZM205.01,714.61 L182.62,715.73 L182.62,704.54 L173.39,703.42 L189.62,729.44 L205.01,714.61 ZM273.56,804.43 L260.69,804.43 L260.69,808.91 L273.56,808.91 L273.56,804.43 ZM260.69,769.17 L260.69,772.81 L273.56,772.81 L273.56,769.17 L260.69,769.17 ZM274.12,730 L278.6,714.61 L273.28,714.61 L262.65,730 L274.12,730 ZM336.24,772.81 L358.35,771.69 L358.35,805.55 L336.24,804.43 L336.24,808.91 L358.35,807.79 L358.35,841.93 L336.24,840.81 L336.24,844.17 L366.74,843.05 L366.74,883.34 L194.09,883.34 L194.09,788.2 L189.34,779.81 L177.03,812.27 L170.31,792.96 L171.43,883.34 L100.91,883.34 L102.03,795.2 L89.44,843.89 L85.52,754.9 L99.52,703.42 L86.08,704.54 L86.08,638.22 L102.03,639.34 L100.91,599.32 L171.43,599.32 L170.31,639.34 L181.78,638.22 L190.74,599.88 L262.37,602.12 L257.61,609.96 L365.06,607.72 L365.06,662.84 L307.42,661.72 L303.78,667.6 L370.66,666.48 L370.66,715.73 L327.29,714.33 L350.79,719.93 L342.4,730 L361.15,728.88 L361.15,770.29 L336.24,769.17 L336.24,772.81 ZM260.69,844.17 L273.56,844.17 L273.56,840.81 L260.69,840.81 L260.69,844.17 ZM561.4,684.11 L561.12,747.35 L521.38,745.95 L567.55,765.54 L542.09,829.06 L519.98,810.03 L520.82,883.06 L449.75,882.78 L450.87,815.34 L411.97,852 L403.86,767.22 L448.07,745.67 L405.82,746.79 L406.1,683.83 L451.43,684.95 L451.43,670.68 L411.69,673.48 L407.5,615.27 L556.36,600.16 L561.4,664.52 L519.98,667.32 L519.98,684.95 L561.4,684.11 ZM568.95,808.63 L568.95,616.39 L619.88,616.67 L619.88,808.63 L568.95,808.63 ZM688.15,882.5 L590.78,880.82 L591.34,815.62 L622.68,816.74 L622.68,605.2 L688.15,605.2 L688.15,882.5 ZM853.99,683.83 L933.46,682.43 L937.37,713.49 L988.86,700.34 L998.09,766.94 L944.37,771.97 L949.41,796.32 L878.89,801.63 L880.01,789.32 L860.42,796.88 L859.3,815.34 L907.99,823.46 L988.86,804.15 L999.77,874.39 L908.83,881.1 L789.07,872.15 L787.11,818.14 L791.59,784.01 L779.28,817.3 L721.63,755.46 L782.91,678.51 L731.99,684.67 L731.15,619.47 L800.26,621.99 L806.14,601 L889.8,611.08 L883.65,621.43 L992.78,617.79 L993.62,679.63 L857.06,677.67 L853.99,683.83 ZM864.62,735.88 L822.09,738.67 L811.73,748.47 L864.62,735.88 ZM214.8,1112.15 L298.47,1112.15 L298.47,1106.83 L214.8,1106.83 L214.8,1112.15 ZM214.52,1151.88 L214.52,1157.2 L298.75,1157.2 L298.75,1151.88 L214.52,1151.88 ZM124.42,1203.09 L103.71,1113.27 L176.75,1050.03 L108.19,1051.15 L108.75,994.07 L207.53,995.19 L210.6,978.96 L297.91,981.75 L290.63,995.47 L386.89,994.35 L386.33,1051.43 L264.89,1050.03 L259.29,1055.35 L370.1,1055.63 L369.82,1262.69 L265.45,1260.18 L267.41,1203.65 L298.47,1204.77 L298.47,1200.01 L214.52,1200.01 L215.64,1261.57 L142.05,1261.85 L143.45,1180.43 L124.42,1203.09 ZM567.27,1191.62 L474.37,1193.3 L460.1,1129.78 L483.61,1064.02 L562.24,1066.26 L561.68,1059.26 L427.64,1062.62 L426.8,997.14 L560.84,997.98 L558.04,981.2 L643.1,980.08 L642.26,996.86 L701.31,994.63 L702.43,1058.98 L641.14,1058.15 L636.39,1080.53 L652.9,1154.96 L628.83,1245.62 L495.64,1263.25 L486.12,1198.33 L565.31,1196.38 L567.27,1191.62 ZM538.45,1138.45 L567.55,1139.29 L565.03,1125.86 L539.29,1125.02 L535.93,1131.74 L538.45,1138.45 ZM755.21,1047.79 L751.01,984.83 L987.46,985.11 L986.06,1050.03 L913.87,1079.41 L982.14,1083.05 L1006.49,1182.94 L945.49,1257.94 L779.55,1262.41 L743.18,1204.21 L775.08,1132.86 L888.68,1139.01 L915.27,1175.39 L927.3,1165.88 L919.18,1137.33 L746.26,1125.58 L745.42,1083.61 L857.34,1044.43 L755.21,1047.79 ZM838.04,1191.34 L825.72,1190.5 L818.17,1203.93 L847.27,1202.53 L838.04,1191.34 Z" fill="#FFFFFF" />
	</g>
	<g transform="matrix(1.2197645902633667, 0, 0, 1.2197645902633667, 207.40972900390625, 367.5025634765625)">
		<path d="M-57.64,18.71 Q-53.47,18.71 -51.91,18.55 Q-50.34,18.39 -49.71,18.14 Q-49.06,17.88 -48.93,17.57 Q-48.79,17.25 -48.79,16.66 L-48.79,12.22 L-62.15,12.22 L-62.15,26.27 L-69.39,26.27 L-69.39,-16.99 L-41.61,-16.99 L-41.61,17.71 Q-41.61,20.03 -42.21,21.65 Q-42.82,23.28 -44.31,24.23 Q-45.79,25.19 -48.07,25.52 Q-50.36,25.87 -54.34,25.87 L-57.64,18.71 ZM-73.36,-19.77 L-73.36,-26.73 L-57.82,-26.73 Q-57.82,-26.72 -59.13,-28.4 Q-60.44,-30.1 -62.55,-32.18 L-55.26,-35.05 Q-53.44,-32.8 -51.86,-30.59 Q-50.28,-28.39 -49.26,-26.73 L-37.67,-26.73 Q-36.42,-28.19 -34.93,-30.27 Q-33.44,-32.37 -32.13,-35.18 L-24.96,-32.48 Q-26.28,-30.02 -27.55,-28.32 Q-28.82,-26.62 -28.91,-26.64 L-13.33,-26.73 L-13.33,-19.77 L-73.36,-19.77 ZM-34.12,18.9 Q-29.71,18.9 -27.96,18.84 Q-26.2,18.77 -25.48,18.57 Q-24.75,18.34 -24.58,18.01 Q-24.4,17.66 -24.4,16.79 L-24.4,-17.45 L-16.96,-17.45 L-16.96,18.09 Q-16.96,20.63 -17.69,22.31 Q-18.42,24 -20.13,24.82 Q-21.83,25.66 -24.4,25.9 Q-26.98,26.14 -31.37,26.14 L-34.12,18.9 ZM-37.34,16 L-37.34,-14.85 L-30.1,-14.85 L-30.1,16 L-37.34,16 ZM-48.79,0.85 L-62.15,0.85 L-62.15,5.9 L-48.79,5.9 L-48.79,0.85 ZM-48.79,-10.27 L-62.15,-10.27 L-62.15,-5.48 L-48.79,-5.48 L-48.79,-10.27 ZM15.03,-17.5 Q16.94,-12.18 20.35,-6.8 Q23.78,-1.43 27.51,2.25 Q31.11,-1.48 34.3,-6.86 Q37.5,-12.26 39,-17.5 L15.03,-17.5 ZM54.08,26.06 Q45.89,23.6 39.29,20.14 Q32.7,16.68 27.65,12.33 Q22.48,16.81 15.48,20.41 Q8.48,24 -0.43,26.3 L-4.11,19.07 Q4.59,17 11.05,13.96 Q17.53,10.92 22.08,7.15 Q17.67,2.63 13.72,-3.83 Q9.76,-10.29 7.23,-17.5 L-2.09,-17.5 L-2.09,-24.72 L23.19,-24.72 L23.19,-34.67 L30.75,-34.67 L30.75,-24.72 L55.84,-24.72 L55.84,-17.5 L46.83,-17.5 Q44.8,-10.39 41.08,-3.91 Q37.38,2.55 33.02,7.14 Q37.4,10.73 43.54,13.63 Q49.7,16.54 57.84,18.71 L54.08,26.06 Z" fill="#FFFFFF" />
	</g>
</svg>